/* XPM */
static char * arrowup_xpm[] = {
"9 9 5 1",
" 	c None",
".	c #FFFFFFFFFFFF",
"X	c #D75CD75CD75C",
"o	c #000000000000",
"O	c #965896589658",
"    .    ",
"   .Xo   ",
"   .Xo   ",
"  .XXOo  ",
"  .XXOo  ",
" .XXXXOo ",
" .XXXXOo ",
".XOOOOOOo",
".XoooooOo"};
