/* XPM */
static char * image_name[] = {
"48 48 237 2",
"  	c None",
". 	c #46466A6A9494",
"X 	c #60607C7C8888",
"o 	c #363666669E9E",
"O 	c #727282827C7C",
"+ 	c #7A7A92927474",
"@ 	c #6E6E7A7A8080",
"# 	c #7A7A7C7C6A6A",
"$ 	c #6E6E6E6E6868",
"% 	c #34346C6CA6A6",
"& 	c #3C3C7676BCBC",
"* 	c #82829A9A9494",
"= 	c #8A8AA6A67C7C",
"- 	c #82829A9A7C7C",
"; 	c #868696966464",
": 	c #8E8E9A9A7474",
"> 	c #76768E8E6060",
", 	c #787886866464",
"< 	c #565662624C4C",
"1 	c #3C3C7C7CBCBC",
"2 	c #56568E8EBCBC",
"3 	c #BABAB8B8A4A4",
"4 	c #9696A6A69C9C",
"5 	c #7A7A9A9A9494",
"6 	c #767696969494",
"7 	c #9696A2A28C8C",
"8 	c #8E8E9E9E8C8C",
"9 	c #9696A6A67C7C",
"0 	c #8E8EA0A07474",
"q 	c #86869E9E7070",
"w 	c #6A6A86865454",
"e 	c #66667A7A5454",
"r 	c #424252523434",
"t 	c #3E3E7373AAAA",
"y 	c #4B4B7C7CAEAE",
"u 	c #B2B2B6B6ACAC",
"i 	c #DEDED6D6B1B1",
"p 	c #A6A6AEAEACAC",
"a 	c #79799595A9A9",
"s 	c #77778D8D8F8F",
"d 	c #6C6C8E8EA8A8",
"f 	c #989898989A9A",
"g 	c #ACACAAAA9494",
"h 	c #B6B6AEAE8888",
"j 	c #A2A29E9E8C8C",
"k 	c #626276767C7C",
"l 	c #818183837E7E",
"z 	c #AEAE9F9F7474",
"x 	c #B8B8ABAB7A7A",
"c 	c #92928E8E6464",
"v 	c #767672724444",
"b 	c #45457B7BB3B3",
"n 	c #60609090B8B8",
"m 	c #D4D4D4D4C4C4",
"M 	c #FAFAFAFAD3D3",
"N 	c #FAFAFAFAE9E9",
"B 	c #C2C2C2C2C0C0",
"V 	c #62628A8AACAC",
"C 	c #57578585A7A7",
"Z 	c #929293939696",
"A 	c #868692929494",
"S 	c #DADABEBE9494",
"D 	c #C0C0BCBC9191",
"F 	c #979798988888",
"G 	c #8E8E8E8E7C7C",
"H 	c #C3C3B6B68888",
"J 	c #D0D0C4C48D8D",
"K 	c #C6C6B0B06C6C",
"L 	c #A8A899995F5F",
"P 	c #3A3A3A3A2C2C",
"I 	c #52528585B5B5",
"U 	c #BEBECACAC4C4",
"Y 	c #F5F5F4F4BCBC",
"T 	c #FEFEFEFEEBEB",
"R 	c #BABAC6C6B4B4",
"E 	c #8282A2A2ACAC",
"W 	c #9696AEAEB4B4",
"Q 	c #606084849C9C",
"! 	c #AEAEA2A29494",
"~ 	c #CCCCB6B68989",
"^ 	c #F1F1D5D59C9C",
"/ 	c #E6E6CCCC9898",
"( 	c #AEAEA6A68484",
") 	c #AAAAB2B28C8C",
"_ 	c #C3C3BCBC8282",
"` 	c #272728282828",
"' 	c #CECEDADAD4D4",
"] 	c #FEFEFAFAD1D1",
"[ 	c #FEFEFEFED7D7",
"{ 	c #E6E6E6E6E4E4",
"} 	c #B2B2C2C2A0A0",
"| 	c #FDFDFAFAB2B2",
" .	c #F4F4ECECABAB",
"..	c #D3D3CACA9C9C",
"X.	c #8E8E9A9A8C8C",
"o.	c #C2C2B6B67474",
"O.	c #7E7E7A7A5454",
"+.	c #3F3F6C6C9C9C",
"@.	c #4C4C8383B8B8",
"#.	c #76769E9EBCBC",
"$.	c #FEFEFBFBBEBE",
"%.	c #E1E1DDDDA8A8",
"&.	c #FAFAEAEAA4A4",
"*.	c #FBFBF2F2A8A8",
"=.	c #DDDDD3D39E9E",
"-.	c #B7B7B2B28484",
";.	c #5E5E5E5E4C4C",
":.	c #D6D6DEDECCCC",
">.	c #FAFAF6F6BCBC",
",.	c #BABABEBE9C9C",
"<.	c #B6B6B9B99090",
"1.	c #9C9C96966868",
"2.	c #84847E7E5858",
"3.	c #96968E8E6C6C",
"4.	c #222222222424",
"5.	c #D2D2CCCCB4B4",
"6.	c #8D8D92927979",
"7.	c #9E9E9A9A7777",
"8.	c #A2A29A9A6464",
"9.	c #020202020404",
"0.	c #AAAABABAA4A4",
"q.	c #C0C0C6C69E9E",
"w.	c #E8E8E4E4B0B0",
"e.	c #F3F3E5E5A9A9",
"r.	c #EAEAE2E29C9C",
"t.	c #5E5E6A6A6767",
"y.	c #727272726767",
"u.	c #8E8EA6A6B4B4",
"i.	c #C1C1CBCB9F9F",
"p.	c #DEDEE2E2ACAC",
"a.	c #A6A6A2A28C8C",
"s.	c #E8E8D6D69898",
"d.	c #666664644848",
"f.	c #23233A3A5151",
"g.	c #6E6E6A6A4C4C",
"h.	c #68686A6A5050",
"j.	c #343434343535",
"k.	c #51518A8ABCBC",
"l.	c #6A6A9696B4B4",
"z.	c #9E9EB8B89090",
"x.	c #9E9EBEBE9494",
"c.	c #CACABEBE9C9C",
"v.	c #DEDECDCD9C9C",
"b.	c #BEBEB0B08282",
"n.	c #23233E3E5757",
"m.	c #32323E3E4C4C",
"M.	c #4E4E52524C4C",
"N.	c #0E0E0E0E0C0C",
"B.	c #8E8EB6B68C8C",
"V.	c #8282AEAE8C8C",
"C.	c #8E8EAEAE8484",
"Z.	c #A2A2B2B28C8C",
"A.	c #CCCCBDBD8A8A",
"S.	c #2F2F53537171",
"D.	c #262645456464",
"F.	c #343444445050",
"G.	c #4A4A4A4A4949",
"H.	c #616163636464",
"J.	c #878787878484",
"K.	c #7C7C7C7C7C7C",
"L.	c #3A3A6A6A9E9E",
"P.	c #9090A0A09C9C",
"I.	c #AAAAB6B68C8C",
"U.	c #9696B2B28C8C",
"Y.	c #E6E6C6C68C8C",
"T.	c #DFDFC4C49292",
"R.	c #34344C4C5E5E",
"E.	c #222246466161",
"W.	c #444452525C5C",
"Q.	c #727273737676",
"!.	c #797976766C6C",
"~.	c #A1A1A1A1A1A1",
"^.	c #B8B8B8B8B9B9",
"/.	c #545455555353",
"(.	c #45457474A5A5",
").	c #DADAC4C48C8C",
"_.	c #4E4E64647474",
"`.	c #3C3C3C3C3D3D",
"'.	c #666666666565",
"].	c #ACACACACAAAA",
"[.	c #BEBEBEBEBCBC",
"{.	c #929292928C8C",
"}.	c #A6A6A6A6A8A8",
"|.	c #4E4E4E4E4E4E",
" X	c #54547E7EA8A8",
".X	c #909086866868",
"XX	c #4E4E62626C6C",
"oX	c #26264A4A6E6E",
"OX	c #434343434444",
"+X	c #CACACACACCCC",
"@X	c #EEEEEEEEECEC",
"#X	c #333363639494",
"$X	c #B6B6A4A48080",
"%X	c #AAAA96967474",
"&X	c #555567677777",
"*X	c #2A2A52527070",
"=X	c #2B2B4D4D6E6E",
"-X	c #202042426464",
";X	c #2D2D45455C5C",
":X	c #2D2D5C5C8C8C",
">X	c #4B4B75759797",
",X	c #1E1E3D3D5757",
"<X	c #2E2E2E2E2C2C",
"1X	c #5D5D5D5D5F5F",
"2X	c #24244D4D7D7D",
"3X	c #E2E2D2D29C9C",
"4X	c #A2A2AAAA7C7C",
"5X	c #3B3B55556767",
"6X	c #CECEC6C6A4A4",
"7X	c #DADACECEA4A4",
"8X	c #A0A09F9F7474",
"9X	c #292955558282",
"0X	c #32325E5E8E8E",
"qX	c #404066668888",
"wX	c #929296967474",
"eX	c #B2B2B2B2B4B4",
"rX	c #8C8C8E8E8E8E",
"tX	c #69696A6A6969",
"yX	c #131313131414",
"uX	c #36365E5E8989",
"iX	c #3A3A62628E8E",
"pX	c #F6F6DEDEA4A4",
"aX	c #E6E6E8E8CCCC",
"sX	c #DCDCDCDCD8D8",
"dX	c #2E2E56568080",
"fX	c #9E9EACAC9090",
"gX	c #222236365454",
"hX	c #CECECECECCCC",
"jX	c #C6C6A2A27C7C",
"kX	c #7A7A6A6A6C6C",
"lX	c #0B0B13131C1C",
"zX	c #20203E3E6767",
"xX	c #1E1E45457777",
"cX	c #16162C2C4141",
"vX	c #09090B0B0D0D",
"bX	c #161622222C2C",
"nX	c #1A1A35355454",
"                                                                                                ",
"                                                                                                ",
"                                                                                                ",
"                                                                                                ",
"                                                                                                ",
"                                                                                                ",
"                                                                                                ",
"                                      . X o O + @ # $                                           ",
"                                % & & * = = - ; + : > , , <                                     ",
"                            % 1 2 3 4 5 6 7 8 9 0 q : ; > w e r                                 ",
"                          t 1 y u i p a s d f g h j k l z x x c v                               ",
"                        b y n m M M M N B V C Z A S D F G H ; J K L P                           ",
"                      1 I U Y M N T N T M R E W Q O ! ~ ^ / ( ) _ K L `                         ",
"                    & y ' ] ] N N M M [ M M N N { } 8 i |  ...X.o.K L O.                        ",
"                  +.@.#.N T T T T [ M M M $.M [ T M %.&.| *.=.J -.z L c ;.                      ",
"                  b @.:.N N N N M M [ T M >.[ N N M ,.<. .$.=.<.o.1.1.2.3.4.                    ",
"                % b I 5.%.$.[ [ [ M N N T M [ T T M %.s ..*.&.6.7.8.L 2.2.;.9.                  ",
"                1 @.@.0.,.q.w.Y M [ T T M [ M N M $. .s D e.*.r.-.t.$ c O.y.9.                  ",
"                t @.I u.} q.} i.i.p.Y Y  .>.$.$.$.*.e.a.8 &.*.*.s.d.f.;.g.h.j.9.                ",
"              o b @.k.k.l.a l.#.z.x.x.z.x.c.v.s.^ ^ S b.F =.=.( # n.f.m.;.h.M.N.9.              ",
"              % 1 y k.k.2 2 2 2 a x.B.V.V.C.Z.<.H A.H H ( O k S.D.n.F.G.H.y.J.K.j.9.            ",
"              L.b b @.I I k.C C P.I.z.C.U.U.I.<.A.A.A.Y.T.^ J R.E.W.j.G.Q.!.K.~.^./.9.          ",
"              o (.@.b I I I I I P.,.,.<.D -.H b.b.A.A.A.).)._.E.D.`.` G.'.].[.{.J.}.|.9.        ",
"              o t 1 @.@.@.I  X XV ..c.A.S A.~ x F x ~ z .XXXoXE.R.OXOXj.` '.+X@X{.{.Q.4.9.      ",
"              #X+.t (.b y y y y  X5.v.).T.S b.b.x $X%X&X*X=XE.-X;XM.j.` ` OX'.].^.K.'.`.9.9.    ",
"              :XL.+.y (.(.y >X>XQ i w.T.T._ h x b.L XX*X=XoX-X,Xn.!.`.4.<XM.'.$ y.1X/.OX9.9.    ",
"              2Xo % +.(.(.(.>X. 3 =.w.3XY._ 4X( z 8.5X*X=XE.,Xf.R.~.!.j.4.<X|.'.1X/.G.` 9.9.    ",
"              ,X:Xo +.+.+.+.+.. 6X7X=.=.J -.4X8X7.1.5XoXD.-X,XF.'.f ^.f 1Xj.<Xj.G.`.OX9.9.9.    ",
"                9X0Xo o L.qXL.qXA 7X3X7XJ -.8XwX6.l R.oX|.f.f.t.l J.u ^.eXrXtX/.G.OXyX9.9.9.    ",
"                -X:X0XuXiXiXiXiXX e.pXs.D o.8X, XXS.W.O.h.n.,X$ eXl ^.^.~.rX!.|.` j.9.9.9.9.    ",
"                  2X:X:X:X0XuX0XqXaXe.T.H -.8Xt.D.D.;.y.;Xf.,XR.^.sX^.].f J.'.`.<X4.9.9.9.      ",
"                  ,X2X*XdXdX9XdXdXfX&./ A.$Xy.R.E.D.d.W.,Xf.f.gXK.hX{ [.f K.H.OXj.9.9.9.9.      ",
"                    -X2X*X*X=X=X=X&XA.K jXkX;X-X-X-Xn.n.,X,X,X,XW.~.^.^.~.K.H.OXN.9.9.9.        ",
"                    lX-XD.D.oXoX2X2X2XS.;X-XzXzXzX,Xn.,X,Xf.,Xf.t.p eXJ.Q.'.`.N.9.9.9.9.        ",
"                      lXf.zXn.-XxXxXxXxX-XzXzXzX,X-Xn.-X,X,X,X;XK.[.}.H./.yX9.9.9.9.9.          ",
"                        lXgXzXzXzXzXzXzXzX-X-X,X-Xn.-X,X-X,X,XR.^.[.Z OX4.9.9.9.9.9.            ",
"                          9.cXzXzXzXzXzX,X,X,Xn.,Xn.-X,X-X,X,XF.sX+Xl j.vX9.9.9.9.              ",
"                            9.N.cXzXzX,XzX,X,Xf.n.,Xf.,X,XcXvX`.eX^.$ G.9.9.9.9.9.              ",
"                              9.9.9.bXcXnX,XzX,X,XnXcXlX9.9.9.tXrXtX`.vX9.9.9.9.                ",
"                                  9.9.9.9.9.9.9.9.9.9.9.9.9.4.l J.G.N.9.9.9.9.                  ",
"                                    9.9.9.9.9.9.9.9.9.9.9.9.`.l kX<X9.9.9.9.                    ",
"                                          9.9.9.9.9.9.9.9.9.1XK./.yX9.9.9.                      ",
"                                                            '.'.j.9.9.9.                        ",
"                                                            1XM.4.                              ",
"                                                              j.                                ",
"                                                                                                ",
"                                                                                                ",
"                                                                                                "};
