/* XPM */
static char * image_name[] = {
"48 48 245 2",
"  	c #C4C4CACAC6C6",
". 	c #BCBCBFBFBDBD",
"X 	c #B5B5BABABABA",
"o 	c #BCBCBABAB4B4",
"O 	c #C4C4C0C0B9B9",
"+ 	c #B3B3B5B5B1B1",
"@ 	c #C4C4C6C6C2C2",
"# 	c #ADADAEAEA9A9",
"$ 	c #A6A6AEAEACAC",
"% 	c #F0F0F0F0EFEF",
"& 	c #EAEAE9E9E7E7",
"* 	c #D2D2D2D2CFCF",
"= 	c #CDCDCCCCC6C6",
"- 	c #D2D2D6D6D4D4",
"; 	c #D6D6D9D9D6D6",
": 	c #DCDCDBDBDADA",
"> 	c #E2E2E2E2E1E1",
", 	c #D6D6DEDECCCC",
"< 	c #75757B7B7D7D",
"1 	c #4E4E52525151",
"2 	c #A6A6A9A9A9A9",
"3 	c #A2A2A8A8A4A4",
"4 	c #A0A0A2A2A2A2",
"5 	c #ACACB3B3B1B1",
"6 	c #97979C9C9C9C",
"7 	c #919196969494",
"8 	c #8F8F91919090",
"9 	c #89898F8F8D8D",
"0 	c #838388888787",
"q 	c #7C7C8E8E9090",
"w 	c #92929A9A9494",
"e 	c #9696A6A69C9C",
"r 	c #989896968E8E",
"t 	c #56565A5A5A5A",
"y 	c #4A4A4D4D4C4C",
"u 	c #9999A2A29999",
"i 	c #404044444444",
"p 	c #46464B4B4C4C",
"a 	c #7A7A82827D7D",
"s 	c #787889899494",
"d 	c #3B3B3D3D3C3C",
"f 	c #828286867878",
"g 	c #7A7A7E7E7C7C",
"h 	c #7E7E82828282",
"j 	c #5E5E76768C8C",
"k 	c #5C5C7C7C9494",
"l 	c #62627A7A8C8C",
"z 	c #393968689C9C",
"x 	c #6A6A7E7E7C7C",
"c 	c #868692927C7C",
"v 	c #73737A7A7272",
"b 	c #6A6A6E6E6C6C",
"n 	c #6D6D73737272",
"m 	c #52527B7BA2A2",
"M 	c #3C3C7676BCBC",
"N 	c #7E7E9A9A9494",
"B 	c #8A8AA6A67C7C",
"V 	c #85859D9D7474",
"C 	c #7A7A92927C7C",
"Z 	c #8E8E9C9C6C6C",
"A 	c #7A7A90906868",
"S 	c #767682825C5C",
"D 	c #646468686767",
"F 	c #747475757171",
"G 	c #8C8C88888282",
"H 	c #3A3A7E7EC4C4",
"J 	c #60609090B8B8",
"K 	c #BABAB6B6AAAA",
"L 	c #767696969C9C",
"P 	c #90909C9C8080",
"I 	c #9696A6A67C7C",
"U 	c #8E8EA2A27C7C",
"Y 	c #868696966464",
"T 	c #72728E8E5C5C",
"R 	c #6A6A86865454",
"E 	c #66667A7A5454",
"W 	c #5B5B63635858",
"Q 	c #36363A3A3B3B",
"! 	c #4E4E7D7DAFAF",
"~ 	c #48487D7DB5B5",
"^ 	c #DEDED6D6B4B4",
"/ 	c #7A7A9292ACAC",
"( 	c #6C6C8E8EA8A8",
") 	c #ACACAAAA9494",
"_ 	c #B6B6AEAE9898",
"` 	c #9F9F9C9C9494",
"' 	c #626276767C7C",
"] 	c #ADAD9F9F7777",
"[ 	c #B6B6AAAA6C6C",
"{ 	c #8E8E86865C5C",
"} 	c #7A7A76765C5C",
"| 	c #333336363434",
" .	c #58588A8AB7B7",
"..	c #FBFBFAFAD1D1",
"X.	c #BABAC6C6B4B4",
"o.	c #D6D6BEBE9C9C",
"O.	c #CCCCBABA8686",
"+.	c #C4C4B6B68989",
"@.	c #CFCFC6C69797",
"#.	c #C6C6B4B46C6C",
"$.	c #A8A899995F5F",
"%.	c #52528585B5B5",
"&.	c #F2F2F2F2C0C0",
"*.	c #FEFEFEFEE2E2",
"=.	c #F8F8F8F8F7F7",
"-.	c #FBFBFAFAE2E2",
";.	c #8282A2A2A8A8",
":.	c #9696AEAEB4B4",
">.	c #64648888A0A0",
",.	c #ABABA8A8A0A0",
"<.	c #CBCBB6B68C8C",
"1.	c #F2F2D4D49C9C",
"2.	c #E6E6CCCC9898",
"3.	c #ACACA6A68080",
"4.	c #AAAAB4B48C8C",
"5.	c #C7C7BEBE8989",
"6.	c #C6C6AEAE6C6C",
"7.	c #5A5A5E5E5B5B",
"8.	c #49497A7AABAB",
"9.	c #4D4D8383B9B9",
"0.	c #FEFEFEFED1D1",
"q.	c #B2B2C2C2A0A0",
"w.	c #8A8A9E9E9494",
"e.	c #DDDDD3D3A0A0",
"r.	c #FEFEFAFAB8B8",
"t.	c #F8F8E8E8A6A6",
"y.	c #D3D3CACA9C9C",
"u.	c #989890906C6C",
"i.	c #82827C7C5656",
"p.	c #76769C9CB8B8",
"a.	c #FEFEFEFEF7F7",
"s.	c #F9F9F7F7B9B9",
"d.	c #E1E1DDDDA8A8",
"f.	c #F2F2EEEEB0B0",
"g.	c #F9F9F1F1ADAD",
"h.	c #CFCFC0C08C8C",
"j.	c #BABAB4B48282",
"k.	c #AEAE9E9E6464",
"l.	c #92928E8E6464",
"z.	c #6B6B6E6E5454",
"x.	c #5E5E62626464",
"c.	c #BCBCBEBE9898",
"v.	c #BABAB4B49090",
"b.	c #A0A099996A6A",
"n.	c #525257575555",
"m.	c #2F2F30303030",
"M.	c #FAFAF2F2A0A0",
"N.	c #99999B9B7F7F",
"B.	c #6B6B69695050",
"V.	c #AAAABABAA4A4",
"C.	c #BABACACA9C9C",
"Z.	c #E6E6E6E6ACAC",
"A.	c #76768E8E8C8C",
"S.	c #EAEAE2E2A8A8",
"D.	c #5E5E6A6A6464",
"F.	c #6E6E72725C5C",
"G.	c #747472725C5C",
"H.	c #8E8EA6A6B4B4",
"J.	c #BEBEC6C69F9F",
"K.	c #C2C2CCCCA0A0",
"L.	c #DEDEE2E2ACAC",
"P.	c #F2F2E2E2A4A4",
"I.	c #E4E4D4D49C9C",
"U.	c #26263B3B4D4D",
"Y.	c #5A5A5A5A4444",
"T.	c #8E8EA2A29C9C",
"R.	c #4E4E72729494",
"E.	c #41417A7AB1B1",
"W.	c #51518A8ABCBC",
"Q.	c #9E9EBABA9090",
"!.	c #A0A0C0C09494",
"~.	c #C6C6C6C69C9C",
"^.	c #DDDDCDCD9D9D",
"/.	c #EBEBD5D59797",
"(.	c #EEEEDADA9494",
").	c #2E2E3E3E5454",
"_.	c #30303C3C4444",
"`.	c #3F3F6E6E9F9F",
"'.	c #56568E8EBCBC",
"].	c #9292B4B48C8C",
"[.	c #8282AEAE8C8C",
"{.	c #8282AAAA8484",
"}.	c #8E8EAEAE8484",
"|.	c #9F9FB5B58F8F",
" X	c #2F2F52527171",
".X	c #29294C4C7070",
"XX	c #1F1F3D3D5454",
"oX	c #27273E3E5C5C",
"OX	c #4E4E56564444",
"+X	c #40404A4A4C4C",
"@X	c #B9B9BABA9292",
"#X	c #E0E0C1C19191",
"$X	c #DEDEC6C69090",
"%X	c #242444446363",
"&X	c #B9B9AEAE7F7F",
"*X	c #D9D9C1C18787",
"=X	c #4F4F64647070",
"-X	c #46465E5E7474",
";X	c #7A7A7B7B6C6C",
":X	c #8E8E91917979",
">X	c #A4A4A2A29090",
",X	c #40407373A6A6",
"<X	c #C7C7BEBE9999",
"1X	c #C3C3BABA8484",
"2X	c #B8B8A8A87E7E",
"3X	c #969692928888",
"4X	c #3D3D52526464",
"5X	c #76766C6C6868",
"6X	c #31315F5F8E8E",
"7X	c #47477575A2A2",
"8X	c #D6D6D2D2BCBC",
"9X	c #B6B6A2A27C7C",
"0X	c #AAAA98987474",
"qX	c #2C2C56568383",
"wX	c #868682827C7C",
"eX	c #404066668888",
"rX	c #A2A2AAAA8484",
"tX	c #D2D2CCCCB4B4",
"yX	c #2A2A2D2D2C2C",
"uX	c #3F3F6A6A9797",
"iX	c #A1A19F9F7171",
"pX	c #3B3B57576F6F",
"aX	c #232325252323",
"sX	c #929296967474",
"dX	c #2C2C46465F5F",
"fX	c #AEAEA2A28C8C",
"gX	c #DADAD6D6D0D0",
"hX	c #1C1C1E1E1C1C",
"jX	c #3B3B62628B8B",
"kX	c #36365F5F8C8C",
"lX	c #F6F6DEDEA4A4",
"zX	c #2F2F4D4D6868",
"xX	c #262652527C7C",
"cX	c #EAEAEAEACCCC",
"vX	c #24244D4D7E7E",
"bX	c #646466665454",
"nX	c #52526A6A7C7C",
"mX	c #CECEB6B67C7C",
"MX	c #C6C6A2A27C7C",
"NX	c #20203E3E6060",
"BX	c #1E1E3E3E6E6E",
"VX	c #1E1E46467878",
"CX	c #26262A2A2929",
"ZX	c #202034344444",
"AX	c #E5E5E6E6E0E0",
"    . . . . . . X o X X . o . . . . . . . . o . . . . O . . X + X + + + X . . . @ @ @ . + X # $ ",
"o % & * * * * = * - - - * - - - - - - - ; - ; : > > > > : : - ; - ; ; , : : : > : > : ; ; X < 1 ",
"o : @ $ 2 $ $ 2 3 4 4 3 3 2 2 $ # 2 $ $ 5 5 $ 6 6 6 7 7 8 9 0 0 0 q 9 8 w 4 e 3 4 6 9 q r w t y ",
"X ; 3 8 7 7 7 7 8 9 8 8 8 7 6 6 w 6 6 6 6 w 7 w w 7 7 9 8 q 0 0 9 7 7 w 6 4 4 w 8 9 9 8 u 9 i p ",
"X - $ 8 9 w 7 w w w 7 w w 6 6 7 7 r 6 7 7 7 9 8 8 9 9 9 9 0 a 0 9 7 7 6 6 4 6 8 s 9 7 6 6 0 d i ",
"+ ; 5 w 7 w w 6 6 w w 7 7 6 7 7 w 7 8 8 8 0 0 9 8 q 0 9 s f s 0 8 8 7 6 3 e 7 0 9 7 6 6 6 0 d p ",
"+ - 5 7 8 6 7 6 6 6 7 7 7 6 6 8 7 8 9 0 0 0 0 0 0 0 g h f g g 0 q 8 w 6 4 w 9 0 7 6 6 6 6 0 d y ",
"+ ; $ u 7 7 6 w 6 6 w 7 7 6 7 7 9 s j k l z x c x g v b n n < g 0 0 8 6 6 9 0 8 w 6 7 6 6 q i y ",
"5 : $ 4 6 8 7 w 6 6 7 7 7 6 7 s m M M N B B V c C Z A A S b D F < 0 G 8 8 0 0 8 7 w 7 6 3 9 i p ",
"+ - 2 4 7 q 8 7 6 7 8 7 7 8 k H J K u N L u P I U V Z Y T R E W b n s 0 a g s 7 7 7 6 3 # 8 Q i ",
"+ ; 2 4 7 9 7 7 6 w 8 8 s ! ~ ! + ^ 5 / / ( 6 ) _ ` ' a ] [ [ { } D F g n < 0 9 8 6 3 $ $ 0 | i ",
"+ ; $ 6 6 8 6 6 6 7 8 s ~ !  .* ........X.( m 7 9 o.O.r 9 +.P @.#.$.b D D b h 0 8 6 2 2 4 g Q y ",
"+ ; 2 6 6 7 6 6 7 8 s ~ %.  &...*.=.*.-...X.;.:.>.s ,.<.1.2.3.4.5.6.$.7.t D F a 9 w 3 6 7 g Q p ",
"X - 2 8 w 6 7 7 8 0 8.9.- -.0.-.-.*.-.0...-.-...> q.w.e.r.t.y.P 5.#.u.i.y 7.n < 0 7 6 w 8 F | i ",
"X ; 3 8 7 6 7 8 q k ~ p.a.=.-.=.*...-.*.....0.-.-.s.d.f.r.g.e.h.j.k.$.l.z.1 x.F 0 7 7 w 7 n Q i ",
"+ ; 3 7 6 3 6 0 x ~ 9., -.*.*.*.-.0.*.....s...*.a.*.c.v.f.r.e.v.+.$.b.i.u.n.t b g 0 0 9 c n m.y ",
"X ; 2 6 6 4 7 h m ~ %.= d.s...0...-.*.a.*.*.-.-.-.0.d.q y.M.f.l.N.b.$.i.g B.1 x.b F < g h n Q 1 ",
"+ ; 3 6 4 3 7 < M 9.9.V.q.C.Z.&.0.*.-.-.-...*.*.0...f.A.c.t.M.S.j.D.F.{ i.G.i y n.x.n < s n Q 1 ",
"+ - 3 6 4 4 7 j M 9.9.H.J.q.J.J.K.L.&.&.f.g.r...s.M.P.] w t.M.M.I.x.U.Y.B.B.1 d y 7.b < 8 a Q y ",
"X * 3 T.4 u 0 R.E.9.W. .J p.J ;.Q.!.!.Q.Q.~.^./.(.1.o.+.P e.e.] } ).U._.Y.z.y Q i t D g 0 g d y ",
"5 = 2 4 3 6 f `.E.~ 9.W. .'. . .L !.].[.{.}.|.j.+.5.j.<.] x '  X.XXXoXU.OXB.i | i n.D v 0 < Q +X",
"$ - 2 6 4 7 v `.8.~ %.%.%. .%.%.T.Q.|.].].].4.@XO.O.O.#X$X(.h..X%XXXU.U.p Y.U.m.d y 7.n g n m.i ",
"5 * $ 6 6 0 n z M 9.9.9.%.W.%.m 6 c.@X4.+.&X+.v.+.O.h.O.*X$X=X-X;Xf :Xr >X,.# + o O O D < n | i ",
"X ; 3 6 w 9 n z ,XM ~ 9.%.9.m 9.>.y.<X*X*Xh.1X2X3Xj.+.k.{ -X4X5X_ } 8 3X` >X) K o O O n.b b | i ",
". ; 4 6 8 0 v 6X`.7X7X8.8.! 8.! m 8X^.#X#X#X+.&X2X9X0X=XqX=XwXo O } 3X8 ` >X# K o @ @ Q n.x.| i ",
"@ ; u 6 9 9 g eXz ,X7X7X8.8.8.7X>.8XS.^.*X1X&X2X[ 0X=X X-XG.o O O 5X:X3X` >X_ o O O @ m.p n.m.i ",
"@ ; 6 w 0 0 g eX6X`.,X`.,XR.,X`.@Xe.S.e.$X1XrX3.] b.4X XG.>Xo O @ G.3Xr ` ,.# O O tXtXyXi y m.i ",
". ; 4 7 9 9 g =X6Xz z `.`.`.uXuX@.^.e.I.h.&XrXiXb.u.pX.XG G.G.n 5XF r ` ,.,.+ O @ = = aXd y m.i ",
"@ ; 6 7 9 9 a n qX6X6Xz eXuXeXeX9 ^.e.e.~.j.iXsX:Xa dXdX3X3X3X3X8 3X` 4 fX# K O @ = gXhX| i yXi ",
"@ : 7 8 8 9 h n pXqX6X6XjXjXeXkXk S.lXI.1Xj.iXS =XzX4X} r r G G 3X3Xr ` 4 ,.+ o O 8XgXhXm.i yXd ",
"@ ; w 7 7 7 0 g D.xXqX6X6X6XkXkXeXcXt.^.j.&XiXD %X%X7.G.` ` ` ` ` fX2 ,._ K O O @ gXgXhX| i yXi ",
"@ : 7 8 8 8 9 < D 4XvXxXqXqXqXqXqXrXt.2.O.2XG.dX%XdXbXi fX` 3X3Xr 3X>X+ 2 ,.K O O * : hXm.i m.i ",
"  ; 7 7 7 8 9 h b x..X.XvXvX.X.X.XnXO.mXMX5XdX%XNXXX%XXX,.,.,.,.# + _ o O @ * * gX: > hXm.p m.i ",
"@ : 7 8 7 7 9 0 n D 1 %X%X%XzX.XvXvXvXzXdX%XNXBXBXXXXXXX# ,.6 ` ` 8 r ` K o O O gX> > hX| i yXi ",
"  ; 6 7 7 8 8 0 < b 7.1 oXoXNX%XVXVXVXVXBXBXBXXXNXXXU.XXo K ,.,.# # K o = = * * : > & hXm.d aXQ ",
"@ : 6 7 7 w 7 8 h F b 7.y oXNXBXBXBXBXBXBX%XXXXXXXNXXXXXo O G 8 ` G # * gX= @ = = : & hXyXd CXd ",
"@ ; 6 6 7 7 7 8 0 g F D t y _.BXoXNXNXXXBXXXXXXXXXNXXXNXO O ;XwXr 4 O * gXgXgX: > > % hXm.i m.d ",
"@ : 6 6 w 7 8 w 8 0 h n D n.p Q ZXBXXXBXXXBXBXXXXXXXXXXX@ = ;XwXG 4 o O O @ = = & % % hXm.i CXi ",
"@ : 6 7 7 w 7 6 7 q G < b x.1 i d | | ZXU.ZXBXZXBXZXZXaX@ = wXG o 4 = > > > & & % % =.aX| i yXi ",
". : 6 7 7 7 8 6 7 8 8 0 g b 7.n.p d _.Q m.m.CXyXaXaXCXm.= * @ O * @ gX> > = * gXgX=.=.aX| p m.i ",
"@ ; 6 7 7 7 8 w 6 w 6 8 0 < b x.t 1 p i i Q | | m.| m.| = gXgXgX: > > AX& > > & & =.a.CXQ i yXi ",
"@ ; 7 7 7 w 7 8 6 6 6 6 9 h < b D x.t n.y p i d i d d d 8XgXgX: > > AX& & % % =.a.a.a.yXd y m.i ",
"@ ; 6 6 6 7 7 7 4 4 4 6 8 G h g n b D D x.7.t 1 1 1 1 y 1 p i d d Q Q | | m.m.m.| CXaXm.d p yXi ",
"@ : 6 7 7 7 7 6 3 3 4 6 8 q 0 g g g < n 5Xn b D x.x.7.t x.n.y y p i i d d | | | | | m.m.i 1 m.i ",
"  ; 6 7 8 7 6 3 2 2 4 6 8 0 0 h a h h 0 g h g F 5Xb 5Xb F 5X7.7.7.Y.7.n.1 p p i y y y 1 t x.| i ",
"  = 6 9 7 7 6 3 3 u 6 8 8 q 0 0 0 9 8 0 G G 9 0 < < g F b b x.x.x.x.7.7.t t n.t t t 7.7.D 7.m.i ",
". 6 7.m.m._.Q d Q | yXaXaXCXaXaXaXaXCXCXCXaXaXaXaXaXaXaXm.m.m.m.m.m.yXyXyXyXyXm.m.m.CXm.yXCXCXi ",
"s t y i +Xy 1 1 1 y n.OXn.1 1 n.n.t n.t t t t t 1 y 1 1 n.t n.1 1 1 y y y y y y y y 1 y 1 y d n."};
