/* XPM */
static char * image_name[] = {
"20 20 249 2",
"  	c #CDCDCFCFCFCF",
". 	c #C3C3C7C7C6C6",
"X 	c #BFBFC3C3C2C2",
"o 	c #BDBDC1C1C0C0",
"O 	c #BEBEC1C1C0C0",
"+ 	c #C0C0C3C3C2C2",
"@ 	c #C2C2C5C5C4C4",
"# 	c #C2C2C5C5C5C5",
"$ 	c #C2C2C6C6C5C5",
"% 	c #C4C4C7C7C7C7",
"& 	c #C3C3C6C6C5C5",
"* 	c #BCBCC0C0BFBF",
"= 	c #B8B8BDBDBCBC",
"- 	c #BABABEBEBDBD",
"; 	c #C1C1C4C4C3C3",
": 	c #C6C6C9C9C8C8",
"> 	c #C5C5C7C7C7C7",
", 	c #B9B9BCBCBCBC",
"< 	c #848489898888",
"1 	c #C1C1C4C4C4C4",
"2 	c #9A9A9F9F9E9E",
"3 	c #97979C9C9B9B",
"4 	c #949499999898",
"5 	c #929297979696",
"6 	c #919196969595",
"7 	c #909095959494",
"8 	c #8C8C91919090",
"9 	c #6F6F72727171",
"0 	c #676769696565",
"q 	c #848487878080",
"w 	c #89898F8F8D8D",
"e 	c #7D7D84848282",
"r 	c #818187878585",
"t 	c #8D8D93939191",
"y 	c #98989D9D9C9C",
"u 	c #8A8A90908F8F",
"i 	c #919197979696",
"p 	c #4F4F53535353",
"a 	c #96969C9C9B9B",
"s 	c #939398989797",
"d 	c #96969B9B9A9A",
"f 	c #8E8E93939292",
"g 	c #8F8F94949393",
"h 	c #79797D7D7C7C",
"j 	c #494948484040",
"k 	c #B5B5B0B09393",
"l 	c #BFBFBBBB9B9B",
"z 	c #8F8F92928585",
"x 	c #3D3D3F3F3A3A",
"c 	c #767674746464",
"v 	c #9F9FA2A29B9B",
"b 	c #9B9BA0A09F9F",
"n 	c #8B8B91918F8F",
"m 	c #4B4B4F4F4F4F",
"M 	c #BEBEC2C2C1C1",
"N 	c #9C9CA1A1A0A0",
"B 	c #8F8F95959494",
"V 	c #95959A9A9999",
"C 	c #818186868585",
"Z 	c #727271716464",
"A 	c #C1C1BCBC9C9C",
"S 	c #C7C7C4C4A9A9",
"D 	c #939394948A8A",
"F 	c #5B5B5A5A4D4D",
"G 	c #C6C6C2C2A6A6",
"H 	c #BABABBBBB2B2",
"J 	c #8E8E94949292",
"K 	c #87878E8E8C8C",
"L 	c #4C4C50504F4F",
"P 	c #99999E9E9D9D",
"I 	c #939395958E8E",
"U 	c #AFAFADAD9797",
"Y 	c #D6D6D6D6CECE",
"T 	c #99999C9C9898",
"R 	c #979795958383",
"E 	c #D1D1CFCFC4C4",
"W 	c #A4A4A8A8A6A6",
"Q 	c #84848B8B8989",
"! 	c #9E9EA3A3A2A2",
"~ 	c #48484C4C4B4B",
"^ 	c #BEBEC3C3C2C2",
"/ 	c #818186868484",
"( 	c #59595B5B5A5A",
") 	c #59595B5B5757",
"_ 	c #6F6F72726D6D",
"` 	c #7E7E83837F7F",
"' 	c #939398989494",
"] 	c #7A7A7C7C7878",
"[ 	c #60605F5F5353",
"{ 	c #8F8F90908383",
"} 	c #9D9DA2A2A1A1",
"| 	c #A0A0A5A5A4A4",
" .	c #8C8C92929090",
"..	c #454549494848",
"X.	c #BFBFC2C2C2C2",
"o.	c #97979D9D9B9B",
"O.	c #8A8A91918F8F",
"+.	c #8B8B90908F8F",
"@.	c #484848484646",
"#.	c #5A5A53534848",
"$.	c #97978B8B7676",
"%.	c #9F9F94947D7D",
"&.	c #8E8E87877777",
"*.	c #8F8F90908A8A",
"=.	c #69696A6A6565",
"-.	c #A4A49D9D8787",
";.	c #C3C3C2C2BBBB",
":.	c #85858B8B8A8A",
">.	c #9B9BA1A1A0A0",
",.	c #898990908E8E",
"<.	c #86868B8B8A8A",
"1.	c #4D4D49494242",
"2.	c #989889897575",
"3.	c #AEAE9E9E8585",
"4.	c #AEAE9F9F8686",
"5.	c #ACACA0A08C8C",
"6.	c #9D9D9C9C9595",
"7.	c #9B9B9B9B9494",
"8.	c #A2A2A5A5A3A3",
"9.	c #99999E9E9C9C",
"0.	c #88888E8E8D8D",
"q.	c #4C4C51515050",
"w.	c #B9B9BEBEBDBD",
"e.	c #85858C8C8A8A",
"r.	c #87878D8D8B8B",
"t.	c #686863635B5B",
"y.	c #9B9B89897676",
"u.	c #A7A793937E7E",
"i.	c #A8A895957F7F",
"p.	c #ADAD9B9B8484",
"a.	c #B3B3A1A18B8B",
"s.	c #A1A19B9B8E8E",
"d.	c #505052525050",
"f.	c #5A5A56564F4F",
"g.	c #979798989393",
"h.	c #8E8E94949393",
"j.	c #4A4A4E4E4D4D",
"k.	c #8B8B91919090",
"l.	c #8A8A90908E8E",
"z.	c #83838A8A8888",
"x.	c #828284848080",
"c.	c #939387877B7B",
"v.	c #9F9F89897979",
"b.	c #A7A78F8F7D7D",
"n.	c #ADAD95958282",
"m.	c #AFAF98988585",
"M.	c #A0A093938585",
"N.	c #7D7D7D7D7979",
"B.	c #ACAC9F9F9393",
"V.	c #B8B8B8B8B7B7",
"C.	c #8D8D93939292",
"Z.	c #47474B4B4B4B",
"A.	c #828289898787",
"S.	c #818185858282",
"D.	c #6A6A5F5F5858",
"F.	c #A7A78C8C7C7C",
"G.	c #A9A98E8E7E7E",
"H.	c #A5A58B8B7A7A",
"J.	c #A0A091918787",
"K.	c #99999C9C9B9B",
"L.	c #A3A3A5A5A3A3",
"P.	c #99999D9D9C9C",
"I.	c #48484B4B4B4B",
"U.	c #929298989797",
"Y.	c #808087878585",
"T.	c #7C7C81817F7F",
"R.	c #3A3A34343232",
"E.	c #A4A486867979",
"W.	c #A1A182827575",
"Q.	c #9E9E81817373",
"!.	c #A5A597979393",
"~.	c #717175757373",
"^.	c #4E4E50504E4E",
"/.	c #595959595757",
"(.	c #434343434242",
").	c #424236363232",
"_.	c #9E9E7C7C7272",
"`.	c #989878786C6C",
"'.	c #9B9B7E7E7373",
"].	c #ACACA8A8A7A7",
"[.	c #49494D4D4C4C",
"{.	c #C3C3C6C6C6C6",
"}.	c #7E7E81818080",
"|.	c #33332E2E2D2D",
" X	c #55553F3F3C3C",
".X	c #707054544E4E",
"XX	c #727256565151",
"oX	c #8C8C69696363",
"OX	c #959571716969",
"+X	c #939370706767",
"@X	c #9A9A79797070",
"#X	c #AEAEADADACAC",
"$X	c #94949A9A9999",
"%X	c #4D4D51515050",
"&X	c #717173737272",
"*X	c #474734343232",
"=X	c #86865D5D5959",
"-X	c #8E8E64646060",
";X	c #919168686464",
":X	c #92926A6A6565",
">X	c #909069696363",
",X	c #92926C6C6666",
"<X	c #ADAD9B9B9797",
"1X	c #C0C0C0C0C0C0",
"2X	c #929296969696",
"3X	c #909096969595",
"4X	c #434347474646",
"5X	c #C4C4C7C7C6C6",
"6X	c #7E7E80807F7F",
"7X	c #57573F3F3F3F",
"8X	c #838357575555",
"9X	c #89895D5D5B5B",
"0X	c #8D8D60605E5E",
"qX	c #8D8D61615F5F",
"wX	c #8C8C61615E5E",
"eX	c #ADAD98989797",
"rX	c #DDDDDBDBDBDB",
"tX	c #A3A3A7A7A6A6",
"yX	c #86868D8D8B8B",
"uX	c #8E8E92929191",
"iX	c #74746B6B6969",
"pX	c #828258585757",
"aX	c #88885A5A5A5A",
"sX	c #8A8A5C5C5B5B",
"dX	c #8E8E6A6A6969",
"fX	c #C3C3B4B4B4B4",
"gX	c #D7D7D6D6D6D6",
"hX	c #A4A4A8A8A7A7",
"jX	c #8C8C92929191",
"kX	c #49494D4D4D4D",
"lX	c #838389898787",
"zX	c #888880807E7E",
"xX	c #91917C7C7B7B",
"cX	c #9A9A8F8F8F8F",
"vX	c #BCBCB5B5B5B5",
"bX	c #C3C3C4C4C4C4",
"nX	c #9F9FA3A3A2A2",
"mX	c #A1A1A6A6A5A5",
"MX	c #8F8F95959393",
"NX	c #8D8D92929191",
"BX	c #4E4E52525151",
"VX	c #515155555454",
"CX	c #45454A4A4949",
"ZX	c #46464A4A4949",
"AX	c #4B4B4F4F4E4E",
"SX	c #4F4F53535252",
"DX	c #4D4D52525151",
"FX	c #4E4E53535252",
"GX	c #424246464545",
"  . X o O + @ # $ # % & * = - ; : > , < ",
"1 2 3 4 5 6 7 8 9 0 q w e r t 2 y u i p ",
"X a s d f 7 g h j k l z x c v b n 4 i m ",
"M N B V s 3 7 C Z A S D F G H J K 4 3 L ",
"M 2 J d P b 6 5 I U Y T R E W Q 4 ! N ~ ",
"^ 3 V 4 2 d g / ( ) _ ` ' ] [ { } |  ...",
"X.o.P O.P d +.@.#.$.%.&.*.=.-.;.b y :...",
"o N >.,.N y <.1.2.3.3.4.5.6.7.8.9.K 0.q.",
"w.| d e.2 V r.t.y.u.i.p.a.s.d.f.g.h.h.j.",
"* ! k.l.N 5 z.x.c.v.b.n.m.M.N.B.V.5 C.Z.",
"& 3 7 6 b g A.r S.D.F.G.H.J.K.L.P.s f I.",
". s U.s 3 k.Y.A.T.R.E.W.Q.!.b b 7 s h.~ ",
"& 5 3 4 V ~.^./.(.)._.`.'.].d  .z.4 g [.",
"{.6 d 6 }.|. X.XXXoXOX+X@X#X5 t f 2 $X%X",
"> 5 V 6 &X*X=X-X;X:X>X,X<X1X2X6 5 3XQ 4X",
"5X4 s d 6X7X8X9X0XqXwXeXrXtX7 6 7 J yXZ.",
"& 5 6 d uXiXpXaXsXdXfXgXhX6 g f f 6 jXkX",
"& s 3XP O.lXzXxXcXvXbXnX4 l.O.jXg 5 B j.",
"5X6 5 mX2 O.yXMXd P MXMXjXk.NXNXg U.k.j.",
"+.L BXVXj.CXZXAX%X%X[.L SXDXq.%XFXBXAXGX"};
