/* XPM */
static char * image_name[] = {
"20 20 130 2",
"  	c #CECECECECCCC",
". 	c #C2C2C6C6C4C4",
"X 	c #BEBEC2C2C4C4",
"o 	c #BEBEC2C2BCBC",
"O 	c #C2C2C2C2C4C4",
"+ 	c #C6C6C6C6C4C4",
"@ 	c #BABABEBEBCBC",
"# 	c #C6C6CACACCCC",
"$ 	c #86868A8A8C8C",
"% 	c #9A9AA2A29C9C",
"& 	c #9A9A9E9E9C9C",
"* 	c #92929A9A9494",
"= 	c #96969E9E9C9C",
"- 	c #96969A9A9C9C",
"; 	c #8E8E96969494",
": 	c #8E8E92929494",
"> 	c #82828A8A8484",
", 	c #86868E8E8C8C",
"< 	c #929296969494",
"1 	c #8A8A92928C8C",
"2 	c #4E4E52525454",
"3 	c #A6A6A6A69C9C",
"4 	c #8E8E96968C8C",
"5 	c #8A8A8E8E8C8C",
"6 	c #86868A8A8484",
"7 	c #4A4A4E4E4C4C",
"8 	c #CACABEBE9C9C",
"9 	c #929292927474",
"0 	c #626266666464",
"q 	c #5E5E6A6A6C6C",
"w 	c #66666E6E6C6C",
"e 	c #76767E7E7C7C",
"r 	c #76767A7A7C7C",
"t 	c #7A7A7A7A7474",
"y 	c #C6C6B2B28C8C",
"u 	c #565656565454",
"i 	c #3E3E3E3E3C3C",
"p 	c #3A3A3E3E3C3C",
"a 	c #3E3E42424444",
"s 	c #525256565454",
"d 	c #5E5E62626464",
"f 	c #6A6A6E6E6C6C",
"g 	c #7A7A7A7A7C7C",
"h 	c #727276767474",
"j 	c #828286868484",
"k 	c #9E9EA2A29C9C",
"l 	c #9A9A86867C7C",
"z 	c #BEBE82826C6C",
"x 	c #5A5A3E3E3434",
"c 	c #5A5A5A5A5C5C",
"v 	c #626262626464",
"b 	c #46464E4E4C4C",
"n 	c #4E4E4E4E4C4C",
"m 	c #66666A6A6464",
"M 	c #8E8E8A8A7474",
"N 	c #66666A6A6C6C",
"B 	c #9E9E9E9E9494",
"V 	c #B6B69A9A8C8C",
"C 	c #AEAE82827474",
"Z 	c #6E6E56564C4C",
"A 	c #424246464444",
"S 	c #727272726C6C",
"D 	c #828282828484",
"F 	c #6E6E72727474",
"G 	c #666666666C6C",
"H 	c #6E6E6A6A6464",
"J 	c #9A9A92927C7C",
"K 	c #3E3E42423C3C",
"L 	c #9E9EA2A2A4A4",
"P 	c #8A8A8A8A8484",
"I 	c #5E5E5E5E5C5C",
"U 	c #4A4A46464444",
"Y 	c #76767A7A7474",
"T 	c #7E7E82827C7C",
"R 	c #6A6A6A6A6C6C",
"E 	c #929286868484",
"W 	c #BEBE9E9E8C8C",
"Q 	c #86866E6E5454",
"! 	c #323232323434",
"~ 	c #A2A2A6A6A4A4",
"^ 	c #7E7E82828484",
"/ 	c #9A9A9A9A8C8C",
"( 	c #9A9A96969494",
") 	c #969696968C8C",
"_ 	c #82827E7E7474",
"` 	c #82826E6E6464",
"' 	c #BABA76765C5C",
"] 	c #4A4A36362C2C",
"[ 	c #363636363434",
"{ 	c #7E7E7E7E7474",
"} 	c #AEAEAAAA8C8C",
"| 	c #5A5A5A5A5454",
" .	c #56565A5A5454",
"..	c #36363A3A3C3C",
"X.	c #4A4A4A4A4C4C",
"o.	c #2A2A2E2E2C2C",
"O.	c #1E1E22222424",
"+.	c #56565A5A5C5C",
"@.	c #46464A4A4C4C",
"#.	c #4E4E52524C4C",
"$.	c #2A2A2A2A2C2C",
"%.	c #46464A4A4444",
"&.	c #56565E5E5C5C",
"*.	c #4A4A4A4A4444",
"=.	c #26262A2A2C2C",
"-.	c #2E2E32323434",
";.	c #767676767C7C",
":.	c #666666666464",
">.	c #2E2E2E2E2C2C",
",.	c #222226262424",
"<.	c #3A3A3A3A3C3C",
"1.	c #5A5A5E5E5C5C",
"2.	c #7A7A7E7E7C7C",
"3.	c #8E8E8E8E8C8C",
"4.	c #AAAAA6A69494",
"5.	c #262622222C2C",
"6.	c #262626262424",
"7.	c #727272727474",
"8.	c #464646464C4C",
"9.	c #4A4A4A4A5454",
"0.	c #76766E6E6464",
"q.	c #363632323C3C",
"w.	c #16161A1A1C1C",
"e.	c #1A1A1A1A1C1C",
"r.	c #2E2E2E2E3434",
"t.	c #565656566464",
"y.	c #464646464444",
"u.	c #6E6E76767474",
"i.	c #7A7A82827C7C",
"p.	c #525252525454",
"  . X X o O . . . . + . o @ @ . # + @ $ ",
". % & * * = & & & - ; : > , < & - 1 < 2 ",
"O - < - 3 4 , 5 6 : * : , ; - = , * < 7 ",
"X % 6 8 9 0 q w e r r > 5 < % : < < = 2 ",
"X & t y u i p a 7 s d f e r g h j - k 7 ",
"X - l z x i c f f v 2 b n 0 m M t N $ 7 ",
"@ B V C Z A S : < 5 D F G f v H J K h 7 ",
"X L P I U c Y < = * 5 T S R E W Q ! w 2 ",
"@ ~ B > ^ 5 / / ( ) P _ 0 0 ` ' ] [ f 7 ",
"@ ~ ; < & ~ & { _ } | A K  . .] ! ..F X.",
". - ; - & ~ & 5 j ^  .o.O.n +.+.n X.h @.",
". * < < & ~ j n X.#.i $.O.i 7 v f @.r %.",
". < = - & r b &.+.Y f *.=.O.-.s h s r @.",
". < - * ^ X. .;.%.A j :.>.,.O.<.1.2 2.7 ",
"# < < - ;.[ v ~ g 3.4.I 5.O.$.6.>. .7.A ",
". - - ; +.8.@.9.+.G 0.U -.q.o.w.e.[ m A ",
". < : : ;.I X.[ r.r.r.r.r.>.5.=.-...t.y.",
". < < - < r d n i [ ! >.>.o.-.i  .1.u.%.",
"# ; ; k - j i.i.2.Y f q v 0 :.f 2.j i.@.",
"5 #.2 2 @.@.@.n 2 2 7 n p.7 #.7 2 7 X.A "};
