/* XPM */
static char * image_name[] = {
"20 20 134 2",
"  	c #CECECECECCCC",
". 	c #C2C2C6C6C4C4",
"X 	c #BEBEC2C2C4C4",
"o 	c #BEBEC2C2BCBC",
"O 	c #C2C2C2C2C4C4",
"+ 	c #C6C6C6C6C4C4",
"@ 	c #BABABEBEBCBC",
"# 	c #C6C6CACACCCC",
"$ 	c #86868A8A8C8C",
"% 	c #9A9AA2A2A4A4",
"& 	c #9A9A9E9E9C9C",
"* 	c #92929A9A9494",
"= 	c #929296969494",
"- 	c #96969E9E9C9C",
"; 	c #96969A9A9C9C",
": 	c #92929A9A9C9C",
"> 	c #8E8E92929494",
", 	c #82828A8A8C8C",
"< 	c #86868E8E8C8C",
"1 	c #8A8A92929494",
"2 	c #4E4E52525454",
"3 	c #8E8E96969494",
"4 	c #4A4A4E4E4C4C",
"5 	c #9A9AA2A29C9C",
"6 	c #8A8A8E8E8C8C",
"7 	c #8A8A92928C8C",
"8 	c #9E9EA2A2A4A4",
"9 	c #8E8E92928C8C",
"0 	c #76767A7A7474",
"q 	c #969692928484",
"w 	c #929292929494",
"e 	c #7A7A7E7E7C7C",
"r 	c #72726E6E5C5C",
"t 	c #46464A4A4444",
"y 	c #8A8A8A8A7C7C",
"u 	c #82827E7E7474",
"i 	c #828286868484",
"p 	c #9E9EA6A6A4A4",
"a 	c #76767A7A7C7C",
"s 	c #6E6E6A6A5454",
"d 	c #6A6A66665C5C",
"f 	c #424242424444",
"g 	c #9A9A92927474",
"h 	c #6A6A6E6E6C6C",
"j 	c #66665E5E4C4C",
"k 	c #5A5A56564C4C",
"l 	c #6A6A72726C6C",
"z 	c #3E3E42424444",
"x 	c #BEBEBEBEBCBC",
"c 	c #7E7E7A7A6C6C",
"v 	c #8E8E86866C6C",
"b 	c #6A6A62625454",
"n 	c #5E5E5E5E5C5C",
"m 	c #666662625454",
"M 	c #6E6E66665454",
"N 	c #5E5E56564444",
"B 	c #4A4A4A4A4444",
"V 	c #66666A6A6C6C",
"C 	c #7E7E86868484",
"Z 	c #D6D6D6D6D4D4",
"A 	c #B2B2AAAA9C9C",
"S 	c #C2C2BEBEB4B4",
"D 	c #EAEAEAEAE4E4",
"F 	c #CECECECEC4C4",
"G 	c #86867E7E6C6C",
"H 	c #62625A5A4C4C",
"J 	c #5A5A52524444",
"K 	c #56564E4E3C3C",
"L 	c #56564A4A3434",
"P 	c #424242423C3C",
"I 	c #6A6A6A6A6464",
"U 	c #424246464444",
"Y 	c #727272727474",
"T 	c #4E4E4E4E4C4C",
"R 	c #828282828484",
"E 	c #F2F2F2F2F4F4",
"W 	c #6E6E6E6E6C6C",
"Q 	c #EEEEEEEEECEC",
"! 	c #9E9E9A9A8C8C",
"~ 	c #4E4E4A4A3C3C",
"^ 	c #42423E3E3434",
"/ 	c #3E3E3A3A2C2C",
"( 	c #363636362C2C",
") 	c #363636363434",
"_ 	c #525256565454",
"` 	c #6E6E72727474",
"' 	c #6E6E72726C6C",
"] 	c #727276767474",
"[ 	c #8A8A86867C7C",
"{ 	c #B6B6B6B6ACAC",
"} 	c #9E9E9E9E9C9C",
"| 	c #DADADADADCDC",
" .	c #8A8A86867474",
"..	c #323232323434",
"X.	c #1E1E1E1E1C1C",
"o.	c #3E3E3E3E3C3C",
"O.	c #626266666464",
"+.	c #46464A4A4C4C",
"@.	c #464646464444",
"#.	c #7E7E76765C5C",
"$.	c #86867E7E6464",
"%.	c #92928E8E7C7C",
"&.	c #9A9A9A9A9494",
"*.	c #3E3E36362C2C",
"=.	c #262622221C1C",
"-.	c #262626262424",
";.	c #B6B6B6B6B4B4",
":.	c #525252525454",
">.	c #626262626464",
",.	c #7A7A76767474",
"<.	c #4A4A42423C3C",
"1.	c #4E4E46463C3C",
"2.	c #363632322C2C",
"3.	c #1A1A1A1A1C1C",
"4.	c #36363A3A3C3C",
"5.	c #5E5E62626464",
"6.	c #868686868484",
"7.	c #565652524444",
"8.	c #464642423434",
"9.	c #3A3A3A3A3434",
"0.	c #3A3A36362C2C",
"q.	c #222222221C1C",
"w.	c #4A4A46463C3C",
"e.	c #2A2A2A2A2424",
"r.	c #727262624C4C",
"t.	c #9E9E86866C6C",
"y.	c #7E7E82828484",
"u.	c #3A3A3A3A3C3C",
"i.	c #6E6E76767474",
"p.	c #76767E7E7C7C",
"a.	c #86868A8A8484",
"s.	c #82828A8A8484",
"d.	c #A2A2A6A6A4A4",
"f.	c #4E4E52524C4C",
"  . X X o O . . . . + . o @ @ . # + @ $ ",
". % & * = - & & % ; : > , < = & ; 1 = 2 ",
"O ; = - = ; : = 3 = * > $ > ; - < > 3 4 ",
"o 5 = 6 7 ; = 3 = - ; > 7 * 8 > 9 0 6 4 ",
"X & 3 6 q = w 3 ; - 3 7 < * 8 < e r $ t ",
"X - ; ; y u i $ = = < < * p 9 a s d 0 f ",
"X ; & < e g r h i < 6 6 & , h s j k l z ",
"x 8 & 6 6 c v r b n n n d m M j N B V t ",
"@ < a C w Z A S D F G d H J K L P 2 I U ",
"= Y T B R w E x W Q ! j ~ ^ / ( ) _ ` U ",
"' ] T ^ [ { A } [ |  .H ~ / ..X.o.O.e +.",
"R ) @.n b #.$.%.&. .j ~ ^ *.=.-.2 a , t ",
";.:.>.,.J H M M j N <.1./ 2.3.4.5.6.6 4 ",
"+ < V 7.^ 8.1.<.9.0.M N L *.2.T 0 3 : 2 ",
"+ = > V P -.3.q.( w.^ e.*.r.t.&.W e y.U ",
"+ ; 3 6 y.W 4 u.) ....u.U _ >.] 6 @._ +.",
". = = * = i i.V V O.>.h h p.y.] ] h B o.",
". ; 3 & 5 9 a.a.a.i s.$ s.6 > $ ] l y.4 ",
". = = d.& 1 < 1 ; & > > 1 9 > > $ e p.+.",
"6 f.2 _ 4 t +.4 f.4 4 4 2 2 f.f.2 2 +.U "};
