/* XPM */
static char * image_name[] = {
"48 48 238 2",
"  	c #C6C6CACAC9C9",
". 	c #BABABEBEBCBC",
"X 	c #BABABABABCBC",
"o 	c #B6B6BABABABA",
"O 	c #BEBEC2C2C4C4",
"+ 	c #BEBEBEBEBCBC",
"@ 	c #C2C2C2C2C4C4",
"# 	c #B2B2B6B6B4B4",
"$ 	c #B2B2BABAB4B4",
"% 	c #C2C2C6C6C4C4",
"& 	c #AAAAAEAEACAC",
"* 	c #F2F2F2F2F4F4",
"= 	c #EAEAEAEAECEC",
"- 	c #D2D2D2D2D4D4",
"; 	c #CECED2D2D4D4",
": 	c #CACACECECCCC",
"> 	c #CECED2D2CCCC",
", 	c #D2D2D6D6D4D4",
"< 	c #D6D6D6D6D4D4",
"1 	c #D6D6DADAD7D7",
"2 	c #DEDEDEDEDCDC",
"3 	c #E2E2E2E2E4E4",
"4 	c #DADADEDEDCDC",
"5 	c #DADADADADCDC",
"6 	c #72727A7A7A7A",
"7 	c #4E4E52525353",
"8 	c #AAAAAAAAACAC",
"9 	c #A6A6AEAEACAC",
"0 	c #A2A2AAAAA4A4",
"q 	c #A2A2A6A6A4A4",
"w 	c #A2A2A2A2A4A4",
"e 	c #9E9EA6A6A4A4",
"r 	c #A6A6AAAAAAAA",
"t 	c #AAAAB2B2ACAC",
"y 	c #AEAEAEAEACAC",
"u 	c #9A9AA2A29C9C",
"i 	c #9A9A9E9E9C9C",
"p 	c #92929A9A9494",
"a 	c #8E8E92929494",
"s 	c #8E8E96969494",
"d 	c #86868E8E8C8C",
"f 	c #828286868484",
"g 	c #7E7E86868484",
"h 	c #8A8A92929494",
"j 	c #96969A9A9C9C",
"k 	c #9E9EA2A2A4A4",
"l 	c #8A8A8E8E8C8C",
"z 	c #56565A5A5C5C",
"x 	c #4A4A4E4E4C4C",
"c 	c #929296969494",
"v 	c #8A8A92928C8C",
"b 	c #96969E9E9C9C",
"n 	c #969696969191",
"m 	c #929292929494",
"M 	c #82828A8A8787",
"N 	c #3E3E42423C3C",
"B 	c #46464A4A4B4B",
"V 	c #5E5E66666464",
"C 	c #7A7A82827C7C",
"Z 	c #86868A8A8A8A",
"A 	c #7E7E82828282",
"S 	c #3A3A3E3E3C3C",
"D 	c #424246464444",
"F 	c #AEAEB2B2B3B3",
"G 	c #262626262424",
"H 	c #5E5E5E5E5C5C",
"J 	c #7A7A82828484",
"K 	c #3A3A3A3A3C3C",
"L 	c #8A8A8A8A8C8C",
"P 	c #76767E7E7C7C",
"I 	c #3E3E3E3E3C3C",
"U 	c #9A9A9A9A9C9C",
"Y 	c #8E8E8E8E8C8C",
"T 	c #F6F6F6F6F2F2",
"R 	c #5A5A52524444",
"E 	c #6E6E72727272",
"W 	c #7A7A7E7E7C7C",
"Q 	c #868686868484",
"! 	c #CACACACACCCC",
"~ 	c #DEDEDADAD4D4",
"^ 	c #4E4E4A4A4444",
"/ 	c #7A7A7A7A7C7C",
"( 	c #A6A6A6A6A4A4",
") 	c #C6C6C6C6C4C4",
"_ 	c #EAEAE6E6DCDC",
"` 	c #DADAD6D6CCCC",
"' 	c #4E4E46463C3C",
"] 	c #6A6A6E6E6C6C",
"[ 	c #6E6E6E6E6C6C",
"{ 	c #767676767474",
"} 	c #363636363434",
"| 	c #3E3E42424444",
" .	c #AEAEB6B6B4B4",
"..	c #CACAC6C6BCBC",
"X.	c #CECECECECCCC",
"o.	c #B6B6B6B6B4B4",
"O.	c #B2B2B2B2B4B4",
"+.	c #FAFAFAFAFAFA",
"@.	c #CACAC2C2B2B2",
"#.	c #6A6A62625151",
"$.	c #626266666464",
"%.	c #66666E6E6C6C",
"&.	c #76767A7A7B7B",
"*.	c #424242424343",
"=.	c #E6E6E6E6E3E3",
"-.	c #E2E2E6E6E4E4",
";.	c #D6D6D2D2CCCC",
":.	c #BEBEB6B6A1A1",
">.	c #96968E8E7C7C",
",.	c #969686866C6C",
"<.	c #4A4A46463C3C",
"1.	c #4A4A42423434",
"2.	c #5A5A5E5E5C5C",
"3.	c #626262626464",
"4.	c #727272727474",
"5.	c #6A6A72726C6C",
"6.	c #323236363434",
"7.	c #FEFEFEFEFCFC",
"8.	c #EEEEF2F2F4F4",
"9.	c #EEEEEEEEECEC",
"0.	c #EAEAEEEEECEC",
"q.	c #DEDEE2E2E4E4",
"w.	c #828282828484",
"e.	c #A2A29E9E9494",
"r.	c #CECEC2C2ACAC",
"t.	c #8A8A7A7A6C6C",
"y.	c #66665E5E4C4C",
"u.	c #565656565454",
"i.	c #66666A6A6B6B",
"p.	c #B6B6AEAE9C9C",
"a.	c #A2A296968080",
"s.	c #5E5E56564444",
"d.	c #46463E3E3434",
"f.	c #4A4A52524C4C",
"g.	c #525256565454",
"h.	c #62626A6A6464",
"j.	c #2A2A2E2E2C2C",
"k.	c #F6F6FAFAF8F8",
"l.	c #9E9E92927C7C",
"z.	c #C6C6BABAACAC",
"x.	c #B2B2A6A69494",
"c.	c #929286866F6F",
"v.	c #6E6E62625050",
"b.	c #4A4A4A4A4C4C",
"n.	c #4E4E4E4E4C4C",
"m.	c #5E5E62626464",
"M.	c #2E2E2E2E2C2C",
"N.	c #72726E6E6464",
"B.	c #9A9A8E8E7878",
"V.	c #D2D2CACABCBC",
"C.	c #C6C6BEBEACAC",
"Z.	c #66665A5A4B4B",
"A.	c #4A4A3E3E3434",
"S.	c #5A5A5A5A5A5A",
"D.	c #52525A5A5757",
"F.	c #2E2E32323434",
"G.	c #3E3E46464444",
"H.	c #929292928484",
"J.	c #C2C2B6B6A4A4",
"K.	c #A2A292927C7C",
"L.	c #7E7E6E6E5959",
"P.	c #92928E8E8484",
"I.	c #BABAB2B29C9C",
"U.	c #828272726464",
"Y.	c #323232323434",
"T.	c #9E9E9E9E9C9C",
"R.	c #8A8A86867C7C",
"E.	c #9A9A92927C7C",
"W.	c #A6A69E9E8C8C",
"Q.	c #7A7A6E6E5C5C",
"!.	c #26262A2A2B2B",
"~.	c #727276767474",
"^.	c #82827A7A6464",
"/.	c #6E6E5E5E4C4C",
"(.	c #666666666464",
").	c #6A6A6A6A6C6C",
"_.	c #5A5A4E4E4242",
"`.	c #525246463C3C",
"'.	c #36363A3A3A3A",
"].	c #5E5E62625C5C",
"[.	c #2E2E32322C2C",
"{.	c #7E7E7E7E7C7C",
"}.	c #8E8E8A8A7E7E",
"|.	c #AAAAA2A28C8C",
" X	c #86867A7A6C6C",
".X	c #52524A4A3E3E",
"XX	c #86867E7E7474",
"oX	c #AEAEA2A28F8F",
"OX	c #56564E4E3C3C",
"+X	c #A6A69A9A8484",
"@X	c #B6B6AAAA9494",
"#X	c #AAAA9E9E8787",
"$X	c #8E8E7A7A6868",
"%X	c #9E9E92928484",
"&X	c #626256564444",
"*X	c #32322E2E2424",
"=X	c #020202020404",
"-X	c #3E3E36363434",
";X	c #2A2A2A2A2B2B",
":X	c #1A1A1A1A1C1C",
">X	c #222226262424",
",X	c #464646464444",
"<X	c #96968A8A7474",
"1X	c #56564A4A3C3C",
"2X	c #121212121414",
"3X	c #6E6E66665454",
"4X	c #DADACECEC0C0",
"5X	c #8A8A7E7E6464",
"6X	c #3E3E3A3A2C2C",
"7X	c #161616161414",
"8X	c #868682827474",
"9X	c #BEBEB2B29C9C",
"0X	c #222222222424",
"qX	c #767666665454",
"wX	c #42423A3A2C2C",
"eX	c #4E4E56565454",
"rX	c #D2D2C6C6B4B4",
"tX	c #A6A692927C7C",
"yX	c #BEBEB2B2A4A4",
"uX	c #0E0E12121414",
"iX	c #7E7E7A7A6C6C",
"pX	c #8E8E82826C6C",
"aX	c #525252525454",
"sX	c #3A3A32322C2C",
"dX	c #B2B2AAAA9C9C",
"fX	c #1E1E1E1E1C1C",
"gX	c #5A5A56564C4C",
"hX	c #62625A5A4C4C",
"jX	c #424236362C2C",
"kX	c #56565E5E5C5C",
"lX	c #1E1E22222424",
"zX	c #A6A696968484",
"xX	c #D6D6CECEC4C4",
"cX	c #C2C2BABAA8A8",
"vX	c #B2B2A2A28C8C",
"bX	c #6E6E76767474",
"nX	c #AEAEA6A69494",
"mX	c #7A7A6A6A5454",
"    . . . . . . X X o o . . . . O + . . + . . . . O O @ O . o # $ # # # o . O O % % % . # X & & ",
"X * = - ; ; - : > , , , - - , < , 1 < < 1 < , 2 3 2 2 4 2 5 < 1 < 1 1 1 5 5 2 2 2 3 2 1 1 o 6 7 ",
"o 2 % & 8 9 & 0 q w w e 0 r 9 & r 9 9 9 t y & u i i p a s d f g f d h s j i k e i j l d s j z x ",
"# 1 q a s c c s s h v a a c j j j c j i i b p n j s m s h d M f d a c c b i k n h M M h i d N B ",
"# 1 9 a s c n c p p c c p j p p p j j j p c s c n s a a v d M M h s c j V C j Z A M l p u M S D ",
"# , F s h p p j i j p c n j c c j p c c c a a p b c s s s d M d a m c j G H d g M a c c j J K B ",
"$ , F j a j p p b b p s p i j c j j c a s s c j b s v h l M f d v s p r L A C P f d l l n g I x ",
"# 1 t i c c j n U U c c j j b b p s h h a c p b U c l Y h Z d a a c n o T R E W g f Q L s g S x ",
"F < & u p a c c j p s s j U j c a h M d a c j p c a d Z d M M l l a c ! ~ R ^ / / P J f c M S D ",
"# 1 9 k c d h s j c a m s s m a h l l l h m a a h M l b j p & r ( t ) _ ` R ' ] ] [ { Z j g } | ",
" .< 9 u s d a s j c a c c s c Y c r q q O + . ..X.: ! % @ + . o o.O.5 +.@.#.' ^ $.%.&.Z a 6 } *.",
"# 1 r j c h k o o.# - - ; 3 =.=.-.2 2 5 < , X.: ! ) @ @ + X X o.O.j ;.:.>.,.<.1.2.3.4.W A 5.6.B ",
"# < r j p =.7.7.T T 8.9.0.= =.3 q.4 5 < - - X.:   ) @ + . o.# F 8 w.e.r.:.t.y.R u.2.i.[ E $.6.D ",
"# 1 q a c % +.T T 8.9.9.=.-.-.2 5 5 < , - X.! ) @ O . . o # O.F f A p.@.p.a.s.d.f.g.2.h.[ V j.| ",
"# 1 e l a q k.T * = -.=.=.3 3 2 5 < - ; : : ) % O + X o.o.# y c { W l.z.x.c.v.1.b.n.u.V ] m.M.*.",
"o < q s p i 2 8.0.=.5 - ) ) X.5 < , ; X.! ) O + + X o o.F 8 ( N.{ / B.V.C.,.Z.A.*.B x S.$.D.F.G.",
"o < q j i k O.9.= =.2 < ! + o.& o.@ : :   % + X o o.# O.& ( E $.{ W H.z.J.K.L.^ } K D 7 2.g.F.B ",
"o 1 q j i q p = = =.2 < X.% X O.8 r w 8 o.o.# # # # O.& r f 2.3.i.{ P.I.x.U.v.v.F.6.S x 2.m.Y.x ",
"# , e b k k n o 3 q.4 1 - ! % . O.8 ( T.n Q l n 8 F & r k H 2.3.i.] R.E.W.Q.Z.v.!.F.S x $.$.6.B ",
" .; q i e q s j 3 2 5 < - : ) @ + o.& q i A / / ~.&.L w E 2.H $.] [ R.^.#.B.v./.j.M.K x V V Y.D ",
"F X.e i q k d J - 2 1 < , X.! ) O X O.8 U w.W { { E i.3.H $.(.).] [ P.p.J.,._.`.S j.'.b.2.].[.G.",
"& ; ( k 0 i M W # 1 < - X.X.  % @ X o.y j {./ W { { [ ] [ ).[ 4.~.E }.p.|. X.XA.*.j.} *.z g.j.I ",
"# ; r i k c g A a < - - : ! ) @ O . o O.m A {.W {.{./ 4.~.~.~./ &.E XX XoX,.#.OXI '.F.*.g.g.j.S ",
"$ 1 e i b a g g l O ; ! ! % % O + X o # w.{.{.A {.W W / / &./ &.&.{ P.+X@X#XZ.' K K Y.S 7 g.j.I ",
"O < i i j c d M a r :   ) @ O . . o.O.F f W {.A A A C W W W W / &.~.}.C.+X$X.Xd.'.'.} K x 7 j.S ",
"O 1 u j s c a l l p ! ) @ O + X o.# O.k w.{.w.A w.{.W / {./ / W ~.&.}.oX%XU.&X*XK Y.j.} B x !.S ",
"% 1 i n h c s h m a O.% + X X # O.F y m f A w.A A {.W &.P W &./ ~.~.#XB.W.v.=X-X;X:X>X} ,Xx ;XS ",
"@ 5 b p a p a Y h s k + + X o # F & & Y w.w.A w.A W W W W / / P &.~.c.@.;.<X1X_.2X:X>XY.B x !.S ",
"% 5 j s a j s a a a a . o # O.O.y r r Q Q Q f Q Q A {.{.C C W / &.W 3XV.4X5X6X.X7X:XG } B x ;XS ",
"O 4 p c c j j s c v l w o O.O.& 8 ( i Q M f Q f f w.A A A {.W P ~.8X9Xz.B.-X;Xd.7X0X!.'.b.n.!.S ",
"@ 5 c c c j j p c a h c # F y 9 r q j Q f f Q Q f f f w.A {./ &.4.p.p.9Xa.qXwX1.:X>XM.| 7 eXM.| ",
"% 1 c s s b j c a l a l 8 & r ( q w a f w.f f f f w.A {.{.W W { (.4XrXr.W.tXL.OXG ;X6.*.g.u.M.D ",
"% 1 a c c p j c v l a v U 8 r w k T.Q f w.f w.w.g A J W W &.i.6.|.@.l.yX>.Q.&X.X;XY.S x m.m.F.D ",
"  4 j c p n p s l l l Y v r w w i j f w.A w.g g w.{.W W &.D uX_ ` iXQ.v.pX&X`..XY.} | aXm.m.F.| ",
") 5 p c j n j c l l h a d i k T.i c f w.A {.w.A W / &.m.:X7X:XsXdX6.R ' J.%XZ.Z.6.K D 7 2.u.;XS ",
") 5 j c j p j j s s a a Y a i i j l w.A A A W W {.E *.7X:XfX0Xj.6.K gXhXC.c.jXwXK S *.b.kXD.j.I ",
"% 5 b p j c p j c c c a Y Z j n c Q A W A A A W S.>XfXlXG j.[.K N B 4.z.V.zX-XsXI N B 7 2.].F.*.",
"% 1 i n c p c j c c p a v g l c m f A A W W E | >X0XG ;X6.} I ,Xn.g.}.xXrXdXOX_.N B b.g.$.m.[.G.",
"% 5 b c c c p j j c p a L w.P a l f A {.W S.j.!.j.j.6.K | D x g.2.3.Y xXC.U.Z.`.N b.n.z h.m.Y.*.",
"@ 1 j c a s c b b c j c h f { Z Z w.{.E b.} Y.Y.Y.K I ,Xn.aXD.$.] E }.dXl.pXt./.1.x f.S.(.V F.G.",
"% 4 j p c c a c j j b U h M / W f f 3.D | I S S I ,X7 z 2.2.h.5.&.W n cXoX&Xv.R ^ n.eX2.).$.6.D ",
"O 1 j c j c s c j i i b a Q J &.W m.g.n.x B D B x g.z $.i.] E / C f ,.J.vX5Xd.sX6X7 u.H ] h.Y.D ",
"@ 1 p c j c a j u k k i s Z W bX] $.m.g.g.aXaXg.2.].$.] ~.&.C A f Z l nXpX#.mXmXz u.2.$.4.h.6.D ",
"% 5 i j p c s b q q k p l M C ~.E %.$.m.H $.$.$.i.[ E 6 f M g l l v l L Q {.E i.$.$.$.5.6 ] 6.B ",
"  5 b c a s j q r q T.c d g J 6 4.E [ %.i.] ~.] 5.&./ A l a l a m c s a Z f W 4.E 4.4.{ A 5.6.B ",
"  : c h h c i 0 0 u p a Z g C 6 P 6 &.{ ~.&.W W 6 P g g P W 6 P P P P 6 ~.E %.%.h.h.h.i.i.3.} D ",
"O i z 6.Y.'.K K K } !.>XG >X>XlX0XlXlX>X0XlX>X0X>X0X>X!.6.6.6.6.'.} 6.6.6.Y.Y.F.M.M.F.F.F.j.!.,X",
"f D.x | B x f.7 f.f.g.7 x n.x x f.7 f.n.f.7 7 7 7 f.aXg.z 2.z kXz D.g.g.g.eX7 aXeXf.7 7 7 x *.kX"};
