/* XPM */
static char * image_name[] = {
"20 20 111 2",
"  	c #CECECECECCCC",
". 	c #C2C2C6C6C4C4",
"X 	c #BEBEC2C2C4C4",
"o 	c #BEBEC2C2BCBC",
"O 	c #C2C2C2C2C4C4",
"+ 	c #C6C6C6C6C4C4",
"@ 	c #BABABEBEBCBC",
"# 	c #C6C6CACACCCC",
"$ 	c #86868A8A8C8C",
"% 	c #9A9AA2A2A4A4",
"& 	c #9A9A9E9E9C9C",
"* 	c #92929A9A9494",
"= 	c #929296969494",
"- 	c #96969E9E9C9C",
"; 	c #96969A9A9C9C",
": 	c #8E8E92929494",
"> 	c #82828A8A8C8C",
", 	c #86868E8E8C8C",
"< 	c #96969A9A9494",
"1 	c #8A8A92929494",
"2 	c #4E4E52525454",
"3 	c #969696969494",
"4 	c #8E8E96969494",
"5 	c #8A8A92928C8C",
"6 	c #4A4A4E4E4C4C",
"7 	c #8A8A8E8E8C8C",
"8 	c #8E8E8E8E8C8C",
"9 	c #9A9A9A9A9494",
"0 	c #A6A6AAAAACAC",
"q 	c #A2A2A6A6A4A4",
"w 	c #828286868484",
"e 	c #46464A4A4C4C",
"r 	c #B6B6B2B2B4B4",
"t 	c #CECECACACCCC",
"y 	c #DEDEDEDEDCDC",
"u 	c #E2E2E2E2E4E4",
"i 	c #C2C2BEBEBCBC",
"p 	c #F6F6F6F6F4F4",
"a 	c #DADADADADCDC",
"s 	c #7E7E82828484",
"d 	c #424246464444",
"f 	c #B6B6B6B6B4B4",
"g 	c #EAEAE6E6E4E4",
"h 	c #FAFAFAFAFCFC",
"j 	c #FEFEFEFEFCFC",
"k 	c #66666A6A6464",
"l 	c #3E3E42424444",
"z 	c #BEBEBEBEBCBC",
"x 	c #9A9AA2A29C9C",
"c 	c #AAAAA6A6A4A4",
"v 	c #B2B2B2B2B4B4",
"b 	c #BABABABABCBC",
"n 	c #EEEEEEEEECEC",
"m 	c #AAAAAEAEACAC",
"M 	c #525256565454",
"N 	c #3A3A3E3E3C3C",
"B 	c #8E8E8A8A8C8C",
"V 	c #A2A2A2A29C9C",
"C 	c #AAAAAAAAA4A4",
"Z 	c #6A6A66666464",
"A 	c #7E7E7A7A7474",
"S 	c #E6E6E6E6E4E4",
"D 	c #626266666464",
"F 	c #3A3A3A3A3C3C",
"G 	c #9E9EA2A2A4A4",
"H 	c #7A7A76767474",
"J 	c #868682827C7C",
"K 	c #92928E8E8C8C",
"L 	c #565656565454",
"P 	c #D2D2D2D2D4D4",
"I 	c #EAEAEAEAECEC",
"U 	c #D6D6D6D6D4D4",
"Y 	c #363636363434",
"T 	c #4E4E4E4E4C4C",
"R 	c #6A6A6A6A6C6C",
"E 	c #626262626464",
"W 	c #72726E6E6C6C",
"Q 	c #7A7A7A7A7C7C",
"! 	c #82827E7E7C7C",
"~ 	c #B2B2B2B2ACAC",
"^ 	c #CACACACAC4C4",
"/ 	c #7E7E7E7E7C7C",
"( 	c #323236363434",
") 	c #7A7A7E7E7C7C",
"_ 	c #666666666464",
"` 	c #767672726C6C",
"' 	c #46464A4A4444",
"] 	c #CACACACACCCC",
"[ 	c #424242424444",
"{ 	c #5A5A5E5E5C5C",
"} 	c #6E6E72726C6C",
"| 	c #AEAEAEAEACAC",
" .	c #BEBEBABABCBC",
"..	c #2A2A2A2A2C2C",
"X.	c #727276767474",
"o.	c #6A6A6E6E6C6C",
"O.	c #5A5A5A5A5C5C",
"+.	c #4A4A4A4A4C4C",
"@.	c #62625E5E5C5C",
"#.	c #C2C2C2C2BCBC",
"$.	c #2A2A2E2E2C2C",
"%.	c #5E5E62626464",
"&.	c #666662625C5C",
"*.	c #5E5E5E5E5C5C",
"=.	c #7A7A82827C7C",
"-.	c #56565A5A5C5C",
";.	c #76767A7A7C7C",
":.	c #6E6E72727474",
">.	c #5E5E66666464",
",.	c #66666A6A6C6C",
"<.	c #929292928C8C",
"  . X X o O . . . . + . o @ @ . # + @ $ ",
". % & * = - & & % ; * : > , = & < 1 = 2 ",
"O < 3 - = ; * = 4 = * 5 > 1 ; - , * = 6 ",
"X % 4 ; = - ; 4 = ; = 7 7 : & 8 : 3 - 2 ",
"o & : - ; 9 ; = * * & 0 q - 4 w 1 - & e ",
"X - ; = = * = 4 r t y u i y p a X 0 s d ",
"X - & 1 = ; 9 0 r f O +   g h j j y k l ",
"z x % 7 4 = & c v b i + a n h j j m M N ",
"@ q - > 7 B 3 V C 0 Z A a S p j h D 2 F ",
"z G , H H J K 9 c L 0 b P u I p U Y T N ",
". = R E W Q J B ! L ! ~ ^ a S n / ( M N ",
". : ) _ _ ` ! ! ' K M Q O P a ] ( N E [ ",
". : 7 H { E } ! K 9 c |  .t U W ..e X.' ",
"+ 4 : s o.O.+.@.! K 9 C f #.f $.( %.s 6 ",
"+ = * 1 $ ) %.6 T &.K V C  .*.$.N k ) d ",
". < = < * = =.X.o.-.+.Z 3 B $.Y T X.> e ",
". = = ; & ; , $ $ ;.D -.e +.Y l -.) 5 6 ",
". * 4 & G = : 4 = 7 s :.>.M 2 2 ,.> <.6 ",
"+ = * q % 5 , 4 - & 5 w ) X.o.} s 1 7 6 ",
"1 T 2 M 6 e e 6 6 T +.6 2 6 6 6 6 2 2 d "};
