/* XPM */
static char * image_name[] = {
"48 48 244 2",
"  	c #C6C6CACAC6C6",
". 	c #BBBBBEBEBBBB",
"X 	c #B8B8BABAB9B9",
"o 	c #BEBEC2C2C4C4",
"O 	c #C2C2C2C2BCBC",
"+ 	c #B2B2B6B6B4B4",
"@ 	c #B2B2BABAB4B4",
"# 	c #C3C3C6C6C2C2",
"$ 	c #AAAAAEAEABAB",
"% 	c #EEEEF2F2F4F4",
"& 	c #EDEDEAEAE0E0",
"* 	c #D2D2D2D2CACA",
"= 	c #CECED2D2D3D3",
"- 	c #CCCCCECEC8C8",
"; 	c #D2D2D6D6D4D4",
": 	c #D8D8DADAD8D8",
"> 	c #DADADEDEDCDC",
", 	c #E0E0E2E2E0E0",
"< 	c #E0E0DEDED6D6",
"1 	c #72727A7A7777",
"2 	c #4F4F52525353",
"3 	c #A6A6AEAEACAC",
"4 	c #A4A4AAAAA8A8",
"5 	c #A2A2A6A6A4A4",
"6 	c #9D9DA2A2A3A3",
"7 	c #ACACB2B2B0B0",
"8 	c #B0B0AEAEACAC",
"9 	c #9A9A9E9E9C9C",
"0 	c #94949A9A9999",
"q 	c #8C8C92929191",
"w 	c #8E8E96969494",
"e 	c #86868E8E8C8C",
"r 	c #7E7E86868484",
"t 	c #828286868484",
"y 	c #9E9EA6A6A4A4",
"u 	c #8A8A8E8E8C8C",
"i 	c #52525A5A5454",
"p 	c #49494E4E4C4C",
"a 	c #929296969494",
"s 	c #96969E9E9C9C",
"d 	c #979796969494",
"f 	c #84848A8A8888",
"g 	c #3F3F42424343",
"h 	c #46464A4A4C4C",
"j 	c #929292928D8D",
"k 	c #8F8F8A8A8585",
"l 	c #85857A7A7171",
"z 	c #868682827E7E",
"x 	c #8A8A8A8A8787",
"c 	c #3E3E3E3E3C3C",
"v 	c #444446464444",
"b 	c #AEAEB6B6B4B4",
"n 	c #979792928F8F",
"m 	c #96968C8C8484",
"M 	c #929282827474",
"N 	c #A6A692928484",
"B 	c #858576766C6C",
"V 	c #9E9E8E8E7E7E",
"C 	c #76767E7E7C7C",
"Z 	c #7B7B7E7E7C7C",
"A 	c #3A3A3E3E3C3C",
"S 	c #7B7B6A6A5C5C",
"D 	c #B0B09E9E9898",
"F 	c #C2C2AEAE9C9C",
"G 	c #9B9B8A8A7C7C",
"H 	c #AFAF96968C8C",
"J 	c #6E6E6E6E6B6B",
"K 	c #6E6E72727373",
"L 	c #727276767474",
"P 	c #7D7D82828282",
"I 	c #9E9E9A9A9898",
"U 	c #878786868383",
"Y 	c #96967E7E7474",
"T 	c #858572726565",
"R 	c #91917A7A6C6C",
"E 	c #83836E6E6565",
"W 	c #565656565454",
"Q 	c #606062626262",
"! 	c #A2A28E8E7C7C",
"~ 	c #BABAA2A29494",
"^ 	c #92927E7E7474",
"/ 	c #4F4F4E4E4C4C",
"( 	c #525256565454",
") 	c #67676A6A6B6B",
"_ 	c #AEAE92928484",
"` 	c #B4B4A2A29898",
"' 	c #AAAA9A9A8989",
"] 	c #969682827575",
"[ 	c #1B1B16161414",
"{ 	c #464642424444",
"} 	c #37373A3A3A3A",
"| 	c #969686867474",
" .	c #9D9D86867C7C",
"..	c #262622222020",
"X.	c #505046464242",
"o.	c #626266666464",
"O.	c #767676767171",
"+.	c #9A9A82827474",
"@.	c #606052524C4C",
"#.	c #46463E3E3C3C",
"$.	c #7C7C66665C5C",
"%.	c #6F6F5A5A5353",
"&.	c #424236363030",
"*.	c #59594A4A4444",
"=.	c #56565A5A5B5B",
"-.	c #76767A7A7B7B",
";.	c #585852524C4C",
":.	c #AFAFAAAAA6A6",
">.	c #7C7C6E6E6464",
",.	c #7A7A72726C6C",
"<.	c #909076766C6C",
"1.	c #696956564C4C",
"2.	c #4A4A46464444",
"3.	c #5B5B5A5A5A5A",
"4.	c #4A4A4A4A4747",
"5.	c #5A5A56565454",
"6.	c #747472726F6F",
"7.	c #8F8F8E8E8989",
"8.	c #828282827E7E",
"9.	c #323236363434",
"0.	c #A6A68A8A7C7C",
"q.	c #BCBCA6A69898",
"w.	c #787862625959",
"e.	c #49493A3A3434",
"r.	c #8A8A77776C6C",
"t.	c #62624E4E4444",
"y.	c #363632322C2C",
"u.	c #71715E5E5757",
"i.	c #979776766C6C",
"p.	c #BABA9A9A8C8C",
"a.	c #83837E7E7878",
"s.	c #69695A5A5151",
"d.	c #78785E5E5454",
"f.	c #7B7B7A7A7878",
"g.	c #E2E2B2B2A4A4",
"h.	c #AEAE8A8A7C7C",
"j.	c #A9A9A2A29C9C",
"k.	c #6A6A72727070",
"l.	c #69696E6E6C6C",
"z.	c #7C7C76767070",
"x.	c #C2C29A9A8C8C",
"c.	c #A3A386867C7C",
"v.	c #A2A27E7E7474",
"b.	c #919172726A6A",
"n.	c #363636363434",
"m.	c #4A4A52524C4C",
"M.	c #494936363434",
"N.	c #313132323333",
"B.	c #B8B8B6B6AFAF",
"V.	c #BEBEBABAB4B4",
"C.	c #595946463E3E",
"Z.	c #2F2F2E2E2C2C",
"A.	c #72726A6A6464",
"S.	c #D2D2CECEC6C6",
"D.	c #BABAAAAAA4A4",
"F.	c #868646464C4C",
"G.	c #C2C2BEBEB6B6",
"H.	c #C7C7C2C2BBBB",
"J.	c #C6C6BEBEB4B4",
"K.	c #838366665C5C",
"L.	c #8A8A6A6A5C5C",
"P.	c #A6A682827474",
"I.	c #9E9E7A7A6C6C",
"U.	c #84846A6A5C5C",
"Y.	c #676752524B4B",
"T.	c #62626A6A6464",
"R.	c #E9E9E6E6DDDD",
"E.	c #D6D6D2D2CACA",
"W.	c #AEAE9A9A9494",
"Q.	c #787836363C3C",
"!.	c #9E9E96969494",
"~.	c #CACAC6C6BDBD",
"^.	c #CDCDCACAC3C3",
"/.	c #9E9E92928C8C",
"(.	c #808062625C5C",
").	c #8E8E6E6E6464",
"_.	c #707056564C4C",
"`.	c #69694E4E4444",
"'.	c #42423A3A3434",
"].	c #B8B8B2B2ACAC",
"[.	c #78782E2E3434",
"{.	c #61614A4A4444",
"}.	c #757566665E5E",
"|.	c #666661615C5C",
" X	c #DEDEDADAD1D1",
".X	c #BEBEB6B6B4B4",
"XX	c #424232322C2C",
"oX	c #585842423C3C",
"OX	c #30302A2A2929",
"+X	c #AAAA9E9E9494",
"@X	c #78785A5A5454",
"#X	c #525242423C3C",
"$X	c #2A2A2E2E2C2C",
"%X	c #C3C3BABAB2B2",
"&X	c #D9D9D6D6CECE",
"*X	c #6A6A4A4A4444",
"=X	c #7E7E5E5E5454",
"-X	c #50503A3A3434",
";X	c #2C2C22221C1C",
":X	c #57573E3E3636",
">X	c #A5A59E9E9898",
",X	c #D6D6CECEC4C4",
"<X	c #6E6E52525050",
"1X	c #5E5E5E5E5C5C",
"2X	c #A9A9A6A6A0A0",
"3X	c #66662E2E3434",
"4X	c #606046463D3D",
"5X	c #40402E2E2929",
"6X	c #30301E1E1C1C",
"7X	c #5E5E42423C3C",
"8X	c #51513E3E3434",
"9X	c #666636363C3C",
"0X	c #62623E3E4444",
"qX	c #4F4F36363131",
"wX	c #28282A2A2A2A",
"eX	c #828256565C5C",
"rX	c #6E6E42424C4C",
"tX	c #DEDED6D6CCCC",
"yX	c #474732322C2C",
"uX	c #E6E6E2E2D7D7",
"iX	c #49492E2E2929",
"pX	c #3F3F2A2A2424",
"aX	c #3D3D26262323",
"sX	c #4E4E32322C2C",
"dX	c #686866666060",
"fX	c #A2A29A9A9C9C",
"gX	c #343422221C1C",
"hX	c #424226262424",
"jX	c #3A3A22221C1C",
"kX	c #323226262424",
"lX	c #2D2D26262424",
"zX	c #59595E5E5C5C",
"xX	c #2E2E1A1A1616",
"cX	c #262616161414",
"vX	c #36361E1E1F1F",
"bX	c #32321A1A1414",
"nX	c #24241E1E1C1C",
"mX	c #22221A1A1414",
"MX	c #1C1C1A1A1818",
"NX	c #161612121111",
"BX	c #262626262424",
"VX	c #B2B28E8E7C7C",
"CX	c #0A0A0A0A0C0C",
"ZX	c #626256564C4C",
"    . . . . . . X X X X . . . . o . . . . . . . . o o O o . X + @ + + + X . o o # # # . + X $ $ ",
"X % & * = = = - = ; ; ; = * ; ; ; : ; ; : ; ; > , < > > < : ; : ; : : : : : < < > , > : : X 1 2 ",
"X > # 3 4 $ 3 4 5 6 6 5 4 4 $ $ 4 $ $ 3 7 8 $ 6 9 9 0 q w e r t t e q w 0 9 y 5 6 0 u e w 0 i p ",
"+ : 5 q a a a a w q q q q a a a 0 a 0 9 9 s 0 d 0 a q w q e f r e q w a 9 6 6 0 q u e q 6 u g h ",
"+ : $ q w a a a 0 0 j k l z u x e a a 0 0 w w a a a q q q e f f w a a 0 9 6 9 q f e w 0 6 f c v ",
"b ; 7 a q 0 0 0 s n m M N B V C Z t q a a q q 0 s a w w w e f e q a 0 6 5 6 w f e a 0 0 s r A h ",
"@ ; 7 0 q 0 0 0 j k S D F G H J K L P f w a a 0 9 a q q q e e q w a 0 6 5 0 f f a 9 I 0 9 t A p ",
"+ : 7 9 a a 0 k U Y B T R T T E W Q L r q a s 6 9 0 q a w q q a a s 6 6 6 q f q 0 0 0 0 s e g p ",
"7 ; $ 6 0 q n d ! ~ V V V ^ R E / ( ) Z w 0 9 9 9 0 q q q q w 0 a 0 6 y I e e 0 0 0 a 0 y q g h ",
"+ : 3 6 a u j a _ ! ` H ' N ] [ { p Q C q 9 s s 0 w w w q q q q a 9 y 6 w f q a a a 9 5 $ e } g ",
"b ; 3 6 0 e k n S G ' ! |  .T ..X.v Q Z q I 9 9 d t o.v c W z z O.z n 6 q f 0 0 0 s 4 $ $ t } v ",
"+ : 4 s a q 0 s +.N @.#.$.l %.&.*.v =.-.q s 6 9 1 v ;.v K t u w x k f w e e a a 0 6 $ $ 6 P } p ",
"+ : :.0 s 0 0 0 ! N >.,.<.S 1.%.2.g 3.Z w 0 9 I 4./ 5.6.e q q 0 6 7.U 8.r e a a 0 6 4 6 w 1 9.h ",
"+ ; 4 w a I 0 9 ^ 0.M N q.R S w.e.c =.-.q s s w { 4./ f q w 9 5 y I I n r q w a 6 5 6 s a 1 9.v ",
"X : 4 q w 9 0 a r.^ ] E T *.%.t.y.g 3.Z 7.0 0 K W 4.g 4.3.l u.i.p.N P n P t f q 6 4 6 9 a 1 9.v ",
"+ ; 5 0 9 6 9 U a.T B B S s.%.d.9.g o.P a f.4.v / / ;.5.3.Q 6.G g.h.j.j B -.Z u 0 I 0 0 w k.9.p ",
"X : y 0 6 5 s z U E r.] T w.w.*.} h ) e l.#.4.W Q J 6.6.z.a.U j ! x.H c.v.b.6.f.Z P f f t K n.m.",
"+ ; 4 s 5 4 9 f u T ] $.$.u.M.N.c 2 K J } 4.3.U :.B.X V.X X V.V.V.p.b.S %.<.i.J o.k.C r e C A 2 ",
"+ = 5 0 5 4 9 e q  .| S w.w.C.Z.g 3.Z { { A.8 - : S.D.F.H G.O H.# J.K.L.b.v.P.I.3.Q L t a r c 2 ",
"+ ; 5 6 5 5 0 f 7.k R U.C.Y.&.N.4.T.3.v J $ - R.E.G.W.Q.W.G.!.H.~.^./.M.(.).I._.U.=.l.P w r A p ",
"7 * 5 6 4 5 q P U z T E *.`.'.9.2 k.4.Q 8 . V.; H.X ].[.H G.d ~.~.^.H.Y.i.i.C.{.U.3.Q L t C } h ",
"8 = 4 6 4 9 e r U l r.}.%.u.Z.} W |./ a.E. X~.J.V..XV.[.D V.W.^.S.S.E.] ).P._.(.i.(.=.) Z L 9.h ",
"b ; 3 6 y a r t t ,.<.$.XXoXOXg Q =.3.d  X, - . X V.G.[.W.B.+X^.S.E.E.` _.d.@XK.@X`.;.Q L k.9.v ",
"+ ; 5 9 9 0 f f U l }.Y.#XC.$Xg Q ;.) :.V., ~..X%XG.o [.D V.j.S.* E.&XV.*X=X@X-X;XXXX.=.l.l.9.h ",
"O ; 6 9 0 0 q e u c.E %.Y.:X$Xv T.5.6.:..XH.. V.V.V.B.Q.b.V.>X,XE.E. XS.`.d.<X{.oXd.1.2 ) ) N.h ",
"o : 6 9 a a q w u ^ $.d.%.y.Z.h ) 1Xf.X # G.V.G.V.2XZ 3X<X].j.* &X X X X{.@X`.4X:X@X<X/ o.o.9.v ",
"# : 6 0 w 0 a q 7.<.%.`.5XZ.9.4.) Q a.G.# G.V.O V.k &.6X/ j.d E.&X X<  X7X4X4X:X8X4X{.4.o.T.9.h ",
"O : s 0 q 0 a 7.e w.@.*.-XOXN.p l.A.a.V.J.V.G.G.O B.9X0X:.!./.&X X X< &X*X:X5X:XqX4X4Xh Q ) 9.h ",
"# : I 0 a 0 0 U f 1.4XXXM.wX} ( k.6.8.V.O G.H.H.~.eXrX%X* I %XtX< < < H.yX-X-X7XqXyXM.h o.l.9.h ",
"# : 0 a a 9 0 x U $.u.8X8XwXc 3.1 f.8.V.G.O H.~.D.9X].* 8 2X X< < uXR.' :X-XqX7X:XqXy.v Q ) n.h ",
"# : 0 a 0 9 9 x a.w.{.5Xe.9.v Q C P 8.].G.~.~.^.3XK.,XH.m &X X< uXuXR.E 7X-XqXyX-XiXOXh o.l.n.h ",
"# : q w a 9 s k ,.d.{.M.&.c ( l.C f 8.4 H.H.~.^.S.* E.:.~. X< < uXuX XpXpXaX5XsXiX6XOXv ) k.A 2 ",
"# > w w a 0 s t dX8XoXC.c 4.Q L r u x j ~.^.^.- S.E.fX~. X X< uXR.R.G gXaXhXjXaXgXkXn.p K 1 A m.",
"  : d a 0 9 0 q lX[ kXqXv zXk.C f q q x + ^.^.,XE.&X X X< uXuXR.R.,XiX6XjXaXaXaXhX;Xn.( L 1 } v ",
"# : 0 a a 0 9 q #X{.@X`./ Q Z f r e q d k ^.* E.&X&X X< < uXuX& & Y.xXxXjXgXjX6XgX$X} 2 l.l.N.v ",
"  > 0 0 0 0 j w `.8X@XY.=.) t f r f q a a >XS.E.&X X X< uXR.R.R.}.xXcXxXvXbXbXxXOXZ.} / ) T.9.v ",
"# : s 0 0 0 x u t.:XoX/ Q K f q f f w 0 0 k j.&X&X< < uXuXR.tXr.yXnXlXOXkXmXMXNXBXn.v i L k.n.h ",
"o : 9 0 a 0 U x -XoX-X;.Q O.f q e q a 0 U <.VX| %XE.uXtXH.D.L.C.OX6XkXkXnXnXcXNXNX9.4.Q -.1 } h ",
"# : I a j d f u C.:Xe.Q ) f.f e e e 0 !.(.U.c.K.K.{.C.`.oX_.*.C.e.#X&.kXnXnX[ CXCXMX( ) P 1 } h ",
"o : s 0 w w z u :X-X|.l.1 P e e u q q 0 s a | z z.A.|.dXu.u.@.ZXX.t.t.Z.nXOXBXN.y.( o.L f C } h ",
"# : 0 a a a U q 4X-XO.Z r f q w q a a a d 0 q u P -.6.) o.zX=.zX=.=.3.=.=.3.=.zXzXQ K P u P A p ",
"o : a 0 0 0 q x _.,.q q 7.q a q w a 0 a s 0 q q u t P Z L l.k.k.l.) ) ) l.l.J k.6.-.P u w P } h ",
"# : 0 0 0 0 w a 9 9 0 0 a a w q w q 0 a 9 6 0 w w u f r t P P P Z C Z Z P P P t t f u a 0 P A p ",
"o > 0 a a q a s 5 y 6 s a q e e u w a 0 0 6 9 0 0 w u q a q e u u u q e e u q w q 0 0 9 9 r A p ",
"# > 9 a a q 0 5 4 4 6 0 w e e e e q a 0 0 6 6 0 w w q w 9 I w w a a a a a d a 0 0 9 9 9 9 P } p ",
"  - a q q a 6 5 5 6 0 q e e f f e w 0 0 0 9 6 I u q a q r r 1 C P P Z C C C C P r r P P P k.A h ",
"o 6 =.N.9.9.A c } n.wXwXBXBXBXBXBXBXwXwX$XwXwXwXwXBXwXwX} } 9.9.9.} 9.} } } } n.n.} 9.9.9.$XwXh ",
"t ( p g v p p m.2 m.i 2 m.m.2 m.i i =.zXi zXzXi ( ( ( i =.zXzX=.=.( ( ( ( =.=.=.zXi zX=.=.( v zX"};
