/* XPM */
static char * image_name[] = {
"48 48 225 2",
"  	c #C6C6CACAC4C4",
". 	c #C6C6CACACCCC",
"X 	c #BABABEBEBCBC",
"o 	c #BABABABABCBC",
"O 	c #B6B6BABABCBC",
"+ 	c #BEBEC2C2C4C4",
"@ 	c #BEBEBEBEBCBC",
"# 	c #C2C2C2C2C4C4",
"$ 	c #B2B2B6B6B4B4",
"% 	c #B2B2BABAB4B4",
"& 	c #C2C2C6C6C4C4",
"* 	c #AAAAAEAEACAC",
"= 	c #F2F2F2F2ECEC",
"- 	c #EAEAEAEAECEC",
"; 	c #D2D2D2D2D4D4",
": 	c #CECED2D2D4D4",
"> 	c #CACACECECCCC",
", 	c #CECED2D2CCCC",
"< 	c #D2D2D6D6D4D4",
"1 	c #D6D6D6D6D4D4",
"2 	c #D6D6DADADCDC",
"3 	c #DEDEDEDEDCDC",
"4 	c #E2E2E2E2E4E4",
"5 	c #DADADEDEDCDC",
"6 	c #DADADADADCDC",
"7 	c #72727A7A7C7C",
"8 	c #4E4E52525454",
"9 	c #AAAAAAAAACAC",
"0 	c #A6A6AEAEACAC",
"q 	c #A2A2AAAAA4A4",
"w 	c #A2A2A6A6A4A4",
"e 	c #A2A2A2A2A4A4",
"r 	c #9E9EA6A6A4A4",
"t 	c #A6A6AAAAACAC",
"y 	c #AAAAB2B2ACAC",
"u 	c #AEAEAEAEACAC",
"i 	c #9A9AA2A29C9C",
"p 	c #9A9A9E9E9C9C",
"a 	c #92929A9A9494",
"s 	c #8E8E92929494",
"d 	c #8E8E96969494",
"f 	c #86868E8E8C8C",
"g 	c #828286868484",
"h 	c #7E7E86868484",
"j 	c #8A8A92928C8C",
"k 	c #96969A9A9494",
"l 	c #96969A9A9C9C",
"z 	c #8A8A8E8E8C8C",
"x 	c #56565A5A5C5C",
"c 	c #4A4A4E4E4C4C",
"v 	c #929296969494",
"b 	c #96969E9E9C9C",
"n 	c #969696969494",
"m 	c #929292929494",
"M 	c #82828A8A8C8C",
"N 	c #9E9EA2A2A4A4",
"B 	c #8E8E92928C8C",
"V 	c #3A3A42423C3C",
"C 	c #46464A4A4C4C",
"Z 	c #8A8A92929494",
"A 	c #82828A8A8484",
"S 	c #9E9E9E9E9C9C",
"D 	c #86868A8A8C8C",
"F 	c #3A3A3E3E3C3C",
"G 	c #424246464444",
"H 	c #AEAEB2B2B4B4",
"J 	c #9A9A9A9A9C9C",
"K 	c #86868A8A8484",
"L 	c #3E3E3E3E3C3C",
"P 	c #3E3E42424444",
"I 	c #3A3A3A3A3C3C",
"U 	c #AEAEB6B6B4B4",
"Y 	c #76767A7A7C7C",
"T 	c #76767A7A7474",
"R 	c #7E7E82828484",
"E 	c #7A7A82828484",
"W 	c #363636363434",
"Q 	c #C6C6C6C6C4C4",
"! 	c #F2F2F2F2F4F4",
"~ 	c #76767E7E7C7C",
"^ 	c #868686868484",
"/ 	c #8A8A8A8A8C8C",
"( 	c #36363A3A3C3C",
") 	c #B6B6B6B6B4B4",
"_ 	c #DADAD6D6D4D4",
"` 	c #DEDEDADADCDC",
"' 	c #E6E6E6E6E4E4",
"] 	c #EAEAEEEEECEC",
"[ 	c #EEEEF2F2F4F4",
"{ 	c #B2B2B2B2ACAC",
"} 	c #D2D2CECECCCC",
"| 	c #E2E2E2E2DCDC",
" .	c #EEEEEEEEECEC",
"..	c #F6F6F6F6F4F4",
"X.	c #CECECECECCCC",
"o.	c #6E6E76767474",
"O.	c #36363A3A3434",
"+.	c #464646464444",
"@.	c #D6D6D2D2D4D4",
"#.	c #EAEAE6E6E4E4",
"$.	c #CECECACACCCC",
"%.	c #BABAB6B6B4B4",
"&.	c #C2C2BEBEBCBC",
"*.	c #FAFAFAFAFCFC",
"=.	c #FEFEFEFEFCFC",
"-.	c #6A6A6E6E6C6C",
";.	c #2E2E32323434",
":.	c #A6A6A6A6A4A4",
">.	c #B6B6B2B2B4B4",
",.	c #BABABABAB4B4",
"<.	c #EAEAEAEAE4E4",
"1.	c #7A7A82827C7C",
"2.	c #626266666464",
"3.	c #424242424444",
"4.	c #BEBEBABABCBC",
"5.	c #CACAC6C6C4C4",
"6.	c #D2D2D2D2CCCC",
"7.	c #6E6E72727474",
"8.	c #5A5A5E5E5C5C",
"9.	c #2A2A2E2E2C2C",
"0.	c #A2A2A2A29C9C",
"q.	c #AEAEAAAAACAC",
"w.	c #E6E6E2E2E4E4",
"e.	c #EEEEEAEAECEC",
"r.	c #5E5E62626464",
"t.	c #525256565454",
"y.	c #2E2E32322C2C",
"u.	c #A6A6A2A2A4A4",
"i.	c #AAAAA6A6A4A4",
"p.	c #B2B2B2B2B4B4",
"a.	c #C2C2C2C2BCBC",
"s.	c #C6C6C2C2C4C4",
"d.	c #E2E2DEDEDCDC",
"f.	c #828282828484",
"g.	c #56565E5E5C5C",
"h.	c #42424A4A4444",
"j.	c #9A9A9A9A9494",
"k.	c #DADADADAD4D4",
"l.	c #DEDEE2E2E4E4",
"z.	c #46464A4A4444",
"x.	c #5A5A5A5A5C5C",
"c.	c #2E2E2E2E2C2C",
"v.	c #8E8E8E8E8C8C",
"b.	c #969692929494",
"n.	c #9E9E9A9A9C9C",
"m.	c #A2A29E9E9C9C",
"M.	c #B2B2AEAEACAC",
"N.	c #8A8A86868484",
"B.	c #8E8E8A8A8484",
"V.	c #92928E8E8C8C",
"C.	c #9A9A96969494",
"Z.	c #AAAAAAAAA4A4",
"A.	c #020202020404",
"S.	c #161616161414",
"D.	c #727272727474",
"F.	c #323236363434",
"G.	c #7E7E7E7E7C7C",
"H.	c #82827E7E7C7C",
"J.	c #868682828484",
"K.	c #929292928C8C",
"L.	c #42423E3E3C3C",
"P.	c #464642424444",
"I.	c #26262A2A2C2C",
"U.	c #2A2A2A2A2C2C",
"Y.	c #767676767474",
"T.	c #7A7A7A7A7474",
"R.	c #969692928C8C",
"E.	c #7E7E7A7A7C7C",
"W.	c #CACACACACCCC",
"Q.	c #565656565454",
"!.	c #52525A5A5454",
"~.	c #6E6E6A6A6464",
"^.	c #6E6E6A6A6C6C",
"/.	c #767672726C6C",
"(.	c #7A7A76767474",
").	c #7E7E7A7A7474",
"_.	c #727272726C6C",
"`.	c #6A6A6A6A6C6C",
"'.	c #62625E5E5C5C",
"].	c #6A6A66666464",
"[.	c #868682827C7C",
"{.	c #8E8E8A8A8C8C",
"}.	c #72726E6E6C6C",
"|.	c #222226262424",
" X	c #7A7A7A7A7C7C",
".X	c #5A5A5A5A5454",
"XX	c #5E5E5A5A5454",
"oX	c #5E5E5E5E5C5C",
"OX	c #666662625C5C",
"+X	c #6A6A6A6A6464",
"@X	c #262626262424",
"#X	c #525252525454",
"$X	c #5A5A56565454",
"%X	c #2A2A2A2A2424",
"&X	c #222222222424",
"*X	c #323232323434",
"=X	c #5E5E62625C5C",
"-X	c #666666666464",
";X	c #5E5E5A5A5C5C",
":X	c #121212121414",
">X	c #4A4A4A4A4C4C",
",X	c #525252524C4C",
"<X	c #CACACACAC4C4",
"1X	c #4E4E4E4E4C4C",
"2X	c #66666A6A6C6C",
"3X	c #626262625C5C",
"4X	c #66666E6E6C6C",
"5X	c #727276767474",
"6X	c #56565A5A5454",
"7X	c #4A4A52524C4C",
"8X	c #3E3E42423C3C",
"9X	c #7E7E82827C7C",
"0X	c #7A7A7E7E7C7C",
"qX	c #8A8A8A8A8484",
"wX	c #2A2A26262424",
"eX	c #6A6A72727474",
"rX	c #6E6E6E6E6C6C",
"tX	c #6A6A72726C6C",
"yX	c #62626A6A6C6C",
"uX	c #6E6E72726C6C",
"iX	c #626262626464",
"pX	c #46464E4E4C4C",
"aX	c #66666A6A6464",
"sX	c #26262A2A2424",
"dX	c #4E4E56565454",
"  . X X X X X X o o O O X X X X + @ X X @ X X X X + + # + X O $ % $ $ $ O X + + & & & X $ o * * ",
"o = - ; : : ; > , < < < ; ; < 1 < 2 1 1 2 1 < 3 4 3 3 5 3 6 1 2 1 2 2 2 6 6 3 3 3 4 3 2 2 O 7 8 ",
"O 3 & * 9 0 * q w e e r q t 0 * t 0 0 0 y u * i p p a s d f g h g f j d k p r w i l z f d k x c ",
"$ 2 w s d v v d d j j s s v l l l v l p p b a n l d m d j f M g f s v v p i N l s f f B N f V C ",
"$ 2 0 B d v n v a a v v a l a a a l l l a v d v n d s Z j f A M d d v l S N b j A f d a N D F G ",
"$ < H d Z a a l p l a v n l v v l a v v v s s a a v j B Z D M f s v l i r N v M f v l J p h F C ",
"% < H l s l a l b b a d a p l v l l v s d d v p l v Z B j A K j v v l N w a D D v b l a p g L c ",
"$ 2 y p v v l v l J v v l l p p l d d Z s v l b p v f Z j f Z s s a p N N s M j l l a l b f P c ",
"H 1 * i a s v l l l v v p p p l l s Z Z v b p b l v s Z s f j B s a p i k f D v k l v J r j V C ",
"$ 2 0 N n f d v b l v l b b b b v v s a b l l l v s f z f K M g D m b l z h j d s d l r * z I P ",
"U 1 0 i a f d a b l a p i p l b a k v v l b b a s f A h h g Y T R z l d g E j d B a r * t h W G ",
"$ 2 t b v Z l l p b v l J l l v l v s v l l n J q * Q 1 ! 4 # Q + 9 l g 7 ~ ^ / z l e N p ~ ( C ",
"$ 2 9 l p v l b l l a b a v v v d v z l ) Q ; _ ` 3 ' ] [ { @ } |  ... .X.r f R g s l d D o.O.+.",
"$ 1 q v v p l l l d v l n v v a l s j u o @ X.@.6 3 4 #.$.%.&.; ' ! *.*.*.=.=. .; y v D g -.;.G ",
"% 2 q Z d p l d s d v a l a n b l s :.%.>.{ $ ,.@.6 3 4 { X $.6 <.! ..*.*.=.=.=.=.=.=.R 1.2.;.3.",
") 1 w a J r p z Z s v l b a b p b e { >.) ) %.) { @ 6 &.4.5.6.3 - ..*.=.=.=.=.=.=.=.> -.7.8.9.G ",
"O 2 :.a N w b f j d v v l l p p 0.q.{ { >.) %.o %.,.X @ # X.6 w.e...*.=.=.=.=.=.=.=.H x r.t.y.G ",
") 1 q p N t p f Z s d l l b p p u.i.9 p.) %.4.@ a.s.s.Q } 1 d.' [ ..*.=.=.=.=.=.=.=.f.c g.g.9.h.",
"$ ; q b r w J D s s d v l v n j.N :.i.q.p.) 4.@ a.Q $.X.; k.l.#. ...*.=.=.=.=.=.=.=.F z.x.8.c.G ",
"U < w S w q a A f j s a s v.b.j.n.m.i.u M.) ,.@ # { ^ %.1 _ d.' -  ...*.=.=.=.=.=.o W +.x x ;.F ",
"y : q N t w Z h M f v./ N.B.V.C.n.S u.Z.u p.%.i.L A.A.S.o 6 3 w.-  .! *.=.=.=.=.=.D.F.3.t.t.9.V ",
"u : t N t i D 1.A f G.H.J./ V.K.j.S m.:.q.M.>.L L.a.j.P.,.@.6 3 ' - ! ..*.=.=.=.' I.W G t.8 U.I ",
"p.: 0 i e a R h g Y.Y.T.H.J.B.V.R.j.n.0.i.u / A.E.&.& W.X.@.k.3 4 #.e.! ..=.=.=.S U.F.3.Q.!.c.F ",
"O 1 w S b s h D.~.^./.(.).f.^ / K.n n.m.:.9 _.A.O @ &.Q > , 1 ` 3 ' <. .....=.=.F 9.W C x x 9.L ",
"+ 2 i p a z `.'.].~._.(.).H.[.N.{.R.C.n.m.i.}.A.v.4.&.s.5.$.6._ 6 l.' - ! ..*.$.|.9.( C x.g.c.P ",
"+ 2 N l  X.XXXoXOX+X^._.Y.).H.^ B.v.b.Y.).e n A.@X) o &.Q W.X.1 6 3 4 ' - ! ..#XU.c.I c r.8.;.P ",
"# 2 i l G.oX$XXX'.OX].}.D.T.E.f.N.z _.A.A.T.u.@XA.%X X`.9.5.W.} @.` d.' #. .& &XU.*XL 8 2.=X;.3.",
"& 2 p v z z  X-X;XOX].~.}./.).H.^ N.).:XA.E.0.u.>X:XS.,Xi.# <XX.@.1 3 d.'  .1X|.9.F.P t.2X2.*XG ",
"& 6 l d B z g  X7.3XOX].}./.Y.).H.^ N.{.R.C.m.u.i.q.M.%.4.&.Q <X} ; 6 3 4 o &X@Xc.I +.x.7.4XF.h.",
"# 5 a s Z s f 1.5X-Xx .XOX^./.(.H.[.N.v.K.n j.S :.Z.M.$ ,.@ # Q > ; 1 6 3 C &X@Xy.F 1X2.7 -.F.+.",
"# 2 l s d m z R ~ -.r.t.c #X+X/.(.G.[.N.v.b.j.n.0.:.q.u >.%.&.s.5.X.; _ M.&X|.U.F.G t.-.1.o.W C ",
"& 6 d B s d Z D  XD.2XoX6X1XP 8 -XG.H.^ N.v.R.j.n.e :.u { %.X @ Q W.6.1 C |.@X9.I C r.5X^ Y F 7X",
"& k.v d v v s f E Y o.`.2.oX1X8XW G ~.J.N.{.V.n n.m.u.9 u >.,.@ &.Q W.Z.&XI.U.*X3.t.`.E Z E F 7X",
"  6 v v v v v z g 9X0XY 7.2X8.>XG P F z.+XqXv.R.C.S 0.:.9 u >.o @ s.5.+.@XwX;.O.z.8.o.^ v E I +.",
". 6 v v n a v d f D g g R ~ eX8.8 c C +.P 3.-Xv.R.C.n.u.i.u M.%.o # G.&XI.U.*XI >X8.o.9XK eX*XG ",
"& 5 l a a v l k s B s s z g G.-.8.x Q.t.1Xz.P +.-XC.n.0.:.Z.M.$ ,.@ W I.U.*XW G #Xr.rX7 E tXF.G ",
"& 5 p l l a l l v a k k n Z D 0X4XyX2.2.oXQ.8 >X8XF 3XV.m.:.q.M.>.-X@XU.9.F.I z.Q.yX5X1.D 7 ( C ",
"# 6 b a v n v p a l b l l v j M 1.Y ~ 5XeX2XoXt.c >XG 8X-Xn :.q.0.U.c.9.*XW L >X8.uX0XD Z ~ I C ",
"# 6 l v d v a p l l b b l v z g h R M K 1.7 -.2.x t.8 1X+.L 8 v.oX;.*Xy.F.F G 8 iXY g v.v ~ I z.",
"& 2 p a v d v l p l p p b v Z f f D D z / f.0XD.2Xr.oXx 8 C 8XP I W O.I F L C Q.yX5XA Z v 1.F C ",
"& 2 a v v v v a b p i e b a v d j B s z j D g 9XY.7.-.2X8.8 c pX+.P L L P G 8 x.-. XK d l E F c ",
"# 2 n a l v d v J i N r p n v s d v v v v d M g h ~ Y.uX2X=Xx t.7Xc C C C 1Xt.2.D.E z v k h I C ",
"& 2 v l l v s a N w N N b v d j d d a l J l d z z g R T 5X-.2.iX8.x t.#X#Xx.iXtX Xg Z a l h F pX",
"# 5 p v a d d p w w w p v d f f z Z v v k N p v s f h R R Y o.7.-.aX2.2.2.2XuX XR d l p i h F c ",
"& 5 b v s d l w t q i l Z z f f f Z v a b N N l Z z D ^ j D 1.0X0XY 5X5X5XY 1.A v.l p p p R I c ",
"W.> n Z Z v p q q N J d j f M M z d a l l b N l z j j f ~ Y 7.7.eXo.eX4XeXtX7.Y E 0X0X0X~ tXF C ",
"@ i x *X*X( I F I ( I.@X|.@X@XI.@XI.I.I.%X9.9.sXI.@X|.U.F.F.F.F.*XF.*X*X*XF.F.F.( ( ( ( F.9.I.C ",
"M t.pXG h.pX7Xc 7Xc t.dX8 dX8 8 !.Q.6Xx x 6Xx x t.t.!.t.x 8.x 6X6XQ.t.t.!.!.x x !.!.6Xx x t.+.8."};
