/* XPM */
static char * image_name[] = {
"48 48 248 2",
"  	c #C5C5CACAC4C4",
". 	c #BCBCBFBFBFBF",
"X 	c #BABABABABBBB",
"o 	c #C2C2C6C6C4C4",
"O 	c #AEAEB6B6B4B4",
"+ 	c #A9A9AFAFACAC",
"@ 	c #EEEEF2F2F4F4",
"# 	c #EAEAECECE0E0",
"$ 	c #CECED2D2D0D0",
"% 	c #CBCBCDCDC7C7",
"& 	c #D2D2D2D2D4D4",
"* 	c #D7D7D9D9D8D8",
"= 	c #DADADEDEDCDC",
"- 	c #DFDFE0E0E0E0",
"; 	c #72727A7A7878",
": 	c #4E4E52525252",
"> 	c #A8A8AAAAABAB",
", 	c #A2A2A8A8A4A4",
"< 	c #A2A2AEAE9C9C",
"1 	c #AEAEB2B2B0B0",
"2 	c #9E9EA2A2A2A2",
"3 	c #97979C9C9C9C",
"4 	c #929296969494",
"5 	c #8B8B90908F8F",
"6 	c #84848A8A8888",
"7 	c #838385858484",
"8 	c #87878F8F7F7F",
"9 	c #575759595A5A",
"0 	c #4B4B4D4D4C4C",
"q 	c #B3B3B8B8B6B6",
"w 	c #8E8E96969494",
"e 	c #92929A9A9595",
"r 	c #7D7D83838282",
"t 	c #3E3E42424444",
"y 	c #46464A4A4B4B",
"u 	c #76768A8A9C9C",
"i 	c #757583839191",
"p 	c #3C3C3D3D3C3C",
"a 	c #434345454444",
"s 	c #72729090A0A0",
"d 	c #5E5E8A8AACAC",
"f 	c #84849C9C7C7C",
"g 	c #828292926C6C",
"h 	c #767686866C6C",
"j 	c #5A5A8484A8A8",
"k 	c #74749A9AB4B4",
"l 	c #A8A8B8B8BCBC",
"z 	c #7E7E9696A4A4",
"x 	c #A7A7A5A58787",
"c 	c #9F9F9A9A7272",
"v 	c #929296967474",
"b 	c #78787C7C7C7C",
"n 	c #EAEAEAEACCCC",
"m 	c #FEFEFEFEDCDC",
"M 	c #FAFAFAFAE1E1",
"N 	c #9A9AB2B2B4B4",
"B 	c #BEBEAAAA8C8C",
"V 	c #D2D2C6C69494",
"C 	c #B6B6B0B09090",
"Z 	c #BBBBB1B18080",
"A 	c #A6A69A9A6464",
"S 	c #707074747373",
"D 	c #767675757474",
"F 	c #66668A8AA8A8",
"G 	c #9292AEAEB8B8",
"H 	c #F9F9F8F8CECE",
"J 	c #D2D2D2D2A4A4",
"K 	c #D4D4CCCCA0A0",
"L 	c #696973737171",
"P 	c #676769696969",
"I 	c #5D5D67676767",
"U 	c #626262626262",
"Y 	c #626266666464",
"T 	c #5E5E61616060",
"R 	c #4B4B7C7CAFAF",
"E 	c #BFBFBFBF9C9C",
"W 	c #DADAD6D69C9C",
"Q 	c #DEDEDADAA4A4",
"! 	c #979791917171",
"~ 	c #828282826C6C",
"^ 	c #6F6F6E6E6E6E",
"/ 	c #90908A8A8484",
"( 	c #B1B196967777",
") 	c #C2C29F9F7373",
"_ 	c #CFCFA1A17070",
"` 	c #C9C999996969",
"' 	c #C7C790905959",
"] 	c #AAAA84845858",
"[ 	c #8E8E68684C4C",
"{ 	c #525257575454",
"} 	c #36363A3A3939",
"| 	c #4B4B8282B4B4",
" .	c #C6C6CACAA0A0",
"..	c #D6D6DEDEACAC",
"X.	c #EAEAEEEEC4C4",
"o.	c #FEFEFAFAC8C8",
"O.	c #BFBFB7B78181",
"+.	c #F6F6F0F0A8A8",
"@.	c #C8C8BABA8888",
"#.	c #767672725454",
"$.	c #D0D0B1B18484",
"%.	c #EBEBC6C69898",
"&.	c #E7E7CCCC9999",
"*.	c #EFEFCDCDA2A2",
"=.	c #E3E3C1C19696",
"-.	c #EAEABABA9494",
";.	c #D9D9B7B78787",
":.	c #D7D7B1B18787",
">.	c #92927C7C6464",
",.	c #4E4E44443838",
"<.	c #5A5A5F5F5C5C",
"1.	c #323235353434",
"2.	c #54547C7CA0A0",
"3.	c #52528A8AB4B4",
"4.	c #6A6A9696B4B4",
"5.	c #9A9ABABA9494",
"6.	c #AAAABABA9494",
"7.	c #DADACACAACAC",
"8.	c #D0D0B8B88C8C",
"9.	c #A2A2A6A67C7C",
"0.	c #29293D3D4E4E",
"q.	c #595952524747",
"w.	c #A6A68E8E7474",
"e.	c #DADAC2C2ACAC",
"r.	c #E5E5CCCCA6A6",
"t.	c #E4E4BFBF8888",
"y.	c #B9B98F8F6464",
"u.	c #6A6A52523C3C",
"i.	c #2A2A2C2C2C2C",
"p.	c #2E2E32323232",
"a.	c #363636363434",
"s.	c #46467575A7A7",
"d.	c #52528686BCBC",
"f.	c #A1A1B3B38F8F",
"g.	c #B6B6B6B68C8C",
"h.	c #D1D1BFBF8E8E",
"j.	c #D6D6BFBF9494",
"k.	c #202044446B6B",
"l.	c #22223C3C5050",
"z.	c #3C3C4A4A5454",
"x.	c #444452525454",
"c.	c #8C8C74745858",
"v.	c #D0D0AAAA7C7C",
"b.	c #ECECC0C08F8F",
"n.	c #DEDEB2B28787",
"m.	c #D7D7A9A97777",
"M.	c #BEBE96966868",
"N.	c #A9A97D7D5656",
"B.	c #707056563F3F",
"V.	c #69696E6E6C6C",
"C.	c #41416E6E9C9C",
"Z.	c #B2B2A6A67C7C",
"A.	c #343452527070",
"S.	c #2F2F46465A5A",
"D.	c #5B5B4D4D3E3E",
"F.	c #9A9A6E6E4C4C",
"G.	c #B0B085855A5A",
"H.	c #BCBC9E9E7878",
"J.	c #ECECC6C68888",
"K.	c #F0F0CCCC8E8E",
"L.	c #E2E2D3D39C9C",
"P.	c #29294E4E7171",
"I.	c #727260605050",
"U.	c #959573735454",
"Y.	c #B1B18A8A5F5F",
"T.	c #C9C9A9A97C7C",
"R.	c #F3F3D2D29C9C",
"E.	c #E1E1B7B78484",
"W.	c #A8A874744C4C",
"Q.	c #44443C3C3535",
"!.	c #525272728C8C",
"~.	c #3A3A66669494",
"^.	c #5E5E7E7E9494",
"/.	c #3A3A56566C6C",
"(.	c #292946466464",
").	c #A1A183836161",
"_.	c #F5F5DBDBACAC",
"`.	c #F1F1D6D6B0B0",
"'.	c #7D7D5F5F4343",
"].	c #33335F5F8C8C",
"[.	c #3E3E62628484",
"{.	c #484868688484",
"}.	c #46465A5A6464",
"|.	c #66665E5E5151",
" X	c #929282826C6C",
".X	c #DEDEC6C6A4A4",
"XX	c #EFEFE2E2C4C4",
"oX	c #F9F9E9E9CACA",
"OX	c #FAFAEEEED4D4",
"+X	c #EEEEDCDCC0C0",
"@X	c #EAEADCDCB8B8",
"#X	c #E6E6D6D6B4B4",
"$X	c #CACAB2B28484",
"%X	c #242425252424",
"&X	c #2E2E5A5A8484",
"*X	c #B8B8A6A68484",
"=X	c #1F1F3E3E6060",
"-X	c #292942425656",
";X	c #3F3F31312727",
":X	c #A0A07D7D5A5A",
">X	c #323226261C1C",
",X	c #37372D2D2626",
"<X	c #4A4A32322424",
"1X	c #585844443535",
"2X	c #85854F4F3434",
"3X	c #DEDEA1A15757",
"4X	c #E4E4B0B06868",
"5X	c #D0D088884C4C",
"6X	c #C7C787875050",
"7X	c #B8B87A7A4848",
"8X	c #B0B06E6E4444",
"9X	c #949458583838",
"0X	c #797958583A3A",
"qX	c #58583C3C2929",
"wX	c #1D1D1D1D1C1C",
"eX	c #454536362D2D",
"rX	c #666656564444",
"tX	c #B1B18E8E6464",
"yX	c #BBBB87875757",
"uX	c #7A7A66664C4C",
"iX	c #757550503636",
"pX	c #909060603E3E",
"aX	c #BABA72723C3C",
"sX	c #D6D697975858",
"dX	c #E2E2A6A65C5C",
"fX	c #D2D290905454",
"gX	c #AFAF73734646",
"hX	c #9E9E6A6A4C4C",
"jX	c #68684D4D3838",
"kX	c #575736362424",
"lX	c #72723E3E2C2C",
"zX	c #B3B368683B3B",
"xX	c #C1C174743E3E",
"cX	c #AAAA68683C3C",
"vX	c #696940402A2A",
"bX	c #4E4E3B3B2E2E",
"nX	c #C5C57D7D4444",
"mX	c #A0A058583838",
"MX	c #757546462C2C",
"NX	c #62623A3A2424",
"BX	c #858560604040",
"VX	c #5E5E46463434",
"CX	c #93936B6B4B4B",
"ZX	c #A1A173734848",
"AX	c #6E6E68686868",
"SX	c #878767674C4C",
"DX	c #B3B3B2B2AFAF",
"FX	c #9A9A96968484",
"    . . . . . . X X X X . X . . . . . . . . X . . . . o . . X O X O O O X . . . o o o . O X + + ",
"X @ # $ $ $ $ % $ $ $ $ & & & & & * & & * & * = - - - * = = & * & * * * * * = - = - = * * X ; : ",
"X - o > > + + , , , , , , < + 1 + + 1 + 1 1 + 2 2 3 3 4 5 5 6 7 6 8 5 4 3 2 , , 2 3 5 8 5 3 9 0 ",
"q * , w w 4 4 4 w 5 5 5 w 4 e e 4 e e 3 3 3 4 e 4 e 5 5 5 8 r 6 6 5 4 4 3 3 2 3 5 6 5 5 , 8 t y ",
"q * > 5 5 e 4 4 e w u i 5 3 3 e 4 3 e 3 e 4 5 e 4 4 w w 5 u r r 5 5 w 3 2 2 3 5 6 8 5 e 2 6 p a ",
"1 * 1 e w 4 e s d s f f f g h 8 3 4 e w 4 w 4 4 3 4 5 8 6 7 r r 6 8 5 4 2 3 4 6 5 4 3 3 3 r p y ",
"q * + e 5 e j k % l z e x 8 c c v 3 5 5 5 5 4 3 3 w 5 5 8 r b b b b 7 5 e 5 6 7 5 3 e 4 2 6 p 0 ",
"1 * + 3 e d l n m M $ N e B V C Z A 6 r 7 5 w 3 3 w 5 6 r b ; S S D ; b r b ; 6 5 w 5 w e 6 t 0 ",
"1 * + 2 F G @ M M m H m # J H K Z A 7 S ; 7 5 e e 5 6 6 i ; L P I U Y Y Y T P r r 5 5 5 2 5 t y ",
"O * + 3 R   H M m M H M m E W Q A ! ~ ; ^ D r 5 5 / ( ) _ ` ' ] [ { : 0 y 0 { U S b 7 e 2 6 } t ",
"O * > F | G  ...X.H H H o. .O.+.@.T #.S 9 Y S ! $.%.&.*.=.-.;.:._ ` >.,.} } a 0 <.S r e 3 r 1.a ",
"O * + 2.| 3.4.k 5.5.6.V 7.8.x 9.I 0.: <.0 q.w.e.r.*.%.%.%.=.t.-.:.$._ y.u.i.p.} a 9 b 7 8 S a.y ",
"q * + s.R d.d.d f.5.f.g.@.h.j.8 k.l.z.x.} c.) v.=.-.-.b.b.b.t.n.m._ ` M.N.B.i.i.} y T S D V.1.a ",
"O * , C.R R | 2.f.h.8.Z Z.Z.h A.l.l.0.S.D.F.G.H.;.t.J.%.*.*.K.%.t.n.m.` y.N.D.i.p.p 0 <.L I p.a ",
"q * > C.C.s.R 2.q L.h.Z Z.P P.k.l.l.l.0.u.I.U.Y.T.;.K.R.R.R.R.*.b.t.E._ ' G.W.Q.i.1.p : Y T p.a ",
"q $ , !.~.C.C.^.K L.@.9.c /.(.l.l.l.l.S.,.u.I.).M.;.R._._.`._.R.&.r.t.:._ y.G.'.i.i.a.a { { i.y ",
"X * , i ].].[.{.E L.O.v L }.x.l.l.l.l.q.a D.|. XC .XXXoXOXOXoXXX+X@X#Xr.j.$XH.).p %Xi.} y : i.y ",
"q * , 3 ].&X&X]., L.Z L (.<.S.l.l.l.l.Q.Q.,.|.>.*X.X+XoXOXoXoXXX+X@X7..X8.B ( ).D.%Xi.p.a { p.0 ",
"q $ , 3 5 P.P.P.[.! #.(.=X-Xl.l.l.l.Q.p.;Xa u.#.( $.&.R._.+X`.`.&.=.;.:.) y.:X[ D.%X%X1.y 9 1.y ",
"O $ , 2 , i (.k.k.k.=X=X=X=X=Xl.l.} >X>X,X<X1X2XF.' 3X3X4X4X4X3X5X6X5X7X8XF.9X0XqX%Xi.p.a { p.a ",
"1 $ , 2 , 3 S S.k.=X=X=Xl.=Xl.l.i.wX,X,XeX,.rXU.tXm.K.J.K.J.-.E.E.;.v.yXyX] U.uXD.%Xi.1.a 0 i.a ",
"1 $ > 2 2 3 ; P <.z.(.=Xl.l.p.%XwXwX,X;X<XqXiXpXaXsX3XdXsXsXfXfXsX6XgXW.hXpXiXjX1X%Xi.1.y : i.t ",
"O $ > 2 3 w S P <.0 t 1.i.%XwXwXwXwX>X;X<XkXlX9XzXaXxXxXzXzXcX' y.G.gXpX0XlXvXbXeX%Xi.1.a : i.t ",
"q * , 2 3 5 b V.Y { a } i.i.%XwXwXwX,XkXkXlX9XcXxXnX5XxXaXzXzXmXmX2XMXlXNXkXkXeX;Xi.i.a.y : i.t ",
". * 2 2 3 w 6 ; V.T 0 t 1.p.i.%XwXwX>XvXjX2XmXgX6XfX6X5XnXzXcX9X9XpXBXiXiXVX1XqX,X%Xi.} 0 { i.t ",
". * 2 3 w w 5 7 r S Y { a } p.i.i.%Xi.'.:XtX*X:.8.8.$XT.M.).N.W.CXBX0Xu.D.1X,.a %Xi.p.} 0 { i.t ",
"o * 2 3 w e w 5 5 7 ; P <.: y } 1.i.i.,.N.tX) ) ` ) ` y.G.).CX0Xu.jX1XbXbXbXbX,X%X%Xp.t { <.p.a ",
". * 3 3 5 3 e 5 w 4 5 7 S P <.: a t p } rXZXY.N.W.ZXCX[ BX0XjXVX,.|.AX|.Q.eX,X%X%Xi.a.y <.<.p.a ",
"o * 3 3 5 3 3 4 e 4 e w 6 r S Y { 0 a a a I.CXhX[ SXBX0XiXVXQ.5 > DXX + 3 S %X%X%Xi.a.0 Y Y 1.a ",
"o = 4 4 3 3 3 4 3 4 4 4 5 5 7 S T { : 0 0 : rXSXBX0X0XD.D.Q.4 DXq DX2 6 D AX{ %Xi.p.p 0 Y Y p.a ",
"o * 4 w 4 3 3 3 3 4 3 3 e 4 5 b V.<.{ { q.9 9 { D.,.,.eX<X5 DX> / 4 2 7 b AXP a i.a.t : Y T p.a ",
"o = 5 4 3 3 3 3 5 S r / r D 8 b L P I <.T T T <.<.0 ,.Q.Q.2 > 5 7 ~ b ^ D P <.: i.a.t : Y T p.y ",
"o = 5 5 3 3 3 4 D > q > 5 ^ T r b S L V.V.P AXY T <.<.U Y 3 2 w.7 7 r AXAXT : 0 i.} a 0 I Y 1.y ",
"  * 3 4 3 3 3 S > 3 7 / b ^ T T r b ; ; ; ; S S ^ P P ^ D 3 2 , 7 ~ b D AXU 9 y } a.p 0 <.<.p.t ",
"  * 3 5 3 4 3 b 2 4 7 b ^ U { y S S D b b b b b ; b b D U / / 3 / D AX<.9 9 9 a 1.p.a.a : : i.p ",
"o * 3 e 4 3 3 D FX3 ~ ^ AX<.{ t T T V.S r 6 6 7 r r 7 r U AX7 4 3 7 D 9 : 0 y p i.p.a.} 0 : i.t ",
"o * 2 3 4 4 3 AXD 5 / ^ { y t } 0 0 9 P b 6 5 5 6 5 5 6 P AXD b 7 D U 9 : 0 a p %Xi.a.p : 9 p.a ",
"o * 3 4 4 3 4 S AX^ ^ T { y p p.t a : T D 6 5 4 5 5 4 4 5 9 U AX^ Y 9 9 0 p Q.a.%Xp.1.a { <.p.y ",
"o * 3 4 5 3 4 3 <.0 0 a a p a.1.} } y <.S 7 5 3 4 4 3 3 3 S y : : { 0 a t p p i.i.p.a.a 9 T p.a ",
"o = 3 4 4 5 4 3 4 AX0 p t a t 1.} } a { V.7 5 w 4 5 3 2 4 5 ^ p Q.p p Q.a.a.i.,X%Xp.p y T I a.y ",
"o * 3 e e 4 4 3 3 3 3 7 ^ 9 y p p p a { V.r 5 5 4 4 3 2 4 5 5 r { a p p a.a.1.1.i.1.t 0 Y P 1.y ",
". = 4 4 4 3 5 4 3 3 3 5 b U : y a 0 9 T D 7 7 5 w e e 3 e 5 5 5 r b P <.0 a p p p t y <.V.V.} y ",
"o * 3 3 4 e 5 3 2 2 2 4 7 S T 9 { { U V.b 5 5 5 4 4 w 4 e w 5 5 6 r D P <.{ 0 0 0 : 9 P ; S } y ",
"o = 3 4 3 4 4 3 , , , 3 8 r L V.P V.S b r 5 w 4 4 3 5 5 3 4 w 4 5 6 r b ^ P T T Y P S r 6 ; } 0 ",
"o * 3 w 5 w 3 , > , 2 4 5 6 r b b i r 6 6 4 3 4 5 4 w 5 2 3 4 4 3 4 5 5 r 7 b b r 7 7 6 4 b p 0 ",
"% % 3 5 w 5 3 , , 2 3 w 6 8 r 7 6 6 5 5 5 4 3 3 5 5 4 w r r b b b r b b ; ; ; ; ; ; ; ; ; V.p y ",
". 3 9 p.a.a.} p } 1.i.i.%X%X%X%Xi.%Xi.i.%Xi.%Xi.i.%X%Xi.} } 1.} 1.} 1.1.1.} a.a.a.a.a.1.1.i.i.y ",
"6 9 0 t y 0 : 0 0 x.{ : : { x.{ { 9 { 9 9 9 <.{ { { }.9 9 <.<.9 <.9 9 9 9 { <.9 9 9 9 9 9 { a <."};
