/* XPM */
static char * image_name[] = {
"48 48 248 2",
"  	c None",
". 	c #58588484B0B0",
"X 	c #6E6E92929C9C",
"o 	c #84849C9C7C7C",
"O 	c #7E7E92926C6C",
"+ 	c #727282826464",
"@ 	c #45457C7CB4B4",
"# 	c #72729A9ABCBC",
"$ 	c #CECECECEBCBC",
"% 	c #ADADB3B3ACAC",
"& 	c #7E7E9696A4A4",
"* 	c #90909C9C9898",
"= 	c #A4A4A4A48484",
"- 	c #8A8A92927C7C",
"; 	c #9E9E9B9B7171",
": 	c #989892926464",
"> 	c #4C4C8282B8B8",
", 	c #A6A6BEBEC4C4",
"< 	c #EAEAEEEECCCC",
"1 	c #FAFAFAFAE1E1",
"2 	c #CACAD2D2BCBC",
"3 	c #9898B0B0B0B0",
"4 	c #B8B8AEAE8C8C",
"5 	c #CECEC4C49494",
"6 	c #B8B8B3B38484",
"7 	c #BFBFB5B58181",
"8 	c #A8A89C9C6464",
"9 	c #9292B2B2C4C4",
"0 	c #FEFEFCFCDCDC",
"q 	c #FCFCFAFACCCC",
"w 	c #D2D2D2D2A4A4",
"e 	c #F6F6F2F2ACAC",
"r 	c #D4D4CCCCA0A0",
"t 	c #AEAE92926464",
"y 	c #909086866C6C",
"u 	c #C6C6CACABCBC",
"i 	c #F9F9F6F6CCCC",
"p 	c #BEBEC2C2A4A4",
"a 	c #DEDEDADAA4A4",
"s 	c #DADAD6D69C9C",
"d 	c #828282826C6C",
"f 	c #C5C594945E5E",
"g 	c #CDCDA3A37272",
"h 	c #D2D295955757",
"j 	c #CACA92925454",
"k 	c #ADAD84845858",
"l 	c #797958583A3A",
"z 	c #24241D1D1616",
"x 	c #020202020404",
"c 	c #DADADEDEACAC",
"v 	c #C2C2BABA8484",
"b 	c #F6F6EEEEA4A4",
"n 	c #5E5E5E5E5C5C",
"m 	c #767672726060",
"M 	c #5D5D62625959",
"N 	c #DFDFB4B48686",
"B 	c #E2E2CCCC9898",
"V 	c #EDEDCBCB9494",
"C 	c #ECECCDCD9F9F",
"Z 	c #E3E3C3C39090",
"A 	c #E1E1BDBD8C8C",
"S 	c #DADAACAC8080",
"D 	c #929276765454",
"F 	c #2C2C24241C1C",
"G 	c #41417474A8A8",
"H 	c #56568C8CBCBC",
"J 	c #6A6A9696B4B4",
"K 	c #76769A9AACAC",
"L 	c #9A9ABABA9494",
"P 	c #AAAABABA9494",
"I 	c #D0D0BCBC8C8C",
"U 	c #29293D3D5050",
"Y 	c #4D4D52524F4F",
"T 	c #5A5A5B5B5858",
"R 	c #0B0B0B0B0C0C",
"E 	c #ACAC8A8A6060",
"W 	c #E0E0C3C39E9E",
"Q 	c #ECECC4C49696",
"! 	c #ECECBEBE8C8C",
"~ 	c #D8D8B5B58888",
"^ 	c #B6B68E8E6161",
"/ 	c #65654B4B3434",
"( 	c #4E4E7E7EB4B4",
") 	c #52528686BCBC",
"_ 	c #62628A8AACAC",
"` 	c #A2A2AEAE9C9C",
"' 	c #D6D6C4C49090",
"] 	c #202044446B6B",
"[ 	c #21213D3D5050",
"{ 	c #43434B4B4A4A",
"} 	c #8A8A70705454",
"| 	c #C5C59D9D7070",
" .	c #D3D3AEAE7979",
"..	c #CBCB9A9A6969",
"X.	c #A7A77E7E5757",
"o.	c #71714E4E3939",
"O.	c #3C3C6C6CA0A0",
"+.	c #4A4A7C7CACAC",
"@.	c #52527A7A9C9C",
"#.	c #A1A1B3B38F8F",
"$.	c #B8B8A6A68484",
"%.	c #AEAEA6A68888",
"&.	c #363652526C6C",
"*.	c #20203E3E5F5F",
"=.	c #2E2E44444F4F",
"-.	c #525243433434",
";.	c #949470705252",
":.	c #BDBD9D9D7474",
">.	c #EDEDC6C68787",
",.	c #F2F2CBCB8C8C",
"<.	c #DADAA2A25C5C",
"1.	c #AAAA78785050",
"2.	c #57573C3C2929",
"3.	c #343464649494",
"4.	c #B9B9BABAB4B4",
"5.	c #B2B2A6A67474",
"6.	c #5C5C6A6A7070",
"7.	c #28284D4D7474",
"8.	c #656553533E3E",
"9.	c #7E7E5F5F4141",
"0.	c #D7D7BDBD9494",
"q.	c #F6F6D4D49494",
"w.	c #F1F1D3D3A1A1",
"e.	c #F0F0D5D5AFAF",
"r.	c #D2D29E9E6C6C",
"t.	c #A3A377774F4F",
"y.	c #333325251C1C",
"u.	c #30305C5C8787",
"i.	c #3A3A66669494",
"p.	c #42426E6E9C9C",
"a.	c #5E5E7E7E9494",
"s.	c #3A3A56566C6C",
"d.	c #2A2A46466464",
"f.	c #363642424C4C",
"g.	c #7A7A66664C4C",
"h.	c #9E9E7E7E5C5C",
"j.	c #F5F5DBDBACAC",
"k.	c #D3D3A5A57272",
"l.	c #BABA92926464",
"z.	c #484868688484",
"x.	c #C0C0BEBE9898",
"c.	c #E2E2D3D39C9C",
"v.	c #929296967474",
"b.	c #666672726C6C",
"n.	c #46465A5A6464",
"m.	c #464652525C5C",
"M.	c #4C4C44443B3B",
"N.	c #52524A4A4444",
"B.	c #6E6E64645C5C",
"V.	c #8E8E7E7E6C6C",
"C.	c #BEBEAAAA9494",
"Z.	c #DADAC6C6ACAC",
"A.	c #F1F1E2E2C4C4",
"S.	c #FAFAEBEBCECE",
"D.	c #EAEADCDCB8B8",
"F.	c #E6E6D6D6B4B4",
"G.	c #CCCCB2B28484",
"H.	c #A0A083836060",
"J.	c #232323232424",
"K.	c #262646466464",
"L.	c #1E1E34344848",
"P.	c #44443D3D3636",
"I.	c #39393B3B3939",
"U.	c #63635E5E5757",
"Y.	c #F0F0DEDEC0C0",
"T.	c #F6F6E6E6C8C8",
"R.	c #E2E2CBCBA8A8",
"E.	c #C6C6AAAA8484",
"W.	c #B3B394947070",
"Q.	c #9A9A96968484",
"!.	c #3E3E33332A2A",
"~.	c #383834343131",
"^.	c #C4C4A2A27C7C",
"/.	c #5C5C4D4D3D3D",
"(.	c #2F2F34343737",
").	c #35352B2B2222",
"_.	c #3A3A2D2D2727",
"`.	c #575744443636",
"'.	c #A2A272724747",
"].	c #E2E2A5A55959",
"[.	c #E6E6AEAE6464",
"{.	c #E4E4B4B46C6C",
"}.	c #DCDC9C9C5858",
"|.	c #D2D28C8C5050",
" X	c #C8C885854C4C",
".X	c #BABA7A7A4848",
"XX	c #AFAF70704444",
"oX	c #969659593939",
"OX	c #787852523434",
"+X	c #23232B2B3131",
"@X	c #131314141414",
"#X	c #444435352A2A",
"$X	c #707054543C3C",
"%X	c #CCCCAAAA7C7C",
"&X	c #BBBB87875757",
"*X	c #1C1C1A1A1818",
"=X	c #919160603C3C",
"-X	c #DADA96965454",
";X	c #C6C68A8A5454",
":X	c #96966A6A4444",
">X	c #919169694949",
",X	c #42422E2E2424",
"<X	c #4B4B35352929",
"1X	c #5C5C36362424",
"2X	c #70703E3E2828",
"3X	c #B6B668683A3A",
"4X	c #BEBE72723C3C",
"5X	c #C5C579793F3F",
"6X	c #ADAD69693C3C",
"7X	c #85854F4F3434",
"8X	c #666644443030",
"9X	c #707044442C2C",
"0X	c #8E8E56563434",
"qX	c #C2C27E7E4C4C",
"wX	c #CECE86864C4C",
"eX	c #A0A058583838",
"rX	c #787846462C2C",
"tX	c #64643C3C2828",
"yX	c #525236362424",
"uX	c #4E4E3B3B2E2E",
"iX	c #A6A682825C5C",
"pX	c #AEAE7E7E5454",
"aX	c #B2B288885C5C",
"sX	c #888860604040",
"dX	c #5E5E46463434",
"fX	c #878766664949",
"gX	c #434344444545",
"hX	c #89898B8B8787",
"jX	c #ABABABABABAB",
"kX	c #A4A4A4A4A4A4",
"lX	c #717174747272",
"zX	c #939393939393",
"xX	c #B6B6B4B4B4B4",
"cX	c #777778787777",
"vX	c #2B2B2C2C2C2C",
"bX	c #9F9F9D9D9C9C",
"nX	c #838383838484",
"mX	c #7D7D7E7E7C7C",
"MX	c #6D6D6D6D6E6E",
"NX	c #66666A6A6464",
"BX	c #7E7E7A7A7C7C",
"VX	c #8E8E8D8D8C8C",
"CX	c #B2B2B2B2ACAC",
"ZX	c #3E3E3E3E3E3E",
"AX	c #4B4B4D4D4C4C",
"SX	c #9A9A9A9A9999",
"DX	c #646464646262",
"FX	c #535356565454",
"                                                                                                ",
"                                                                                                ",
"                                                                                                ",
"                                                                                                ",
"                                                                                                ",
"                . X o o o O +                                                                   ",
"            @ # $ % & * = - ; ; :                                                               ",
"          > , < 1 1 2 3 * 4 5 6 7 8                                                             ",
"        @ 9 1 1 1 0 q 1 < w e r 7 t y                                                           ",
"        @ u i 0 0 1 0 0 1 p a s = : d               f g g h j k l z x x                         ",
"      @ @ 3 p c < i i q i 5 v b v n m M         N B V C Z A N S g f D F x x x                   ",
"      G > H J K L L P r B I = = M U Y T R R E W C C Q Q Q ! A Z S ~ g ^ / x x x x               ",
"      G ( ) ) _ ` L ` 6 v I ' O ] [ { { R } |  .W ! ! Q Q Q A N S g ..f X.o.x x x x             ",
"      O.@ +.) @.#.v I 7 $.%.d &.*.[ U =.-.;.E :.~ Z Q >.C V ,.Q A S <...^ 1.2.x x x x           ",
"      3.G G +.@.4.B I 4 5.6.7.] [ [ [ U 8.9.D ^ g 0.,.q.q.w.e.V Q Z ~ r.f E t.y.x x x           ",
"      u.i.p.p.a.r s v = ; s.d.[ [ [ [ f.-.8.g.h.:.A e.j.j.q.j.e.B Q A ~ k.l.k 9.x x x x         ",
"        u.3.i.z.x.c.v v.b.n.m.[ [ [ [ Y M.N.B.V.C.Z.A.S.i S.S.A.A.D.F.Z.0.G.:.H.J.x x x         ",
"        7.u.u.u.` c.4 m K.n =.[ [ L.U P.I.M.U.V.$.Z.Y.S.S.S.T.A.Y.D.R.Z.I E.W.H.-.x x x         ",
"          K.7.7.z.Q.m K.] =.[ [ [ L.P.!.~.-.8.} W.G.V e.j.j.e.F.C Z A  .^.l.h.} /.x x x x       ",
"            *.] ] ] ] *.*.*.[ [ [ (.).y._.!.`.l '.j <.].[.{.{.}.|. X X.XXX'.oXOX2.x x x x       ",
"              *.*.*.*.[ [ *.*.L.+X@X_._.#X-.$X} ^ S >.>.>.Q ! N N ~ %X&Xk k ;.9./.x x x x       ",
"                U [ [ *.L.+X+X*X@X@X_.!.#X2.o.=X.X-X].].}.-X|.h h ;XXXXX:X>Xl / -.x x x x       ",
"                    x x R x @XR R @XF ,X<X1X2XoX3X4X5X4X3X3X6X;X^ &XXX=X7X2X8X2.,Xx x x x       ",
"                    x x x R R R @XR y.1X1X9X0X6X5XqXwX5X4X3X6XeXeX7XrX2XtXyXyX<Xy.x x x x       ",
"                      x x x R R R R z 8XrX7XeXXX Xj ;X X.X6X6XoXoX=X9.o.OX8X`.uX*Xx x x x       ",
"                        x R x x R R R l h.^ $.~ 0.~ G.%Xf iXpXt.>X9.l $X/.N.N.uXx x x x         ",
"                          x R R x R R !.iX^ :.| | ..:.l.aXH.>Xl $X/ `.2.uXuXP.*Xx x x x         ",
"                                R x x x / '.E pX1.t.:X>XsXl o.dXN.U.B.n P.!.y.x x x x x         ",
"                                      x x $X>X:X>XfXsXl o.dXgXhXjX% 4.jXkXlXR x x x x           ",
"                                            N.>XsX9.$X/./.P.zXxXxXxXkXhXcXB.T R x x x           ",
"                                              vXM.`.-.#X!.hXjXjXzXzXbXnXmXMXNXgXx x x           ",
"                    BXhXcX                        z )._.P.kXjXVXnXmXmXMXcXNXU.Y x x x           ",
"                MXjXCXkXVXlXZX                          T bXkXzXnXnXnXMXMXn Y AX@Xx x x         ",
"                jXSXhXVXBXMXn                           lXbXkXkXhXnXcXcXMXDXT AX(.x x x         ",
"              cXbXzXnXmXMXDXY +X                        DXnXzXSXzXcXDXT T FXFX{ vXx x x         ",
"              cXSXSXnXMXDXn FXI.                        N.MXnXzXQ.nXcXT Y AXAXZXJ.x x x         ",
"              T BXVXVXMXFXAXgXvX                          MXcXmXnXlXU.T Y AXgXZX@Xx x x         ",
"                DXlXMXDXFXAXZX@Xx x                       AXU.DXMXDXn T Y gXZX(.x x x x         ",
"                ~.AXAXgXZXI.J.x x x x                       AXY Y Y { gXZXI.ZXR x x x x         ",
"                    (.~.vX@Xx x x x x                         I.ZXP.I.I.~.).R x x x x x         ",
"                            x x x x x                           J.vX~.+X@Xx x x x x x           ",
"                              x x x                                       x x x x x             ",
"                                                                                                ",
"                                                                                                ",
"                                                                                                ",
"                                                                                                ",
"                                                                                                ",
"                                                                                                "};
