/* XPM */
static char * image_name[] = {
"20 20 187 2",
"  	c #CECECECECCCC",
". 	c #C2C2C6C6C4C4",
"X 	c #BEBEC2C2C4C4",
"o 	c #BEBEC2C2BCBC",
"O 	c #C2C2C2C2C4C4",
"+ 	c #C6C6C6C6C4C4",
"@ 	c #BABABEBEBCBC",
"# 	c #C6C6CACACCCC",
"$ 	c #86868A8A8C8C",
"% 	c #9A9AA2A2A4A4",
"& 	c #9A9A9E9E9C9C",
"* 	c #92929A9A9494",
"= 	c #929296969494",
"- 	c #96969E9E9C9C",
"; 	c #96969A9A9C9C",
": 	c #8E8E96969494",
"> 	c #8E8E92929494",
", 	c #82828A8A8C8C",
"< 	c #8A8A92929494",
"1 	c #4E4E52525454",
"2 	c #92929A9A9C9C",
"3 	c #828286868484",
"4 	c #82828A8A8484",
"5 	c #7E7E82828484",
"6 	c #86868E8E8C8C",
"7 	c #4A4A4E4E4C4C",
"8 	c #9A9AA2A29C9C",
"9 	c #72728A8A9C9C",
"0 	c #6A6A8686A4A4",
"q 	c #767692928C8C",
"w 	c #828296967C7C",
"e 	c #82828E8E8484",
"r 	c #767686866C6C",
"t 	c #6A6A76766464",
"y 	c #76767A7A7474",
"u 	c #8A8A8E8E8C8C",
"i 	c #86868A8A8484",
"p 	c #5E5E8282A4A4",
"a 	c #8A8AA6A6BCBC",
"s 	c #D2D2D2D2BCBC",
"d 	c #9696AAAAACAC",
"f 	c #868696969494",
"g 	c #A2A2A2A28C8C",
"h 	c #929292927C7C",
"j 	c #A2A2A2A27474",
"k 	c #96968E8E6464",
"l 	c #727276767474",
"z 	c #5E5E8686A4A4",
"x 	c #CACAD6D6CCCC",
"c 	c #FAFAFAFADCDC",
"v 	c #FAFAFAFAE4E4",
"b 	c #F2F2F2F2C4C4",
"n 	c #CECEDADACCCC",
"m 	c #AAAAB6B6ACAC",
"M 	c #D6D6CECE9C9C",
"N 	c #B6B6B2B28484",
"B 	c #5A5A5E5E5C5C",
"V 	c #7A7A7E7E7C7C",
"C 	c #424246464444",
"Z 	c #9A9A9A9A9C9C",
"A 	c #6A6A82829494",
"S 	c #7A7A9E9EBCBC",
"D 	c #F6F6F6F6D4D4",
"F 	c #FAFAFAFAD4D4",
"G 	c #F2F2F6F6D4D4",
"H 	c #CECECECE9C9C",
"J 	c #EAEAE6E6A4A4",
"K 	c #AEAEA6A67C7C",
"L 	c #6A6A6A6A5454",
"P 	c #6A6A6A6A6C6C",
"I 	c #46464A4A4C4C",
"U 	c #52527A7AA4A4",
"Y 	c #6E6E9696B4B4",
"T 	c #BABAC6C6A4A4",
"R 	c #D6D6DADAB4B4",
"E 	c #EAEAEEEEC4C4",
"W 	c #FAFAF6F6CCCC",
"Q 	c #FAFAF2F2BCBC",
"! 	c #B2B2B2B29494",
"~ 	c #EEEEE6E6A4A4",
"^ 	c #626266665454",
"/ 	c #626266666464",
"( 	c #7A7A82828484",
") 	c #9E9EA2A2A4A4",
"_ 	c #46467676ACAC",
"` 	c #4E4E8686BCBC",
"' 	c #5A5A8E8EBCBC",
"] 	c #6E6E9696ACAC",
"[ 	c #9A9ABABA9494",
"{ 	c #9696B2B28C8C",
"} 	c #BABABABA9494",
"| 	c #CACABEBE8C8C",
" .	c #C6C6B2B28C8C",
"..	c #3E3E56566464",
"X.	c #363642424C4C",
"o.	c #6A6A6A6A6464",
"O.	c #6A6A72727474",
"+.	c #3E3E7272A4A4",
"@.	c #4A4A8282B4B4",
"#.	c #62628686A4A4",
"$.	c #BEBEBABA8C8C",
"%.	c #BEBEB2B28484",
"&.	c #C2C2B2B27C7C",
"*.	c #7A7A82827474",
"=.	c #2E2E46465C5C",
"-.	c #3E3E3E3E3C3C",
";.	c #767676767474",
":.	c #AAAAAAAAACAC",
">.	c #727272727474",
",.	c #4A4A4A4A4C4C",
"<.	c #3A3A3E3E3C3C",
"1.	c #3A3A6A6A9C9C",
"2.	c #4A4A7A7AA4A4",
"3.	c #56567E7E9C9C",
"4.	c #D6D6CECEACAC",
"5.	c #D2D2C6C68C8C",
"6.	c #BABAB2B27C7C",
"7.	c #AAAA9E9E7474",
"8.	c #46465E5E7474",
"9.	c #222246466464",
"0.	c #3A3A4E4E5C5C",
"q.	c #7E7E7E7E7C7C",
"w.	c #626262626464",
"e.	c #363636363434",
"r.	c #2E2E2E2E2C2C",
"t.	c #3E3E62628C8C",
"y.	c #666682829494",
"u.	c #DADACECE9C9C",
"i.	c #D6D6C2C29494",
"p.	c #868686868484",
"a.	c #2E2E4E4E6464",
"s.	c #262642425C5C",
"d.	c #525256565454",
"f.	c #3A3A3A3A3C3C",
"g.	c #1E1E1E1E1C1C",
"h.	c #2A2A2A2A2C2C",
"j.	c #525266667474",
"k.	c #2E2E5A5A8C8C",
"l.	c #424266668484",
"z.	c #DEDED6D6ACAC",
"x.	c #8E8E8E8E7474",
"c.	c #3E3E52526464",
"v.	c #B6B6B6B6B4B4",
"b.	c #8E8E8E8E8C8C",
"n.	c #464646464444",
"m.	c #2A2A2E2E3434",
"M.	c #2E2E32322C2C",
"N.	c #6A6A6E6E6C6C",
"B.	c #2A2A4E4E7474",
"V.	c #2A2A4E4E7C7C",
"C.	c #9A9A92927C7C",
"Z.	c #1E1E3A3A5454",
"A.	c #5E5E6A6A7474",
"S.	c #1A1A1A1A1C1C",
"D.	c #3E3E42424444",
"F.	c #5A5A62625C5C",
"G.	c #222242426C6C",
"H.	c #1E1E42427474",
"J.	c #22223E3E5C5C",
"K.	c #1E1E3E3E6464",
"L.	c #1E1E3E3E5454",
"P.	c #7A7A82828C8C",
"I.	c #161616161414",
"U.	c #323236363434",
"Y.	c #5A5A5E5E6464",
"T.	c #3E3E42423C3C",
"R.	c #86868E8E9494",
"E.	c #2E2E3E3E5454",
"W.	c #26263E3E5454",
"Q.	c #1E1E3E3E5C5C",
"!.	c #222236364444",
"~.	c #5E5E62626464",
"^.	c #6E6E72726C6C",
"/.	c #32323A3A3C3C",
"(.	c #2A2A36363C3C",
").	c #2A2A32323434",
"_.	c #323232323434",
"`.	c #56565A5A5C5C",
"'.	c #6E6E76767474",
"].	c #5A5A5A5A5C5C",
"[.	c #8A8A92928C8C",
"{.	c #A2A2A6A6A4A4",
"}.	c #7E7E86868484",
"|.	c #76767A7A7C7C",
" X	c #6E6E72727474",
".X	c #56565A5A5454",
"XX	c #36363A3A3C3C",
"  . X X o O . . . . + . o @ @ . # + @ $ ",
". % & * = - & & & ; : > , , = & ; < = 1 ",
"O ; = - = 2 = < 3 , 4 5 5 $ = ; 6 * = 7 ",
"o 8 = ; = = 9 0 q w e r t y u i > = - 1 ",
"X & > 2 u p a s d f g h j k l l u & 8 7 ",
"X - * > z x c v b n m M M N k B V ; u C ",
"X Z ; A S D v c c F G H J K k L P 3 3 I ",
"@ % 2 U Y T R E b W Q ! ~ N ^ ^ 7 / ( 7 ",
"@ ) 6 _ ` ' ] [ { } |  .g ..X.o.P 1 O.C ",
"o % V +.@.` #.} $.%.&.&.*.=.-.;.:.>.,.<.",
". 2 ( 1._ 2.3.4.5.6.7.8.9.0.-.-.q.w.e.r.",
". : 5 t.1.1.y.u.i.j p.a.s./ Z d.7 f.g.h.",
"+ : i j.k.k.l.z.| x.c.B s.u v.b.n.g.m.M.",
". > 6 N.c.B.V.e C...s.=.Z.A.v.q.e.S.n.D.",
"# = > V F.9.G.H.J.K.L.L.L.P.p.M.I.U.Y.T.",
". ; : R.;.d.E.W.Q.Q.Z.Z.!.> w.S.U.~.V I ",
". 2 = = u ^.1 D./.(.).M.f.>._.r.`.5 6 7 ",
". = : - & p.'.w.d.7 n.I B ].-.1 y [.> 7 ",
"+ = = {.& $ }.5 q.|.N.N. XB .XN.$ * < 7 ",
"< 7 1 1 7 I I 7 7 7 n.I 7 C XXC 7 1 7 C "};
