/* XPM */
static char * image_name[] = {
"48 48 215 2",
"  	c #C71BCB2BC71B",
". 	c #BEFBBEFBBEFB",
"X 	c #BEFBBAEABEFB",
"o 	c #B6DABAEABEFB",
"O 	c #BEFBC30BC71B",
"+ 	c #BEFBBEFBB6DA",
"@ 	c #B6DAB6DAB6DA",
"# 	c #B6DABAEAB6DA",
"$ 	c #C71BC71BC71B",
"% 	c #A699AEBAAEBA",
"& 	c #EFBEF3CEF7DE",
"* 	c #EFBEEBADEFBE",
"= 	c #CF3CD34CD75C",
"- 	c #CF3CCF3CCF3C",
"; 	c #D75CD75CD75C",
": 	c #D75CDB6CD75C",
"> 	c #DF7DDF7DDF7D",
", 	c #DF7DE38DE79D",
"< 	c #DF7DDB6CDF7D",
"1 	c #71C679E779E7",
"2 	c #492451445144",
"3 	c #A699AAAAAEBA",
"4 	c #A699AAAAA699",
"5 	c #A699A699A699",
"6 	c #9E79A289A699",
"7 	c #AEBAB2CAB6DA",
"8 	c #9E799E799E79",
"9 	c #96589A699658",
"0 	c #8E3892489658",
"q 	c #965896589658",
"w 	c #86178E388E38",
"e 	c #79E786178617",
"r 	c #96589A699E79",
"t 	c #9E79A2899658",
"y 	c #514459655965",
"u 	c #49244D344924",
"i 	c #AEBAB6DAB6DA",
"p 	c #AEBAA699A699",
"a 	c #86178A288617",
"s 	c #9E79A2899E79",
"d 	c #410341034103",
"f 	c #492449244924",
"g 	c #86178A288E38",
"h 	c #9E799E799658",
"j 	c #41033CF338E3",
"k 	c #410345144103",
"l 	c #AEBAB2CAAEBA",
"z 	c #79E782078617",
"x 	c #79E779E771C6",
"c 	c #38E33CF338E3",
"v 	c #71C671C669A6",
"b 	c #208118611040",
"n 	c #082004100000",
"m 	c #208120811040",
"M 	c #30C230C228A2",
"N 	c #69A665955965",
"B 	c #71C675D669A6",
"V 	c #10400C300820",
"C 	c #30C228A22081",
"Z 	c #96588E3869A6",
"A 	c #B6DAA69979E7",
"S 	c #CF3CCB2BB6DA",
"D 	c #30C22CB228A2",
"F 	c #A699965869A6",
"G 	c #B6DAA28979E7",
"H 	c #D75CD34CBEFB",
"J 	c #79E76DB65144",
"K 	c #A6999A6979E7",
"L 	c #AEBA9E7971C6",
"P 	c #CF3CC71BB6DA",
"I 	c #9E799A698617",
"U 	c #186114511040",
"Y 	c #38E338E338E3",
"T 	c #9E798E3869A6",
"R 	c #AEBA9A6971C6",
"E 	c #C71BB2CA9658",
"W 	c #B6DAAAAA8E38",
"Q 	c #9E79965879E7",
"! 	c #4924451430C2",
"~ 	c #4924410338E3",
"^ 	c #96588A286185",
"/ 	c #A699A2899E79",
"( 	c #AEBA965871C6",
") 	c #DF7DDB6CCF3C",
"_ 	c #5965514438E3",
"` 	c #C71BBAEA9E79",
"' 	c #965886176185",
"] 	c #A699924871C6",
"[ 	c #71C66DB65965",
"{ 	c #8E3879E75965",
"} 	c #BEFBB6DAA699",
"| 	c #30C234D330C2",
" .	c #A6998E3869A6",
"..	c #A6999E798617",
"X.	c #8617820779E7",
"o.	c #69A669A66185",
"O.	c #71C679E771C6",
"+.	c #492445144103",
"@.	c #4924410330C2",
"#.	c #71C661854924",
"$.	c #A6998A2869A6",
"%.	c #965882076185",
"&.	c #618561855144",
"*.	c #596551445144",
"=.	c #CF3CCB2BC71B",
"-.	c #69A65D754103",
";.	c #8E388A288617",
":.	c #186110401040",
">.	c #5965492438E3",
",.	c #9E797DF76185",
"<.	c #9E7986176185",
"1.	c #A699861769A6",
"2.	c #618555554103",
"3.	c #8E38861779E7",
"4.	c #A6999A699658",
"5.	c #69A671C671C6",
"6.	c #28A21C711861",
"7.	c #20811C711040",
"8.	c #86176DB65144",
"9.	c #9E7982076185",
"0.	c #8E388E388E38",
"q.	c #69A665956185",
"w.	c #38E32CB22081",
"e.	c #A6998A2879E7",
"r.	c #D75CCF3CC71B",
"t.	c #D75CD34CCF3C",
"y.	c #69A675D671C6",
"u.	c #000000000000",
"i.	c #C71BBEFBAEBA",
"p.	c #965892488E38",
"a.	c #61855D755965",
"s.	c #DF7DD75CCF3C",
"d.	c #BEFBBAEAB6DA",
"f.	c #79E77DF779E7",
"g.	c #208114511040",
"h.	c #9E7979E76185",
"j.	c #CF3CBEFBB6DA",
"k.	c #8617820769A6",
"l.	c #86177DF771C6",
"z.	c #A6999E799658",
"x.	c #410334D330C2",
"c.	c #51443CF330C2",
"v.	c #965875D66185",
"b.	c #C71BB6DAA699",
"n.	c #B6DAAAAAAEBA",
"m.	c #492438E338E3",
"M.	c #61854D344103",
"N.	c #965871C65965",
"B.	c #C71BB2CAA699",
"V.	c #71C65D754924",
"C.	c #A6998E3879E7",
"Z.	c #86177DF779E7",
"A.	c #96586DB65965",
"S.	c #AEBA8E3879E7",
"D.	c #D75CCB2BBEFB",
"F.	c #965869A65965",
"G.	c #D75CCF3CCF3C",
"H.	c #861786178617",
"J.	c #6185492438E3",
"K.	c #8E3869A65965",
"L.	c #E79DDF7DDF7D",
"P.	c #BEFBB6DAB6DA",
"I.	c #86175D755144",
"U.	c #8E3865955144",
"Y.	c #8E3861855144",
"T.	c #861761855965",
"R.	c #71C651444103",
"E.	c #8E385D755144",
"W.	c #C71BB2CAAEBA",
"Q.	c #EFBEEFBEE79D",
"!.	c #861751444924",
"~.	c #861759655144",
"^.	c #D75CC71BC71B",
"/.	c #E79DE38DE79D",
"(.	c #618559655144",
").	c #082008200820",
"_.	c #492424922081",
"`.	c #861755554924",
"'.	c #CF3CB6DAB6DA",
"].	c #38E328A228A2",
"[.	c #28A218611040",
"{.	c #79E74D344103",
"}.	c #BEFBA699A699",
"|.	c #49242CB228A2",
" X	c #86174D344924",
".X	c #9E7979E771C6",
"XX	c #BEFBB2CAAEBA",
"oX	c #79E749244924",
"OX	c #BEFB9E799E79",
"+X	c #79E745144103",
"@X	c #BEFBAAAA8E38",
"#X	c #69A6410338E3",
"$X	c #79E741034103",
"%X	c #71C669A669A6",
"&X	c #E79DDB6CDF7D",
"*X	c #30C224922081",
"=X	c #410330C230C2",
"-X	c #71C638E338E3",
";X	c #208110401040",
":X	c #71C63CF338E3",
">X	c #59652CB228A2",
",X	c #69A638E338E3",
"<X	c #EFBEE79DE79D",
"1X	c #69A63CF338E3",
"2X	c #8E3879E779E7",
"3X	c #AEBA92489658",
"4X	c #BEFBAEBAAEBA",
"5X	c #30C230C230C2",
"6X	c #28A228A228A2",
"7X	c #28A224922081",
"8X	c #28A22CB228A2",
"9X	c #514455555144",
"0X	c #492455555144",
"qX	c #51445D755965",
"wX	c #59655D755965",
"    . . . . . . X X o o . . . . O + . . + . . . . O O O O . o @ # @ @ @ o . O O $ $ $ . @ X % % ",
"o & * = = = = - = ; ; ; = = ; ; ; : ; ; : ; ; > , > > > > < ; : ; : : : < < > > > , > : : o 1 2 ",
"X > $ % 3 % % 4 5 6 6 5 3 3 % % 3 % % % 7 % % 6 8 8 9 0 q w e e e w 0 q r 8 5 5 t r w w q 9 y u ",
"i : p 0 q q q q q 0 0 0 0 q r r r q r 8 8 8 r q r q 0 q 0 w a e w 0 q q 8 6 6 r 0 w w 0 s w d f ",
"@ : % 0 q q q q 9 9 q q r 9 9 9 r 9 9 r r q q q q q 0 0 0 w a g q q q r h 6 8 0 a w q r t g j k ",
"i ; l q 0 r r r 8 r 9 q q r q q 9 r q q q 0 w z x z 0 q q w a w 0 q 9 s 5 s q a w q r r 8 e c f ",
"# ; 7 r 0 9 r 9 8 8 9 q r 8 r q r 9 q 0 0 v b n m M N w 0 w w 0 q q r s 5 9 g a q 8 r 9 8 e j u ",
"@ : l 8 q q 9 q r r q q r r 8 8 r q q 0 B V C Z A A S h q 0 0 q q 8 s 6 6 0 a 0 9 r 9 r 8 w d u ",
"7 ; % 6 r 0 q 9 r r q q 8 8 8 r 9 0 0 0 D m F G G G H % 0 0 q 9 q r 6 5 r w w 9 9 r q r 5 0 d f ",
"i : % 6 q w q q 8 r q r 8 8 8 8 q q 0 9 V J K L L G P I B U n j w 8 5 6 q a 0 q q q 8 5 % w Y d ",
"i ; % 6 9 w q 9 8 r 9 8 s 8 r 8 9 9 q q n T R L L E W Q ! ~ ^ A / 8 5 s 0 g 9 r r 8 4 % % e Y k ",
"@ : 4 8 q 0 9 r 8 8 q r r r r q r r q r V T ( F L ) K Z _ K K ` > 5 4 r w w q q 9 6 % % 6 z Y u ",
"@ : 3 r 8 q r 8 r r r 8 9 q q 9 q q q r ~ ' ] L H * Q [ { R G ` } 5 s 0 a 0 r r r 6 3 6 q x | f ",
"@ ; 3 q q 8 r r 9 q q r q q q q r r q 9 e [  .] K t w j ] W G ( ..X.o.e w q r r 5 4 6 8 q O.| +.",
"# : 4 0 q 8 r q 0 q q r r r 9 s 8 r q w @.b #.$. .%.&.*.S =.( ( %.-.[ ;.q 9 9 8 3 % 5 8 q O.| k ",
"@ ; 5 9 r 5 8 w 0 0 q 9 8 r 8 6 6 r B :.n >.,.$.<.1.{ 2.3.6 4.[ { ] E $ 6 8 8 5 3 6 r 9 q 5.| u ",
"X : 5 r s 5 8 w 0 q q q r 8 5 3 5 r 6.7.8.<.9.<.<.$.1.1.$.0.q.w.e.A r.t.3 5 5 5 8 q 0 w a 5.| 2 ",
"@ ; 4 8 6 4 8 w 0 0 q r 8 s 6 5 8 y.u.#.,.,.9.,.9.9.9.<.$.i.p.a.i.r.s.d.3 8 8 r w a w a w f.c 2 ",
"@ = 3 8 5 5 r g 0 0 q r 8 s 8 8 r j g.h.h.h.,.h.,.%.,.,.%.j.p k.l.Z z.p 6 0 0 w e g w 0 8 e c 2 ",
"@ ; 5 8 5 3 r a w q q 8 8 8 6 t 8 x.c.v.h.h.v.h.v.h.h.h.h.b.n.f.M m.! a.z e g a g 0 q q 8 a d u ",
"7 = 3 6 4 5 0 e a 0 q 8 8 6 6 6 8 N M.N.N.v.v.v.v.h.h.h.v.B.} B V V.v.C.h z e w w 0 9 q r z Y u ",
"% = 4 6 3 s w e w q q 8 6 6 5 5 8 0.Z.] N.A.N.N.N.N.v.N.v.B.i.;.w.,.S.r.D.e w q q 9 q 9 9 f.Y k ",
"7 = % s 6 9 e a 0 9 r 8 s 6 5 5 8 q q w { F.A.A.A.A.N.N.N.B.d.w x G.* ) / w q q q r q r r z Y +.",
"o ; 5 8 s q a a q q r 8 6 s s s 8 0 0 0 H.J.K.K.A.A.F.A.N.L.P.0 r 5 5 q a q q r r q 9 q r z Y f ",
"O : 6 8 r r 0 w q r 8 8 s 6 6 s r 0 w w o.u.I.U.U.K.K.K.e.* q q s 3 s w a q r q r q r r r z Y f ",
"O : 6 8 q q 0 0 9 8 8 8 8 6 5 6 q w g 5.V U Y.T.U.U.U.U.s.t.w r 6 4 r a w 9 9 r 9 r 9 9 r f.Y +.",
"O : 8 r q r 9 0 r r 8 r 8 5 5 s 0 e *.n V R.Y.E.E.E.F.W.Q.4.0 r 6 5 r w 0 q r q r r r r r f.Y f ",
"$ : 8 r 0 r q q q 8 8 8 8 s 6 8 g j n 6.!.~.~.~.I.U.^./.n.0 r s 5 3 s q q r 9 r q q r 9 8 z Y f ",
"$ > 8 9 q r q q 9 r 8 8 r 8 8 r (.)._.R.`.`.~.`.Y.'./.h w q r 8 5 5 8 r q 0 9 r 9 q q r 8 z Y f ",
"O : q q q 8 8 q r r r 8 8 6 6 8 ].[.{.!.!.!.!.`.}./.p w 0 q 8 8 r q w w 0 0 0 q q 9 9 9 r z Y f ",
"$ < q q r 8 8 r r r r 8 8 s s q 6.|.{. X!.!.!..X* XXw 0 q q r 9 q 0 a w 0 q 0 0 q q r 8 r z Y u ",
"$ > q q q 8 8 r 9 q 8 8 5 5 r 0 j |.oXoXoX{. XOX^.0 w q 9 9 r q q q q q 9 9 q q 9 8 8 r 8 z d 2 ",
"$ : q q q r 8 q q 0 r 8 6 3 8 w B |.+X+X+XoXoX.X@Xw w q 9 q r 9 q q r 9 q q q r 8 8 s s s a c 2 ",
"$ > q q 9 8 r 9 0 q 9 r 6 5 8 g g q.#X+X+X$X+X$XI.0.q q q r q q r r r r r r 9 q 8 6 6 6 5 e Y +.",
"$ < q q q r r r 0 0 9 8 s 6 t w a w %X}.A. X X~.'.p 0.r r r r q r 9 9 r 9 q r r 9 q r 0 0 y.| k ",
"$ > 8 q r 9 8 8 9 r r 8 8 s 8 0 e g 0 p.z.^.L.L.&X/ 8 q r 8 r 9 r q q q q r q q 9 q w a e y.| k ",
"$ < 8 r 9 q r r q r 8 6 8 8 8 q a a 0 r r 8 r r q q 8 9 8 r 9 r 9 q q r q q q q q 0 w w w O.Y f ",
"O : 8 r q r q 8 r 8 8 r 6 8 q 0 w *Xu.u.n =X0.r q 9 r r 8 r 0 q q q q q r 9 r q q 9 q q q z Y f ",
"$ > r q q q r 8 r r 8 r r r q 0 *.u._.-X-X+X;.r q q 8 8 8 q 0 0 q q q q r r 9 r q q q q q f.Y f ",
"O : 8 9 0 q q 8 8 r s 8 8 9 0 w ;X;X-X:X:X$XL.q q q 8 8 r 0 w q q q q 9 r q 9 r r 9 q q 9 z c f ",
"O : r 9 q q q 9 8 r 6 6 8 r q q n >X-X:X-X:X* q q q 8 8 r w w 0 0 q q q r q r q q 0 q q r z c u ",
"$ : q q 9 q 0 q 8 6 5 5 r q q 0 n ,X:X:X:XE.<Xq r r r 8 q 0 0 q q q q r q q q 9 q q q r 9 e Y f ",
"$ < r r r r 0 q 6 6 6 6 8 q q 0 x.1X-X:X+XW.r.q r q q q q q 0 0 0 q q q q q q r r q q r r e c u ",
"O > 8 q 9 0 q 8 5 4 5 s q q w w x 2X3X3X^.L.p r r r 0 q 8 q 0 q q r r 9 r q r r 9 8 8 s s e c u ",
"$ < 8 q q q r 5 3 4 6 9 0 w w w w 0 ;.}.4X/ 5 r 0 q 0 0 8 8 q q q q r q r r 9 r 8 6 8 8 8 z Y u ",
"  - q 0 0 q s 4 5 6 r q 0 w w a 0 0 r r r 8 6 r 0 0 q 0 e e f.f.z z f.z f.z z z e z z z f.5.c f ",
"O 6 y 5X5X| Y j Y | 6X7X7X7X7X7X6X7X6X6X6X6X8X6X6X7X6X6X| Y | | Y Y | Y | | Y | Y Y | Y | 8X6Xf ",
"e 9Xu d f u 2 2 2 2 9X0X0X2 2 2 0Xy y y y qXy y 9X0X0Xy qXqXqXy y y 9X0Xy y y y y y y y y 0X+.wX"};
