/* XPM */
static char * image_name[] = {
"48 48 185 2",
"  	c None",
". 	c #7A7A76766464",
"X 	c #7A7A72725C5C",
"o 	c #C2C2AEAE9C9C",
"O 	c #72726A6A5454",
"+ 	c #76766E6E5C5C",
"@ 	c #4E4E4A4A3C3C",
"# 	c #9E9E96967C7C",
"$ 	c #B2B2A6A68C8C",
"% 	c #6E6E66665454",
"& 	c #72726A6A5C5C",
"* 	c #6E6E6A6A5454",
"= 	c #AEAEA2A28484",
"- 	c #6E6E62625454",
"; 	c #9E9E92927C7C",
": 	c #8A8A82826C6C",
"> 	c #62625A5A4C4C",
", 	c #6A6A62625454",
"< 	c #666662624C4C",
"1 	c #8E8E86867474",
"2 	c #7E7E76766464",
"3 	c #5A5A52524444",
"4 	c #767666665454",
"5 	c #66665E5E4C4C",
"6 	c #5E5E5A5A4C4C",
"7 	c #A2A296967C7C",
"8 	c #96968A8A7474",
"9 	c #82827A7A6464",
"0 	c #6A6A66665454",
"q 	c #62625E5E4C4C",
"w 	c #5E5E56564444",
"e 	c #52524A4A3C3C",
"r 	c #9A9A92927C7C",
"t 	c #3E3E3A3A2C2C",
"y 	c #72726E6E5C5C",
"u 	c #5A5A56564444",
"i 	c #262622221C1C",
"p 	c #9A9A8E8E7474",
"a 	c #8A8A7E7E6C6C",
"s 	c #222222221C1C",
"d 	c #6A6A62624C4C",
"f 	c #4A4A42423434",
"g 	c #86867E7E6464",
"h 	c #767672725C5C",
"j 	c #666662625454",
"k 	c #5E5E56564C4C",
"l 	c #565652524444",
"z 	c #B6B6B2B2ACAC",
"x 	c #F2F2F2F2F4F4",
"c 	c #FAFAFAFAFCFC",
"v 	c #C6C6C6C6C4C4",
"b 	c #86867E7E6C6C",
"n 	c #929286867474",
"m 	c #CECECACAC4C4",
"M 	c #F2F2EEEEECEC",
"N 	c #AAAAA6A69C9C",
"B 	c #56564E4E4444",
"V 	c #32322E2E2424",
"C 	c #020202020404",
"Z 	c #121212120C0C",
"A 	c #0A0A0A0A0C0C",
"S 	c #D2D2D2D2CCCC",
"D 	c #9E9E9E9E9C9C",
"F 	c #C6C6C2C2B4B4",
"G 	c #8A8A82827474",
"H 	c #EAEAEAEAECEC",
"J 	c #F6F6F6F6F4F4",
"K 	c #52524E4E3C3C",
"L 	c #4E4E46463C3C",
"P 	c #42423E3E3434",
"I 	c #060606060404",
"U 	c #2A2A2A2A2C2C",
"Y 	c #565656565454",
"T 	c #3A3A3A3A3434",
"R 	c #1E1E1E1E1C1C",
"E 	c #121212121414",
"W 	c #C2C2C2C2C4C4",
"Q 	c #7A7A7A7A7C7C",
"! 	c #161616161414",
"~ 	c #B2B2AEAEACAC",
"^ 	c #E2E2E2E2DCDC",
"/ 	c #E6E6E6E6E4E4",
"( 	c #A2A2A2A2A4A4",
") 	c #6E6E6E6E6C6C",
"_ 	c #BABABABABCBC",
"` 	c #EEEEEEEEECEC",
"' 	c #52524E4E4444",
"] 	c #464646463434",
"[ 	c #424242423434",
"{ 	c #464642423434",
"} 	c #626262626464",
"| 	c #AEAEAEAEACAC",
" .	c #5E5E5E5E5C5C",
"..	c #2E2E2E2E2C2C",
"X.	c #AAAAAAAAACAC",
"o.	c #A6A6A6A6A4A4",
"O.	c #9A9A9A9A9C9C",
"+.	c #323232322C2C",
"@.	c #3E3E3E3E3C3C",
"#.	c #DEDEDEDEDCDC",
"$.	c #7E7E7E7E7C7C",
"%.	c #46463E3E3434",
"&.	c #363632322424",
"*.	c #B6B6B6B6B4B4",
"=.	c #323232323434",
"-.	c #424242424444",
";.	c #8A8A8A8A8484",
":.	c #222222222424",
">.	c #525252525454",
",.	c #DADADADADCDC",
"<.	c #D2D2D2D2D4D4",
"1.	c #7A7A72726464",
"2.	c #3A3A36362C2C",
"3.	c #36362E2E2424",
"4.	c #4E4E4E4E4C4C",
"5.	c #464646464444",
"6.	c #4A4A4A4A3C3C",
"7.	c #B2B2AEAEA4A4",
"8.	c #92928A8A7474",
"9.	c #9E9E9A9A9494",
"0.	c #4A4A4A4A4C4C",
"q.	c #BEBEBEBEBCBC",
"w.	c #6A6A66665C5C",
"e.	c #12120E0E0C0C",
"r.	c #0E0E0E0E0C0C",
"t.	c #363636363434",
"y.	c #3A3A3A3A3C3C",
"u.	c #5E5E5A5A5454",
"i.	c #82827E7E6C6C",
"p.	c #7E7E76765C5C",
"a.	c #D6D6D6D6D4D4",
"s.	c #5A5A5A5A5C5C",
"d.	c #666666666464",
"f.	c #929292928C8C",
"g.	c #6E6E6A6A5C5C",
"h.	c #4A4A46463434",
"j.	c #42423A3A2C2C",
"k.	c #6A6A66666464",
"l.	c #0A0A0A0A0404",
"z.	c #6A6A6A6A6464",
"x.	c #727272727474",
"c.	c #3E3E3E3E3434",
"v.	c #4A4A46463C3C",
"b.	c #22221E1E1C1C",
"n.	c #767672727474",
"m.	c #767672726C6C",
"M.	c #3E3E3A3A3434",
"N.	c #4E4E4A4A4444",
"B.	c #3E3E3E3E2C2C",
"V.	c #6E6E6E6E6464",
"C.	c #2A2A26262424",
"Z.	c #76766A6A5C5C",
"A.	c #363636362C2C",
"S.	c #2E2E2A2A2424",
"D.	c #262626261C1C",
"F.	c #72725E5E4444",
"G.	c #666656563C3C",
"H.	c #5A5A4A4A3434",
"J.	c #32322A2A1C1C",
"K.	c #161612120C0C",
"L.	c #1A1A16161414",
"P.	c #464642423C3C",
"I.	c #62625E5E5454",
"U.	c #5E5E52523C3C",
"Y.	c #7E7E6A6A4C4C",
"T.	c #929276765454",
"R.	c #92927A7A5C5C",
"E.	c #96967A7A5C5C",
"W.	c #8A8A72725454",
"Q.	c #7A7A66664C4C",
"!.	c #1A1A1A1A1414",
"~.	c #626262625454",
"^.	c #1E1E1A1A1414",
"/.	c #5E5E4E4E3434",
"(.	c #A6A68A8A6464",
").	c #BEBE9E9E7474",
"_.	c #C2C29E9E7474",
"`.	c #B2B2B2B2B4B4",
"'.	c #828282828484",
"].	c #323226261C1C",
"[.	c #E2E2E2E2E4E4",
"{.	c #767676767474",
"}.	c #868686868484",
"|.	c #1A1A1A1A1C1C",
" X	c #262626262424",
"                                                                                                ",
"                                                                                                ",
"                                                                                                ",
"                                                                                                ",
"                                                                                                ",
"                                                                                                ",
"                                                                                                ",
"                                                                                                ",
"                                                                                .               ",
"                                                                                X               ",
"                    o                                                         O + @             ",
"                    # $                                                     % & *               ",
"                      = #                                                 % O % -               ",
"                      = ; : >                                           % * % , <               ",
"                      * # 1 2 3                                       % 4 , 5 > 6               ",
"                        7 8 9 X *                                 > + * 0 < q w e               ",
"                        : r : 2 + % t                         e y y O , 5 > 6 u i               ",
"                          p 8 a 2 X + + % 5 s           q d * * 4 - , < q w 3 f                 ",
"                          1 8 1 g 9 2 + X X X 2 h * - d j d < 5 q > > k w 3 l i                 ",
"                      z x c v b n b m x c M N . X y 0 5 > > w u u l B l l l V C                 ",
"          Z A       S v D x c F G H J x x J J m + O 0 5 u 3 K e @ L L @ @ P I C                 ",
"      U Y Y T R E   W Q ! ~ J c ^ / ( ) _ ` H / 9 O , > u ' @ ] P [ { { t I C C                 ",
"      } | (  ...U q z R I X.J ` x o.O.+.@.` / #.$.% < k B L f %.t t P &.I C C C                 ",
"    ! ) *.o. .=.+.-.;.| ( H / F ^ ( :.A >./ ,.<.1.% 5 w K L P t t 2.3.I C C C                   ",
"    E 4.Q ) 5.=.@.6.6 # X.7.8.a 9.,.Y 0.W ,.<.q.w.5 6 l @ f P t t T e.C C C C                   ",
"    r.t.4.0.y.-.0.Y u.X 9 i.: g p._ #.a.,.a.W 9., 5 w B 6.{ P t 2.&.I C C C                     ",
"    r.U t.@.-.4.s.d.} % + X 9 g 9 X 1 ;.f.1 g.d q 3 K e h.P t j.j.i C C C C                     ",
"      U t.-.0.s.} ) k.q % y X 1.p.X + O g.0 j q 6 { { h.P P 2.T T l.C C C                       ",
"      ..-.>.s.z.x.$.k l > 5 * & + & O - d 5 > w c.T v.%.P t t 2.b.C C C C                       ",
"        5.s.k.n.$.m.K K l u > d , 5 5 q > k l [ M.N.u.B.2.t 2.2.I C C C                         ",
"          5.) V. .' h.{ @ B l u 6 l 3 l @ t C., Z., w j.2.t &.l.C C C C                         ",
"            6 % w @ v.{ ] h.L @ @ v.A.S.D.C.A.' , 4 4 F.G.H.H.J.J.K.b.r.                        ",
"                i C.D.i i i L.Z K.! b.C.2.P.3 j g.I.P U.Y.T.R.E.W.Q.G.v.                        ",
"                    A !.Z r.r.e.!.D.+.P 4.k ~.~.P S.^.I C L./.(.)._.7.`.'. .s.                  ",
"                            A r.Z !.!.b.D.C.^.r.I C C C C C C C ].W.o ` [.W f.{.>.              ",
"                                C C C C C C C C C C C C C C C               [.}.|.+.4.          ",
"                                    C C C C C C C C C C                         A :.T           ",
"                                                                                  r. X@.        ",
"                                                                                      ..5.      ",
"                                                                                                ",
"                                                                                                ",
"                                                                                                ",
"                                                                                                ",
"                                                                                                ",
"                                                                                                ",
"                                                                                                ",
"                                                                                                ",
"                                                                                                "};
