/* XPM */
static char * image_name[] = {
"48 48 221 2",
"  	c #C6C6CACAC4C4",
". 	c #C6C6CACACCCC",
"X 	c #BABABEBEBCBC",
"o 	c #BABABABABCBC",
"O 	c #B6B6BABABCBC",
"+ 	c #BEBEC2C2C4C4",
"@ 	c #BEBEBEBEBCBC",
"# 	c #C2C2C2C2C4C4",
"$ 	c #B2B2B6B6B4B4",
"% 	c #B2B2BABAB4B4",
"& 	c #C2C2C6C6C4C4",
"* 	c #AAAAAEAEACAC",
"= 	c #F2F2F2F2ECEC",
"- 	c #EAEAEAEAECEC",
"; 	c #D2D2D2D2D4D4",
": 	c #CECED2D2D4D4",
"> 	c #CACACECECCCC",
", 	c #CECED2D2CCCC",
"< 	c #D2D2D6D6D4D4",
"1 	c #D6D6D6D6D4D4",
"2 	c #D6D6DADADCDC",
"3 	c #DEDEDEDEDCDC",
"4 	c #E2E2E2E2E4E4",
"5 	c #DADADEDEDCDC",
"6 	c #DADADADADCDC",
"7 	c #72727A7A7C7C",
"8 	c #4E4E52525454",
"9 	c #AAAAAAAAACAC",
"0 	c #A6A6AEAEACAC",
"q 	c #A2A2AAAAA4A4",
"w 	c #A2A2A6A6A4A4",
"e 	c #A2A2A2A2A4A4",
"r 	c #9E9EA6A6A4A4",
"t 	c #A6A6AAAAACAC",
"y 	c #AAAAB2B2ACAC",
"u 	c #AEAEAEAEACAC",
"i 	c #9A9AA2A29C9C",
"p 	c #9A9A9E9E9C9C",
"a 	c #92929A9A9494",
"s 	c #8E8E92929494",
"d 	c #8E8E96969494",
"f 	c #86868E8E8C8C",
"g 	c #828286868484",
"h 	c #7E7E86868484",
"j 	c #8A8A92928C8C",
"k 	c #96969A9A9494",
"l 	c #96969A9A9C9C",
"z 	c #8A8A8E8E8C8C",
"x 	c #56565A5A5C5C",
"c 	c #4A4A4E4E4C4C",
"v 	c #929296969494",
"b 	c #96969E9E9C9C",
"n 	c #969696969494",
"m 	c #929292929494",
"M 	c #82828A8A8C8C",
"N 	c #9E9EA2A2A4A4",
"B 	c #8E8E92928C8C",
"V 	c #3A3A42423C3C",
"C 	c #46464A4A4C4C",
"Z 	c #8A8A92929494",
"A 	c #82828A8A8484",
"S 	c #9E9E9E9E9C9C",
"D 	c #86868A8A8C8C",
"F 	c #3A3A3E3E3C3C",
"G 	c #424246464444",
"H 	c #AEAEB2B2B4B4",
"J 	c #9A9A9A9A9494",
"K 	c #86868A8A8484",
"L 	c #3E3E3E3E3C3C",
"P 	c #9E9E9A9A9C9C",
"I 	c #3E3E42424444",
"U 	c #3A3A3A3A3C3C",
"Y 	c #AEAEB6B6B4B4",
"T 	c #76767A7A7C7C",
"R 	c #76767A7A7474",
"E 	c #7E7E82828484",
"W 	c #7A7A82828484",
"Q 	c #363636363434",
"! 	c #C6C6C6C6C4C4",
"~ 	c #F2F2F2F2F4F4",
"^ 	c #76767E7E7C7C",
"/ 	c #868686868484",
"( 	c #8A8A8A8A8484",
") 	c #36363A3A3C3C",
"_ 	c #B6B6B6B6B4B4",
"` 	c #DADAD6D6D4D4",
"' 	c #DEDEDADADCDC",
"] 	c #E6E6E6E6E4E4",
"[ 	c #EAEAEEEEECEC",
"{ 	c #EEEEF2F2F4F4",
"} 	c #B2B2B2B2ACAC",
"| 	c #D2D2CECECCCC",
" .	c #E2E2E2E2DCDC",
"..	c #EEEEEEEEECEC",
"X.	c #F6F6F6F6F4F4",
"o.	c #CECECECECCCC",
"O.	c #6E6E76767474",
"+.	c #36363A3A3434",
"@.	c #464646464444",
"#.	c #D6D6D2D2D4D4",
"$.	c #EAEAE6E6E4E4",
"%.	c #CECECACACCCC",
"&.	c #BABAB6B6B4B4",
"*.	c #C2C2BEBEBCBC",
"=.	c #FAFAFAFAFCFC",
"-.	c #FEFEFEFEFCFC",
";.	c #6A6A6E6E6C6C",
":.	c #2E2E32323434",
">.	c #A6A6A6A6A4A4",
",.	c #B6B6B2B2B4B4",
"<.	c #B2B2B2B2B4B4",
"1.	c #8E8E8E8E8C8C",
"2.	c #EAEAEAEAE4E4",
"3.	c #7E7E82827C7C",
"4.	c #626266666464",
"5.	c #424242424444",
"6.	c #525252524C4C",
"7.	c #020202020404",
"8.	c #BEBEBABABCBC",
"9.	c #CACAC6C6C4C4",
"0.	c #D2D2D2D2CCCC",
"q.	c #6E6E72727474",
"w.	c #5A5A5E5E5C5C",
"e.	c #2A2A2E2E2C2C",
"r.	c #A2A2A2A29C9C",
"t.	c #AEAEAAAAACAC",
"y.	c #92928E8E8C8C",
"u.	c #121212121414",
"i.	c #E6E6E2E2E4E4",
"p.	c #EEEEEAEAECEC",
"a.	c #56565A5A5454",
"s.	c #5E5E62626464",
"d.	c #525256565454",
"f.	c #2E2E32322C2C",
"g.	c #A6A6A2A2A4A4",
"h.	c #AAAAA6A6A4A4",
"j.	c #AAAAAAAAA4A4",
"k.	c #82827E7E7C7C",
"l.	c #565656565454",
"z.	c #C6C6C2C2C4C4",
"x.	c #E2E2DEDEDCDC",
"c.	c #828282828484",
"v.	c #56565E5E5C5C",
"b.	c #42424A4A4444",
"n.	c #BABABABAB4B4",
"m.	c #7E7E7E7E7C7C",
"M.	c #DADADADAD4D4",
"N.	c #DEDEE2E2E4E4",
"B.	c #5A5A5A5A5C5C",
"V.	c #2E2E2E2E2C2C",
"C.	c #969692929494",
"Z.	c #A2A29E9E9C9C",
"A.	c #B2B2AEAEACAC",
"S.	c #CACACACAC4C4",
"D.	c #8A8A86868484",
"F.	c #8E8E8A8A8C8C",
"G.	c #9A9A96969494",
"H.	c #7E7E7A7A7C7C",
"J.	c #5E5E5E5E5C5C",
"K.	c #727272727474",
"L.	c #323236363434",
"P.	c #868682828484",
"I.	c #929292928C8C",
"U.	c #26262A2A2C2C",
"Y.	c #2A2A2A2A2C2C",
"T.	c #767676767474",
"R.	c #7A7A76767474",
"E.	c #7E7E7A7A7474",
"W.	c #8E8E8A8A8484",
"Q.	c #969692928C8C",
"!.	c #52525A5A5454",
"~.	c #6A6A6A6A6464",
"^.	c #6E6E6A6A6C6C",
"/.	c #727272726C6C",
"(.	c #C2C2C2C2BCBC",
").	c #727276767474",
"_.	c #62625E5E5C5C",
"`.	c #6A6A66666464",
"'.	c #767672727474",
"].	c #222226262424",
"[.	c #46464A4A4444",
"{.	c #7A7A7A7A7C7C",
"}.	c #5E5E5A5A5454",
"|.	c #626262625C5C",
" X	c #464642424444",
".X	c #525252525454",
"XX	c #7A7A7E7E7C7C",
"oX	c #5A5A56565454",
"OX	c #666662625C5C",
"+X	c #72726E6E6C6C",
"@X	c #7A7A7A7A7474",
"#X	c #222222222424",
"$X	c #161616161414",
"%X	c #323232323434",
"&X	c #666666666464",
"*X	c #6E6E6A6A6464",
"=X	c #767672726C6C",
"-X	c #626262626464",
";X	c #4E4E4E4E4C4C",
":X	c #66666A6A6C6C",
">X	c #868682827C7C",
",X	c #262626262424",
"<X	c #66666E6E6C6C",
"1X	c #5A5A5A5A5454",
"2X	c #666662626464",
"3X	c #7A7A82827C7C",
"4X	c #CACACACACCCC",
"5X	c #4A4A52524C4C",
"6X	c #6A6A6A6A6C6C",
"7X	c #3E3E42423C3C",
"8X	c #6E6E6E6E6C6C",
"9X	c #4A4A4A4A4C4C",
"0X	c #6A6A72727474",
"qX	c #6A6A72726C6C",
"wX	c #62626A6A6C6C",
"eX	c #6E6E72726C6C",
"rX	c #66666A6A6464",
"tX	c #46464E4E4C4C",
"yX	c #5E5E62625C5C",
"uX	c #26262A2A2424",
"iX	c #4E4E56565454",
"  . X X X X X X o o O O X X X X + @ X X @ X X X X + + # + X O $ % $ $ $ O X + + & & & X $ o * * ",
"o = - ; : : ; > , < < < ; ; < 1 < 2 1 1 2 1 < 3 4 3 3 5 3 6 1 2 1 2 2 2 6 6 3 3 3 4 3 2 2 O 7 8 ",
"O 3 & * 9 0 * q w e e r q t 0 * t 0 0 0 y u * i p p a s d f g h g f j d k p r w i l z f d k x c ",
"$ 2 w s d v v d d j j s s v l l l v l p p b a n l d m d j f M g f s v v p i N l s f f B N f V C ",
"$ 2 0 B d v n v a a v v a l a a a l l l a v d v n d s Z j f A M d d v l S N b j A f d a N D F G ",
"$ < H d Z a a l p l a v n l v v l a v v v s s a a v j B Z D M f s v l i r N v M f v l J p h F C ",
"% < H l s l a l b b a d a p l v l l v s d d v p l v Z B j A K j v v l N w a D D v b l a p g L c ",
"$ 2 y p v v l v l P v v l l p p l d d Z s v l b p v f Z j f Z s s a p N N s M j l l a l b f I c ",
"H 1 * i a s v a l l v v p p p l l s Z Z v b p b l v s Z s f j B s a p i k f D v l l v J r Z V C ",
"$ 2 0 N n f d v b a v l b b b b v v s a b l l l v s f z f K M g D m b l z h j d s d l r * z U I ",
"Y 1 0 i a f v a p l a p i p l b a k v v l b b a s f A h h g T R E z l d g W j d s a r * t h Q G ",
"$ 2 t b v Z a l p b v l P l l v l v s v l l n J q * ! 1 ~ 4 # ! + 9 l g 7 ^ / ( z l e N p ^ ) C ",
"$ 2 9 l p n l b l l a b a v v v d v z l _ ! ; ` ' 3 ] [ { } @ |  ...X...o.r f E g s l d D O.+.@.",
"$ 1 t v v b l l l d v l v v v a l s j u o @ o.#.6 3 4 $.%.&.*.; ] ~ =.=.=.-.-...; y v D g ;.:.G ",
"% 2 q Z v p l d s d v l a a n b l s >.&.,.<.$ o 1.@.3 4 } X %.6 2.~ X.=.=.-.-.-.-.-.-.3.W 4.:.5.",
"_ < w a l r p z Z Z v l b l b p b e } ,._ _ &.6.7.5.6 *.8.9.0.3 - X.=.-.-.-.-.-.-.-.> ;.q.w.e.G ",
"O 2 >.l N w b f Z d d n l l p p r.t.} <.,._ y.u.7.L X @ # o.6 i.p.X.=.-.-.-.-.-.-.-.H a.s.d.f.G ",
"_ < q b N t p f j s v a a b p p g.h.j.} _ &.o k.7.l.z.! | 1 x.] { X.=.-.-.-.-.-.-.-.c.c v.v.e.b.",
"$ ; t b r w l D Z s v n l v n J N >.h.t.<.&.n.m.7.a.%.o.; M.N.$...X.=.-.-.-.-.-.-.-.F C B.w.V.G ",
"$ < w S w q l A f Z s a s 1.C.J P Z.h.u A._ o m.7.A.S.o.1 ` x.] - ..X.=.-.-.-.-.-.o Q @.x x :.F ",
"y : q N t w s h A f z D D.F.y.G.P S g.j.t.} &.H.7.B.7.7.J.6 3 i.- ..~ =.-.-.-.-.-.K.L.5.d.d.e.V ",
"u : t N t i M 3.M f k.k.P.( y.I.J S Z.>.9 } ,.6.7.L ! 5.7.1.6 3 ] - ~ X.=.-.-.-.] U.Q G d.8 Y.U ",
"H : 0 i N a W h g T.R.E.k.P.W.y.Q.J P g.h.u <.U 7.*.z.} 7.F.M.3 4 $.p.~ X.-.-.-.S Y.L.5.l.!.V.F ",
"O 1 w S p s g K.~.^./.R.H.c./ ( I.n P N g.j.u 6.7.@ (.! 7.).1 ' 3 ] 2...X.X.-.-.F e.Q C x x e.L ",
"+ 2 i p l f ~._.`.^./.R.E.k.P.D.F.Q.G.S Z.h.9 '.7.H.*.# 7.5.0.` 6 N.] - ~ X.=.%.].e.) [.B.v.V.I ",
"+ 2 N l {.}.}._.|.~.^./.T.H.k./ W.1.Q.T.{.r.h./.7._ o *.Y. Xo.1 6 3 4 ] - ~ X..XY.V.U c s.w.:.I ",
"# 2 i a XXJ.oX}._.OX`.+X/.@XH.c.D.W.+X7.7.H.>.#X7.OXn.j.$X$X<.| #.' x.] $...& #XY.%XL 8 4.s.f.5.",
"& 2 p v z z T &X}.OX`.*X+X=XE.k./ ( m.u.7.@X*X7.Q U -X.X7.7.B.o.#.1 3 x.] ..;X].e.L.I d.:X4.%XG ",
"& 2 l v s 1.g {.q.|.|.`.+X=XT.E.k.>XD.F.C.G.S g.h.u A._ n.(.! S.| ; 6 3 4 o #X,XV.U @.B.q.<XL.b.",
"# 5 a s j s z W ).&XB.1X2X^.=XR.m.P.D.1.I.n P r.>.t.A.<.&.8.# ! > ; 1 6 3 C #X,X:.F ;X4.7 ;.L.@.",
"# 6 a s d s z E ^ ;.s.d.c .X~.=X@Xm.>XD.1.I.n P Z.>.t.} _ &.*.z.9.o.; ` A.#X].Y.L.G d.;.3XO.Q C ",
"& 2 v s s v B K {.q.:XJ.a.;XI .X`.m.k./ D.y.Q.J S g.h.t.} &.X @ ! 4X0.1 C ].,Xe.U C s.)./ T F 5X",
"! 2 v d d d s f E R O.6X4.J.c F Q G *XP.D.F.y.n J S >.h.u ,.n.@ *.! 4Xj.#XU.Y.%X5.d.6XW Z W F 5X",
"  6 v v n n d z g E XXT q.:XJ.c G 7XF [.`.( 1.Q.G.S Z.h.9 u ,.o @ z.9.@.,X,Xf.+.[.w.O./ v W U @.",
"  6 v d v l v d f D g g E T 8Xw.8 c C G I G -Xy.Q.J S g.h.u A.&.o # m.#XY.Y.%XU 9Xw.O.3.D 0X%XG ",
"& 5 l a a v l k s B s B z g W ;.w.x l.d.;X@.5.G `.C.J r.>.j.A.$ n.@ Q U.Y.%XQ G .Xs.8X7 3XqXL.G ",
"& 5 p l a a a l v a l k a s D XX;.wX:X4.s.a.8 C I L -Xy.Z.>.t.A.,.&X,XY.e.L.U [.l.wX).W D 7 ) C ",
"# 6 p l v n n p a l b l l v j M W R T ).;.4.J.d.;X@.G 7X&Xn >.t.r.Y.V.e.%XQ L 9Xw.eXXXK j ^ U C ",
"+ 2 l v d v a p l l b l a v z g h 3.D D E T 8X4.v.d.8 ;X@.L 8 1.J.:.%X:.L.F G 8 -XT g 1.v ^ U [.",
"& 6 b a v d v l p l p i J v Z f f f f z z E ^ O.6Xs.J.x 8 C 7XI U Q +.U F L C l.wX).M Z v 3XF C ",
"& 2 l v v v v a b p N r b l d d j j s z j D g XXT.q.;.rXw.8 c tX@.I L L I G 8 B.;.{.D d l W F c ",
"+ 6 v a l v d v J i N N p v v Z s m v d n v M M h ^ T.q.:XyXx d.5Xc C C C ;Xd.4.K.3Xz v k h U C ",
"& 6 v l l v s a N r r N b v d j d d n a l l B z z g 3.R ).;.4.-Xw.x d..X.XB.-X0X{.g Z a l h F tX",
"+ 5 b v l d d p w >.w p v d z f j s a v b N p v s f h E E T O.q.;.rX4.4.4.:XeX{.E d l p i h F c ",
"& 3 b d s d l w t w N l s f f M f Z v l l N N l Z z D / j D 3XXXXXT ).).).T 3XA 1.k p p p E U c ",
"4X> v Z Z v p q q N l d j f f M j s a a l p N l z Z j f ^ T q.q.0XO.0X<X0XqXq.T W XXXXXX^ qXF C ",
"@ i x %X%X) U U F ) uX].].].,X].uXU.Y.e.e.e.e.uXuX,X].Y.L.L.L.L.%XL.%X%X%XL.L.L.) ) ) ) L.e.U.C ",
"M d.c G b.tX5X5Xc c d.d.8 8 iX8 d.l.d.!.!.a.x x d.d.!.d.x w.x a.a.l.d.d.!.!.x x !.!.x x x d.@.w."};
