/* XPM */
static char * gnome_menu_left_xpm[] = {
"48 48 260 2",
"  	c #BEFBC30BC71B",
". 	c #C71BC71BC71B",
"X 	c #B6DABAEABEFB",
"o 	c #B6DAB6DAB6DA",
"O 	c #BEFBBAEABEFB",
"+ 	c #BEFBBEFBBEFB",
"@ 	c #AEBAB2CAB6DA",
"# 	c #BEFBC30BBEFB",
"$ 	c #A699AAAAA699",
"% 	c #A699AAAAAEBA",
"& 	c #EFBEEBADEFBE",
"* 	c #E79DE79DE79D",
"= 	c #CF3CCF3CCF3C",
"- 	c #C71BCB2BCF3C",
"; 	c #CF3CCB2BCF3C",
": 	c #CF3CD34CCF3C",
"> 	c #CF3CD34CD75C",
", 	c #DF7DDB6CDF7D",
"< 	c #D75CD75CD75C",
"1 	c #D75CD34CD75C",
"2 	c #D75CDB6CDF7D",
"3 	c #71C679E771C6",
"4 	c #492451444924",
"5 	c #A699A699A699",
"6 	c #9E79A289A699",
"7 	c #A699AEBAAEBA",
"8 	c #9E799E799E79",
"9 	c #96589A699E79",
"0 	c #96589A699658",
"q 	c #8E3896589658",
"w 	c #8E3892489658",
"e 	c #8E388E388E38",
"r 	c #86178A288E38",
"t 	c #79E786178617",
"y 	c #79E782078617",
"u 	c #86178E388E38",
"i 	c #8E3892488E38",
"p 	c #965896589658",
"a 	c #86178A288617",
"s 	c #514455555144",
"d 	c #410349244924",
"f 	c #38E33CF338E3",
"g 	c #410345144103",
"h 	c #861786178617",
"j 	c #410341034103",
"k 	c #9E79A699A699",
"l 	c #BEFBC71BC71B",
"z 	c #D75CDF7DDF7D",
"x 	c #D75CDB6CD75C",
"c 	c #9E79A2899E79",
"v 	c #30C238E338E3",
"b 	c #96589E799E79",
"n 	c #C71BCF3CCF3C",
"m 	c #EFBEF3CEEFBE",
"M 	c #8E388A288E38",
"N 	c #30C234D330C2",
"B 	c #000004100000",
"V 	c #E79DEFBEEFBE",
"C 	c #59655D755965",
"Z 	c #000000000000",
"A 	c #AEBAAEBAAEBA",
"S 	c #FFFFFFFFFFFF",
"D 	c #69A671C671C6",
"F 	c #618565956185",
"G 	c #49244D344924",
"H 	c #38E341034103",
"J 	c #AEBAB2CAAEBA",
"K 	c #69A671C669A6",
"L 	c #410349244103",
"P 	c #4103410338E3",
"I 	c #69A669A66185",
"U 	c #71C675D671C6",
"Y 	c #28A22CB228A2",
"T 	c #28A228A22081",
"R 	c #514451444103",
"E 	c #69A66DB65965",
"W 	c #965896588617",
"Q 	c #69A66DB669A6",
"! 	c #71C67DF779E7",
"~ 	c #30C238E330C2",
"^ 	c #492451445144",
"/ 	c #208124922081",
"( 	c #8E38861771C6",
") 	c #C71BBEFB9E79",
"_ 	c #BEFBBAEA9E79",
"` 	c #96589A698E38",
"' 	c #596561856185",
"] 	c #38E338E330C2",
"[ 	c #71C675D669A6",
"{ 	c #104010401040",
"} 	c #38E338E338E3",
"| 	c #4103410330C2",
" .	c #9E79A2899658",
"..	c #8617820769A6",
"X.	c #BEFBB6DA9658",
"o.	c #B6DAB6DAA699",
"O.	c #69A675D671C6",
"+.	c #30C230C230C2",
"@.	c #18611C711861",
"#.	c #596561855965",
"$.	c #596559654924",
"%.	c #C71BC30BAEBA",
"&.	c #51444D344103",
"*.	c #C71BC30BA699",
"=.	c #D75CCB2BAEBA",
"-.	c #C71BC30BB6DA",
";.	c #B6DAB2CAB6DA",
":.	c #8E388A2879E7",
">.	c #BEFBB6DA9E79",
",.	c #F7DEEFBEEFBE",
"<.	c #A699A289A699",
"1.	c #514455554924",
"2.	c #71C671C65965",
"3.	c #CF3CCB2BAEBA",
"4.	c #DF7DDF7DDF7D",
"5.	c #EFBEEBADE79D",
"6.	c #A699A6999658",
"7.	c #B6DAAEBA9E79",
"8.	c #DF7DDB6CD75C",
"9.	c #EFBEEFBEEFBE",
"0.	c #8E388A288617",
"q.	c #CF3CC71BBEFB",
"w.	c #E79DE38DDF7D",
"e.	c #79E77DF779E7",
"r.	c #A699A2899E79",
"t.	c #618561855965",
"y.	c #71C679E779E7",
"u.	c #514451445144",
"i.	c #492449244103",
"p.	c #596559655144",
"a.	c #30C230C228A2",
"s.	c #8E388A2871C6",
"d.	c #AEBAAAAA9658",
"f.	c #208120811861",
"g.	c #41033CF330C2",
"h.	c #861779E76185",
"j.	c #A6999A6979E7",
"k.	c #A6999E798617",
"l.	c #96588E3871C6",
"z.	c #79E775D66185",
"x.	c #8617820779E7",
"c.	c #9E79965879E7",
"v.	c #BEFBAEBA9658",
"b.	c #C71BC30BC71B",
"n.	c #410338E330C2",
"m.	c #9E798E3879E7",
"M.	c #B6DAA2898E38",
"N.	c #B6DAA6998E38",
"B.	c #AEBAA2898617",
"V.	c #A69996588617",
"C.	c #9E7996588E38",
"Z.	c #9E7996588617",
"A.	c #B6DAAAAA8E38",
"S.	c #E79DDF7DDF7D",
"D.	c #71C665955144",
"F.	c #AEBA9A698617",
"G.	c #AEBA9E798617",
"H.	c #A699A6999E79",
"J.	c #79E7820779E7",
"K.	c #79E76DB65965",
"L.	c #A699965879E7",
"P.	c #AEBA965879E7",
"I.	c #AEBA96588617",
"U.	c #B6DAA6999658",
"Y.	c #69A665956185",
"T.	c #79E76DB66185",
"R.	c #A6998E3879E7",
"E.	c #A699924879E7",
"W.	c #B6DA9E798E38",
"Q.	c #20811C711861",
"!.	c #59654D344103",
"~.	c #AEBAA2899658",
"^.	c #861782078617",
"/.	c #86177DF771C6",
"(.	c #9E798A2879E7",
").	c #A6998A2879E7",
"_.	c #AEBA924879E7",
"`.	c #B6DA9A698617",
"'.	c #965892488E38",
"].	c #596555554924",
"[.	c #BEFBA6999658",
"{.	c #9658861779E7",
"}.	c #9E79861771C6",
"|.	c #AEBA92488617",
" X	c #965892488617",
".X	c #B6DAA2899E79",
"XX	c #F7DEF3CEF7DE",
"oX	c #618561856185",
"OX	c #79E769A65965",
"+X	c #AEBA8E3879E7",
"@X	c #9E7996589658",
"#X	c #38E334D328A2",
"$X	c #AEBA8A2879E7",
"%X	c #A699861771C6",
"&X	c #9E79820771C6",
"*X	c #38E330C228A2",
"=X	c #A699861779E7",
"-X	c #9E797DF771C6",
";X	c #A69986178617",
":X	c #AEBAAAAAAEBA",
">X	c #A6997DF771C6",
",X	c #9E7979E769A6",
"<X	c #965879E769A6",
"1X	c #A6999A699E79",
"2X	c #492449244924",
"3X	c #28A228A228A2",
"4X	c #38E334D330C2",
"5X	c #28A220812081",
"6X	c #69A655554924",
"7X	c #9E7979E771C6",
"8X	c #9E7975D669A6",
"9X	c #965875D669A6",
"0X	c #AEBAA699A699",
"qX	c #186118611861",
"wX	c #28A224922081",
"eX	c #5965410338E3",
"rX	c #69A64D344924",
"tX	c #61854D344924",
"yX	c #861761855965",
"uX	c #965871C66185",
"iX	c #965871C669A6",
"pX	c #71C651444924",
"aX	c #8E3861855965",
"sX	c #8E3865956185",
"dX	c #965869A66185",
"fX	c #96586DB66185",
"gX	c #96586DB669A6",
"hX	c #9E7971C669A6",
"jX	c #C71BBEFBBEFB",
"kX	c #514438E338E3",
"lX	c #86175D755965",
"zX	c #965865956185",
"xX	c #B6DAAEBAAEBA",
"cX	c #E79DE38DE79D",
"vX	c #59653CF338E3",
"bX	c #861755555144",
"nX	c #8E385D755965",
"mX	c #514449244924",
"MX	c #596538E338E3",
"NX	c #79E751445144",
"BX	c #8E3859655965",
"VX	c #8E3861856185",
"CX	c #BEFBB2CAB6DA",
"ZX	c #596549244924",
"AX	c #D75CCF3CCF3C",
"SX	c #79E779E779E7",
"DX	c #861761856185",
"FX	c #8E387DF779E7",
"GX	c #965869A669A6",
"HX	c #96588E388E38",
"JX	c #B6DAAAAAAEBA",
"KX	c #C71BCB2BC71B",
"LX	c #61856DB669A6",
"PX	c #28A230C230C2",
"IX	c #208128A22081",
"UX	c #208128A228A2",
"YX	c #492455555144",
"TX	c #41034D344924",
"RX	c #514459655144",
"EX	c #514459655965",
"  . X X X X X o o o o o o o o X O X X X X o o X X O + + + X o @ @ @ @ @ o o O + + # # o @ o $ % ",
"o & * = = = = - ; = = = = = : > > > : > > > > , , , , < < < > > > > 1 < < < 2 , , , 2 < < o 3 4 ",
"o , + % 5 $ 5 5 6 6 6 6 6 5 5 % $ 5 $ % 7 % % 8 9 0 q w e r t y t r u i p 9 8 6 8 p u a i q s d ",
"@ > 6 i i w w i e u u e e q p p p p p 9 9 p q p p w i i u r t t r i w w 9 8 8 0 i a a i 8 u f g ",
"@ > 5 i i p 9 6 6 6 6 8 p p w q q p p p p w i w q w i i u r t t e w w p 8 8 9 u t r i p 8 h f j ",
"@ > 7 w e k l 2 z x : l 7 9 w w p p p q w i i p p w i i e r t r i w p 9 c 8 i t r q 0 0 9 y v g ",
"@ > 7 p b n m M N B B N M 9 w w q p w i i i w 9 9 w e i i r a e w q 9 8 6 p a h w 0 p p 9 t f d ",
"@ > % 6   V C Z Z Z Z Z Z C y e q w e u w q p 9 9 q i w i u u w w p b 8 8 i t u p p p p 9 a f d ",
"A 1 % 7 x M Z Z Z S Z Z Z Z M D e e u e q 0 9 9 9 q i i i u i w w 0 8 c p a a q p p q 0 6 u f g ",
"A > $ A < N Z Z S S Z F S Z N G h i i w p 0 p p p i u i e u i w w 9 8 8 w t u p q q 0 6 % u v H ",
"J > 5 7 > B Z S S S S S S Z B H t w w q p K L P I a u r r r u i q 8 6 8 u a w p q 9 6 % % t N H ",
"@ > 5 $ > B Z S S S S S S Z B f y w w q U Y T R E W e h Q K h e 0 6 6 p a a w q p 8 % 5 8 ! ~ d ",
"@ 1 5 6 - N Z Z S S Z F S Z N f y w w p ^ / ( ) ) _ ` ' Y ] [ p c 6 b u t u q p 0 8 5 8 w 3 N g ",
"@ > k q 7 M Z Z Z S Z Z Z { } j h w w p j | ) ) _ )  .^ T ..X.o.5 8 i a r q p p 8 6 6 9 w O.+.g ",
"@ > 6 e q b C Z Z Z Z Z @.Y / ' q p w q #.$.) ) ) %. .4 &.*.=.-.6 i r u w p p 9 5 5 c b q O.N g ",
";.> 6 w p 9 y M N B B N Y / s r b p q p e :.>.) ) ,.<.1.2.3.4.5.p a u p 8 9 b 6 5 c 0 p i Q N L ",
"o > 6 p b 6 e F d f f f g ' r 6 8 p q 9 9 p 6.7.8.9.i 0._ q.w.8 r a w c 5 6 6 6 9 i u r t Q N G ",
";.> 6 9 8 k p t y e.e.t r p 8 6 9 p q p w e.D u q i r e r.$ c t.$.a 9 5 5 9 0 p r h r h r y.v 4 ",
"@ = 6 9 c 5 9 h u u i p 0 9 8 b p q w h u.Y T ] i.p.3 u 9 U a.P s.d.8 5 8 u u a t a u e 0 t f G ",
"@ = 6 b 6 6 p t r e w 0 9 9 8 8 9 q e s f.g.h.j.k.l.z.x.p Q ] c.v.b.b c q t a t t u i w 9 t f d ",
"A ; 6 8 5 6 i y a u w 0 b 8 c c 9 p h N n.m.M.N.M.B.B.V.C.9 Z.A.S.9.c 8 i e.t a r i q q p e.v d ",
"% = 5 8 5 b a y r i q 9 8 8 6 6 b p e.N D.F.G.G.G.G.G.N.N.H.0 i ;.0 6 9 r J.r i w w q q p ! N g ",
"J = 5 8 c p y t u w p 9 8 8 c c 9 w y P K.L.P.I.I.F.G.M.N.U.w D G s p p t a w q q q q p p ! ~ g ",
";.> 6 b 9 w t h w q 0 9 8 8 8 8 p i r Y.T.R.E.E.E.P.F.W.M.M.i d Q.!.~.w t i q p q q q p p e.~ g ",
"+ 1 b 9 p q u r w p 9 9 9 8 c 8 p u a ^./.(.).R.E._.I.`.`.F.'.U ].[.b.<.t w p p q q p p p ! ~ g ",
"+ < 8 9 w q i i q 0 9 9 9 8 6 8 w r a h h 0.{.}.)._.|.I.|._. Xp C..XXX% u q p p p p p p p ! ~ g ",
"+ < 8 p i p w i p 9 9 9 9 8 6 b i r a t a u oXOX).+X_.+X).R.@X9 c 5 8 u i q p p p p p p p ! ~ g ",
"+ < 9 p i p q i q 9 b 9 9 8 8 9 e r h t r i v #X).$X).%X&X).8 8 6 6 b w w q p p p q p p p ! ~ L ",
"+ < p q w p q w p p 9 9 9 9 b 0 u a h a i p v *X=X=X&X-X-X;X:X8 6 6 p q w i q q q q q p 0 e.v L ",
"+ < q w q 9 0 q p p p 0 9 b 8 p a y.D ! y oX@.n.>X-X,X<X-X1X;.b 0 q r r i u i w w q q p p ! ~ g ",
"+ < q w p 9 9 p p p 0 9 8 8 8 a 2X3X3X4X4Xf.5X6X7X8X9X8X,X0X;.0 w e a a i i e i w q p 9 p ! v d ",
"# < w i q 9 9 p q w p 9 8 6 w G qXwXeXrXtXtXyX8X8XuXuXiX8X0X:Xp w w w w w p w i p p p 9 9 J.f G ",
"# < w w q p 0 q w w p 9 8 6 r 3X5XpXaXsXdXfXgXgXfXdXfXgXhXjX;.q q q p p q q q q b 8 b 8 8 h f G ",
"  < q w p p 0 q i i q 9 8 6 y wXkXlXaXsXzXdXdXdXdXdXdXfXxXcX:Xq p p p p p q w q 9 8 8 8 8 y v g ",
"  < q w p p 0 p i i q 9 8 8 e a.vXbXlXnXaXsXsXsXaXsXdX@X,.4.p q p p p p p q q p q w q w e D +.H ",
"  < p w q p p 0 w q p 9 8 b p mXMXNXbXBXnXnXnXnXnXVXCX,.& b p q p q q q q q w q p i r t t K N j ",
"# < 9 p q p p 9 p p 9 9 8 9 p e.ZXNXbXBXBXnXnXBXsXAX,.4.b 9 p p q w w q q q w w w i r a r 3 ~ g ",
"+ < 9 p w q q 9 p p b 9 9 9 w u SXDXBXBXBXnXnX@XS.,.; 9 9 p i w w w w w q q q q q w i i w ! ~ L ",
"+ < 0 w w w q 9 9 p 9 0 0 p i r a h FXGXHX@XJX, & :Xb 9 9 w u i i w w q p p q p q q w w q ! v g ",
"+ < 0 w w w w 9 9 p 9 9 0 q i u u u i 9 b 8 :Xb.p w 9 b p u r i w w w q p p p p p w w w q e.v d ",
"+ < p w w w w q 9 9 8 c 9 q w i i w w w q p q q w q 9 b p r u i i w q p q q q q q w w q p e.v d ",
"+ < q q p q i w 9 8 8 c 9 q w i i w q q 0 p i w q q p p q u u i i w w q w w w q w w w q p J.v d ",
"+ < p p p q i p 8 6 c 8 0 w i u i i q q 9 9 q q p q w w q i e i i w w w w w q p q w q p 9 J.v d ",
"+ < 9 p q i w 9 6 6 6 9 q i r r u i w q p 8 8 p p q i i p q i w w q q q q q p p p 9 9 9 9 y f d ",
"  < 0 w i i p 6 5 6 8 p i r a h r e w p p 8 c p i w i w 9 9 w w q p p p p p p p 9 8 8 9 9 J.} d ",
". KXq u u w 9 5 6 8 0 i r a a h r i q p p 9 8 0 u e i u y J.y.y.! e.! ! ! ! ! e.y J.e.! ! LXv g ",
"+ 9 s PX+.N v } v N IX/ / / / / / / IXUXUXUXUXIX/ / / UXN N N N N N N N N N N N N N N N N Y UXg ",
"y YXTXH g d G G TXTXYX^ 4 4 4 4 YXs s RXRXEXRXs s ^ YXs RXEXEXRXRXs s s s s RXRXRXs RXRXs ^ j EX"};
