/* XPM */
static char * image_name[] = {
"20 20 151 2",
"  	c #CECECECECCCC",
". 	c #C2C2C6C6C4C4",
"X 	c #BEBEC2C2C4C4",
"o 	c #BEBEC2C2BCBC",
"O 	c #C2C2C2C2C4C4",
"+ 	c #C6C6C6C6C4C4",
"@ 	c #BABABEBEBCBC",
"# 	c #C6C6CACACCCC",
"$ 	c #86868A8A8C8C",
"% 	c #9A9AA2A29C9C",
"& 	c #9A9A9E9E9C9C",
"* 	c #92929A9A9494",
"= 	c #929296969494",
"- 	c #96969E9E9C9C",
"; 	c #96969A9A9C9C",
": 	c #8E8E92929494",
"> 	c #82828A8A8C8C",
", 	c #86868E8E8C8C",
"< 	c #8A8A92929494",
"1 	c #4E4E52525454",
"2 	c #969696969494",
"3 	c #8E8E96969494",
"4 	c #8A8A96968C8C",
"5 	c #6E6E7A7A7474",
"6 	c #8A8A92928C8C",
"7 	c #4A4A4E4E4C4C",
"8 	c #A2A2B2B2ACAC",
"9 	c #9A9AAEAEA4A4",
"0 	c #82829A9A8C8C",
"q 	c #6A6A82827474",
"w 	c #7A7A86867C7C",
"e 	c #4A4A56564C4C",
"r 	c #AAAAAEAEACAC",
"t 	c #B6B6BABABCBC",
"y 	c #BEBEC6C6C4C4",
"u 	c #BABACACABCBC",
"i 	c #AAAABABAB4B4",
"p 	c #B2B2BABAB4B4",
"a 	c #A2A2B6B6ACAC",
"s 	c #5E5E7A7A6464",
"d 	c #42425A5A4C4C",
"f 	c #2A2A3E3E3434",
"g 	c #6A6A72726C6C",
"h 	c #9E9EA2A2A4A4",
"j 	c #DEDEDEDEDCDC",
"k 	c #DEDEE2E2DCDC",
"l 	c #CECEDADAD4D4",
"z 	c #C6C6D2D2CCCC",
"x 	c #BABAC6C6BCBC",
"c 	c #5E5E76766464",
"v 	c #4E4E66665454",
"b 	c #565666665C5C",
"n 	c #4E4E5A5A5454",
"m 	c #A2A2A6A6A4A4",
"M 	c #424246464444",
"N 	c #8A8A8A8A8C8C",
"B 	c #626262625C5C",
"V 	c #5E5E5E5E5454",
"C 	c #6A6A66665C5C",
"Z 	c #727276767474",
"A 	c #767676766C6C",
"S 	c #7A7A82827C7C",
"D 	c #8A8A92928484",
"F 	c #7A7A8E8E7C7C",
"G 	c #52526E6E5C5C",
"H 	c #424256564C4C",
"J 	c #46464A4A4C4C",
"K 	c #BEBEBEBEBCBC",
"L 	c #4E4E4A4A3C3C",
"P 	c #464642423434",
"I 	c #4A4A46463C3C",
"U 	c #52524E4E4444",
"Y 	c #565652524C4C",
"T 	c #666666666464",
"R 	c #6E6E6E6E6464",
"E 	c #767672726C6C",
"W 	c #82827E7E7474",
"Q 	c #828286867C7C",
"! 	c #2A2A4E4E3434",
"~ 	c #86868A8A8484",
"^ 	c #4E4E52524C4C",
"/ 	c #9A9A9A9A9C9C",
"( 	c #464642423C3C",
") 	c #7A7A7A7A7C7C",
"_ 	c #525256565454",
"` 	c #565656565454",
"' 	c #5A5A5A5A5454",
"] 	c #8A8A8E8E7C7C",
"[ 	c #464666664C4C",
"{ 	c #52526A6A5C5C",
"} 	c #8A8A8E8E8C8C",
"| 	c #BABABABABCBC",
" .	c #8E8E8E8E8484",
"..	c #666662625454",
"X.	c #929292929494",
"o.	c #B6B6B6B6B4B4",
"O.	c #3E3E3A3A3434",
"+.	c #8A8A86867C7C",
"@.	c #B6B6B2B2A4A4",
"#.	c #32325E5E4444",
"$.	c #B2B2B2B2B4B4",
"%.	c #C2C2CACAC4C4",
"&.	c #D2D2D2D2D4D4",
"*.	c #BABABABAB4B4",
"=.	c #969692928C8C",
"-.	c #5E5E5E5E5C5C",
";.	c #3E3E3E3E3C3C",
":.	c #3A3A36363434",
">.	c #4E4E4E4E4C4C",
",.	c #7E7E7E7E7C7C",
"<.	c #2A2A56563C3C",
"1.	c #7A7A7E7E7C7C",
"2.	c #36363A3A3434",
"3.	c #2E2E36363434",
"4.	c #222236362C2C",
"5.	c #262646463434",
"6.	c #2E2E4E4E3C3C",
"7.	c #5E5E62626464",
"8.	c #DADADADADCDC",
"9.	c #8E8E8E8E8C8C",
"0.	c #525252525454",
"q.	c #323232323434",
"w.	c #2E2E32323434",
"e.	c #3E3E42424444",
"r.	c #5A5A5E5E5C5C",
"t.	c #6A6A6E6E6C6C",
"y.	c #A6A6AAAAACAC",
"u.	c #A6A6A6A6A4A4",
"i.	c #828282828484",
"p.	c #363636363434",
"a.	c #3A3A3A3A3C3C",
"s.	c #56565A5A5C5C",
"d.	c #AAAAAAAAACAC",
"f.	c #9E9E9E9E9C9C",
"g.	c #767676767474",
"h.	c #2A2A2E2E2C2C",
"j.	c #2A2A2A2A2C2C",
"k.	c #3A3A3E3E3C3C",
"l.	c #626262626464",
"z.	c #222222222424",
"x.	c #36363A3A3C3C",
"c.	c #626266666464",
"v.	c #828286868484",
"b.	c #424242424444",
"n.	c #5A5A5A5A5C5C",
"m.	c #6E6E72727474",
"M.	c #6E6E6E6E6C6C",
"N.	c #7E7E86868484",
"B.	c #5E5E62625C5C",
"V.	c #46464E4E4C4C",
"C.	c #464646464444",
"  . X X o O . . . . + . o @ @ . # + @ $ ",
". % & * = - & & % ; * : > , = & ; < = 1 ",
"O ; 2 - = ; * = 3 = - 4 5 5 6 - , * = 7 ",
"X % 3 ; = - ; 3 - 8 9 0 q w e : = 2 - 1 ",
"X & : - ; r t y u i p a s d f g * h % 7 ",
"X - - @ j k l z x a 9 0 c v b n ; m : M ",
"X ; @ N B V C Z A S D F q G c H * ; , J ",
"K h . L P P I U Y T R E W Q G ! d ~ , ^ ",
"@ h m / U I ( I W ) T _ ` ' W ] [ { } 7 ",
"o m } & |  ...X.o./ ) ` I O.Y +.@.#.w M ",
". - 3 = / $.%.j &.*.=.-.;.:.>.,.q <.1.M ",
". = = = - % t k &.| = ` 2.3.4.5.6.7.Z M ",
"+ = & ; ; h &.8.+ $.9.0.q.w.3.e.7 r.t.e.",
". = ; 3 * y.  # o.u.i.0.q.w.p.a.M s.t.M ",
"# = ; = = y.+ | d.f.g.>.h.h.j.h.O.>.7.k.",
". * = ; = / O f.2 ) l.I p.z.z.h.x.1 c.e.",
". * = * = v.u.9.,.-.-.b.j.z.j.q.e.n.m.M ",
"+ 2 3 & - v.Z M.n.>.b.q.p.a.;.J s.t.1.J ",
". = = h ; N.Z T 7.s.^ >._ s.B.c.t.1.N.V.",
"< 1 1 _ 7 M M M e.k.a.e.b.M M C.J V.7 b."};
