/* XPM */
static char * image_name[] = {
"48 48 239 2",
"  	c None",
". 	c #7A7A6A6A5C5C",
"X 	c #828272726464",
"o 	c #969686867474",
"O 	c #969682827575",
"+ 	c #A6A692928484",
"@ 	c #868676766C6C",
"# 	c #ACAC92928484",
"$ 	c #8A8A76766C6C",
"% 	c #82826E6E6565",
"& 	c #B6B69E9E8C8C",
"* 	c #C2C2AEAE9C9C",
"= 	c #9A9A8A8A7C7C",
"- 	c #AEAE96968484",
"; 	c #9A9A82827474",
": 	c #828276766C6C",
"> 	c #8A8A7A7A6C6C",
", 	c #868672726565",
"< 	c #A6A68A8A7C7C",
"1 	c #BABAA2A29494",
"2 	c #9E9E8E8E7C7C",
"3 	c #94947E7E7474",
"4 	c #8E8E7A7A6C6C",
"5 	c #B6B6A2A29494",
"6 	c #AAAA9A9A8989",
"7 	c #161612121414",
"8 	c #96968A8A8484",
"9 	c #909076766C6C",
"0 	c #262622221C1C",
"q 	c #424242423C3C",
"w 	c #2E2E2E2E2C2C",
"e 	c #3E3E3E3E3C3C",
"r 	c #565656565454",
"t 	c #82827E7E7C7C",
"y 	c #828282827C7C",
"u 	c #777772726C6C",
"i 	c #7E7E7E7E7A7A",
"p 	c #868682827E7E",
"a 	c #5E5E52524C4C",
"s 	c #46463E3E3C3C",
"d 	c #767666665C5C",
"f 	c #6A6A5A5A5050",
"g 	c #424236362F2F",
"h 	c #464646464444",
"j 	c #5E5E5E5E5C5C",
"k 	c #8E8E8A8A8484",
"l 	c #8A8A8A8A8484",
"z 	c #B2B28E8E7C7C",
"x 	c #9E9E92928484",
"c 	c #7E7E6E6E6464",
"v 	c #7A7A66665C5C",
"b 	c #696956564C4C",
"n 	c #6E6E5A5A5252",
"m 	c #4E4E4E4E4C4C",
"M 	c #5A5A56565454",
"N 	c #7E7E7A7A7C7C",
"B 	c #929282827474",
"V 	c #BEBEA6A69494",
"C 	c #76765E5E5454",
"Z 	c #464642424444",
"A 	c #4A4A4A4A4747",
"S 	c #9E9E9A9A9898",
"D 	c #969692928C8C",
"F 	c #565646463C3C",
"G 	c #72725E5E5454",
"H 	c #61614A4A4444",
"J 	c #4A4A46464444",
"K 	c #565652524C4C",
"L 	c #666652524A4A",
"P 	c #C2C29A9A8C8C",
"I 	c #B6B692928484",
"U 	c #92928E8E8484",
"Y 	c #86866E6E6464",
"T 	c #7A7A62625858",
"R 	c #52524E4E4C4C",
"E 	c #525252524C4C",
"W 	c #5E5E5A5A5858",
"Q 	c #666666665C5C",
"! 	c #9E9E8A8A7C7C",
"~ 	c #E2E2B2B2A4A4",
"^ 	c #A6A6A2A29C9C",
"/ 	c #929292928C8C",
"( 	c #767662625858",
") 	c #626262625C5C",
"_ 	c #6E6E6E6E6C6C",
"` 	c #A2A28E8E7C7C",
"' 	c #B2B296968C8C",
"] 	c #A3A386867C7C",
"[ 	c #A2A27E7E7474",
"{ 	c #929272726767",
"} 	c #4A4A3A3A3434",
"| 	c #3A3A3A3A3434",
" .	c #A6A6A6A6A4A4",
"..	c #B6B6B6B6AFAF",
"X.	c #BABABABAB4B4",
"o.	c #BEBEBABAB4B4",
"O.	c #C2C2BEBEB6B6",
"+.	c #BEBEBEBEB5B5",
"@.	c #979776766C6C",
"#.	c #7E7E66665C5C",
"$.	c #5A5A4A4A4444",
"%.	c #9D9D86867C7C",
"&.	c #5A5A46463E3E",
"*.	c #6A6A6A6A6464",
"=.	c #AEAEAAAAA7A7",
"-.	c #D2D2D2D2C7C7",
";.	c #DADADADAD0D0",
":.	c #CECECECEC4C4",
">.	c #BABAAAAAA4A4",
",.	c #868646464C4C",
"<.	c #AEAE96969494",
"1.	c #C6C6C2C2BCBC",
"2.	c #CACAC2C2B4B4",
"3.	c #C2C2BABAB4B4",
"4.	c #87876A6A5C5C",
"5.	c #A6A682827474",
"6.	c #9E9E7A7A6C6C",
"7.	c #424232322C2C",
"8.	c #92927A7A6C6C",
"9.	c #72726E6E6C6C",
"0.	c #AEAEAEAEACAC",
"q.	c #D2D2CECEC6C6",
"w.	c #E6E6E2E2D7D7",
"e.	c #D6D6D2D2CACA",
"r.	c #AEAE9A9A9494",
"t.	c #787836363C3C",
"y.	c #C2C2C2C2B7B7",
"u.	c #9C9C96969494",
"i.	c #CACAC6C6BDBD",
"p.	c #CECECACAC4C4",
"a.	c #464636363434",
"s.	c #7E7E5E5E5454",
"d.	c #8A8A6E6E6464",
"f.	c #717156564C4C",
"g.	c #868666665C5C",
"h.	c #B2B2AEAEACAC",
"j.	c #D6D6D6D6D0D0",
"k.	c #B8B8B2B2ACAC",
"l.	c #78782E2E3434",
"z.	c #9C9C92929494",
"x.	c #6A6A52524C4C",
"c.	c #4E4E3E3E3434",
"v.	c #72725A5A5454",
"b.	c #C6C6C6C6BCBC",
"n.	c #BABAB6B6B0B0",
"m.	c #7A7A32323434",
"M.	c #BEBEB6B6B4B4",
"N.	c #A6A69E9E9999",
"B.	c #CACACACABCBC",
"V.	c #8E8E6E6E6464",
"C.	c #545442423C3C",
"Z.	c #969696969494",
"A.	c #DEDEDEDED6D6",
"S.	c #E2E2DEDED4D4",
"D.	c #D6D6CECEC4C4",
"F.	c #B2B2A2A29C9C",
"G.	c #7A7A5E5E5454",
"H.	c #77775A5A5454",
"J.	c #3A3A26262020",
"K.	c #52523E3E3535",
"L.	c #AAAAAAAAA4A4",
"P.	c #E2E2E2E2D9D9",
"I.	c #ACAC9E9E9494",
"U.	c #AAAAA2A29C9C",
"Y.	c #313126262424",
"T.	c #3A3A2E2E2C2C",
"R.	c #8E8E72727474",
"E.	c #DBDBD6D6CCCC",
"W.	c #69694E4E4444",
"Q.	c #5E5E46463C3C",
"!.	c #68684A4A4444",
"~.	c #7A7A7A7A7474",
"^.	c #AAAAA6A69F9F",
"/.	c #66662E2E3434",
"(.	c #6E6E52525454",
").	c #DEDEDADAD1D1",
"_.	c #626246463F3F",
"`.	c #50503A3A3434",
"'.	c #36361E1E1F1F",
"].	c #5A5A42423C3C",
"[.	c #020202020404",
"{.	c #61614E4E4444",
"}.	c #C6C6BEBEB4B4",
"|.	c #6A6A3A3A3C3C",
" X	c #62623E3E4444",
".X	c #56563E3E3636",
"XX	c #464632322C2C",
"oX	c #4E4E36363030",
"OX	c #4A4A36363434",
"+X	c #828256565C5C",
"@X	c #6E6E42424C4C",
"#X	c #46462E2E2C2C",
"$X	c #525236363434",
"%X	c #5E5E42423C3C",
"&X	c #42422E2E2727",
"*X	c #80806A6A5C5C",
"=X	c #767676767070",
"-X	c #868686868080",
";X	c #666636363C3C",
":X	c #5A5A3E3E3434",
">X	c #313122221C1C",
",X	c #3E3E2E2E2C2C",
"<X	c #828262626464",
"1X	c #E6E6E6E6E0E0",
"2X	c #EAEAE6E6DCDC",
"3X	c #4E4E32322C2C",
"4X	c #1A1A12121414",
"5X	c #42422A2A2424",
"6X	c #3E3E26262424",
"7X	c #4A4A32322C2C",
"8X	c #4A4A2E2E2828",
"9X	c #31311E1E1C1C",
"0X	c #0B0B0A0A0C0C",
"qX	c #A2A29A9A9C9C",
"wX	c #3E3E2A2A2424",
"eX	c #2A2A22221C1C",
"rX	c #3A3A22221C1C",
"tX	c #8E8E8E8E8C8C",
"yX	c #EEEEEAEADCDC",
"uX	c #262616161414",
"iX	c #363622221C1C",
"pX	c #2E2E1A1A1616",
"aX	c #767656564C4C",
"sX	c #A2A29E9E9494",
"dX	c #2A2A16161414",
"fX	c #32321A1A1414",
"gX	c #0E0E06060404",
"hX	c #86867E7E7474",
"jX	c #32322A2A2424",
"kX	c #22221E1E1C1C",
"lX	c #22221A1A1414",
"zX	c #C6C6BABAACAC",
"xX	c #BABAA6A69C9C",
"cX	c #26261E1E1C1C",
"vX	c #1E1E16161414",
"bX	c #12120E0E0C0C",
"nX	c #7E7E62625454",
"mX	c #1E1E1A1A1414",
"MX	c #060606060404",
"                                                                                                ",
"                                                                                                ",
"                                                                                                ",
"                                                                                                ",
"                        . X                                                                     ",
"                    o O + @ #                                                                   ",
"                  $ % & * = -                                                                   ",
"                % ; : X > , , %                                                                 ",
"                < 1 2 2 2 3 4 %                                                                 ",
"                # < 5 - 6 + ; 7                                                                 ",
"                . 8 6 2 o o 9 0                     q w e r t y u i p                           ",
"                O + a s d 4 f g                   h r h j         k l                           ",
"                z x c X $ v b n                 q m M             t p N                         ",
"                3 < B x V 3 % C                 Z A m               S D                         ",
"                @ 3 ; % c F G H               r A J q h K c L 9 P I y U                         ",
"                Y , @ @ % f n T             Z h R E K M W Q u ! ~ z ^ / C                       ",
"                  % $ 3 , ( C C         Z e A r ) _ u u u i p / ` P ' ] [ {                     ",
"                  , O v v G }           | A W l  ...X.X.X.o.O.+.X.& @.#.n 9 @.$.                ",
"                  o %.. ( G &.        e Z *.=.-.;.:.>.,.<.o.O.1.2.3.4.4.{ [ 5.6.7.              ",
"                    8.% F b }       q J 9.0.q.w.e.O.r.t.6 y.u.1.i.p.x a.s.d.6.f.g.              ",
"                    , Y &.L         h ) h.+.+.j.1.X.k.l.<.1.z.i.p.p.2.x.@.@.F H g.c.            ",
"                    , d G v.        m i -.;.b.O.X.n.o.m.r.M.N.B.p.q.-.O V.5.f.T @.s.            ",
"                    9 T g C.      A W Z.A.S.:.+.o.o.O.m.r.n.N.p.q.D.j.F.f.G.H.g.H.H J.          ",
"                  9 ( L K.&.      A *.L.M.P.i.M.o.+.O.l.I.o.U.q.-.j.e.3.H s.H.K.Y.7.T.          ",
"                  < c n x.H       r u 0.o.1.+.X.3.o.n.t.R.o.^ q.e.E.;.D.W.s.W.Q.&.s.!.          ",
"                  8.v C v.        W ~...b.+.o.O.X.^.i /.(.n.U.e.e.E.).)._.H.W._.`.H.W.          ",
"                  9 G W.7.        ) t O.i.+.o.y.X.l g '.A N.z.E.;.).S.S.].H &.].K.Q._.[.        ",
"                  ( {.$.`.        *.t o.O.o.O.}.1.n.|. X=.S u.E.E.).S.e.!..XXX`.oX_.H [.        ",
"                  b &.7.OX        _ t o.y.O.y.1.b.+X@X3.q.S o.).S.S.w.2.#X$X`.%X`.&XXX[.        ",
"                  *XC c.K.        =X-XX.O.1.1.i.>.;Xk.e.h.^.;.).S.P.w.6 :X`.`.%X`.`.>X[.        ",
"                  T H ,X].          p k.O.b.b.i.;X<XD.i.o E.S.S.S.1X2XX %X$X$X3X$X#X4X[.        ",
"                  C H OX            y L.1.2.p.p.p.q.j.=.B.).).S.w.w.;.5X&X6X&X7X8X9X0X[.        ",
"                  c.C.Q.            p D b.i.p.q.e.e.qXi.).S.w.w.2X2X8 '.J.6XJ.wXJ.9X[.[.        ",
"                eX7 J.oX              -X..p.p.q.-.e.E.).A.S.w.2X2XD.5X>XrX6XrX6XrX4X[.          ",
"                F H v.W.                tXp.-.e.E.;.;.S.w.P.2XyXyXb uX9XrXrX'.iXpX[.[.          ",
"                W.K.H.aX                  sXD.e.E.E.).S.S.w.2X2Xd pXdXdX'.fXfXdXgX[.[.          ",
"                {.:X].                    hXN.j.).S.S.w.2X2XE.$ 7.eXY.jXY.kXlX4X[.[.[.          ",
"                c.].`.                    @.z %.zXe.w.).2.xX4.$.Y.lXY.Y.kXcXvX7 bX[.            ",
"                &.K.`.                  ( Y ] #.nXH &.{.C.f.F H c.C.T.jXkXkXmXgXMX[.            ",
"                .X.X                              C.g H L b F F 7.{.{.cXlX7 bXMXMX              ",
"                ].`.                                                                            ",
"                !.                                                                              ",
"                                                                                                ",
"                                                                                                ",
"                                                                                                ",
"                                                                                                ",
"                                                                                                ",
"                                                                                                "};
