/* XPM */
static char * image_name[] = {
"20 20 143 2",
"  	c #CECECECECCCC",
". 	c #C2C2C6C6C4C4",
"X 	c #AEAEB2B2ACAC",
"o 	c #BABABEBEBCBC",
"O 	c #BABABABABCBC",
"+ 	c #9E9E9E9E9C9C",
"@ 	c #AEAEB2B2B4B4",
"# 	c #B2B2B2B2B4B4",
"$ 	c #B2B2B6B6B4B4",
"% 	c #A6A6AAAAACAC",
"& 	c #A2A2A2A2A4A4",
"* 	c #A2A2A6A6A4A4",
"= 	c #B6B6BABABCBC",
"- 	c #C6C6C6C6C4C4",
"; 	c #76767A7A7C7C",
": 	c #8A8A8E8E8C8C",
"> 	c #8E8E92929494",
", 	c #7E7E8A8A9494",
"< 	c #7A7A7E7E7C7C",
"1 	c #7A7A82828484",
"2 	c #929296969494",
"3 	c #7E7E82828484",
"4 	c #424246464444",
"5 	c #363636363434",
"6 	c #626266666464",
"7 	c #86868A8A8C8C",
"8 	c #86868E8E8C8C",
"9 	c #7E7E86868484",
"0 	c #828286868484",
"q 	c #4E4E52525454",
"w 	c #82828A8A8C8C",
"e 	c #8A8A92928C8C",
"r 	c #6E6E72726C6C",
"t 	c #66666A6A6C6C",
"y 	c #3A3A3E3E3C3C",
"u 	c #6E6E72727474",
"i 	c #5E5E62625C5C",
"p 	c #36363A3A3C3C",
"a 	c #4E4E52524C4C",
"s 	c #363636363C3C",
"d 	c #4A4A4E4E4C4C",
"f 	c #4A4A52525454",
"g 	c #96969E9E9C9C",
"h 	c #72727A7A7C7C",
"j 	c #525252525454",
"k 	c #3E3E42424444",
"l 	c #525256565454",
"z 	c #626262626464",
"x 	c #86868A8A8484",
"c 	c #96969A9A9C9C",
"v 	c #727276767474",
"b 	c #3E3E3E3E3C3C",
"n 	c #2E2E2E2E2C2C",
"m 	c #262626262424",
"M 	c #2A2A2A2A2C2C",
"N 	c #2E2E32323434",
"B 	c #4A4A4A4A4C4C",
"V 	c #3A3A3A3A3C3C",
"C 	c #5E5E5E5E5C5C",
"Z 	c #525256565C5C",
"A 	c #1A1A1A1A1C1C",
"S 	c #26261E1E1C1C",
"D 	c #4A4A2A2A2C2C",
"F 	c #5E5E2A2A2C2C",
"G 	c #4E4E22222424",
"H 	c #36361A1A1C1C",
"J 	c #1A1A16161414",
"K 	c #323232323434",
"L 	c #6A6A6E6E7474",
"P 	c #1E1E1E1E1C1C",
"I 	c #26262A2A2C2C",
"U 	c #52523A3A3C3C",
"Y 	c #92925A5A5C5C",
"T 	c #9E9E56565454",
"R 	c #82823E3E3C3C",
"E 	c #72722E2E2C2C",
"W 	c #3E3E1A1A1C1C",
"Q 	c #222222221C1C",
"! 	c #6A6A6E6E6C6C",
"~ 	c #9A9AA2A2A4A4",
"^ 	c #62626A6A6C6C",
"/ 	c #161616161414",
"( 	c #121212121414",
") 	c #22221E1E1C1C",
"_ 	c #6A6A46464444",
"` 	c #AAAA76767474",
"' 	c #B6B682828484",
"] 	c #A2A25E5E5C5C",
"[ 	c #222216161414",
"{ 	c #323236363434",
"} 	c #5E5E62626464",
"| 	c #9E9EA2A2A4A4",
" .	c #2E2E32322C2C",
"..	c #56565A5A5C5C",
"X.	c #1E1E16161414",
"o.	c #56562E2E2C2C",
"O.	c #9A9A62626464",
"+.	c #AAAA6E6E6C6C",
"@.	c #92924E4E4C4C",
"#.	c #66662E2E2C2C",
"$.	c #2E2E1A1A1C1C",
"%.	c #AAAAAEAEB4B4",
"&.	c #5A5A5E5E5C5C",
"*.	c #2A2A2E2E2C2C",
"=.	c #1E1E1A1A1C1C",
"-.	c #626236363434",
";.	c #969656565454",
":.	c #9A9A52525454",
">.	c #6E6E36363434",
",.	c #36361E1E1C1C",
"<.	c #46464A4A4C4C",
"1.	c #9A9A9E9E9C9C",
"2.	c #5A5A5E5E6464",
"3.	c #222222222424",
"4.	c #666632323434",
"5.	c #7A7A3E3E3C3C",
"6.	c #828242424444",
"7.	c #727236363434",
"8.	c #3A3A26262424",
"9.	c #2A2A26262424",
"0.	c #464646464444",
"q.	c #4A4A52524C4C",
"w.	c #4E4E26262424",
"e.	c #565632323434",
"r.	c #3E3E26262424",
"t.	c #7E7E86868C8C",
"y.	c #66666E6E6C6C",
"u.	c #323222222424",
"i.	c #363626262424",
"p.	c #363632323434",
"a.	c #A2A2A6A6ACAC",
"s.	c #82828E8E9494",
"d.	c #6E6E76767474",
"f.	c #424242424444",
"g.	c #868692929C9C",
"h.	c #727276767C7C",
"j.	c #8A8A96969494",
"k.	c #828286868C8C",
"l.	c #82828A8A8484",
"z.	c #8E8E96969494",
"x.	c #92929A9A9494",
"c.	c #8A8A92929494",
"v.	c #4A4A4E4E5454",
"  . X o O + @ # $ $ % & * @ = = - - $ ; ",
". : > > , < ; 1 < 2 3 4 5 6 3 7 8 9 0 q ",
"$ w e > 1 3 r t y u i p a s d 7 3 < > f ",
"% > 8 2 1 g e h q j k l 9 < z y 6 w e d ",
"& 0 h x 0 c v b n m m M N y B 4 V B v 4 ",
"= 7 C Z u < d s A S D F G H J K j z L y ",
"o c : l N m P I M U Y T R E W Q i ! < b ",
"O ~ g ^ K K / ( ) _ ` ' ] R G [ { } 9 d ",
"$ | h  .6 ..m J X.o.O.' +.@.#.$.P ..1 d ",
"%.w y &.; K { *.=.G -.;.] :.>.,.n <.6 y ",
"1.l 2.u } K q V 3.A $.4.5.6.7.8.9.u C y ",
"; 6 ! t 0.q.l 4 <.5 J ,.w.o.e.r.n : h p ",
"2 t.9 h <.6 &.^ y.&.*.p 3.u.8.i.p.> 3 0.",
"a.s.s.d.l h < 3 3 u y q B q Z b f.3 8 l ",
"$ , g.h.< < t.9 j.1 l ^ d.h.k.e v 7 w 4 ",
". w w < : e 3 3 : 7 z < 0 < : 2 l.e 8 k ",
". 7 w z.7 x.e > > l.C 3 1 7 w > 7 2 8 4 ",
". 2 3 > c 2 c.2 c > < 7 l.l.< 3 2 2 0 d ",
"- 2 7 8 1.e 8 2 x.c.t.: > : 7 0 > e w d ",
"c.d <.B 4 b k 4 B <.v.<.d q d <.q.B d 4 "};
