/* XPM */
static char * image_name[] = {
"48 48 171 2",
"  	c None",
". 	c #6E6E72727474",
"X 	c #46464A4A4444",
"o 	c #424242423C3C",
"O 	c #6A6A6A6A6464",
"+ 	c #86868A8A8C8C",
"@ 	c #86868E8E8C8C",
"# 	c #2A2A2E2E2C2C",
"$ 	c #2A2A2A2A2424",
"% 	c #525252525454",
"& 	c #96969A9A9494",
"* 	c #222222221C1C",
"= 	c #8A8A86867474",
"- 	c #C6C6C2C2A4A4",
"; 	c #BEBEBABA9C9C",
": 	c #3A3A3A3A3434",
"> 	c #767676766C6C",
", 	c #96969A9A9C9C",
"< 	c #C2C2BEBE9C9C",
"1 	c #9E9EA2A29C9C",
"2 	c #828282827C7C",
"3 	c #B6B6B6B6A4A4",
"4 	c #B2B2B2B2B4B4",
"5 	c #565656564C4C",
"6 	c #C2C2C2C2B4B4",
"7 	c #9E9EA2A29494",
"8 	c #4E4E52524C4C",
"9 	c #D2D2CECEACAC",
"0 	c #8A8A8A8A7C7C",
"q 	c #BABAB6B69C9C",
"w 	c #C6C6BEBE9C9C",
"e 	c #EEEEEEEEECEC",
"r 	c #72726E6E5C5C",
"t 	c #CECECACAACAC",
"y 	c #DEDEDEDEDCDC",
"u 	c #E6E6E2E2E4E4",
"i 	c #969696969494",
"p 	c #A6A6A6A69494",
"a 	c #B2B2AEAE9C9C",
"s 	c #DADADADAD4D4",
"d 	c #8A8A92928C8C",
"f 	c #8A8A8A8A8484",
"g 	c #CACAC6C6BCBC",
"h 	c #E2E2E2E2DCDC",
"j 	c #A6A6A6A69C9C",
"k 	c #626262626464",
"l 	c #5A5A5A5A5454",
"z 	c #2E2E2A2A2424",
"x 	c #3E3E3A3A3434",
"c 	c #4A4A4A4A4444",
"v 	c #76767A7A7474",
"b 	c #565656565454",
"n 	c #2A2A22222424",
"m 	c #42423E3E3434",
"M 	c #82827A7A6464",
"N 	c #A2A29A9A8484",
"B 	c #A6A69A9A7C7C",
"V 	c #96968E8E7474",
"C 	c #3E3E3E3E3434",
"Z 	c #BABAB2B29494",
"A 	c #C6C6C2C2C4C4",
"S 	c #363636363434",
"D 	c #9E9E8E8E7C7C",
"F 	c #B2B2A2A28C8C",
"G 	c #B6B6A6A68C8C",
"H 	c #AEAE9E9E8484",
"J 	c #9E9E96967C7C",
"K 	c #969696968C8C",
"L 	c #969692928484",
"P 	c #B6B6AAAA8C8C",
"I 	c #F2F2F2F2F4F4",
"U 	c #323232322C2C",
"Y 	c #727266665454",
"T 	c #AAAA9A9A8484",
"R 	c #AEAE9A9A8484",
"E 	c #AEAEA2A28C8C",
"W 	c #AAAA9E9E8484",
"Q 	c #B2B2A6A68C8C",
"! 	c #A2A2A2A29C9C",
"~ 	c #7E7E6E6E6464",
"^ 	c #A6A696967C7C",
"/ 	c #AAAA96967C7C",
"( 	c #BABAA6A69494",
") 	c #8E8E92928C8C",
"_ 	c #4A4A4E4E4C4C",
"` 	c #8E8E96969494",
"' 	c #7A7A6E6E6464",
"] 	c #A6A692927C7C",
"[ 	c #AAAA92927C7C",
"{ 	c #AAAA96968484",
"} 	c #B2B29E9E8C8C",
"| 	c #B6B6A2A28C8C",
" .	c #1E1E1E1E1C1C",
"..	c #828286868484",
"X.	c #7E7E7E7E7C7C",
"o.	c #9E9E86867474",
"O.	c #A2A28A8A7C7C",
"+.	c #A6A68E8E7C7C",
"@.	c #B2B29A9A8484",
"#.	c #929292928C8C",
"$.	c #5E5E56564C4C",
"%.	c #8E8E8A8A8484",
"&.	c #969686867C7C",
"*.	c #A6A68A8A7C7C",
"=.	c #AAAA92928484",
"-.	c #AEAE96968484",
";.	c #9A9A96969494",
":.	c #B6B6A6A69494",
">.	c #7E7E6A6A5C5C",
",.	c #AAAA8E8E7C7C",
"<.	c #3E3E32322C2C",
"1.	c #AAAA8A8A7C7C",
"2.	c #A2A286867474",
"3.	c #9E9E82827474",
"4.	c #9E9E9E9E9C9C",
"5.	c #3A3A32323434",
"6.	c #A2A282827474",
"7.	c #A6A686867C7C",
"8.	c #9A9A7E7E7474",
"9.	c #A6A686868484",
"0.	c #AAAAAAAAACAC",
"q.	c #3E3E36362C2C",
"w.	c #9E9E7E7E7474",
"e.	c #9A9A7A7A6C6C",
"r.	c #A2A29A9A9C9C",
"t.	c #22221E1E1C1C",
"y.	c #2E2E22222424",
"u.	c #6E6E56564C4C",
"i.	c #9E9E7A7A7474",
"p.	c #9A9A76766C6C",
"a.	c #929272726464",
"s.	c #AAAAA6A6A4A4",
"d.	c #1E1E1A1A1C1C",
"f.	c #5A5A42423C3C",
"g.	c #66664E4E4C4C",
"h.	c #828262625C5C",
"j.	c #9A9A72726C6C",
"k.	c #969676766C6C",
"l.	c #969672726C6C",
"z.	c #2E2E2A2A2C2C",
"x.	c #2E2E26262424",
"c.	c #767652524C4C",
"v.	c #8A8A66666464",
"b.	c #92926A6A6464",
"n.	c #92926E6E6C6C",
"m.	c #96966E6E6C6C",
"M.	c #C2C2BEBEBCBC",
"N.	c #262626262424",
"B.	c #56563A3A3C3C",
"V.	c #86865E5E5C5C",
"C.	c #8A8A62625C5C",
"Z.	c #B2B2AAAAACAC",
"A.	c #5E5E3E3E3C3C",
"S.	c #868656565454",
"D.	c #8A8A5E5E5C5C",
"F.	c #929266666464",
"G.	c #8E8E62626464",
"H.	c #8E8E66666464",
"J.	c #DEDEDADADCDC",
"K.	c #7E7E52525454",
"L.	c #8A8A5A5A5C5C",
"P.	c #8E8E5E5E5C5C",
"I.	c #BABAB2B2B4B4",
"U.	c #F2F2EEEEECEC",
"Y.	c #EAEAEAEAECEC",
"T.	c #5E5E4A4A4C4C",
"R.	c #D6D6CECECCCC",
"E.	c #E2E2DEDEDCDC",
"W.	c #CACACACACCCC",
"Q.	c #929282827C7C",
"!.	c #96968E8E8C8C",
"                                                                                                ",
"                                                                                                ",
"                                                                                                ",
"                                                                                                ",
"                                                                                                ",
"                                                                                                ",
"                                                                                                ",
"                                                                                                ",
"                                                                                                ",
"                                                                                                ",
"                                          . X o O + @                                           ",
"                                          # $ % O & @                                           ",
"                                          * = - ; ; &   $ : > ,                                 ",
"                                          o < < < < 1   $ 2 3 4                                 ",
"                                          5 < ; < 6 7 8 8 - 9 6                                 ",
"                                          0 q w - e 1 5 r t y u                                 ",
"                                          i p a s e d f ; g h                                   ",
"                                                      d 1 j 1 k l +                             ",
"                                        8 # z x c l v       # o 0 p                             ",
"                                      b n m M N B V > 2     C N Z A                             ",
"                                      S x D F G F F H J K   L P h I                             ",
"                                      U Y T R H E W E Q Q ! , d 4 ,                             ",
"                                      o ~ ^ / / / / R F ( Q )   _ b `                           ",
"                                      O ' ] ] ] [ { R } F | )    .% j                           ",
"                                      ..X.o.O.+.] [ { @.} R #.  $.| A                           ",
"                                        ..%.&.o.*.[ =.-.=.=.L   ;.:.I                           ",
"                                            k >.*.,.,.,.+.O.;.                                  ",
"                                              <.*.,.1.2.3.*.4.                                  ",
"                                              5.6.7.6.8.3.9.0.                                  ",
"                                             .q.6.w.e.e.8.r.4                                   ",
"                                _ # # S S t.y.u.i.p.a.p.e.s.4                                   ",
"                              _ d.n f.g.g.g.h.j.k.a.l.k.p.s.0.                                  ",
"                              z.x.c.v.b.b.n.m.m.m.b.b.a.k.M.                                    ",
"                              N.B.V.C.C.b.b.b.b.b.b.b.b.Z.u                                     ",
"                              5.A.S.V.D.C.F.F.G.C.H.b.;.e J.                                    ",
"                              c B.K.S.L.P.D.C.C.D.G.I.U.Y.                                      ",
"                              X.T.K.S.L.D.L.L.D.v.R.e y                                         ",
"                                X.h.V.L.L.D.P.;.E.e W.                                          ",
"                                  ..Q.b.!.;.Z.J.Y.                                              ",
"                                                                                                ",
"                                                                                                ",
"                                                                                                ",
"                                                                                                ",
"                                                                                                ",
"                                                                                                ",
"                                                                                                ",
"                                                                                                ",
"                                                                                                "};
