/* XPM */
static char * image_name[] = {
"20 20 174 2",
"  	c #CECECECECCCC",
". 	c #C2C2C6C6C4C4",
"X 	c #BEBEC2C2C4C4",
"o 	c #BEBEC2C2BCBC",
"O 	c #C2C2C2C2C4C4",
"+ 	c #C6C6C6C6C4C4",
"@ 	c #BABABEBEBCBC",
"# 	c #C6C6CACACCCC",
"$ 	c #86868A8A8C8C",
"% 	c #9A9AA2A29C9C",
"& 	c #9A9A9E9E9C9C",
"* 	c #92929A9A9494",
"= 	c #929296969494",
"- 	c #96969E9E9C9C",
"; 	c #8E8E96969494",
": 	c #8A8A8E8E8C8C",
"> 	c #7E7E86868484",
", 	c #82828A8A8484",
"< 	c #96969A9A9C9C",
"1 	c #8A8A92928C8C",
"2 	c #4E4E52525454",
"3 	c #86868E8E8C8C",
"4 	c #76767A7A7C7C",
"5 	c #6A6A6E6E6C6C",
"6 	c #6E6E76767474",
"7 	c #727276767474",
"8 	c #76767E7E7C7C",
"9 	c #828286868484",
"0 	c #8E8E92929494",
"q 	c #4A4A4E4E4C4C",
"w 	c #626272728484",
"e 	c #56567A7A9C9C",
"r 	c #727296969494",
"t 	c #82829E9E8484",
"y 	c #86869A9A7474",
"u 	c #7A7A8E8E6464",
"i 	c #5E5E6A6A5454",
"p 	c #5E5E62626464",
"a 	c #7E7E82828484",
"s 	c #4E4E72729C9C",
"d 	c #8282A6A6C4C4",
"f 	c #DEDEE2E2C4C4",
"g 	c #AEAEC2C2BCBC",
"h 	c #76769292A4A4",
"j 	c #AAAAAAAA9494",
"k 	c #92929A9A8484",
"l 	c #AEAEA6A67474",
"z 	c #A2A29E9E6464",
"x 	c #6E6E6A6A5454",
"c 	c #626266666464",
"v 	c #CECEDADAD4D4",
"b 	c #FEFEFAFAE4E4",
"n 	c #DADAE2E2D4D4",
"m 	c #BEBECACAC4C4",
"M 	c #BEBEBABA9C9C",
"N 	c #F6F6EAEAACAC",
"B 	c #BEBEBABA9494",
"V 	c #C2C2B2B26C6C",
"C 	c #5E5E5E5E4C4C",
"Z 	c #66666A6A6C6C",
"A 	c #424246464444",
"S 	c #5A5A6A6A7C7C",
"D 	c #7676A2A2BCBC",
"F 	c #FEFEFEFEE4E4",
"G 	c #FEFEFEFEECEC",
"H 	c #FEFEFEFEDCDC",
"J 	c #DEDEDEDEB4B4",
"K 	c #F6F6F2F2B4B4",
"L 	c #D2D2CECE9494",
"P 	c #B2B2A6A66C6C",
"I 	c #8E8E86865C5C",
"U 	c #525256564444",
"Y 	c #6E6E72727474",
"T 	c #42426E6E9C9C",
"R 	c #7676A2A2C4C4",
"E 	c #D2D2D6D6A4A4",
"W 	c #EAEAEEEEBCBC",
"Q 	c #F6F6FAFAD4D4",
"! 	c #D6D6D6D6ACAC",
"~ 	c #EEEEE6E6A4A4",
"^ 	c #727272724C4C",
"/ 	c #4E4E4E4E4444",
"( 	c #46464A4A4C4C",
") 	c #9E9EA2A2A4A4",
"_ 	c #3E3E7676B4B4",
"` 	c #4A4A8A8AC4C4",
"' 	c #66669A9ABCBC",
"] 	c #7676A2A2B4B4",
"[ 	c #A2A2C2C29494",
"{ 	c #A6A6C6C69C9C",
"} 	c #C6C6CECE9C9C",
"| 	c #E2E2D2D29C9C",
" .	c #DADAC6C69494",
"..	c #B2B2AEAE8C8C",
"X.	c #363646465454",
"o.	c #26263A3A4444",
"O.	c #66666A6A6464",
"+.	c #62626A6A6464",
"@.	c #3A3A7676B4B4",
"#.	c #46468282BCBC",
"$.	c #5A5A8A8AB4B4",
"%.	c #B2B2BEBE9494",
"&.	c #CACABEBE8C8C",
"*.	c #D6D6C6C68C8C",
"=.	c #DEDECACA9494",
"-.	c #464662626C6C",
";.	c #1A1A36365454",
":.	c #323242424444",
">.	c #3A3A3E3E3C3C",
",.	c #5A5A5E5E5C5C",
"<.	c #3E3E3E3E3C3C",
"1.	c #36366A6AA4A4",
"2.	c #42427A7AB4B4",
"3.	c #4A4A7E7EACAC",
"4.	c #E2E2CECE9494",
"5.	c #D2D2BEBE8C8C",
"6.	c #BABAAEAE7C7C",
"7.	c #92928E8E6C6C",
"8.	c #424256566464",
"9.	c #1A1A3E3E5C5C",
"0.	c #1A1A32325454",
"q.	c #222232324444",
"w.	c #363636363434",
"e.	c #525256565454",
"r.	c #2E2E5E5E9494",
"t.	c #36366E6EA4A4",
"y.	c #3A3A6E6EA4A4",
"u.	c #DEDED6D6ACAC",
"i.	c #BABAB6B68484",
"p.	c #AAAAA6A67C7C",
"a.	c #46465E5E6C6C",
"s.	c #1E1E42426464",
"d.	c #161632324C4C",
"f.	c #161636364C4C",
"g.	c #1A1A2E2E4444",
"h.	c #323252527474",
"j.	c #323262629494",
"k.	c #42426A6A9494",
"l.	c #DADAD2D2A4A4",
"z.	c #B2B2AEAE7C7C",
"x.	c #767682826C6C",
"c.	c #464652525454",
"v.	c #161632324444",
"b.	c #1A1A26263434",
"n.	c #36363A3A3C3C",
"m.	c #22224A4A7C7C",
"M.	c #262652528484",
"N.	c #22223A3A4C4C",
"B.	c #1A1A32324444",
"V.	c #1A1A2E2E3C3C",
"C.	c #26262A2A2C2C",
"Z.	c #3E3E42424444",
"A.	c #666666666464",
"S.	c #363642425454",
"D.	c #2A2A56568484",
"F.	c #565666667474",
"G.	c #26263E3E6464",
"H.	c #161636365454",
"J.	c #1E1E26262C2C",
"K.	c #323232323434",
"L.	c #32323A3A4444",
"P.	c #1A1A36365C5C",
"I.	c #161636365C5C",
"U.	c #3E3E42423C3C",
"Y.	c #7A7A7E7E7C7C",
"T.	c #161632325C5C",
"R.	c #222226262424",
"E.	c #56565A5A5C5C",
"W.	c #2E2E2E2E2C2C",
"Q.	c #2E2E32323434",
"!.	c #464646464444",
"~.	c #A2A2A6A6A4A4",
"^.	c #4E4E52524C4C",
"/.	c #42424A4A4444",
"  . X X o O . . . . + . o @ @ . # + @ $ ",
". % & * = - & & & = ; : > , ; & < 1 = 2 ",
"O < = - = * ; 3 4 5 6 7 8 9 0 * 3 * = q ",
"X % = < ; 0 w e r t y u i p 9 a : = - 2 ",
"X & 0 < : s d f g h j k l z x c a < & q ",
"X - * : s v b b b n m M N B V C Z $ , A ",
"X & < S D F G F b H G J K L P I U Y 4 A ",
"@ & ; T R E W Q H Q H ! L ~ I ^ / 2 Y ( ",
"@ ) 8 _ ` ' ] [ { } |  ...k X.o.U A O.A ",
"X & +.@.#.#.$.%.%.B &.*.=.-.;.o.:.>.,.<.",
". = Z 1.2.2.3.o 4.5.6.7.8.9.0.q.q.w.e.>.",
". 1 6 r.t.y.e u.| i.p.a.s.d.f.f.g.w.e.>.",
"+ 0 a h.r.j.k.l.| z.x.c.X.v.v.f.b.n.e.<.",
". 0 , e.m.M.M.B =.7.s.c.N.B.B.V.C.Z.A.A ",
". = 3 6 S.s.s.D.F.G.H.H.H.d.g.J.K.q +.Z.",
"+ * 0 a +.L.P.I.I.H.;.H.H.v.J.C.U.p Y A ",
". * = : Y.,.>.q.0.T.d.g.b.R.K.<.E.7 > ( ",
"+ = ; < ; 4 ,.( >.w.K.W.Q.n.!.,.7 , : q ",
"+ = = ~.< > 7 5 p E.^.q / E.A.7 9 0 1 q ",
"1 q 2 2 q A A A A <.n.>.Z.A /.( q 2 q A "};
