/* XPM */
static char * image_name[] = {
"48 48 252 2",
"  	c #C3C3C7C7C5C5",
". 	c #BBBBBDBDBCBC",
"X 	c #B5B5BABABABA",
"o 	c #BEBEC2C2C4C4",
"O 	c #C2C2C2C2C1C1",
"+ 	c #B2B2B6B6B4B4",
"@ 	c #A9A9AFAFACAC",
"# 	c #EEEEF2F2F4F4",
"$ 	c #D2D2D6D6D4D4",
"% 	c #CFCFD2D2D2D2",
"& 	c #CBCBCDCDCCCC",
"* 	c #D6D6D9D9D6D6",
"= 	c #DFDFE2E2E4E4",
"- 	c #DBDBDBDBDCDC",
"; 	c #72727A7A7878",
": 	c #4D4D52525353",
"> 	c #A6A6AAAAABAB",
", 	c #A6A6A6A6A7A7",
"< 	c #9D9DA2A2A3A3",
"1 	c #A2A2A5A5A4A4",
"2 	c #AFAFB1B1B2B2",
"3 	c #9A9A99999797",
"4 	c #939398989696",
"5 	c #86868E8E8D8D",
"6 	c #85858A8A8C8C",
"7 	c #7E7E86868282",
"8 	c #8C8C91918F8F",
"9 	c #96969E9E9C9C",
"0 	c #58585B5B5B5B",
"q 	c #4B4B4D4D4C4C",
"w 	c #B7B7B6B6B5B5",
"e 	c #9A9A9E9E9C9C",
"r 	c #3E3E3E3E3D3D",
"t 	c #46464B4B4D4D",
"y 	c #838388888484",
"u 	c #464646464545",
"i 	c #7D7D82828282",
"p 	c #797988889292",
"a 	c #868692927C7C",
"s 	c #38383C3C3B3B",
"d 	c #8A8A8A8A8C8C",
"f 	c #78787C7C7C7C",
"g 	c #7E7E7E7E8080",
"h 	c #9292A4A49C9C",
"j 	c #62627A7A8C8C",
"k 	c #5C5C7C7C9494",
"l 	c #6A6A7E7E7C7C",
"z 	c #373764649797",
"x 	c #7A7A7B7B6A6A",
"c 	c #6D6D73737272",
"v 	c #727275757373",
"b 	c #414143434444",
"n 	c #52527B7BA2A2",
"m 	c #3C3C7676BCBC",
"M 	c #82829A9A9494",
"N 	c #8A8AA6A67C7C",
"B 	c #86869E9E7070",
"V 	c #82829A9A7C7C",
"C 	c #7A7A92927C7C",
"Z 	c #8F8F99997474",
"A 	c #7A7A90906868",
"S 	c #72728E8E5C5C",
"D 	c #767682825C5C",
"F 	c #67676B6B5454",
"G 	c #65656B6B6A6A",
"H 	c #5C5C8282A0A0",
"J 	c #3A3A7E7EC4C4",
"K 	c #5E5E8E8EBCBC",
"L 	c #777797979999",
"P 	c #90909E9E7878",
"I 	c #9696A4A48484",
"U 	c #8E8EA2A27C7C",
"Y 	c #868696966464",
"T 	c #6A6A86865454",
"R 	c #66667A7A5454",
"E 	c #5A5A63635C5C",
"W 	c #72727C7C8888",
"Q 	c #7A7A8E8E8F8F",
"! 	c #4E4E7D7DAFAF",
"~ 	c #48487D7DB5B5",
"^ 	c #DEDED7D7AEAE",
"/ 	c #7A7A9292ACAC",
"( 	c #6C6C8E8EA8A8",
") 	c #ACACAAAA9494",
"_ 	c #B6B6B0B09090",
"` 	c #A1A19E9E7474",
"' 	c #5E5E76768C8C",
"] 	c #AEAEA5A58181",
"[ 	c #B8B8AAAA7979",
"{ 	c #92928E8E5C5C",
"} 	c #7A7A76765C5C",
"| 	c #363636363535",
" .	c #49497A7AABAB",
"..	c #5B5B8989B1B1",
"X.	c #FBFBF9F9CCCC",
"o.	c #FEFEFEFECACA",
"O.	c #D6D6BEBE9C9C",
"+.	c #CACABCBC8989",
"@.	c #949499998888",
"#.	c #8E8E90907C7C",
"$.	c #C4C4B6B68989",
"%.	c #D1D1C2C28989",
"&.	c #CACAB6B67474",
"*.	c #A8A899995F5F",
"=.	c #666666666767",
"-.	c #616166666464",
";.	c #32323C3C4848",
":.	c #50508787BBBB",
">.	c #F2F2F2F2C0C0",
",.	c #FDFDFDFDF0F0",
"<.	c #FDFDFDFDDBDB",
"1.	c #BABAC6C6B4B4",
"2.	c #8282A2A2A8A8",
"3.	c #9696AEAEB4B4",
"4.	c #64648888A0A0",
"5.	c #AEAEA2A29494",
"6.	c #CBCBB6B68C8C",
"7.	c #E3E3D1D19C9C",
"8.	c #AAAAB2B28C8C",
"9.	c #C3C3BCBC8484",
"0.	c #C6C6B0B06C6C",
"q.	c #5E5E5E5E4F4F",
"w.	c #535355555454",
"e.	c #5E5E6A6A6767",
"r.	c #4A4A8282BABA",
"t.	c #B2B2C2C2ACAC",
"y.	c #8A8A9E9E9494",
"u.	c #DEDED6D69C9C",
"i.	c #FEFEFAFAB8B8",
"p.	c #F8F8E8E8A6A6",
"a.	c #D2D2C9C9A1A1",
"s.	c #7E7E7A7A5454",
"d.	c #5F5F61616262",
"f.	c #6A6A6D6D6B6B",
"g.	c #313134343333",
"h.	c #76769E9EBCBC",
"j.	c #F9F9F7F7B9B9",
"k.	c #F9F9F1F1ADAD",
"l.	c #FAFAF2F2A0A0",
"z.	c #DDDDD0D09F9F",
"x.	c #D0D0C7C79292",
"c.	c #BCBCB6B68484",
"v.	c #909086866868",
"b.	c #6E6E6C6C5050",
"n.	c #41417A7AB1B1",
"m.	c #D6D6DEDECCCC",
"M.	c #B2B2C2C29494",
"N.	c #F2F2EEEEB0B0",
"B.	c #9E9E9A9A7777",
"V.	c #83837D7D5757",
"C.	c #92928F8F6F6F",
"Z.	c #4F4F5A5A5757",
"A.	c #4E4E72729494",
"S.	c #CECECACAB4B4",
"D.	c #E1E1DFDFAAAA",
"F.	c #A2A29A9A6464",
"G.	c #A9A9BDBD9999",
"H.	c #BDBDC7C79E9E",
"J.	c #E6E6E6E6ACAC",
"K.	c #F2F2E8E8B0B0",
"L.	c #C7C7BEBE9999",
"P.	c #EAEAE2E29C9C",
"I.	c #727272725C5C",
"U.	c #A2A2AAAAA3A3",
"Y.	c #8E8EA6A6B4B4",
"T.	c #C2C2CECEA4A4",
"R.	c #F4F4E0E0A4A4",
"E.	c #A6A6A2A28C8C",
"W.	c #E8E8D6D69898",
"Q.	c #686866665050",
"!.	c #222233334747",
"~.	c #444452525C5C",
"^.	c #56568989B7B7",
"/.	c #66669494B4B4",
"(.	c #78789898B0B0",
").	c #9E9EB6B69090",
"_.	c #A2A2C2C29494",
"`.	c #9E9EBBBB9191",
"'.	c #C4C4C8C89C9C",
"].	c #EFEFD7D79999",
"[.	c #F2F2D2D29C9C",
"{.	c #BEBEB0B08282",
"}.	c #7A7A76766C6C",
"|.	c #26263C3C5353",
" X	c #42426C6C9898",
".X	c #56568E8EBCBC",
"XX	c #8E8EB6B68C8C",
"oX	c #8282AEAE8C8C",
"OX	c #8282AAAA8484",
"+X	c #9191AFAF8787",
"@X	c #9E9EB0B08C8C",
"#X	c #B7B7B0B08181",
"$X	c #AAAAAAAA7C7C",
"%X	c #727282827C7C",
"&X	c #626276767C7C",
"*X	c #2F2F53537171",
"=X	c #28284C4C6E6E",
"-X	c #37374C4C5A5A",
";X	c #3D3D6C6C9D9D",
":X	c #AAAAB6B68C8C",
">X	c #CECEBDBD8B8B",
",X	c #DFDFC1C19292",
"<X	c #212144446262",
"1X	c #2C2C2D2D2D2D",
"2X	c #4F4F8282B1B1",
"3X	c #565682829C9C",
"4X	c #BABABBBB9393",
"5X	c #DADAC2C28888",
"6X	c #DCDCC7C79191",
"7X	c #4F4F64647272",
"8X	c #262645456464",
"9X	c #40407373A6A6",
"0X	c #9C9C96966868",
"qX	c #ADAD9E9E7070",
"wX	c #232325252525",
"eX	c #7A7A6A6A6C6C",
"rX	c #E9E9E9E9E9E9",
"tX	c #26262A2A2929",
"yX	c #47477575A2A2",
"uX	c #D6D6CECEB4B4",
"iX	c #B6B6A4A48080",
"pX	c #2A2A52526C6C",
"aX	c #323246465454",
"sX	c #D6D6D2D2BCBC",
"dX	c #EAEAE0E0B4B4",
"fX	c #21213E3E5858",
"gX	c #3A3A62628A8A",
"hX	c #A2A2AAAA7C7C",
"jX	c #3C3C54546868",
"kX	c #21213A3A5252",
"lX	c #1B1B1C1C1A1A",
"zX	c #30305D5D8D8D",
"xX	c #A2A2A2A27474",
"cX	c #3E3E5A5A7474",
"vX	c #141415151414",
"bX	c #292955558282",
"nX	c #414165658787",
"mX	c #31314C4C6262",
"MX	c #36365E5E8989",
"NX	c #0D0D0D0D0C0C",
"BX	c #575766667171",
"VX	c #24244D4D7E7E",
"CX	c #E6E6E8E8CCCC",
"ZX	c #E6E6C7C78F8F",
"AX	c #2E2E56568080",
"SX	c #2C2C45455D5D",
"DX	c #3E3E4A4A5454",
"FX	c #2E2E4D4D6F6F",
"GX	c #C6C6A2A27C7C",
"HX	c #20203E3E6767",
"JX	c #2C2C3E3E5858",
"KX	c #1E1E46467878",
"    . . . . . . X X X X . . . . o . . . . . . . . o o O o . X + X + + + X . o o       . + X @ @ ",
". # # $ % % % & % $ $ $ $ $ $ $ $ * $ * * $ $ = = - = - - - $ * $ * * * - - - = - - - * * X ; : ",
"X - o @ @ @ @ > , < < < 1 > @ @ @ @ @ @ 2 2 @ < < 3 4 4 4 5 6 7 6 5 8 8 3 < < 1 1 9 8 5 4 4 0 q ",
"w * , 8 8 4 4 8 4 8 8 8 4 4 3 3 4 4 3 9 9 3 8 4 4 4 4 5 5 5 7 7 6 4 4 4 9 e < 9 4 6 5 8 < 5 r t ",
"X * @ 4 8 4 4 4 4 4 4 4 4 4 4 4 4 4 4 4 4 4 5 8 8 5 5 5 5 6 y y 5 8 4 9 < < 9 5 y 5 4 4 < 5 r u ",
"+ * @ 4 8 4 3 4 e 9 4 4 4 9 4 4 4 4 8 8 5 y 6 5 5 5 6 6 y 7 i p 8 4 4 3 < 1 8 6 a 4 3 3 e 7 s t ",
"+ $ @ 4 8 4 4 4 9 3 4 4 4 4 4 8 8 8 5 y 6 7 y d 6 7 i i i f g 7 6 5 4 9 < 3 5 6 4 9 9 4 9 y r q ",
"+ * 2 h 4 4 9 4 3 9 8 4 4 9 4 4 8 p j k l z l a ; x x c v ; ; g y 6 4 3 3 8 7 5 4 4 4 4 3 5 b q ",
"2 $ 2 e 4 8 4 4 4 9 8 8 4 4 8 p n m m M N N B V C Z A S D F G v ; i a 4 8 7 6 4 4 4 4 9 < 5 b t ",
"+ * > < 4 5 4 4 9 4 4 4 4 8 H J K w < L L h P I U B Z Y S T R E G v g y i W 6 8 4 4 9 1 2 a s b ",
"+ * @ < 4 5 4 4 3 4 8 8 Q ! ~ ! 2 ^ @ / / ( 3 ) _ ` ' i ] [ [ { } G v f ; v 6 5 8 3 1 @ @ 7 | u ",
"+ * > 9 4 8 4 4 9 4 5 p  .! ..$ X.X.o.X.o ( n 4 5 O.+.@.#.$.Z %.&.*.G =.-.c g 6 8 9 @ > < i ;.q ",
"+ * > 4 9 4 9 4 4 8 p ~ :.  >.X.,.,.,.<.>.1.2.3.4.p 5.6.7.7.) 8.9.0.*.q.w.e.v i 5 4 < 9 8 ; s t ",
"X $ > 4 4 9 4 4 8 6 ! r.$ <.X.<.,.<.<.X.<.X.,.X.= t.y.u.i.p.a.Z 9.0.*.s.: d.f.; 6 4 9 4 4 ; g.u ",
"X * 1 8 4 3 4 8 6 k ~ h.,.,.,.,.<.X.<.<.<.X.X.<.,.j.^ k.i.l.z.x.c.*.*.v.b.w.d.c y 4 4 4 8 v | u ",
"+ $ > 4 4 1 4 7 W n.r.m.X.,.,.X.<.<.<.<.X.j.<.<.,.<.M.c.N.i.u._ c.*.B.V.C.Z.0 f.g y 6 5 a c g.q ",
"X * 1 9 < 1 4 p A.r.:.S.^ j.X.<.<.X.,.,.,.X.<.,.<.X.D.Q x.l.l.#.@.F.F.V.V.=.: d.G c ; i i G ;.q ",
"X $ > 3 e 1 8 f n.~ :.G.M.H.J.>.X.<.<.,.<.<.X.<.<.X.K.Q L.p.l.P.c.e.I.{ s.I.u q w.d.c ; 7 ; s w.",
"X $ U.9 < 1 8 ' n.~ :.Y.1.H.t.H.T.m.>.N.N.>.X.X.o.j.R.E.@.K.l.l.W.Q.!.q.b.Q.q r t w.G ; 5 g r ~.",
"+ % 1 9 1 < 5 A.n.r.:.^./.(./.2.)._._.`.`.'.z.].].[.O.{.@.z.z.] }.|.|.;.q.F w.| r : d.c i ; s t ",
"2 % > < 1 9 7  X .~ :.^.^..X^.^.L `.XXoXOX+X@X#X$.+.c.6.$X%X&X*X=X|.-Xu d.c 6 f t r w.=.; c | t ",
"@ % > e < 8 f ;Xn.~ :.:.^.^.^.^.y.G.).+X@X+X:X9.+.>X>X,X,X].%.=X<X~.g.t v }.f e w q.b w.=.d.1Xb ",
"+ % @ e e 6 v ;Xm ~ ~ r.:.:.2X3Xy.H.4X:X9.#X9._ $.+.>X>X5X6X7X<X8Xs 1Xq =.> O 8 d e w.b Z.0 1Xr ",
"X * 1 9 3 6 c z 9Xn.r.r.r.2X2X .4.x.L.5XO.+.$.[ 0X{.&.qXv.7X=X<X-Xb r | wXeX  rX8 8 v s b q tXr ",
"o * h 3 4 6 ; z ;X9XyX . . .! n n uXuX,X,X,X{._ iXiXqXE pX=X<X<XaXw.1XtXwXu =., O }.f.r g.r wXs ",
"o * < 9 5 6 ; z ;X9XyX . .yXn yX4.sXdX6X,X9.{.[ #XqX7X*X=X=X<XfX|.}.r wX1Xq eXf.eX0 w.q wXg.wX| ",
"O * e 4 5 d g gXz ;X;X9XyX9X XyX4X7.J.7.,X9.hX] qX0XjXpX=X<XfXkXaX< }.| wX1Xq -.0 w.u g.wXtXlX| ",
"  - e 4 6 5 g 7XzXz ;X X X X X XL.z.z.u.x.#XhXxXB.0XcX=X8X<XkXaXG 3 . 4 0 g.1X| q r b vXlX1XwXg.",
"  * 3 4 5 5 i f.bXzXz ;Xz ;XnXnX8 uXW.z.%.#XxXZ a i mXmXt fXkX-.g i w w 2 d f.w.u u vXvXwX1XlX;.",
"o - 4 8 8 8 i v cXzXzXMXz gXz gXj K.R.7.4Xc.` D 7XjX-Xx G kXkXf.w d w w , d }.q tX1XNXvXwXs wX| ",
"  * 3 4 8 4 6 f BXVXbXzXzXzXMXzXnXCXp.ZXc.#X` e.8X8Xq.} aXkXkXaX. * w 2 3 i =.r 1XwXNXlXg.b wXr ",
"  m.4 8 8 8 5 f G jXVXbXbXAXbXAX*XhXp.7.+.iX}.mX<XSXQ.DXkXfXfXkX}.% = . 3 g 0 u g.NXvXtXr t g.u ",
"  * 4 4 4 8 5 i f.d.SXVXVXpXFXVXFX7X+.&.GXeXSX<X<XHXJX<XkXkXkXfX~., w w , g 0 u vXNXlX| : 0 g.t ",
"  - 4 8 4 8 8 i v -.w.SX=X8XVX=XVXVXVXFXSXfXHXHXHXfXfXfXfXfXfXkXG > 2 d eX=.r vXNXlX1Xt d.d.g.b ",
"  - 3 4 4 8 8 6 ; f.0 q HX|.fX<XKXKXKXKX<XHXHXHXfX<XfX<XfXfXfX|.g . , d.: lXNXNXvX1Xs : e.q.1Xb ",
"  * 4 4 4 3 4 8 i W f.0 t JXHXHXHXHXHXHXHXHXfXfXfXfXfXHXfXfXfXmXw O 8 b 1XNXNXvXwX| t 0 G BXg.b ",
"  - 9 3 4 4 8 4 y i ; G 0 q JXkXHXHXHXHXHXHXfXfXfXfXfXHXfXHX<XDX- & g | lXvXvXtX| t q.f.g c | t ",
"  * e 4 4 4 4 4 5 y i c G w.u ;.|.kXHXkXHXfXHXfXfXfXfXfXfX!.wXu 2 w eXu lXvXwXg.u d.f.g y ; s t ",
"  * 9 4 8 4 8 3 4 d y f c -.: b r g.;.!.kXkXHXkXkX!.!.tXwXwXwXG d f.b wXlXwX1Xu 0 c g p 8 ; s t ",
"o - 3 4 4 8 4 4 4 8 8 y f f.d.: DXb s ;.g.!.tXtXtXtXtXtX1XtXs g d q 1XwXtX1Xb 0 f.g y 8 4 i s t ",
"  * 4 4 4 4 4 4 3 4 4 8 y v f.d.w.: t b r s s g.g.g.g.s g.g.: i eXs 1X1X| s q =.; 7 5 8 3 i s q ",
"o - 4 4 4 4 8 4 3 e 3 3 d y f c G q.0 : q t b b b b b b b b =.g 0 b s s r q d.v y 5 8 4 9 i s q ",
"  * 4 4 4 4 8 4 < 1 < e 8 6 i ; v f.G -.d.q.Z.: : : q q : w.c f.u u u b q d.c g d 8 4 3 9 i s q ",
"  - 9 4 4 4 4 h 1 U.1 3 4 5 i i f f ; c c c f.e.-.d.E d.d.G v =.w.w.q : d.f.; 5 8 9 9 e e 7 r q ",
"  - 9 4 8 8 4 1 > U.< 4 8 5 y 7 i i y i g i i v c f.c c }.}.v d.=.d.d.d.G f y 8 3 e < h e i s q ",
"& & 4 5 8 4 e > 1 < 9 8 5 6 p 7 y 5 5 5 6 5 d y ; g g f f.c G 0 0 0 w.w.d.G c f i 7 i i f c s t ",
"o e 0 g.g.;.s ;.s | 1XtXwXwXwXwXwXwXwXtXwXtXwXwXwXwXwXtX| r s g.1XtXtXwX1Xg.| g.| | | ;.g.1XtXt ",
"p Z.q b u q q : q q w.: w.w.w.w.w.0 0 0 0 0 0 w.w.: : : Z.0 : w.w.q u t t : w.Z.Z.Z.0 0 Z.w.u q."};
