/* XPM */
static char * image_name[] = {
"48 48 239 2",
"  	c #C6C6CACAC7C7",
". 	c #BABABEBEBCBC",
"X 	c #BABABABABCBC",
"o 	c #B6B6BABABCBC",
"O 	c #BEBEC2C2C4C4",
"+ 	c #BEBEBEBEBABA",
"@ 	c #C2C2C2C2C4C4",
"# 	c #B2B2B6B6B4B4",
"$ 	c #B2B2BABAB4B4",
"% 	c #C2C2C6C6C4C4",
"& 	c #AAAAAEAEACAC",
"* 	c #F2F2F2F2F3F3",
"= 	c #EAEAEAEAECEC",
"- 	c #D2D2D2D2D4D4",
"; 	c #CECED2D2D4D4",
": 	c #CACACECECCCC",
"> 	c #CECED2D2CCCC",
", 	c #D2D2D6D6D4D4",
"< 	c #D6D6D6D6D4D4",
"1 	c #D6D6DADAD6D6",
"2 	c #DEDEDEDEDCDC",
"3 	c #E2E2E2E2E1E1",
"4 	c #DADADEDEDCDC",
"5 	c #DADADADADCDC",
"6 	c #72727A7A7777",
"7 	c #4E4E52525353",
"8 	c #A6A6AAAAACAC",
"9 	c #A6A6AEAEACAC",
"0 	c #A2A2AAAAA4A4",
"q 	c #A2A2A6A6A4A4",
"w 	c #A2A2A2A2A4A4",
"e 	c #9E9EA6A6A4A4",
"r 	c #AAAAB2B2ACAC",
"t 	c #AEAEAEAEAAAA",
"y 	c #9A9AA2A29C9C",
"u 	c #9A9A9E9E9C9C",
"i 	c #92929A9A9494",
"p 	c #8E8E92929494",
"a 	c #8E8E96969494",
"s 	c #86868E8E8C8C",
"d 	c #828286868484",
"f 	c #7E7E86868484",
"g 	c #8A8A92929494",
"h 	c #96969A9A9C9C",
"j 	c #8A8A8E8E8C8C",
"k 	c #56565A5A5B5B",
"l 	c #4A4A4E4E4C4C",
"z 	c #929296969494",
"x 	c #8A8A92928C8C",
"c 	c #96969E9E9C9C",
"v 	c #969696968F8F",
"b 	c #929292929090",
"n 	c #82828A8A8C8C",
"m 	c #9E9EA2A2A4A4",
"M 	c #3E3E42424242",
"N 	c #46464A4A4C4C",
"B 	c #9E9E9E9E9C9C",
"V 	c #82828A8A8484",
"C 	c #3A3A3E3E3C3C",
"Z 	c #424246464444",
"A 	c #AEAEB2B2B4B4",
"S 	c #86868A8A8B8B",
"D 	c #3E3E3E3E3C3C",
"F 	c #9A9A9A9A9C9C",
"G 	c #7E7E7E7E7474",
"H 	c #46464E4E4C4C",
"J 	c #82827E7E6F6F",
"K 	c #7E7E7E7E7C7C",
"L 	c #464646464444",
"P 	c #A2A2A2A29494",
"I 	c #969692928C8C",
"U 	c #7A7A7E7E7C7C",
"Y 	c #7A7A72725E5E",
"T 	c #36363A3A3939",
"R 	c #AEAEB6B6B4B4",
"E 	c #BABAAEAE9494",
"W 	c #767672726262",
"Q 	c #76766E6E5C5C",
"! 	c #727272727070",
"~ 	c #9A9A92928484",
"^ 	c #AEAEA6A68C8C",
"/ 	c #7A7A7A7A7979",
"( 	c #72726A6A5757",
") 	c #76767A7A7B7B",
"_ 	c #AAAAA2A28888",
"` 	c #9E9E92927C7C",
"' 	c #828282828080",
"] 	c #7A7A82828484",
"[ 	c #767676766C6C",
"{ 	c #6E6E66665454",
"} 	c #6E6E76767474",
"| 	c #363636363333",
" .	c #9A9A92927C7C",
"..	c #8E8E86866C6C",
"X.	c #7E7E82828383",
"o.	c #727276767474",
"O.	c #6A6A62625252",
"+.	c #66665E5E4C4C",
"@.	c #6E6E72727272",
"#.	c #323236363434",
"$.	c #8E8E86867474",
"%.	c #7E7E76766464",
"&.	c #72726E6E6464",
"*.	c #6A6A66665555",
"=.	c #666662624F4F",
"-.	c #62625E5E4C4C",
";.	c #6A6A6E6E6C6C",
":.	c #323232323232",
">.	c #9E9E96967C7C",
",.	c #92928A8A7474",
"<.	c #86867E7E6C6C",
"1.	c #62625A5A4C4C",
"2.	c #5E5E56564747",
"3.	c #66666A6A6B6B",
"4.	c #A6A6A6A6A4A4",
"5.	c #8E8E8A8A7F7F",
"6.	c #9A9A8E8E7474",
"7.	c #8A8A82827070",
"8.	c #626262626363",
"9.	c #767676767474",
"0.	c #7A7A82827C7C",
"q.	c #868686868181",
"w.	c #6E6E6E6E6A6A",
"e.	c #72726E6E5C5C",
"r.	c #5A5A56564444",
"t.	c #565656565454",
"y.	c #B6B6B6B6B4B4",
"u.	c #8A8A7E7E6C6C",
"i.	c #7A7A76766868",
"p.	c #5A5A5A5A5C5C",
"a.	c #5E5E5E5E5C5C",
"s.	c #626266666464",
"d.	c #5A5A5E5E5C5C",
"f.	c #6E6E6A6A5757",
"g.	c #5E5E5A5A4B4B",
"h.	c #52524E4E3E3E",
"j.	c #56565E5E5C5C",
"k.	c #6A6A72726E6E",
"l.	c #76767E7E7C7C",
"z.	c #4A4A52524C4C",
"x.	c #82827A7A6464",
"c.	c #6E6E62625454",
"v.	c #5A5A52524444",
"b.	c #56564E4E4444",
"n.	c #4E4E4E4E4C4C",
"m.	c #F6F6F6F6F4F4",
"M.	c #C6C6C2C2B9B9",
"N.	c #CECECACAC4C4",
"B.	c #FAFAFAFAF7F7",
"V.	c #AAAAA6A69C9C",
"C.	c #565652524545",
"Z.	c #3E3E3E3E3434",
"A.	c #3A3A3A3A3C3C",
"S.	c #76766A6A5C5C",
"D.	c #52524A4A3C3C",
"F.	c #4E4E46463C3C",
"G.	c #4E4E4A4A3C3C",
"H.	c #4A4A46463636",
"J.	c #2E2E32323030",
"K.	c #5E5E62626262",
"L.	c #262622221C1C",
"P.	c #1A1A1A1A1A1A",
"I.	c #E6E6E6E6E4E4",
"U.	c #EEEEEEEEECEC",
"Y.	c #464646463434",
"T.	c #464642423535",
"R.	c #42423E3E3434",
"E.	c #424242423434",
"W.	c #26262A2A2A2A",
"Q.	c #525256565454",
"!.	c #B2B2B2B2B4B4",
"~.	c #AEAEAAAAA4A4",
"^.	c #2E2E2E2E2B2B",
"/.	c #2A2A2E2E2C2C",
"(.	c #62625E5E5454",
").	c #1E1E1E1E1C1C",
"_.	c #060606060404",
"`.	c #4A4A42423434",
"'.	c #3E3E3A3A2C2C",
"].	c #42423A3A2C2C",
"[.	c #3A3A36362C2C",
"{.	c #2A2A2A2A2B2B",
"}.	c #4A4A4A4A4C4C",
"|.	c #6A6A6A6A6A6A",
" X	c #0A0A0A0A0C0C",
".X	c #363632322C2C",
"XX	c #92928A8A7C7C",
"oX	c #9E9E9A9A9090",
"OX	c #666656564444",
"+X	c #3E3E36362C2C",
"@X	c #3A3A3A3A3434",
"#X	c #161616161414",
"$X	c #121212121111",
"%X	c #222222222121",
"&X	c #5E5E5A5A5454",
"*X	c #0E0E0E0E0C0C",
"=X	c #222226262424",
"-X	c #464642424444",
";X	c #666666666464",
":X	c #6A6A66666464",
">X	c #8A8A86867C7C",
",X	c #2A2A26261F1F",
"<X	c #424242424444",
"1X	c #16161A1A1818",
"2X	c #262626262222",
"3X	c #525252525454",
"4X	c #565656564444",
"5X	c #767672726F6F",
"6X	c #72726E6E6C6C",
"7X	c #4A4A4A4A3C3C",
"8X	c #161612121212",
"9X	c #1E1E22222424",
"0X	c #2E2E2A2A2424",
"qX	c #767666665454",
"wX	c #72725E5E4444",
"eX	c #666656563C3C",
"rX	c #5A5A4A4A3434",
"tX	c #36362E2E2424",
"yX	c #1A1A16161414",
"uX	c #121216161414",
"iX	c #46463E3E3434",
"pX	c #5E5E52523C3C",
"aX	c #7E7E6A6A4C4C",
"sX	c #929276765454",
"dX	c #92927A7A5C5C",
"fX	c #8A8A72725454",
"gX	c #7A7A66664C4C",
"hX	c #6E6E5E5E4C4C",
"jX	c #1E1E1A1A1414",
"kX	c #32322E2E2424",
"lX	c #666662625C5C",
"zX	c #A6A68A8A6464",
"xX	c #BEBE9E9E7474",
"cX	c #52525A5A5454",
"vX	c #1A1A1E1E1C1C",
"bX	c #C6C6C6C6C4C4",
"nX	c #66666E6E6C6C",
"mX	c #CACACACACCCC",
"MX	c #4E4E56565454",
"    . . . . . . X X o o . . . . O + . . + . . . . O O @ O . o # $ # # # o . O O % % % . # X & & ",
"X * = - ; ; - : > , , , - - , < , 1 < < 1 < , 2 3 2 2 4 2 5 < 1 < 1 1 1 5 5 2 2 2 3 2 1 1 o 6 7 ",
"o 2 % & 8 9 & 0 q w w e 0 8 9 & 8 9 9 9 r t & y u u i p a s d f d s g a h u e q y h j s a h k l ",
"# 1 q p z z z a a x x p p z h h h z h u c c h v h a b a x s n d s p z z u y m h p s s p m s M N ",
"# 1 9 p a z v z i i z z i h i i i h h h i a a z v a p p g s n n a a z h B m c x n s a i m V C Z ",
"# , A a g h i h u h i z v h z z h h z z z p p h c z a a a s V s p z h y e m z n s z h h c f C N ",
"$ , A h g i h i c c i a i u h z i i z p a a z h u z g p p s s x z z h m q i S S j z h z u d D l ",
"# 1 r u z z h v F h z z h h c c h z a g a z c y u i p a a x p z z c y m m p V s G S z z h n C H ",
"A < 9 m h g a h p v g z c u F h z p g p i h u u u i p p p x a i z F m e h s s s J K a z m x D L ",
"# 1 & m z s a z i P I a h h c z z p p z h c c c h z a a x g g b z c e m a d s U Y U b u 0 S T M ",
"R < 9 y h s a h h d E v h i h z z z a z u u u c z g x x s j g p i u q m x V K W Q ! c q 0 f T Z ",
"# 1 8 u z g h h u i ~ ^ p p a g a p j z h u y u i x s s s s x a F q q z V / W ( ( U u u h ) T N ",
"# 1 8 h u z i h F i b _ ` ' j j s j j z u u u h p s j S s g a c e 0 u s ] [ ( { { / z p s } | N ",
"# , 8 a z u h h i p d _  ...[ X.S S S j p h h z g j s x x z u q q u g o.W ( { O.+.U j S S @.#.Z ",
"o 1 8 g a u c p g p j J ` $.%.&.d d f S j p g j s g s j g h q 8 c j @.W { *.=.-.-.X.S S S ;.:.Z ",
"# , q i F m h j x x z d >.,.<.Y W ;.) U d s S S j p s s p u e c / &.Q { *.+.1.2.=.o.U X.f 3.#.N ",
"o 1 4.i m 0 c S s x p g 5.6.7.%.Q ( 8.;.9.K 0.f d q.f f j b S w.W e.( *.O.1.2.r.t.3.;.} 6 3.#.l ",
"y., 0 u e 8 u s j p x p K  .,.u.Y Q Q W W i.p.a.s.s.d.d.[ W ( ( f.{ O.+.1.g.r.h.7 j.3.k.l.@.T z.",
"# - 0 F m 0 u s j g p p o.,.,.$.u.x.Y Q Q Y %.i.W ( c.O.=.O.=.+.-.-.1.2.r.v.b.L n.j.3.6 V l.C l ",
"# , q y q u p f s j S & m.m.M.<.$.x.N.* B.= V.%.Y e.*.+.1.g.2.2.v.C.b.C.b.h.Z.M l d.3.) S U A.H ",
"r ; q S 8.N N j.f s M.@ B * B.@ 7.= m.* * * m.N.Q S.*.+.2.v.h.D.F.G.F.D.h.H.J.M l K.w.U S ) T N ",
"t ; p n.k p.| L.N [ @ / P.t m.m.2 I.w ;.X U.= = J ( O.1.v.h.F.Y.T.R.E.Y.R.W.T L Q.K.} U S 6 | Z ",
"!.: s.8.~.w a.^./.(.!.)._.4.* U.U.4.v :.D U.I.5 G f.=.g.C.G.`.R.'.'.].[.).{.T }.p.|.) X.s 6 T Z ",
"o   Z w.# w a.:.^.T.5.8 w I.= M.3 B L. X7 I.5 - W c.+.r.h.H.R.'.'.'..XP.)./.M 7 s.@.U S j U T N ",
"+ . :.n.K @.L | D L 1.~ t ~.XXu.oX1 t.L + 5 - + *.+.OXb.D.`.R.'.+X@X#X$X%X| N k 3.) d j p l.| N ",
"% @ | | n.L D D l p.&XY %.<.<.<.%.X 2 5 5 - @ oXO.-.r.h.H.T.].'.'.[.*X#X=X@X7 8.o.0.S p a U T L ",
"O - }.{.A.A.-X}.t.;X:X{ Q i.%.x.x.Y 7.5.b >Xf.=.+.r.h.D.H.T.'.'.+X,X$XP./.<Xj.;./ d x z z l.T N ",
"% 4 ;.^.| -Xn.p.;Xw.;X-.O.( Y Y Y Q Q ( { *.O.+.g.T.H.H.R.'.'.[.'.$X1X2X| l 8.@.f S p z i ] T N ",
"@ 1 j 3XL 7 p.|.! / g.4Xg.+.{ S.Q { { *.O.+.1.2.'.[.}.T.R.[.'.@X2X$X).J.D Q.;.) V j p v F ] A.N ",
"% 4 h X.K.a.|.! K 5XG.D.h.r.1.O.+.=.-.1.2.r.C.E.R.}.2.'.'.'.@X.X$X1X=X:.l k ;.K S p a i c 0.T N ",
"@ 1 z a q.w.6X6X(.h.7XH.F.h.C.r.2.v.v.C.G.'.,X+.Q O.2.'.[.+X[.$X8X9X/.C Q.3.6 d j z h h h 0.@XH ",
"% 5 z p z a [ { 2.D.`.T.Y.F.H.G.F.H.[.0XL.2X| C.c.qXqXwXeXrXrXtX+X0XR.n.K.o.U f a z h c u ] M 7 ",
"% 5 a a z z a o.N .X,X,X%XL.yXuX$X$X).,X.XiXC.8.f.(.iXpXaXsXdXdXfXgXhX3X3.U S j u y u u y n C 7 ",
"  5 v z z h z j U s.7XJ.jX*X*X*XjX2XkXZ.h.p.lX(.R.kX%X8X#X{.eXzXxXxX~.t ' a.! j i h m m m X.A.Z ",
"  5 z z z i h p d U / @.|.cXR.2X).%X%X2X0X{.,X).#XP.vX9X2X^.#.D C.dXE U.3 @ z 9.;.o.g p x } #.Z ",
"% 4 h i i v z i s S f U o.|.d.l D #.J.{.W.W.2XW.2X{.J.:.T Z }.7 Q.s.! U v . bXq.P..X3XV f k.#.Z ",
"% 4 u h h i z h p p j S X.) ;.d.l L L <XE.M D M C <XL }.3Xk K.3.3.3.o.l.X.S j @. X%XA.0.s 6 T N ",
"@ 5 c z z z z h z p z j S X.9.;.K.k d.p.t.Q.cXQ.Q.Q.d.K.s.;.;.o.) ) @.@.@.o./ X.3.{.{.3Xp U A.N ",
"O 5 c z a z z c h z z a j S ] o.@.nX} o.@.;.|.;.;.;.o.) / l.) X.n S U @.;.nX@.o.U K ;.7 K.l.A.N ",
"% 5 F i z a i h c i c h z x S f 0.U U ] X.K X.U ) U d S n X.f s j g j d ) ;.|.k.@.6 X.S b U C N ",
"% 4 i z z z z v F h u m h p j s n S S d S S S S S S p z x d n s p p z p d 6 w.3.;.@.X.s a 0.C l ",
"O 5 z z i z g z c m m m h a p x x p a p z a s p x p a z p s j p g z a z j ' l.o.! ! U S z ] A.N ",
"@ 1 h h h h a i m q e y F z p x x p z a h F a z h z p z i a a p a z z z g S d ] l.) X.s z 0.C H ",
"% 4 c z i p a u q 0 q u i a s s g p i h h m m h i z a p h z g z a h i h z z p j S S V j z f C l ",
"% 5 u z a p h e 8 q m h x x S S s g z h c m m h a z a z y u a z z i h i z i z z i F h z v ] A.l ",
"mX: z j g z u 8 q m c p x S s V j p z h h c m c x x p g X.X.l.l.] X.U U U U l.] f ] ] ] ] ;.C N ",
"@ y k :.#.#.T C C | W.2XW.=XW.W.W.W.W.W.{.W.{.W.W.W.2X/.T T | #.#.T T T #.T | | T | #.#.| /.W.N ",
"f Q.z.Z Z l 7 z.l l cXMX7 7 z.7 Q.cXcXk k d.k t.Q.MXcXcXk d.d.k k k Q.Q.k k j.k k k k k cXQ.L d."};
