/* XPM */
static char * image_name[] = {
"48 48 197 2",
"  	c None",
". 	c #AAAA8E8E7474",
"X 	c #B6B69E9E8484",
"o 	c #CACABABAACAC",
"O 	c #DADACECEC4C4",
"+ 	c #8E8E76765C5C",
"@ 	c #A2A282826464",
"# 	c #C6C6B2B29C9C",
"$ 	c #C6C6B6B6A4A4",
"% 	c #A6A68A8A6C6C",
"& 	c #9A9A7A7A5C5C",
"* 	c #AEAEAEAEACAC",
"= 	c #B2B2A6A69C9C",
"- 	c #B2B29A9A8484",
"; 	c #B2B296967C7C",
": 	c #C2C2AEAE9C9C",
"> 	c #7A7A62624C4C",
", 	c #8E8E72725454",
"< 	c #9E9E86867474",
"1 	c #B6B6B6B6B4B4",
"2 	c #B2B2B2B2B4B4",
"3 	c #AEAEA2A29494",
"4 	c #B6B6A2A28C8C",
"5 	c #CECEBABAACAC",
"6 	c #AAAA92927474",
"7 	c #969676765C5C",
"8 	c #8A8A6E6E5454",
"9 	c #96967A7A5C5C",
"0 	c #BABABABAB4B4",
"q 	c #A6A692927C7C",
"w 	c #AAAA92927C7C",
"e 	c #BABAA6A69494",
"r 	c #CECEBEBEACAC",
"t 	c #A2A28A8A7474",
"y 	c #A2A286866C6C",
"u 	c #AAAAAAAAA4A4",
"i 	c #AAAAAAAAACAC",
"p 	c #B2B2B2B2ACAC",
"a 	c #BABABABABCBC",
"s 	c #A6A68E8E7474",
"d 	c #A2A28E8E7474",
"f 	c #B2B2A2A28C8C",
"g 	c #9A9A82826C6C",
"h 	c #9E9E86866C6C",
"j 	c #D6D6D6D6D4D4",
"k 	c #A2A2A2A29C9C",
"l 	c #9A9A9A9A9C9C",
"z 	c #9E9E9E9E9C9C",
"x 	c #A6A6A6A6A4A4",
"c 	c #B2B2AEAEACAC",
"v 	c #AEAE9A9A8C8C",
"b 	c #A6A68E8E7C7C",
"n 	c #A6A68A8A7474",
"m 	c #9E9E82826464",
"M 	c #A2A292928484",
"N 	c #66665E5E5C5C",
"B 	c #020202020404",
"V 	c #8E8E8E8E8C8C",
"C 	c #929292929494",
"Z 	c #B6B6AEAEACAC",
"A 	c #BABAAAAA9C9C",
"S 	c #B2B29E9E8C8C",
"D 	c #BEBEAAAA9C9C",
"F 	c #96967A7A6464",
"G 	c #9E9E8A8A7474",
"H 	c #9E9E8E8E7C7C",
"J 	c #969686867474",
"K 	c #96968A8A7C7C",
"L 	c #0E0E0A0A0C0C",
"P 	c #DEDEDEDEDCDC",
"I 	c #868686868484",
"U 	c #8A8A8A8A8C8C",
"Y 	c #A2A2A2A2A4A4",
"T 	c #B6B6AAAAA4A4",
"R 	c #BEBEAEAE9C9C",
"E 	c #BABAA2A28C8C",
"W 	c #9A9A7E7E6464",
"Q 	c #9E9E8A8A7C7C",
"! 	c #464642423C3C",
"~ 	c #DADADADADCDC",
"^ 	c #D2D2D2D2D4D4",
"/ 	c #7A7A7A7A7C7C",
"( 	c #828282828484",
") 	c #AAAA9A9A8C8C",
"_ 	c #AEAE9A9A8484",
"` 	c #AEAE9E9E8C8C",
"' 	c #C6C6BABAACAC",
"] 	c #CACAB6B6A4A4",
"[ 	c #9A9A8A8A7C7C",
"{ 	c #8E8E7E7E6C6C",
"} 	c #E6E6E6E6E4E4",
"| 	c #BEBEBEBEBCBC",
" .	c #7E7E7E7E7C7C",
"..	c #9A9A9A9A9494",
"X.	c #929282827474",
"o.	c #8A8A76765C5C",
"O.	c #92927A7A6464",
"+.	c #AAAA96968484",
"@.	c #AEAE92927474",
"#.	c #969682826C6C",
"$.	c #464646464444",
"%.	c #121212121414",
"&.	c #8E8E7A7A6464",
"*.	c #7E7E6A6A5C5C",
"=.	c #7A7A6A6A5C5C",
"-.	c #92927E7E6464",
";.	c #7E7E72726464",
":.	c #222222221C1C",
">.	c #1E1E1E1E1C1C",
",.	c #060606060404",
"<.	c #868676766464",
"1.	c #868672725C5C",
"2.	c #9E9E7E7E6464",
"3.	c #96967E7E6464",
"4.	c #A6A696968484",
"5.	c #2A2A2A2A2C2C",
"6.	c #262626262424",
"7.	c #969696969494",
"8.	c #929276765C5C",
"9.	c #767662624C4C",
"0.	c #9A9A86867474",
"q.	c #5E5E56564C4C",
"w.	c #222222222424",
"e.	c #3E3E3E3E3C3C",
"r.	c #1A1A16161414",
"t.	c #D2D2C2C2B4B4",
"y.	c #72725E5E4C4C",
"u.	c #8A8A76766464",
"i.	c #A2A28E8E7C7C",
"p.	c #828276766C6C",
"a.	c #3A3A3A3A3C3C",
"s.	c #4A4A4A4A4C4C",
"d.	c #525252525454",
"f.	c #B2B2A2A29494",
"g.	c #CECEC2C2BCBC",
"h.	c #C2C2AAAA9494",
"j.	c #86866A6A5454",
"k.	c #A6A692928484",
"l.	c #42423E3E3C3C",
"z.	c #2E2E2E2E2C2C",
"x.	c #5E5E5E5E5C5C",
"c.	c #727272727474",
"v.	c #C2C2C2C2C4C4",
"b.	c #C2C2C2C2BCBC",
"n.	c #82826A6A5454",
"m.	c #AAAA96967C7C",
"M.	c #9E9E92928484",
"N.	c #62625A5A5454",
"B.	c #363636363434",
"V.	c #626262626464",
"C.	c #CACACACACCCC",
"Z.	c #BEBEB6B6ACAC",
"A.	c #8E8E82827474",
"S.	c #5A5A5A5A5C5C",
"D.	c #767676767474",
"F.	c #8A8A8A8A8484",
"G.	c #D6D6D2D2D4D4",
"H.	c #B6B6A6A69494",
"J.	c #AEAE96968484",
"K.	c #6E6E5A5A4444",
"L.	c #969686867C7C",
"P.	c #BEBEAAAA9494",
"I.	c #62624E4E3C3C",
"U.	c #6E6E6E6E6C6C",
"Y.	c #C6C6B2B2A4A4",
"T.	c #92927E7E6C6C",
"R.	c #323232323434",
"E.	c #424242424444",
"W.	c #828276766464",
"Q.	c #7A7A6E6E5C5C",
"!.	c #565656565454",
"~.	c #C6C6C6C6C4C4",
"^.	c #828266664C4C",
"/.	c #B6B6A2A29494",
"(.	c #8E8E76766464",
").	c #6A6A6A6A6C6C",
"_.	c #CECECECECCCC",
"`.	c #86866A6A4C4C",
"'.	c #8A8A72725C5C",
"].	c #AAAA9E9E9494",
"[.	c #86867E7E7474",
"{.	c #D2D2D2D2CCCC",
"}.	c #666652523C3C",
"|.	c #666666666464",
" X	c #4E4E4E4E4C4C",
".X	c #72725A5A4444",
"XX	c #323226261C1C",
"oX	c #3A3A32322C2C",
"OX	c #8A8A7E7E7474",
"+X	c #72726A6A6464",
"@X	c #6A6A56564444",
"#X	c #4A4A3A3A2C2C",
"$X	c #5E5E4A4A3434",
"%X	c #4E4E3E3E2C2C",
"&X	c #424236362C2C",
"*X	c #36362A2A2424",
"=X	c #26261E1E1414",
"                                                                                                ",
"                                                                                                ",
"                                                                                                ",
"                                                                                                ",
"                                                                                                ",
"                                                                                                ",
"                                                                  . X o O                       ",
"                                                                + @ # $                         ",
"                                                            % & . . & X                         ",
"                                                      * = - ; : @ > , <                         ",
"                                              1 2 2 * 3 4 4 5 6 7 8 9                           ",
"                                        1 1 0 1 1 * q w e r t y y @ ,                           ",
"                            * u i p 1 a a 1 1 1 = s d f : s g h t q                             ",
"                          j k l z x p 2 2 2 2 c v b - n m h < < M N B B                         ",
"                          j i V C z * p 2 2 Z A S D y F g G H J K L B B                         ",
"                        P P 1 I U l Y i p T D R o E W g < Q H K ! B B B B                       ",
"                      P P ~ ^ / ( C z x ) _ ` ' ] n q s d H [ { B B B B B                       ",
"                      } | x ( /  .U ..X.o.O.X o y +.@.+.M Q #.$.%.B B B B                       ",
"                      I / /  . .I V &.*.=.-.# W y q +._ M [ ;.:.>.,.B B B                       ",
"                      C I I U I U K <.1.+ X 2.o.3.t 4.M Q J 5.>.6.>.B B                         ",
"                      Y 7.C C C 7.y g m e 8.9.&.g y h 0.#.q.>.w.5.e.r.B                         ",
"                      2 i Y z k _ ) +.t.- y.u.m s i.0.#.p.w.6.5.a.s.d.B                         ",
"                      a 1 2 c S S f.g.h.j.m t k.4.M [ J l.w.z.a.s.x.c.z.                        ",
"                      x v.b.v t w : o n.m.w w +.+.k.M.N.6.5.B.s.V.c.I V                         ",
"                      p C.Z.b h t # 7 W m._ _ 4.M M A.6.5.B.$.S.D.F.7.Y c.                      ",
"                      l G.H.J.t ; 8.K.g n w 4.M H L.B.5.B.$.S.D.I l x * 1                       ",
"                        g.P.4 P.@ I.=.O.0.y t H [ l.z.B.$.S.U.I 7.x 2 a | z                     ",
"                        Y.$ o : j.&.W #.O.&.-.T.N z.R.E.S.c.I l i 2 | b.v.v.d.                  ",
"                      W.R $ r y 3.S +.G T.u.1.Q.5.R.E.!.U.U z x 1 | v.~.~.~.0                   ",
"                      3.m.Y.. ^./.H.S k.h (.=.5.z.E.!.U.I l i 1 | v.C.C.C.C.~.k                 ",
"                      j.s ; *.m.H.= f.) M W.6.R.a.d.).( 7.x 1 v.C.C._._.C.C.a V.                ",
"                      `.. n.'.v 3 3 ].) [.5.z.a.d.).( ..x a v.~._.{.^ {.{.I w.,.                ",
"                      @ 8 }.h 4.) ].].[.6.z.e.s.|. .7.i 1 ~.C.^ ^ j j I w.B B B B               ",
"                    ^.8.}.y.[ i.4.M.!.5.R.a. X|./ C i a v.C.j j P V w.B B B B ,.                ",
"                    `..XXXoXOX[.+Xz.R.B.E.d.|./ C x a ~.{.~ _./ B B B B B ,.,.,.                ",
"                  @XK.#XB B B.E.e.e.E. Xx.). .7.x a ~.j a x.B B B B B ,.,.                      ",
"                  $X%X  B B 5.S.!.S.x.|.D.I z * | C.U e.B B B B B B ,.                          ",
"                &X#XXX    B B c.D.D./ I 7.x 2 z U.B B B B B B B                                 ",
"                *X*X        B ).U C l Y z D.B.B B B B B ,.,.                                    ",
"              r.=X            B.x z c.s.B B B B B B B ,.                                        ",
"                                ,.B B B B B B ,.,.B                                             ",
"                                  B B B ,.,.,.                                                  ",
"                                                                                                ",
"                                                                                                ",
"                                                                                                ",
"                                                                                                ",
"                                                                                                ",
"                                                                                                "};
