/* XPM */
static char * gnome_menu_up_xpm[] = {
"48 48 262 2",
"  	c #BEFBC30BC71B",
". 	c #C71BC71BC71B",
"X 	c #B6DABAEABEFB",
"o 	c #B6DAB6DAB6DA",
"O 	c #BEFBBAEABEFB",
"+ 	c #BEFBBEFBBEFB",
"@ 	c #AEBAB2CAB6DA",
"# 	c #BEFBC30BBEFB",
"$ 	c #A699AAAAA699",
"% 	c #A699AAAAAEBA",
"& 	c #EFBEEBADEFBE",
"* 	c #E79DE79DE79D",
"= 	c #CF3CCF3CCF3C",
"- 	c #C71BCB2BCF3C",
"; 	c #CF3CCB2BCF3C",
": 	c #CF3CD34CCF3C",
"> 	c #CF3CD34CD75C",
", 	c #DF7DDB6CDF7D",
"< 	c #D75CD75CD75C",
"1 	c #D75CD34CD75C",
"2 	c #D75CDB6CDF7D",
"3 	c #71C679E771C6",
"4 	c #492451444924",
"5 	c #A699A699A699",
"6 	c #9E79A289A699",
"7 	c #A699AEBAAEBA",
"8 	c #9E799E799E79",
"9 	c #96589A699E79",
"0 	c #96589A699658",
"q 	c #8E3896589658",
"w 	c #8E3892489658",
"e 	c #8E388E388E38",
"r 	c #86178A288E38",
"t 	c #79E786178617",
"y 	c #79E782078617",
"u 	c #86178E388E38",
"i 	c #8E3892488E38",
"p 	c #965896589658",
"a 	c #86178A288617",
"s 	c #514455555144",
"d 	c #410349244924",
"f 	c #38E33CF338E3",
"g 	c #410345144103",
"h 	c #861786178617",
"j 	c #410341034103",
"k 	c #9E79A699A699",
"l 	c #BEFBC71BC71B",
"z 	c #D75CDF7DDF7D",
"x 	c #D75CDB6CD75C",
"c 	c #9E79A2899E79",
"v 	c #30C238E338E3",
"b 	c #96589E799E79",
"n 	c #C71BCF3CCF3C",
"m 	c #EFBEF3CEEFBE",
"M 	c #8E388A288E38",
"N 	c #30C234D330C2",
"B 	c #000004100000",
"V 	c #E79DEFBEEFBE",
"C 	c #59655D755965",
"Z 	c #000000000000",
"A 	c #AEBAAEBAAEBA",
"S 	c #FFFFFFFFFFFF",
"D 	c #69A671C671C6",
"F 	c #49244D344924",
"G 	c #38E341034103",
"H 	c #AEBAB2CAAEBA",
"J 	c #69A671C669A6",
"K 	c #410349244103",
"L 	c #4103410338E3",
"P 	c #69A669A66185",
"I 	c #71C675D671C6",
"U 	c #28A22CB228A2",
"Y 	c #28A228A22081",
"T 	c #514451444103",
"R 	c #69A66DB65965",
"E 	c #965896588617",
"W 	c #69A66DB669A6",
"Q 	c #71C67DF779E7",
"! 	c #30C238E330C2",
"~ 	c #618565956185",
"^ 	c #492451445144",
"/ 	c #208124922081",
"( 	c #8E38861771C6",
") 	c #C71BBEFB9E79",
"_ 	c #BEFBBAEA9E79",
"` 	c #96589A698E38",
"' 	c #596561856185",
"] 	c #38E338E330C2",
"[ 	c #71C675D669A6",
"{ 	c #186120812081",
"} 	c #4103410330C2",
"| 	c #9E79A2899658",
" .	c #8617820769A6",
"..	c #BEFBB6DA9658",
"X.	c #B6DAB6DAA699",
"o.	c #69A675D671C6",
"O.	c #30C230C230C2",
"+.	c #08200C300820",
"@.	c #38E338E338E3",
"#.	c #596561855965",
"$.	c #596559654924",
"%.	c #C71BC30BAEBA",
"&.	c #51444D344103",
"*.	c #C71BC30BA699",
"=.	c #D75CCB2BAEBA",
"-.	c #C71BC30BB6DA",
";.	c #B6DAB2CAB6DA",
":.	c #208120812081",
">.	c #8E388A2879E7",
",.	c #BEFBB6DA9E79",
"<.	c #F7DEEFBEEFBE",
"1.	c #A699A289A699",
"2.	c #514455554924",
"3.	c #71C671C65965",
"4.	c #CF3CCB2BAEBA",
"5.	c #DF7DDF7DDF7D",
"6.	c #EFBEEBADE79D",
"7.	c #A699A6999658",
"8.	c #B6DAAEBA9E79",
"9.	c #DF7DDB6CD75C",
"0.	c #EFBEEFBEEFBE",
"q.	c #8E388A288617",
"w.	c #CF3CC71BBEFB",
"e.	c #E79DE38DDF7D",
"r.	c #79E77DF779E7",
"t.	c #A699A2899E79",
"y.	c #618561855965",
"u.	c #71C679E779E7",
"i.	c #514451445144",
"p.	c #492449244103",
"a.	c #596559655144",
"s.	c #30C230C228A2",
"d.	c #8E388A2871C6",
"f.	c #AEBAAAAA9658",
"g.	c #208120811861",
"h.	c #41033CF330C2",
"j.	c #861779E76185",
"k.	c #A6999A6979E7",
"l.	c #A6999E798617",
"z.	c #96588E3871C6",
"x.	c #79E775D66185",
"c.	c #8617820779E7",
"v.	c #9E79965879E7",
"b.	c #BEFBAEBA9658",
"n.	c #C71BC30BC71B",
"m.	c #410338E330C2",
"M.	c #9E798E3879E7",
"N.	c #B6DAA2898E38",
"B.	c #B6DAA6998E38",
"V.	c #AEBAA2898617",
"C.	c #A69996588617",
"Z.	c #9E7996588E38",
"A.	c #9E7996588617",
"S.	c #B6DAAAAA8E38",
"D.	c #E79DDF7DDF7D",
"F.	c #71C665955144",
"G.	c #AEBA9A698617",
"H.	c #AEBA9E798617",
"J.	c #A699A6999E79",
"K.	c #79E7820779E7",
"L.	c #79E76DB65965",
"P.	c #A699965879E7",
"I.	c #AEBA965879E7",
"U.	c #AEBA96588617",
"Y.	c #B6DAA6999658",
"T.	c #69A665956185",
"R.	c #79E76DB66185",
"E.	c #A6998E3879E7",
"W.	c #A699924879E7",
"Q.	c #B6DA9E798E38",
"!.	c #20811C711861",
"~.	c #59654D344103",
"^.	c #AEBAA2899658",
"/.	c #861782078617",
"(.	c #86177DF771C6",
").	c #9E798A2879E7",
"_.	c #A6998A2879E7",
"`.	c #AEBA924879E7",
"'.	c #B6DA9A698617",
"].	c #965892488E38",
"[.	c #596555554924",
"{.	c #BEFBA6999658",
"}.	c #9658861779E7",
"|.	c #9E79861771C6",
" X	c #AEBA92488617",
".X	c #965892488617",
"XX	c #B6DAA2899E79",
"oX	c #F7DEF3CEF7DE",
"OX	c #618561856185",
"+X	c #79E769A65965",
"@X	c #AEBA8E3879E7",
"#X	c #9E7996589658",
"$X	c #38E334D328A2",
"%X	c #AEBA8A2879E7",
"&X	c #A699861771C6",
"*X	c #9E79820771C6",
"=X	c #38E330C228A2",
"-X	c #A699861779E7",
";X	c #9E797DF771C6",
":X	c #A69986178617",
">X	c #AEBAAAAAAEBA",
",X	c #18611C711861",
"<X	c #A6997DF771C6",
"1X	c #9E7979E769A6",
"2X	c #965879E769A6",
"3X	c #A6999A699E79",
"4X	c #492449244924",
"5X	c #28A228A228A2",
"6X	c #38E334D330C2",
"7X	c #28A220812081",
"8X	c #69A655554924",
"9X	c #9E7979E771C6",
"0X	c #9E7975D669A6",
"qX	c #965875D669A6",
"wX	c #AEBAA699A699",
"eX	c #186118611861",
"rX	c #28A224922081",
"tX	c #5965410338E3",
"yX	c #69A64D344924",
"uX	c #61854D344924",
"iX	c #861761855965",
"pX	c #965871C66185",
"aX	c #965871C669A6",
"sX	c #71C651444924",
"dX	c #8E3861855965",
"fX	c #8E3865956185",
"gX	c #965869A66185",
"hX	c #96586DB66185",
"jX	c #96586DB669A6",
"kX	c #9E7971C669A6",
"lX	c #C71BBEFBBEFB",
"zX	c #514438E338E3",
"xX	c #86175D755965",
"cX	c #965865956185",
"vX	c #B6DAAEBAAEBA",
"bX	c #E79DE38DE79D",
"nX	c #59653CF338E3",
"mX	c #861755555144",
"MX	c #8E385D755965",
"NX	c #514449244924",
"BX	c #596538E338E3",
"VX	c #79E751445144",
"CX	c #8E3859655965",
"ZX	c #8E3861856185",
"AX	c #BEFBB2CAB6DA",
"SX	c #596549244924",
"DX	c #D75CCF3CCF3C",
"FX	c #79E779E779E7",
"GX	c #861761856185",
"HX	c #8E387DF779E7",
"JX	c #965869A669A6",
"KX	c #96588E388E38",
"LX	c #B6DAAAAAAEBA",
"PX	c #C71BCB2BC71B",
"IX	c #61856DB669A6",
"UX	c #28A230C230C2",
"YX	c #208128A22081",
"TX	c #208128A228A2",
"RX	c #492455555144",
"EX	c #41034D344924",
"WX	c #514459655144",
"QX	c #514459655965",
"  . X X X X X o o o o o o o o X O X X X X o o X X O + + + X o @ @ @ @ @ o o O + + # # o @ o $ % ",
"o & * = = = = - ; = = = = = : > > > : > > > > , , , , < < < > > > > 1 < < < 2 , , , 2 < < o 3 4 ",
"o , + % 5 $ 5 5 6 6 6 6 6 5 5 % $ 5 $ % 7 % % 8 9 0 q w e r t y t r u i p 9 8 6 8 p u a i q s d ",
"@ > 6 i i w w i e u u e e q p p p p p 9 9 p q p p w i i u r t t r i w w 9 8 8 0 i a a i 8 u f g ",
"@ > 5 i i p 9 6 6 6 6 8 p p w q q p p p p w i w q w i i u r t t e w w p 8 8 9 u t r i p 8 h f j ",
"@ > 7 w e k l 2 z x : l 7 9 w w p p p q w i i p p w i i e r t r i w p 9 c 8 i t r q 0 0 9 y v g ",
"@ > 7 p b n m M N B B N M 9 w w q p w i i i w 9 9 w e i i r a e w q 9 8 6 p a h w 0 p p 9 t f d ",
"@ > % 6   V C Z Z Z Z Z Z C y e q w e u w q p 9 9 q i w i u u w w p b 8 8 i t u p p p p 9 a f d ",
"A 1 % 7 x M Z Z Z S S Z Z Z M D e e u e q 0 9 9 9 q i i i u i w w 0 8 c p a a q p p q 0 6 u f g ",
"A > $ A < N Z Z S S S S Z Z N F h i i w p 0 p p p i u i e u i w w 9 8 8 w t u p q q 0 6 % u v G ",
"H > 5 7 > B Z S S S S S S Z B G t w w q p J K L P a u r r r u i q 8 6 8 u a w p q 9 6 % % t N G ",
"@ > 5 $ > B Z Z Z S S Z Z Z B f y w w q I U Y T R E e h W J h e 0 6 6 p a a w q p 8 % 5 8 Q ! d ",
"@ 1 5 6 - N Z Z ~ S S ~ Z Z N f y w w p ^ / ( ) ) _ ` ' U ] [ p c 6 b u t u q p 0 8 5 8 w 3 N g ",
"@ > k q 7 M Z Z S S S S Z Z { j h w w p j } ) ) _ ) | ^ Y  ...X.5 8 i a r q p p 8 6 6 9 w o.O.g ",
"@ > 6 e q b C Z Z Z Z Z +.@./ ' q p w q #.$.) ) ) %.| 4 &.*.=.-.6 i r u w p p 9 5 5 c b q o.N g ",
";.> 6 w p 9 y M N B B N :./ s r b p q p e >.,.) ) <.1.2.3.4.5.6.p a u p 8 9 b 6 5 c 0 p i W N K ",
"o > 6 p b 6 e ~ d f f f g ' r 6 8 p q 9 9 p 7.8.9.0.i q._ w.e.8 r a w c 5 6 6 6 9 i u r t W N F ",
";.> 6 9 8 k p t y r.r.t r p 8 6 9 p q p w r.D u q i r e t.$ c y.$.a 9 5 5 9 0 p r h r h r u.v 4 ",
"@ = 6 9 c 5 9 h u u i p 0 9 8 b p q w h i.U Y ] p.a.3 u 9 I s.L d.f.8 5 8 u u a t a u e 0 t f F ",
"@ = 6 b 6 6 p t r e w 0 9 9 8 8 9 q e s g.h.j.k.l.z.x.c.p W ] v.b.n.b c q t a t t u i w 9 t f d ",
"A ; 6 8 5 6 i y a u w 0 b 8 c c 9 p h N m.M.N.B.N.V.V.C.Z.9 A.S.D.0.c 8 i r.t a r i q q p r.v d ",
"% = 5 8 5 b a y r i q 9 8 8 6 6 b p r.N F.G.H.H.H.H.H.B.B.J.0 i ;.0 6 9 r K.r i w w q q p Q N g ",
"H = 5 8 c p y t u w p 9 8 8 c c 9 w y L L.P.I.U.U.G.H.N.B.Y.w D F s p p t a w q q q q p p Q ! g ",
";.> 6 b 9 w t h w q 0 9 8 8 8 8 p i r T.R.E.W.W.W.I.G.Q.N.N.i d !.~.^.w t i q p q q q p p r.! g ",
"+ 1 b 9 p q u r w p 9 9 9 8 c 8 p u a /.(.)._.E.W.`.U.'.'.G.].I [.{.n.1.t w p p q q p p p Q ! g ",
"+ < 8 9 w q i i q 0 9 9 9 8 6 8 w r a h h q.}.|._.`. XU. X`..Xp Z.XXoX% u q p p p p p p p Q ! g ",
"+ < 8 p i p w i p 9 9 9 9 8 6 b i r a t a u OX+X_.@X`.@X_.E.#X9 c 5 8 u i q p p p p p p p Q ! g ",
"+ < 9 p i p q i q 9 b 9 9 8 8 9 e r h t r i v $X_.%X_.&X*X_.8 8 6 6 b w w q p p p q p p p Q ! K ",
"+ < p q w p q w p p 9 9 9 9 b 0 u a h a i p v =X-X-X*X;X;X:X>X8 6 6 p q w i q q q q q p 0 r.v K ",
"+ < q w q 9 0 q p p p 0 9 b 8 p a u.D Q y OX,Xm.<X;X1X2X;X3X;.b 0 q r r i u i w w q q p p Q ! g ",
"+ < q w p 9 9 p p p 0 9 8 8 8 a 4X5X5X6X6Xg.7X8X9X0XqX0X1XwX;.0 w e a a i i e i w q p 9 p Q v d ",
"# < w i q 9 9 p q w p 9 8 6 w F eXrXtXyXuXuXiX0X0XpXpXaX0XwX>Xp w w w w w p w i p p p 9 9 K.f F ",
"# < w w q p 0 q w w p 9 8 6 r 5X7XsXdXfXgXhXjXjXhXgXhXjXkXlX;.q q q p p q q q q b 8 b 8 8 h f F ",
"  < q w p p 0 q i i q 9 8 6 y rXzXxXdXfXcXgXgXgXgXgXgXhXvXbX>Xq p p p p p q w q 9 8 8 8 8 y v g ",
"  < q w p p 0 p i i q 9 8 8 e s.nXmXxXMXdXfXfXfXdXfXgX#X<.5.p q p p p p p q q p q w q w e D O.G ",
"  < p w q p p 0 w q p 9 8 b p NXBXVXmXCXMXMXMXMXMXZXAX<.& b p q p q q q q q w q p i r t t J N j ",
"# < 9 p q p p 9 p p 9 9 8 9 p r.SXVXmXCXCXMXMXCXfXDX<.5.b 9 p p q w w q q q w w w i r a r 3 ! g ",
"+ < 9 p w q q 9 p p b 9 9 9 w u FXGXCXCXCXMXMX#XD.<.; 9 9 p i w w w w w q q q q q w i i w Q ! K ",
"+ < 0 w w w q 9 9 p 9 0 0 p i r a h HXJXKX#XLX, & >Xb 9 9 w u i i w w q p p q p q q w w q Q v g ",
"+ < 0 w w w w 9 9 p 9 9 0 q i u u u i 9 b 8 >Xn.p w 9 b p u r i w w w q p p p p p w w w q r.v d ",
"+ < p w w w w q 9 9 8 c 9 q w i i w w w q p q q w q 9 b p r u i i w q p q q q q q w w q p r.v d ",
"+ < q q p q i w 9 8 8 c 9 q w i i w q q 0 p i w q q p p q u u i i w w q w w w q w w w q p K.v d ",
"+ < p p p q i p 8 6 c 8 0 w i u i i q q 9 9 q q p q w w q i e i i w w w w w q p q w q p 9 K.v d ",
"+ < 9 p q i w 9 6 6 6 9 q i r r u i w q p 8 8 p p q i i p q i w w q q q q q p p p 9 9 9 9 y f d ",
"  < 0 w i i p 6 5 6 8 p i r a h r e w p p 8 c p i w i w 9 9 w w q p p p p p p p 9 8 8 9 9 K.@.d ",
". PXq u u w 9 5 6 8 0 i r a a h r i q p p 9 8 0 u e i u y K.u.u.Q r.Q Q Q Q Q r.y K.r.Q Q IXv g ",
"+ 9 s UXO.N v @.v N YX/ / / / / / / YXTXTXTXTXYX/ / / TXN N N N N N N N N N N N N N N N N U TXg ",
"y RXEXG g d F F EXEXRX^ 4 4 4 4 RXs s WXWXQXWXs s ^ RXs WXQXQXWXWXs s s s s WXWXWXs WXWXs ^ j QX"};
