/* XPM */
static char * image_name[] = {
"48 48 246 2",
"  	c #C7C7CACAC9C9",
". 	c #BABABDBDBCBC",
"X 	c #B5B5BABABABA",
"o 	c #BEBEC2C2C4C4",
"O 	c #B2B2B6B6B4B4",
"+ 	c #C3C3C5C5C3C3",
"@ 	c #A9A9AFAFACAC",
"# 	c #EEEEF2F2F4F4",
"$ 	c #EAEAEAEAECEC",
"% 	c #D6D6D6D6D4D4",
"& 	c #D0D0D4D4D4D4",
"* 	c #CACACECECCCC",
"= 	c #D8D8DADAD6D6",
"- 	c #DEDEE2E2E4E4",
"; 	c #E2E2E2E2E4E4",
": 	c #DEDEDEDEDCDC",
"> 	c #DADADEDEDCDC",
", 	c #75757B7B7B7B",
"< 	c #4E4E52525252",
"1 	c #A6A6AAAAABAB",
"2 	c #A9A9A6A6A1A1",
"3 	c #A2A2A6A6A4A4",
"4 	c #9D9DA3A3A2A2",
"5 	c #A2A2AAAAA4A4",
"6 	c #AEAEB2B2B4B4",
"7 	c #9A9A9E9E9B9B",
"8 	c #95959A9A9999",
"9 	c #8C8C92929191",
"0 	c #86868E8E8C8C",
"q 	c #818187878585",
"w 	c #929296969393",
"e 	c #56565A5A5B5B",
"r 	c #4A4A4D4D4C4C",
"t 	c #8E8E96969494",
"y 	c #96969E9E9C9C",
"u 	c #3F3F42424343",
"i 	c #46464B4B4B4B",
"p 	c #86868A8A8B8B",
"a 	c #3A3A3E3E3C3C",
"s 	c #424246464444",
"d 	c #3A3A39393A3A",
"f 	c #3E3E3E3E3B3B",
"g 	c #A2A29E9E9C9C",
"h 	c #A6A692928C8C",
"j 	c #9A9A86867C7C",
"k 	c #ABAB9E9E9C9C",
"l 	c #D6D68E8E7F7F",
"z 	c #D9D987877676",
"x 	c #C4C476766666",
"c 	c #C1C171716464",
"v 	c #BABA72726C6C",
"b 	c #92928A8A8C8C",
"n 	c #8A8A8E8E8C8C",
"m 	c #D5D593938787",
"M 	c #C6C67A7A6C6C",
"N 	c #CECE7C7C6D6D",
"B 	c #BABA6E6E6262",
"V 	c #B5B568685C5C",
"C 	c #B2B26E6E5C5C",
"Z 	c #353538383636",
"A 	c #C4C49A9A9090",
"S 	c #E1E19C9C8C8C",
"D 	c #E6E696968484",
"F 	c #A3A35E5E5151",
"G 	c #92927A7A7474",
"H 	c #7A7A7E7E7C7C",
"J 	c #DADA9B9B8C8C",
"K 	c #E0E092928080",
"L 	c #DFDF8B8B7C7C",
"P 	c #BABA66665454",
"I 	c #9B9B59594B4B",
"U 	c #8E8E4E4E4646",
"Y 	c #868662625C5C",
"T 	c #6E6E76767474",
"R 	c #B3B39E9E9696",
"E 	c #DFDF96968484",
"W 	c #ACAC62625555",
"Q 	c #A6A662625454",
"! 	c #969657574949",
"~ 	c #87874A4A4242",
"^ 	c #777742423C3C",
"/ 	c #76765A5A5454",
"( 	c #66666A6A6A6A",
") 	c #DADA93938484",
"_ 	c #D3D382827171",
"` 	c #898952524545",
"' 	c #88884E4E4444",
"] 	c #6F6F42423737",
"[ 	c #5C5C36362C2C",
"{ 	c #6A6A5E5E5C5C",
"} 	c #6A6A6F6F6C6C",
"| 	c #626267676464",
" .	c #2D2D30302E2E",
"..	c #DEDEA2A29494",
"X.	c #CCCC76766868",
"o.	c #6B6B3E3E3434",
"O.	c #626236362C2C",
"+.	c #5D5D62626363",
"@.	c #6E6E72727474",
"#.	c #323232323434",
"$.	c #E6E69E9E8C8C",
"%.	c #9E9E5E5E4949",
"&.	c #4E4E31312C2C",
"*.	c #565646464444",
"=.	c #535356565353",
"-.	c #626262626464",
";.	c #EFEFAAAA9797",
":.	c #A4A458584C4C",
">.	c #909056564747",
",.	c #787846463D3D",
"<.	c #65653B3B3434",
"1.	c #545433332D2D",
"2.	c #CECEAAAA9C9C",
"3.	c #EFEFA3A39494",
"4.	c #EBEB9B9B8888",
"5.	c #8A8A56564444",
"6.	c #47472E2E2A2A",
"7.	c #404036363434",
"8.	c #CCCCA2A29898",
"9.	c #F2F29E9E8C8C",
"0.	c #D2D27E7E6C6C",
"q.	c #363632323434",
"w.	c #5A5A5E5E5C5C",
"e.	c #737376767373",
"r.	c #DADAA3A39494",
"t.	c #F6F6A2A28C8C",
"y.	c #E6E68E8E7C7C",
"u.	c #8F8F52524545",
"i.	c #414131312D2D",
"p.	c #2A2A2A2A2424",
"a.	c #7E7E82828181",
"s.	c #81814A4A3F3F",
"d.	c #B6B6A2A29C9C",
"f.	c #EAEAAAAA9494",
"g.	c #252526262424",
"h.	c #9C9C9B9B8A8A",
"j.	c #26262A2A2A2A",
"k.	c #A2A29E9E8787",
"l.	c #A6A6A2A28C8C",
"z.	c #DEDEAEAE9C9C",
"x.	c #E6E6A4A49494",
"c.	c #474746464343",
"v.	c #A7A79E9E8181",
"b.	c #A8A8A2A28181",
"n.	c #AFAFA2A27979",
"m.	c #AEAE5A5A4C4C",
"M.	c #989850504444",
"N.	c #B7B7A2A26666",
"B.	c #B7B7A5A57575",
"V.	c #8E8E5E5E5454",
"C.	c #4E4E4E4E4C4C",
"Z.	c #5A5A5A5A5C5C",
"A.	c #A2A29A9A8181",
"S.	c #BEBEA5A55F5F",
"D.	c #92925A5A3C3C",
"F.	c #535352524D4D",
"G.	c #C5C5A6A65050",
"H.	c #7A7A82828080",
"J.	c #AAAA9E9E7171",
"K.	c #D2D2AAAA4444",
"L.	c #B8B8A6A66C6C",
"P.	c #AAAA66664444",
"I.	c #9E9E66663434",
"U.	c #9A9A62623434",
"Y.	c #81814E4E4444",
"T.	c #BABA9A9A4444",
"R.	c #C4C4A8A86161",
"E.	c #B1B1A6A67C7C",
"W.	c #C2C2AAAA6C6C",
"Q.	c #DADAAAAA2C2C",
"!.	c #E1E1B2B23939",
"~.	c #BEBEAAAA7474",
"^.	c #AAAA82825454",
"/.	c #AEAE6E6E4444",
"(.	c #ACAC70703030",
").	c #B2B276762C2C",
"_.	c #66664A4A3030",
"`.	c #959595958181",
"'.	c #D4D4AEAE4848",
"].	c #CDCDAEAE5B5B",
"[.	c #CECEB6B67070",
"{.	c #E2E2BABA4C4C",
"}.	c #EAEABEBE4E4E",
"|.	c #D2D2B6B66969",
" X	c #CECE8E8E3434",
".X	c #D0D092922828",
"XX	c #C2C282822424",
"oX	c #7A7A52522424",
"OX	c #303026261C1C",
"+X	c #666642423C3C",
"@X	c #484832322C2C",
"#X	c #9A9A96968484",
"$X	c #ECECBABA3434",
"%X	c #E4E4BEBE5C5C",
"&X	c #E6E6C6C67070",
"*X	c #F4F4CECE6868",
"=X	c #F1F1CECE7676",
"-X	c #86865E5E2424",
";X	c #424230302020",
":X	c #F5F5DADA9797",
">X	c #F8F8E2E2AAAA",
",X	c #95957A7A3737",
"<X	c #70704A4A3030",
"1X	c #CACAB2B27474",
"2X	c #E1E1C2C27474",
"3X	c #F6F6D6D68484",
"4X	c #FAFAE8E8BCBC",
"5X	c #FEFEF2F2DCDC",
"6X	c #8A8A76763C3C",
"7X	c #82826A6A4444",
"8X	c #FAFAEEEECCCC",
"9X	c #FEFEFAFAF4F4",
"0X	c #F0F0D6D69898",
"qX	c #AEAE9A9A5C5C",
"wX	c #86867A7A4C4C",
"eX	c #6E6E5A5A4444",
"rX	c #4A4A36363434",
"tX	c #56563E3E3C3C",
"yX	c #9A9A8E8E6C6C",
"uX	c #F0F0D3D38888",
"iX	c #F2F2C6C65454",
"pX	c #B8B892923030",
"aX	c #707062623838",
"sX	c #777766663737",
"dX	c #7E7E66662C2C",
"fX	c #B6B696964040",
"gX	c #DEDEC6C68484",
"hX	c #AEAE8A8A2424",
"jX	c #A6A682822424",
"kX	c #5A5A52523434",
"lX	c #CECEBABA7C7C",
"zX	c #A2A296967474",
"xX	c #8E8E86866464",
"cX	c #7E7E76765454",
"vX	c #76766E6E4C4C",
"bX	c #66665A5A3434",
"nX	c #50504A4A3434",
"mX	c #C2C2AEAE6C6C",
"MX	c #BCBCAEAE7878",
"NX	c #9A9A92927474",
"BX	c #56564E4E3434",
"VX	c #DADAB2B24C4C",
"CX	c #828286867979",
"ZX	c #AEAEAAAA9494",
"AX	c #A6A6AAAA9C9C",
"SX	c #46463E3E2424",
"    . . . . . . X X X X . . . . o . . . . . . . . o o o o . X O X O O O X . o o + + + . O X @ @ ",
"X # $ % & & & * & % % % % & % % % = % = = % % - ; : : : : > % = % = = = = > : : : - : = = X , < ",
"X - o @ 1 @ @ 2 3 4 4 4 3 5 @ @ @ @ 1 @ 6 6 @ 4 7 7 8 9 9 0 q q q 0 9 w 8 7 3 3 4 8 0 0 w w e r ",
"O % 1 9 9 w w t t 9 9 9 t w 8 8 w w 8 y y 8 w w 8 t 9 t 9 0 q q 0 9 t w 8 4 4 y 9 0 0 9 4 9 u i ",
"O % @ t 9 w w w 8 w w w 8 8 w 8 8 8 8 8 8 w t w w w 9 9 9 0 q p t w w 8 7 4 8 9 p 0 9 8 4 p a s ",
"X = @ w 9 8 8 8 8 y 8 w w 8 8 t 8 8 w 8 w t 9 8 7 w t t t 0 p 0 9 w 8 4 3 4 w q 0 w 7 8 8 q d i ",
"O = @ 8 9 8 8 8 8 y 8 t 8 8 8 w 8 8 t 9 9 w w 8 7 w 9 9 t 0 0 9 t w 8 4 4 8 0 p t 8 8 8 8 q f r ",
"O % @ 4 w w 8 8 7 8 w 8 8 y 7 y 8 w 9 9 t w 8 4 y 8 t t 9 9 9 t w 8 4 4 g h j j 9 t 9 t 8 0 u r ",
"O = @ 4 8 9 t w 8 8 9 w 7 4 7 8 8 9 9 9 8 y y 7 y w 9 t 9 9 t 8 8 8 4 k l z x c v b n t 7 0 u s ",
"6 % 1 4 8 0 t 8 7 8 8 8 y y 7 y w w t w 8 8 7 7 8 t t 9 t 9 9 9 w g m l M N c B V C n w 4 p Z u ",
"O = 1 y 8 0 t 8 y 8 8 8 g y 8 y 8 w 8 8 7 7 7 7 8 9 9 0 0 0 9 9 A S D z x v B V F F G 8 7 H Z u ",
"O % 1 7 w 9 w 8 7 8 w 7 y 8 8 w 8 8 t w 7 7 4 7 w 9 0 0 p n 9 J K K L N c B P F I U Y n 0 T Z r ",
"X = 1 8 8 8 8 8 7 8 8 8 8 w w 8 w w w 8 4 7 7 8 9 0 n 0 0 R K E K L L M V W Q ! ~ ^ / , , ( Z s ",
"O % 1 t 8 7 8 7 w t w 8 w w w 8 y w 8 8 8 4 7 w 9 n 0 0 A ) S K z _ N c W ! ` ' ] [ { } T |  .u ",
"X = 1 9 t 7 8 w 9 9 w 8 8 8 8 7 4 8 t 8 8 y 8 t t t 9 ..E l ) L z X.B V I ' ^ o.O.[ +.( @.+.#.s ",
"O % 3 w 8 3 y 0 9 t 8 8 y 8 y 3 4 8 8 8 y 7 w 9 w R ..$.E l z _ N c W %.` ^ o.[ &.*.=.-.} +. .s ",
"X = 5 8 4 3 7 0 0 9 w w 8 7 4 3 4 8 w 8 7 y 8 9 R ;.$.K K z N N X.V :.>.,.<.1.&.&.s r e | +.Z r ",
"X % 3 7 4 1 y 0 9 w t 8 7 7 4 3 7 8 8 8 7 7 9 2.;.3.4.) L _ N c V I 5.,.<.1.&.6.7.d i =.| | Z < ",
"O % 3 8 4 1 8 0 9 9 w 8 7 g 4 7 8 w 8 w 7 g 8.3.3.9.E _ 0.N c V Q ' ,.o.[ &.&.q.Z d r w.e.@.d < ",
"O & 1 4 3 3 8 p 0 9 w y 4 y 4 4 y 8 w 8 g r.$.3.t.D y._ N X.B F u.,.o.O.&.6.i.p.Z s < | , , a i ",
"6 * 3 4 1 3 9 a.0 9 w 8 4 7 4 4 7 8 w g r...$.$.4.z z c B B W u.s.o.O.1.&.6.p. .d s e } H , Z i ",
"@ & 1 4 1 4 0 q 0 w w y 4 3 3 3 y 8 d.f.J E ) D y.N N B W W ! s.^ O.&.&.6.g.#.d u < +.} q T Z s ",
"O & @ 4 4 w q q 9 h.8 8 4 4 4 3 y R J $.m ) K L z c c P :.! ~ o.o.1.&.6. . .Z a i e | e.p , d s ",
"O % 3 7 y 8 p p 9 h.h.g 7 7 4 4 2.J J S ) L z N N B W F >.~ ^ o.O.&.6.#.j.#.d u < w.} H p , Z i ",
"o % 4 7 8 t 9 9 w k.l.7 4 4 3 z.x.J m E S L N x c W F I s.^ <.[ 1.&.q. . .Z u c.=.| e.a.n , Z i ",
"o = 4 y t 8 t 9 w v.v.7 7 2 f.x.J l K K z _ x V P F ! u.] <.[ 1.&.q. .j.#.d s < w.( , q 0 , Z s ",
"+ = 7 8 9 w w w 8 b.n.8 d.X.m.! M.:.P X._ v V W W ! ' ^ <.[ &.6.q.#.#. .Z a i =.-.} H p 9 , d i ",
"o = 7 8 t 8 8 9 h.N.B.g V.` ` M.u.' :.m.M.W V F I U ^ o.1.&.6.i.#.Z #.Z a u C.Z.| @.H q 9 , Z i ",
"o = 8 w w 8 h.w A.N.S.k.! >.5.` ~ ' D.! U M.:.I u.,.o.1.&.6.i.#.Z Z Z d u i F.w.| e.a.p t H d i ",
"+ % A.A.h.7 h.A.b.G.G.b.I ! ` ' ` 5.I ' U u.M.~ ^ o.[ &.6.i.#.#.Z Z d a c.i e -.} , q 9 t H.Z i ",
"+ = k.J.J.b.v.v.N.K.K.L.P.Q D.D.I.U.>.Y.U ' ~ ^ O.O.&.6.6.#.Z Z d a a s < =.w.( e.a.n w w H d r ",
"+ = w A.T.R.L.E.W.Q.!.~.^./.(.).(._.o.' Y.' ' ~ 1.1.&.6.#.Z Z d u u r < e +.( @.H p n 8 8 q a < ",
"+ % `.h.N.K.'.].[.{.}.|.S. X.XXXoXOXOX+XY.' ~ ~ &.6.@XZ Z d a u i r =.w.| } @.H n w 8 4 y 0 a < ",
"  = h.#Xv.K.$X%X&X*X=X&X%X!..X-X;X;XOX1.s.' Y.] 6.6.q.Z Z u s i < Z.-.| } e.H q n y 7 4 4 H.a s ",
"+ % h.A.n.R.}.*X:X>X>X:X*X{.,X_.<X] i.@X,.` Y.o.6.i.Z d a c.i F.w.+.( } e.H q n 9 t w w t T Z s ",
"  = h.k.E.1X2X3X4X5X5X4X=XG.6X7XD.Y.<.i.+XY.s.1.i.Z d a c.i F.e | ( @., a.q p 9 w 9 0 p q @.Z s ",
"+ = v.v.L.1X2X:X8X9X9X8X0X{.].qXwXeX+XrXrXtXd #.#.Z d u C.=.Z.-.} @.e.a.q n n 9 9 9 0 0 0 , Z i ",
"+ % k.v.yXN.[.uX4X5X5X4XuXiX$XQ.pX,XaXc.Z #.#.#.Z d s i < e +.( } , a.q p n 9 w w t 9 9 t H d i ",
"+ = 7 k.sXdXfX%X0X>X>X0XgX|.S.fXpXhXjXsXkXu a d a u C.=.w.+.( } e.H q n w w w 8 w 8 w t w H d i ",
"o = k.#XyX,XpX].2X=X=XgXlXB.zXxXcXvXsXsXaXbXkXnXi r =.-.( ( ( , a.q n 9 w w w w 8 w t w 8 H.a i ",
"o = 8 `.h.n.S.mX1X{.{.[.MXv.NXa.@.| Z.F.BXC.F.F.=.w.| } @.@.e.H q p 9 w w 8 8 w 8 w w w 8 H.d r ",
"+ % h.h.A.J.J.b.W.VXVXmXb.A.n xX, } | w.w.Z.=.w.-.| } , , , H q p n 9 t w t t 8 w t t 8 y H.a r ",
"+ = 8 8 h.h.`.k.E.].K.E.k.#Xn CXH e.@.( ( ( | } @.e., H a.H.q p n 9 w t w w w 8 w w w 8 7 q d r ",
"+ = y 8 8 9 `.k.ZXR.W.l.`.`.p a.a.H , e., H H H a.q a.q n n p 9 9 8 w w w w 8 8 8 7 7 y y q a r ",
"+ = 8 w w w 8 3 ZX~.L.h.9 0 CXCXq CXCXq a.p n CXq p p n 8 8 9 w w w 8 8 8 8 8 8 y 4 4 7 7 q a r ",
"* * 8 n 9 9 4 1 AXE.J.`.n p 0 q p p n n 9 9 8 w p p n 0 H.H., H H a.H.H H H.H a.q H.H.H., } d i ",
"o 7 e #.Z Z Z a a nXSXj.j.g.g.g.j.j.g.g.p.p.j.j.j.j.g.j.Z Z Z Z Z Z Z Z Z Z d Z d Z Z Z Z  .j.i ",
"q =.< s s r < < r r =.=.< < < < =.=.e e e e =.=.=.< =.=.e e e e e e =.e =.e e e w.e e w.=.=.s w."};
