/* XPM */
static char * image_name[] = {
"48 48 117 2",
"  	c None",
". 	c #DEDEDEDEDCDC",
"X 	c #E6E6E6E6E4E4",
"o 	c #F2F2F2F2F4F4",
"O 	c #E2E2E2E2DCDC",
"+ 	c #C6C6C2C2C4C4",
"@ 	c #CECECACACCCC",
"# 	c #D2D2CECECCCC",
"$ 	c #C2C2C2C2BCBC",
"% 	c #CACACACACCCC",
"& 	c #D2D2D2D2D4D4",
"* 	c #DADADADAD4D4",
"= 	c #DADADADADCDC",
"- 	c #E2E2DEDEDCDC",
"; 	c #EAEAEAEAECEC",
": 	c #EEEEEEEEECEC",
"> 	c #B6B6B2B2B4B4",
", 	c #C2C2BEBEBCBC",
"< 	c #CECECECECCCC",
"1 	c #FAFAFAFAFCFC",
"2 	c #F6F6F6F6F4F4",
"3 	c #B6B6B6B6B4B4",
"4 	c #BABAB6B6B4B4",
"5 	c #BEBEBEBEBCBC",
"6 	c #E2E2E2E2E4E4",
"7 	c #EAEAE6E6E4E4",
"8 	c #D6D6D6D6D4D4",
"9 	c #F2F2F2F2ECEC",
"0 	c #FEFEFEFEFCFC",
"q 	c #AEAEAAAAACAC",
"w 	c #BABABABAB4B4",
"e 	c #BEBEBABABCBC",
"r 	c #8E8E8E8E8C8C",
"t 	c #464646464444",
"y 	c #CACACACAC4C4",
"u 	c #A6A6A6A6A4A4",
"i 	c #B2B2B2B2ACAC",
"p 	c #525252524C4C",
"a 	c #020202020404",
"s 	c #424242424444",
"d 	c #DADAD6D6D4D4",
"f 	c #CACAC6C6C4C4",
"g 	c #EEEEEAEAECEC",
"h 	c #A2A29E9E9C9C",
"j 	c #AEAEAEAEACAC",
"k 	c #121212121414",
"l 	c #3E3E3E3E3C3C",
"z 	c #BABABABABCBC",
"x 	c #C6C6C6C6C4C4",
"c 	c #9A9A9A9A9494",
"v 	c #A6A6A2A2A4A4",
"b 	c #AAAAA6A6A4A4",
"n 	c #7E7E7E7E7C7C",
"m 	c #565656565454",
"M 	c #969692928C8C",
"N 	c #9E9E9A9A9C9C",
"B 	c #A2A2A2A29C9C",
"V 	c #5A5A56565454",
"C 	c #8E8E8A8A8C8C",
"Z 	c #B2B2AEAEACAC",
"A 	c #EAEAEAEAE4E4",
"S 	c #8A8A86868484",
"D 	c #92928E8E8C8C",
"F 	c #969696969494",
"G 	c #AAAAAAAAA4A4",
"H 	c #B2B2B2B2B4B4",
"J 	c #7E7E7A7A7C7C",
"K 	c #5E5E5E5E5C5C",
"L 	c #DEDEDADADCDC",
"P 	c #E6E6E2E2E4E4",
"I 	c #6A6A6A6A6C6C",
"U 	c #767672727474",
"Y 	c #868686868484",
"T 	c #929292928C8C",
"R 	c #9E9E9E9E9C9C",
"E 	c #42423E3E3C3C",
"W 	c #727272726C6C",
"Q 	c #7A7A76767474",
"! 	c #7E7E7A7A7474",
"~ 	c #82827E7E7C7C",
"^ 	c #8E8E8A8A8484",
"/ 	c #3A3A3A3A3C3C",
"( 	c #8A8A8A8A8484",
") 	c #6A6A66666464",
"_ 	c #72726E6E6C6C",
"` 	c #969692929494",
"' 	c #262626262424",
"] 	c #5E5E5A5A5454",
"[ 	c #666662625C5C",
"{ 	c #666662626464",
"} 	c #6E6E6A6A6464",
"| 	c #767672726C6C",
" .	c #868682827C7C",
"..	c #9A9A96969494",
"X.	c #AAAAAAAAACAC",
"o.	c #C2C2C2C2C4C4",
"O.	c #565652524C4C",
"+.	c #6A6A6A6A6464",
"@.	c #6E6E6E6E6C6C",
"#.	c #767676767474",
"$.	c #7A7A7A7A7C7C",
"%.	c #2A2A26262424",
"&.	c #62625E5E5C5C",
"*.	c #868682828484",
"=.	c #161616161414",
"-.	c #D6D6D2D2D4D4",
";.	c #4E4E4E4E4C4C",
":.	c #7A7A7A7A7474",
">.	c #363636363434",
",.	c #666666666464",
"<.	c #5A5A5A5A5C5C",
"1.	c #4E4E4A4A4444",
"2.	c #6E6E6A6A6C6C",
"3.	c #D2D2D2D2CCCC",
"4.	c #1A1A1A1A1C1C",
"5.	c #626262625C5C",
"6.	c #4A4A4A4A4C4C",
"                                                                                                ",
"                                                                                                ",
"                                                                                                ",
"                                                                                                ",
"                                                                                                ",
"                                                                                                ",
"                                                                                                ",
"                                                                                                ",
"                                                                                                ",
"                                                                                                ",
"                                                                                                ",
"                                                    . X o O + @ #                               ",
"                                        $ % & * = - X ; : > , < O : 1 2 X                       ",
"                                      3 4 5 @ & * . 6 7 @ 3 $ 8 X 9 2 1 0 0 0 2 X               ",
"                                    q w > 3 > e r t O X 3 w y * ; 2 1 1 1 0 0 0 0 0 0           ",
"                                  u i > 3 > 3 p a s d 5 w f # . g 2 1 1 0 0 0 0 0 0 =           ",
"                                h q j > 3 3 r k a l z e x < = O g o 1 0 0 0 0 0 0 0 5           ",
"                              c v b j i i w e n a m x % @ 8 - X : 2 0 0 0 0 0 0 0 0 n           ",
"                            M N B v b j i 3 e n a V f < & d 6 ; : o 1 0 0 0 0 0 0 0 a           ",
"                          C M c N B u q Z 3 w n a i < & 8 = . X A 9 2 0 0 0 0 0 0 5 a a         ",
"                        S r D F N h u G q H 4 J a m a a K = L P 7 : o 1 0 0 0 0 0 I a a         ",
"                    U n Y S r T F R h v q i > p a E x s a r . . X ; : 2 1 0 0 0 ; a a a         ",
"                  W Q ! ~ S ^ D M c h B b j H / a , + i a ( = . 6 ; ; o 2 0 0 0 R a a a         ",
"                ) _ W Q n ~ S r T ` c B v G j p a 5 $ x a U 8 = - P A : 2 2 0 0 ' a a a         ",
"            ] [ { } _ | ! n  .S r ` ..R h b X.U a J , o.a s & 8 . 6 X ; o 2 1 < a a a a         ",
"          O.V K [ +.@.U #.! ~ Y ^ D ` #.$.B b W a 3 z $ %.t # 8 8 . 6 X ; o 2 s a a a           ",
"          p O.] &.[ } _ U Q J *.Y ( _ a a J u ' a { 4 X.=.=.> & -.L - X 7 : x a a a a           ",
"              ;.] [ { +._ #.! n  .( n k a :.} a >./ ,.p a a <.< & 8 . - X ; s a a a a           ",
"                  1.[ ) } W Q n ~ *.S C ` ..N v u q H 3 w $ + y # & = . P z a a a a a           ",
"                      l { 2.W Q ~  .S r T F c h u G j H w e $ f < & 8 = O l a a a a             ",
"                        a E ,.| :.n  .S r ` c N B b q Z 3 z 5 o.f < & 8 H a a a a a             ",
"                          a a E { n ~ Y S D M c N B b q i 3 5 , x y 3.-./ a a a a a             ",
"                              a a ' )  .Y ( D F N R u b Z H w 5 , x < G a a a a a               ",
"                                a a a %.{ ( r M F R h u X.Z > z 5 + x >.a a a a a               ",
"                                      a a =.<.D M c h v b j Z 4 z $ Q a a a a a                 ",
"                                          a a =.&.F c R u G j 3 w e 4.a a a a a                 ",
"                                              a a a m D h u X.j 3 5.a a a a a a                 ",
"                                                  a a a <...b q v a a a a a a                   ",
"                                                      a a a >.r 6.a a a a a a                   ",
"                                                            a a a a a a a a a                   ",
"                                                                a a a a a a                     ",
"                                                                    a a a                       ",
"                                                                                                ",
"                                                                                                ",
"                                                                                                ",
"                                                                                                ",
"                                                                                                ",
"                                                                                                "};
