/* XPM */
static char * image_name[] = {
"48 48 118 2",
"  	c None",
". 	c #DEDEDEDEDCDC",
"X 	c #E6E6E6E6E4E4",
"o 	c #F2F2F2F2ECEC",
"O 	c #E6E6E2E2E4E4",
"+ 	c #C6C6C2C2C4C4",
"@ 	c #CECECACACCCC",
"# 	c #D2D2CECECCCC",
"$ 	c #C2C2C2C2BCBC",
"% 	c #CACACACACCCC",
"& 	c #D2D2D2D2D4D4",
"* 	c #DADADADAD4D4",
"= 	c #DADADADADCDC",
"- 	c #E2E2DEDEDCDC",
"; 	c #EAEAEAEAECEC",
": 	c #EEEEEEEEECEC",
"> 	c #B6B6B2B2B4B4",
", 	c #C2C2BEBEBCBC",
"< 	c #CECECECECCCC",
"1 	c #E2E2E2E2DCDC",
"2 	c #FAFAFAFAFCFC",
"3 	c #F6F6F6F6F4F4",
"4 	c #B6B6B6B6B4B4",
"5 	c #BABAB6B6B4B4",
"6 	c #BEBEBEBEBCBC",
"7 	c #E2E2E2E2E4E4",
"8 	c #EAEAE6E6E4E4",
"9 	c #D6D6D6D6D4D4",
"0 	c #FEFEFEFEFCFC",
"q 	c #AEAEAAAAACAC",
"w 	c #BABABABAB4B4",
"e 	c #BEBEBABABCBC",
"r 	c #D2D2D2D2CCCC",
"t 	c #CACACACAC4C4",
"y 	c #DADAD6D6D4D4",
"u 	c #A6A6A6A6A4A4",
"i 	c #B2B2B2B2ACAC",
"p 	c #B2B2B2B2B4B4",
"a 	c #C6C6C6C6C4C4",
"s 	c #EEEEEAEAECEC",
"d 	c #A2A29E9E9C9C",
"f 	c #AEAEAEAEACAC",
"g 	c #BABABABABCBC",
"h 	c #F2F2F2F2F4F4",
"j 	c #9A9A9A9A9494",
"k 	c #A6A6A2A2A4A4",
"l 	c #AAAAA6A6A4A4",
"z 	c #7E7E7E7E7C7C",
"x 	c #969692928C8C",
"c 	c #9E9E9A9A9C9C",
"v 	c #A2A2A2A29C9C",
"b 	c #C2C2C2C2C4C4",
"n 	c #CACAC6C6C4C4",
"m 	c #D6D6D2D2D4D4",
"M 	c #EAEAEAEAE4E4",
"N 	c #020202020404",
"B 	c #8E8E8A8A8C8C",
"V 	c #B2B2AEAEACAC",
"C 	c #8A8A8A8A8C8C",
"Z 	c #8A8A86868484",
"A 	c #8E8E8E8E8C8C",
"S 	c #92928E8E8C8C",
"D 	c #969696969494",
"F 	c #AAAAAAAAA4A4",
"G 	c #3E3E3E3E3C3C",
"H 	c #161616161414",
"J 	c #DEDEDADADCDC",
"K 	c #6A6A6A6A6C6C",
"L 	c #767672726C6C",
"P 	c #868686868484",
"I 	c #929292928C8C",
"U 	c #9A9A96969494",
"Y 	c #9E9E9E9E9C9C",
"T 	c #3A3A3A3A3C3C",
"R 	c #424242424444",
"E 	c #727272726C6C",
"W 	c #7A7A76767474",
"Q 	c #7E7E7A7A7474",
"! 	c #82827E7E7C7C",
"~ 	c #8E8E8A8A8484",
"^ 	c #6A6A66666464",
"/ 	c #72726E6E6C6C",
"( 	c #727272727474",
") 	c #969692929494",
"_ 	c #9A9A9A9A9C9C",
"` 	c #767676767474",
"' 	c #262626262424",
"] 	c #5A5A56565454",
"[ 	c #666662625C5C",
"{ 	c #666662626464",
"} 	c #6E6E6A6A6464",
"| 	c #868682827C7C",
" .	c #565652524C4C",
"..	c #5A5A5A5A5454",
"X.	c #62625E5E5C5C",
"o.	c #6A6A6A6A6464",
"O.	c #6E6E6E6E6C6C",
"+.	c #7E7E7A7A7C7C",
"@.	c #7A7A7A7A7C7C",
"#.	c #2A2A2A2A2424",
"$.	c #52524E4E4C4C",
"%.	c #5E5E5A5A5454",
"&.	c #868682828484",
"*.	c #7A7A7A7A7474",
"=.	c #2A2A2A2A2C2C",
"-.	c #4E4E4E4E4C4C",
";.	c #121212121414",
":.	c #4E4E4A4A4444",
">.	c #161612121414",
",.	c #525252525454",
"<.	c #AAAAAAAAACAC",
"1.	c #42423E3E3C3C",
"2.	c #8A8A8A8A8484",
"3.	c #2A2A26262424",
"4.	c #363636363434",
"5.	c #1A1A1A1A1C1C",
"6.	c #565656565454",
"7.	c #626262625C5C",
"                                                                                                ",
"                                                                                                ",
"                                                                                                ",
"                                                                                                ",
"                                                                                                ",
"                                                                                                ",
"                                                                                                ",
"                                                                                                ",
"                                                                                                ",
"                                                                                                ",
"                                                                                                ",
"                                                    . X o O + @ #                               ",
"                                        $ % & * = - X ; : > , < 1 : 2 3 X                       ",
"                                      4 5 6 @ & = . 7 8 @ 4 $ 9 X o 3 2 0 0 0 3 X               ",
"                                    q w > 4 > e r = 1 X 4 w t y ; 3 2 2 2 0 0 0 0 0 0           ",
"                                  u i > 4 > 4 4 p 6 9 6 w a # . s 3 2 2 0 0 0 0 0 0 =           ",
"                                d q f > 4 5 5 w 5 e g e a < = 7 s h 2 0 0 0 0 0 0 0 6           ",
"                              j k l f i i w g , $ $ a t < 9 - X : 3 0 0 0 0 0 0 0 0 z           ",
"                            x c v k l f i 4 g 6 b + n # m = 1 M : h 2 0 0 0 0 0 0 0 N           ",
"                          B x j c v u q V 4 w 6 b i C 4 9 = . X ; o 3 0 0 0 0 0 0 6 N N         ",
"                        Z A S D j d u F f p 5 F G N N H w = J O 8 : h 2 0 0 0 0 0 K N N         ",
"                    L z P Z A I U Y d k q V > T R b j R g m . . X ; : 3 2 0 0 0 ; N N N         ",
"                  E W Q ! P ~ S x j d v l f B N Q , a n < & = . 7 ; ; h 3 0 0 0 Y N N N         ",
"                ^ / ( W ! ! Z A I ) _ d u F ` N g 6 b a < # 9 = - O M : 3 3 0 0 ' N N N         ",
"            ] [ { } / L Q z | Z A x U c d u / N B 5 6 b t < & 9 . 7 X ; h 3 2 < N N N N         ",
"           ...X.[ o.O.( W +.! P ~ A ) ` @.v D N #.5 6 , a % # 9 9 . 7 X ; h 3 R N N N           ",
"          $. .%.X.[ } O.L W +.&.Z A E N N *.k ' N ' @.^ =.a % & m J - X 8 : a N N N N           ",
"              -.%.[ { } / ` *.z | Z Q ;.N +.v k :.>.H ,.F a t < & 9 . - X ; R N N N N           ",
"                  :.[ ^ } L W z z P Z B x U Y v <.<.i 4 w , + t # & = . O g N N N N N           ",
"                      G { } E W ! | Z A I D _ d k q f > 5 6 b n < & 9 = 1 G N N N N             ",
"                        N 1.^ L W z | Z A x j Y v l <.p > e 6 b n < & 9 p N N N N N             ",
"                          N N R ^ z ! P Z S ) U c v l q i 4 6 , a t r m T N N N N N             ",
"                              N N ' ^ &.P 2.I D c d u F f i g 6 , a < F N N N N N               ",
"                                N N N 3.{ 2.B x D Y d l <.V > g 6 + a 4.N N N N N               ",
"                                      N N H ..S x j c k l f V 5 g $ W N N N N N                 ",
"                                          N N H X.) j d u F f 4 w e 5.N N N N N                 ",
"                                              N N N 6.S d u <.f 4 7.N N N N N N                 ",
"                                                  N N N ..U l q k N N N N N N                   ",
"                                                      N N N 4.A :.N N N N N N                   ",
"                                                            N N N N N N N N N                   ",
"                                                                N N N N N N                     ",
"                                                                    N N N                       ",
"                                                                                                ",
"                                                                                                ",
"                                                                                                ",
"                                                                                                ",
"                                                                                                ",
"                                                                                                "};
