/* XPM */
static char * image_name[] = {
"48 48 246 2",
"  	c #CCCCCACAC0C0",
". 	c #C3C3C7C7C4C4",
"X 	c #BCBCBFBFBFBF",
"o 	c #BABAB9B9B7B7",
"O 	c #B3B3B8B8B6B6",
"+ 	c #A6A6AEAEACAC",
"@ 	c #EEEEF2F2F4F4",
"# 	c #EAEAEAEAECEC",
"$ 	c #CECED2D2D2D2",
"% 	c #D5D5D9D9D6D6",
"& 	c #D3D3D2D2CCCC",
"* 	c #DBDBDBDBDCDC",
"= 	c #DFDFE2E2E4E4",
"- 	c #77777A7A7B7B",
"; 	c #505054545454",
": 	c #A3A3A8A8A6A6",
"> 	c #ABABA9A99D9D",
", 	c #9B9BA6A6A1A1",
"< 	c #A2A2A2A2A4A4",
"1 	c #ABABB0B0AEAE",
"2 	c #9A9A9F9F9F9F",
"3 	c #919197979494",
"4 	c #898990908D8D",
"5 	c #818187878484",
"6 	c #7B7B80807F7F",
"7 	c #81818A8A8C8C",
"8 	c #8E8E92929090",
"9 	c #96969A9A9B9B",
"0 	c #55555B5B5A5A",
"q 	c #49494C4C4D4D",
"w 	c #86868A8A8B8B",
"e 	c #3F3F3E3E3838",
"r 	c #48484C4C4141",
"t 	c #8F8F9A9A8787",
"y 	c #464646464343",
"u 	c #8E8E9E9E9898",
"i 	c #39393B3B3C3C",
"p 	c #40404A4A5050",
"a 	c #848480807C7C",
"s 	c #80808E8E9494",
"d 	c #61617A7A8C8C",
"f 	c #6D6D81818989",
"g 	c #3D3D6C6C9D9D",
"h 	c #6C6C7E7E7878",
"j 	c #6C6C72726C6C",
"k 	c #707074747474",
"l 	c #404044444444",
"z 	c #494953535151",
"x 	c #787889899494",
"c 	c #55557C7CA0A0",
"v 	c #3C3C7676BCBC",
"b 	c #777797979999",
"n 	c #8B8BA5A57C7C",
"m 	c #86869E9E7070",
"M 	c #82829A9A7C7C",
"N 	c #8A8A98986868",
"B 	c #77778F8F6464",
"V 	c #6A6A86865454",
"C 	c #65656B6B6A6A",
"Z 	c #5E5E82829C9C",
"A 	c #3A3A7E7EC4C4",
"S 	c #56568E8EBCBC",
"D 	c #B5B5B9B99696",
"F 	c #9A9AA0A08C8C",
"G 	c #90909E9E7878",
"H 	c #66667A7A5454",
"J 	c #5D5D63635959",
"K 	c #72727A7A7878",
"L 	c #4B4B7B7BABAB",
"P 	c #41417A7AB1B1",
"I 	c #49497D7DB5B5",
"U 	c #E2E2D8D8B4B4",
"Y 	c #7A7A9292ACAC",
"T 	c #6C6C8E8EA8A8",
"R 	c #BBBBB0B08080",
"E 	c #A4A4A0A08989",
"W 	c #606076768484",
"Q 	c #AEAEA0A07070",
"! 	c #B5B5A9A97878",
"~ 	c #92928E8E6464",
"^ 	c #797976765757",
"/ 	c #333334343535",
"( 	c #5E5E8E8EBCBC",
") 	c #FBFBF9F9CBCB",
"_ 	c #FEFEFEFECCCC",
"` 	c #BABAC6C6B4B4",
"' 	c #D4D4BCBC9C9C",
"] 	c #CECEB8B88080",
"[ 	c #9E9E96969494",
"{ 	c #CECEB6B68F8F",
"} 	c #CECEC2C28484",
"| 	c #C6C6B8B87474",
" .	c #A7A799996161",
"..	c #6A6A6E6E6C6C",
"X.	c #626265656363",
"o.	c #56568989B7B7",
"O.	c #F3F3F2F2BCBC",
"+.	c #FDFDFDFDF0F0",
"@.	c #8282A2A2A8A8",
"#.	c #9696AEAEB4B4",
"$.	c #64648888A0A0",
"%.	c #AAAAA6A68484",
"&.	c #E7E7D0D09494",
"*.	c #AEAEAEAE9494",
"=.	c #C3C3BFBF8F8F",
"-.	c #C6C6B0B06C6C",
";.	c #777774747272",
":.	c #4C4C8282B7B7",
">.	c #FDFDFCFCDBDB",
",.	c #B2B2C2C2A0A0",
"<.	c #DEDED8D8A0A0",
"1.	c #FEFEFAFAB4B4",
"2.	c #F5F5E8E8A7A7",
"3.	c #D4D4C8C89B9B",
"4.	c #5B5B5D5D5D5D",
"5.	c #76769E9EBCBC",
"6.	c #F9F9F1F1A8A8",
"7.	c #FAFAF8F8BABA",
"8.	c #DFDFD0D09C9C",
"9.	c #98988A8A7070",
"0.	c #6C6C6B6B5151",
"q.	c #5D5D63636565",
"w.	c #D6D6DEDECCCC",
"e.	c #BABABEBE9494",
"r.	c #B4B4B0B09494",
"t.	c #C3C3B7B78C8C",
"y.	c #9F9F97976767",
"u.	c #848480806161",
"i.	c #99998F8F7777",
"p.	c #575756565151",
"a.	c #50508787BBBB",
"s.	c #E1E1DFDFACAC",
"d.	c #9A9A9A9A7878",
"f.	c #A0A09E9E7474",
"g.	c #797981816464",
"h.	c #6A6A66665454",
"j.	c #31313B3B3D3D",
"k.	c #AAAABABAA4A4",
"l.	c #BEBEC8C89E9E",
"z.	c #EAEAE8E8ACAC",
"x.	c #78788E8E8C8C",
"c.	c #EEEEE0E0A0A0",
"v.	c #BEBEB6B67C7C",
"b.	c #727273736666",
"n.	c #909086866060",
"m.	c #82827A7A5454",
"M.	c #8E8EA4A4A8A8",
"N.	c #C2C2CECEA4A4",
"B.	c #EAEAD6D69C9C",
"V.	c #20203A3A4A4A",
"C.	c #5C5C5D5D4B4B",
"Z.	c #494973739B9B",
"A.	c #66669494B4B4",
"S.	c #78789898B0B0",
"D.	c #8E8EB6B68C8C",
"F.	c #A1A1BFBF9494",
"G.	c #9E9EB8B89090",
"H.	c #DADAC9C99999",
"J.	c #E4E4CACA9090",
"K.	c #A8A8A0A07878",
"L.	c #2A2A44445C5C",
"P.	c #42426C6C9898",
"I.	c #8686AEAE8484",
"U.	c #727296967474",
"Y.	c #7E7E86867171",
"T.	c #AAAAB2B28C8C",
"R.	c #888886867070",
"E.	c #54546A6A7474",
"W.	c #2B2B4A4A6767",
"Q.	c #212143435D5D",
"!.	c #27273C3C5353",
"~.	c #55558282A6A6",
"^.	c #C4C4B8B8A0A0",
"/.	c #4C4C5A5A6060",
"(.	c #39394B4B5B5B",
").	c #222236364C4C",
"_.	c #2D2D32323434",
"`.	c #40407373A6A6",
"'.	c #DEDED0D0B0B0",
"].	c #50504C4C3939",
"[.	c #4B4B46463737",
"{.	c #545464646C6C",
"}.	c #1D1D34344747",
"|.	c #2C2C2E2E2C2C",
" X	c #373764649797",
".X	c #CACAC6C6A4A4",
"XX	c #92927E7E6464",
"oX	c #9E9E86866464",
"OX	c #62625A5A4444",
"+X	c #25252B2B2B2B",
"@X	c #121223233131",
"#X	c #373744445050",
"$X	c #D4D4CECEA8A8",
"%X	c #BEBE98989090",
"&X	c #B6B686867474",
"*X	c #9E9E66664C4C",
"=X	c #4A4A3E3E2C2C",
"-X	c #575750503E3E",
";X	c #18182D2D3B3B",
":X	c #10101D1D2727",
">X	c #252526262626",
",X	c #46467676AAAA",
"<X	c #C7C7A6A69F9F",
"1X	c #A8A86C6C5858",
"2X	c #5E5E46463434",
"3X	c #20203D3D5959",
"4X	c #171725252F2F",
"5X	c #C6C6AEAEA4A4",
"6X	c #414163638787",
"7X	c #B3B38E8E8181",
"8X	c #767662625454",
"9X	c #323245454F4F",
"0X	c #202020202121",
"qX	c #CACABEBE9C9C",
"wX	c #30305D5D8D8D",
"eX	c #848474746060",
"rX	c #2E2E3E3E4F4F",
"tX	c #B2B2A0A08C8C",
"yX	c #BABAA8A89898",
"uX	c #2B2B56568181",
"iX	c #3A3A62628A8A",
"pX	c #B6B6AAAAA4A4",
"aX	c #86866A6A5454",
"sX	c #3E3E5A5A7474",
"dX	c #36365E5E8989",
"fX	c #EEEEE2E2B4B4",
"gX	c #F6F6DADA9C9C",
"hX	c #BCBC90908080",
"jX	c #56563E3E3434",
"kX	c #25254D4D7C7C",
"lX	c #E6E6E6E6CCCC",
"zX	c #A2A2AAAA9494",
"xX	c #1A1A1C1C1C1C",
"cX	c #9A9A5E5E4C4C",
"vX	c #34342C2C2828",
"bX	c #141414141414",
"nX	c #404052526464",
"mX	c #0C0C14141818",
"MX	c #2B2B4E4E7474",
"NX	c #C2C29E9E7C7C",
"BX	c #7A7A6A6A6C6C",
"VX	c #0C0C0C0C0C0C",
"CX	c #212145457373",
"ZX	c #2E2E46466464",
"AX	c #1F1F3E3E6767",
"SX	c #414143435151",
"  . X X X X X X o o o o X o X X X X X X X X o X X X X X X X o O O O O O o X X X . . . X O o + + ",
"o @ # $ $ $ $ $ $ $ $ $ % $ & % % % % % % % % * = = = = * % % % % % % % % * * = * * * % % o - ; ",
"o * . + : > : : : : , < : : : 1 : : : 1 1 1 1 2 2 2 3 3 3 4 5 6 7 4 8 3 9 < , : , 2 4 7 3 9 0 q ",
"O % : 8 3 3 9 3 3 8 8 8 3 9 2 9 9 9 2 9 9 9 3 3 3 8 8 8 4 7 5 7 w 8 8 3 2 2 < 9 8 w w 3 2 4 e r ",
"O % > 8 3 3 3 3 3 3 3 3 3 9 3 9 3 3 9 9 t 8 8 8 8 8 4 4 4 7 5 7 4 3 3 9 2 < 2 4 7 4 8 9 2 7 e y ",
"O % 1 3 8 9 9 9 2 u 9 3 3 9 3 3 3 3 8 8 w 4 w 4 8 w 7 7 7 5 6 5 8 8 3 2 , , 8 w 4 3 u 2 2 5 i p ",
"O % 1 9 4 3 9 9 9 9 3 3 9 9 3 3 8 8 w w 5 6 a 7 w 6 6 6 6 6 6 5 s 4 3 2 < 9 s 7 3 9 9 9 2 7 e q ",
"O % 1 2 3 3 9 9 2 2 3 3 3 9 9 8 8 5 d d f g f 4 h 6 - j k k k 6 5 w 8 9 9 4 5 8 9 9 9 t 2 7 l z ",
"1 % + 2 u 8 3 3 9 9 8 3 9 3 3 x c v v b n n m M M N B B V j C k - a 4 8 4 5 7 8 9 3 3 9 : 4 e q ",
"O % 1 : 3 s 8 3 9 3 3 8 3 8 Z A S D 2 b b F G G G m N N B V H J C K 6 w a 6 5 3 8 3 9 : + 4 i l ",
"O % : 2 3 4 3 9 2 3 8 8 x L P I O U 1 Y Y T 9 > R E W 6 Q ! ! ~ ^ C k 6 k K 5 8 8 9 , 1 + 5 / y ",
"1 % : 2 9 8 3 9 9 3 8 x I I ( & ) ) _ ) ` T c 3 4 ' ] [ 4 { N } |  ...X.X...6 7 4 2 > : < 6 i q ",
"O * > 9 9 9 9 9 3 8 x I o.. O.) +.+.+.+.O.` @.#.$.x %.{ &.&.%.*.=.-. .J ; C ;.6 4 9 , 2 8 h i q ",
"O % : 3 3 9 9 3 8 5 L :.$ ) >.>.+.>.>.>.>.>.+.>.= ,.t <.1.2.3.N | -. .^ ; 4...- w 3 9 3 3 k / y ",
"O % : 3 3 2 3 8 7 c I 5.+.+.+.+.>.>.) +.) ) ) >.+.) U 6.1.7.8.3.R  . .9.0.; q.k 5 3 3 9 3 k / y ",
"O % , 3 2 2 9 5 6 P :.w.>.@ +.>.>.) >.>._ O.>.>.+.>.e.D 6.1.<.r.t. .y.u.i.p.0 ..6 5 w 4 4 j / q ",
"o % : 9 2 , 3 6 c I a.  s.7.) >.>.>.+.+.+.>.>.>.+._ <.x 3.6.6.4 d.f. .u.g.h.; q...k K 6 5 j j.q ",
"O % : 2 2 : 8 h v :.a.k.e.l.s.O.) >.+.>.>.>.>.>.>.) z.x.t.2.6.c.v.J b.n.m.b.y q p.q.j K 5 K i ; ",
"O $ : 2 2 < 8 W P I a.M.` l.` l.N.s.O.O.z.O.7.O.7.7.c.F t 2.6.6.B.J V.C.0.0.; l q 4...6 s 6 e z ",
"O $ : 2 : 2 4 Z.P :.a.o.A.S.A.@.D.F.F.G.F.=.H.&.&.J.{ R ~ 3.3.K.b.L.V.j.C.0.r i y 0 ..- w f e q ",
"1 $ : 2 : 9 a P.P I a.a.o.S S S S.F.D.I.U.Y.T.%.Y.h 6 ~ R.C E.W.Q.!.V.V.p.0.l / l ; C - 5 - i p ",
"1 $ : 2 < 3 h g P :.a.a.a.o.o.~.u G.G.I.g.3.^.f.6 5 4 5 Y.7 u./.p (.V.).r C.V._.e ; q.b.6 k / y ",
"1 % : 2 2 w k g `.I :.:.a.a.o.~.u e.D T.R.'.d.C.].r [.y X.x 4 3 4 6 {.0 j.r }.|./ q 0 ..6 j / y ",
"o % : 2 3 w k  X`.P :.:.:.I I L $..X=.R XX' oXOXe [.].[.e +X@X@X#X; X.7 4 6 K l e l q 4.j j j.y ",
"X % 2 9 3 w K  Xg `.P L I c L c c $XH.y.%X&X*X=X=X[.-Xj.}.;X@X@X@X:X:X>Xl q C - a 9.C y 4.X._.y ",
"X % < 9 4 7 -  Xg `.Z.,XL L L ,XZ '.U 9.<X&X1X2X=X].i 3X3XV.}.;X4X4X@X:X@X4X;X|.j K.5X/ q 4./ l ",
". % < 3 w w 6 6X Xg g `.`.Z.Z.Z.o <.U 5X<X%X7X8X/ ].9XQ.Q.Q.V.}.}.;X;X;X@X;X4X0X_.J qX0Xi ; _.y ",
"X % 2 3 4 s 6 {.wX Xg g g P.g 6X.XH.$Xn.eXOX[.e =Xp...(.3X3X}.}.V.V.}.rX9X;X/ [.m.tXyX0X/ q |.l ",
". % 9 8 4 w 6 C uXwXiXg  X6XP.6Xs 8.8.3.! u.C.r ].0 4 {.l V.V.}.V.V.p R.rXrXeXpX5X&XaX+X/ q |.y ",
". * 9 3 8 8 5 k sXwXwXdX X XiXiXd fXgXH.! y.^ C.(.!.F i.X.9X9XW.9Xq 8 b.}.4Xe 7XhX1XjX>Xi q |.l ",
". % 3 8 8 8 s - q.kXuXwXwXdXdXdX6XlX2.H.R K.~ 0 3XV.j *.> pX' qXzX[ C.xX:XxXxX>X1XcXvXbXi q |.y ",
". * 3 8 3 8 w 6 ..nXkXuXuXuXuXuXuXzX2.J.v.! b.W.Q.L.C.l ;X+X< d.|.:X:XmXmXbXxX0X0X|.+XbXy 0 _.p ",
". * 3 8 3 8 w 6 j {.W.kXkXMXMXMXMX{.] -.NXBXL.Q.3X3X(.0 h K 6 ;...q j._.VXbXxX>X|.i e +X0 J / q ",
". * 3 3 3 3 8 6 k X.; Q.W.CXW.CXkXkXMXMXZX3XAXAXAXAX9 + [ 8 8 7 k p.e +XVXbXxX+X/ y ; _.4.q.|.e ",
". * 3 3 3 3 3 7 - C J q 3XQ.3XQ.CXCXCXCXAXAXAXAX3X/.3 4.y SXy y e / |._.>XbXxX+Xi q 4.q e 4.|.e ",
". * 9 3 3 3 8 4 6 ;.C 4.q rXAXAXAXAXAXAXQ.3X3X3XQ.k 0 e y p.;.6 ..0 l |.j.VXbX0X/ ; X.X.|./.|.e ",
". * 2 3 3 3 8 3 7 6 K ..0 q rXAXQ.AXAXAXAX3X3XL.; q.l q.8 4.C 6 a ..../ i _.bX0X|.r q.../ q._.l ",
"X % 2 9 3 3 3 3 8 w 6 j X.p.q rX).AX3XAXAX3X3X{.C q ; - 0 z q q K 9...y / j.+XbX+Xe 4.C |.X./ l ",
". * 9 3 3 3 3 3 3 4 5 6 j q.q y i / !.).).AXW.a p.e k < 8 J q ; a 9 ;.y / / |.vX>Xj.q i X.C _.l ",
"X % 2 3 8 8 3 9 3 4 4 5 - ..q.; p l i / _.vX..- l i X.> > a 9 : o i.q./ >X|./ #X>X>X0Xe k C / l ",
". * 9 9 3 3 3 3 9 3 3 3 a - ..J p.q q l e / X.X.y y q 4.X.;.a R.[ 9.p.i >X/ SXvXVXmXVX>X0 X._.y ",
"X % 3 3 9 3 8 3 9 2 2 9 8 6 - ..C q.0 ; q q p.p.4.4.4.q SXSXq ; q ; q q ; q q l 0X>XxXi |.; |.l ",
". * 9 9 9 9 8 9 < < 2 9 3 w 6 - k ..C X.4.p.p.; q y SXe i / i / i / i i i i e 0X0X|.+X/ e _.|.l ",
"X % 9 3 3 8 3 2 , : < 2 8 4 5 6 6 6 ;.k k ..X.p.q e / >X>X0XxXxX0X0X0X0X0X>X>X+X|.e q e l 0 / l ",
"  = 9 3 3 8 9 : : : 2 9 8 s 7 6 6 5 6 6 6 6 - C 4.; q y SXi / / / vX/ / / / i e y 0 C k 6 C _.l ",
". $ 9 8 8 3 2 : : 2 2 8 4 w 5 7 7 4 4 4 5 w 5 - C C X.4.; q q q SXq q y q q q q ; 4.C ..C 4./ l ",
"X 2 ; _./ / i e i / +X>X>X>X>X>X>X>X>X>X>X>X>X>X0X0X0X>XvX|.|.|.|.vX|.+X|.|._._./ _._./ _.+X>Xy ",
"5 ; z y SXz q z z z ; z ; z z z ; 0 p.0 0 p.; ; q ; ; ; ; ; p.; ; ; ; ; ; ; ; ; ; ; p.; ; q l 0 "};
