/* XPM */
static char * image_name[] = {
"48 48 240 2",
"  	c None",
". 	c #4E4E72728C8C",
"X 	c #60607C7C8888",
"o 	c #363666669E9E",
"O 	c #6A6A82828C8C",
"+ 	c #8D8D92927979",
"@ 	c #6A6A7A7A7C7C",
"# 	c #79797D7D6969",
"$ 	c #6E6E6E6E6464",
"% 	c #34346A6AA4A4",
"& 	c #3C3C7676BCBC",
"* 	c #767696969494",
"= 	c #8E8EA0A07474",
"- 	c #8A8AA6A67C7C",
"; 	c #82829A9A7C7C",
": 	c #7A7A92927474",
"> 	c #8E8E9A9A7474",
", 	c #76768E8E6060",
"< 	c #787886866464",
"1 	c #565662624C4C",
"2 	c #3A3A7E7EC4C4",
"3 	c #56568E8EBCBC",
"4 	c #B2B2B6B6ACAC",
"5 	c #9696A2A28C8C",
"6 	c #7A7A9A9A9494",
"7 	c #A2A2AAAA7C7C",
"8 	c #86869E9E7070",
"9 	c #868696966464",
"0 	c #6A6A86865454",
"q 	c #66667A7A5454",
"w 	c #424252523434",
"e 	c #3E3E7373AAAA",
"r 	c #46467E7EB7B7",
"t 	c #4C4C8383B8B8",
"y 	c #DEDED6D6B1B1",
"u 	c #A6A6AEAEACAC",
"i 	c #79799595A9A9",
"p 	c #6C6C8E8EA8A8",
"a 	c #929296969C9C",
"s 	c #ABABAAAA8C8C",
"d 	c #B6B6AEAE8888",
"f 	c #A2A29E9E8C8C",
"g 	c #626276767C7C",
"h 	c #808086867474",
"j 	c #AEAE9F9F7474",
"k 	c #B8B8AAAA7979",
"l 	c #92928E8E6464",
"z 	c #767672724444",
"x 	c #4C4C7E7EB2B2",
"c 	c #5E5E8A8AB4B4",
"v 	c #D6D6D6D6BCBC",
"b 	c #FEFEFAFAD1D1",
"n 	c #FAFAFAFAD4D4",
"m 	c #FEFEFEFED7D7",
"M 	c #FAFAFAFAE9E9",
"N 	c #BABAC6C6B4B4",
"B 	c #66668A8AA4A4",
"V 	c #54547E7EA8A8",
"C 	c #86868E8E9494",
"Z 	c #D6D6BEBE9C9C",
"A 	c #CACABEBE9C9C",
"S 	c #979798988888",
"D 	c #8E8E8E8E7C7C",
"F 	c #C3C3B6B68888",
"G 	c #D1D1C2C28989",
"H 	c #C6C6B0B06C6C",
"J 	c #A8A899995F5F",
"K 	c #3A3A3A3A3030",
"L 	c #52528585B5B5",
"P 	c #BEBECACAC4C4",
"I 	c #F4F4F2F2BCBC",
"U 	c #FEFEFEFEEBEB",
"Y 	c #F6F6F6F6CCCC",
"T 	c #8282A2A2ACAC",
"R 	c #9696AEAEB4B4",
"E 	c #606084849C9C",
"W 	c #727282827C7C",
"Q 	c #AAAAA2A29090",
"! 	c #CCCCB6B68989",
"~ 	c #F1F1D5D59C9C",
"^ 	c #E8E8D6D69898",
"/ 	c #AEAEA6A68484",
"( 	c #A2A2B2B28C8C",
") 	c #C3C3BCBC8282",
"_ 	c #32322E2E2424",
"` 	c #CECEDADAD4D4",
"' 	c #E2E2E6E6CCCC",
"] 	c #B2B2C2C2A0A0",
"[ 	c #8E8E9A9A8C8C",
"{ 	c #DFDFD3D39D9D",
"} 	c #FAFAF6F6BCBC",
"| 	c #F5F5EAEAA7A7",
" .	c #D8D8CCCCA0A0",
"..	c #9C9C96966868",
"X.	c #828276765454",
"o.	c #33336E6EA7A7",
"O.	c #76769E9EBCBC",
"+.	c #E1E1DDDDA8A8",
"@.	c #F3F3EEEEAFAF",
"#.	c #FEFEFBFBBEBE",
"$.	c #DADAC4C48C8C",
"%.	c #B7B7B2B28888",
"&.	c #909086866868",
"*.	c #656563634949",
"=.	c #44447A7AB1B1",
"-.	c #D6D6DEDECCCC",
";.	c #BABABEBE9C9C",
":.	c #B6B6BABA9494",
">.	c #C6C6B6B66C6C",
",.	c #A2A29A9A6464",
"<.	c #84847E7E5858",
"1.	c #262626261C1C",
"2.	c #CECECACAB4B4",
"3.	c #77778D8D8F8F",
"4.	c #D2D2CACA9C9C",
"5.	c #FAFAEAEAA4A4",
"6.	c #FBFBF2F2A8A8",
"7.	c #9E9E9A9A7777",
"8.	c #7E7E7A7A6C6C",
"9.	c #5D5D5E5E4A4A",
"0.	c #020202020404",
"q.	c #45457676AAAA",
"w.	c #AAAABABAA4A4",
"e.	c #BFBFC8C89E9E",
"r.	c #E8E8E4E4B0B0",
"t.	c #F6F6F6F6BCBC",
"y.	c #C0C0BCBC9191",
"u.	c #F4F4E6E6ACAC",
"i.	c #EAEAE2E29C9C",
"p.	c #5E5E6A6A6464",
"a.	c #7E7E7A7A5454",
"s.	c #727272725C5C",
"d.	c #08080C0C1111",
"f.	c #51518A8ABCBC",
"g.	c #8E8EA6A6B4B4",
"h.	c #C2C2CECEA4A4",
"j.	c #DEDEE2E2ACAC",
"k.	c #F2F2E2E2A4A4",
"l.	c #92929E9E8484",
"z.	c #626266665C5C",
"x.	c #27273A3A4C4C",
"c.	c #6E6E6C6C4C4C",
"v.	c #6A6A6A6A5757",
"b.	c #60609090B8B8",
"n.	c #76769A9AB4B4",
"m.	c #6A6A9696B4B4",
"M.	c #9E9EB8B89090",
"N.	c #A2A2C2C29494",
"B.	c #9E9EBEBE9494",
"V.	c #C6C6C6C69C9C",
"C.	c #DEDECDCD9C9C",
"Z.	c #EEEEDADA9494",
"A.	c #929296967474",
"S.	c #DADAD2D29C9C",
"D.	c #797976766464",
"F.	c #2A2A42425151",
"G.	c #2E2E3E3E4848",
"H.	c #525258584848",
"J.	c #424246463434",
"K.	c #57578A8AB8B8",
"L.	c #8E8EB6B68C8C",
"P.	c #8282AEAE8C8C",
"I.	c #8282AAAA8484",
"U.	c #8E8EAEAE8484",
"Y.	c #B6B6B6B68484",
"T.	c #CCCCBDBD8A8A",
"R.	c #BEBEB0B08282",
"E.	c #2F2F53537171",
"W.	c #222244446060",
"Q.	c #22223D3D5353",
"!.	c #26263E3E5353",
"~.	c #3A3A46464444",
"^.	c #3A3A6A6A9E9E",
"/.	c #58588686ACAC",
"(.	c #9090A0A09C9C",
").	c #AAAAB6B68C8C",
"_.	c #9696B2B28C8C",
"`.	c #AAAAB2B28C8C",
"'.	c #E6E6C6C68C8C",
"].	c #32324E4E6464",
"[.	c #4A4A4E4E4C4C",
"{.	c #1B1B34344949",
"}.	c #565682829C9C",
"|.	c #BEBEB6B67C7C",
" X	c #4E4E64647474",
".X	c #26264A4A6C6C",
"XX	c #1E1E3E3E5A5A",
"oX	c #CECEC6C6A4A4",
"OX	c #B6B6A4A48080",
"+X	c #4E4E62626C6C",
"@X	c #3D3D4A4A4F4F",
"#X	c #1D1D3A3A5454",
"$X	c #333363639494",
"%X	c #3F3F6E6EA1A1",
"&X	c #4B4B7A7AAAAA",
"*X	c #D6D6CECEB4B4",
"=X	c #DEDEBEBE8C8C",
"-X	c #AAAA96967474",
";X	c #555567677777",
":X	c #2C2C4E4E6F6F",
">X	c #1E1E46467878",
",X	c #2D2D5C5C8C8C",
"<X	c #4A4A76769C9C",
"1X	c #DFDFC4C49292",
"2X	c #B8B8AEAE7C7C",
"3X	c #2A2A52527070",
"4X	c #24244D4D7D7D",
"5X	c #454572729E9E",
"6X	c #BABAB8B8A4A4",
"7X	c #3A3A56566C6C",
"8X	c #151524243030",
"9X	c #3F3F6A6A9797",
"0X	c #46466A6A9494",
"qX	c #A1A19E9E7474",
"wX	c #16161E1E2424",
"eX	c #292955558282",
"rX	c #32325E5E8E8E",
"tX	c #3A3A62628E8E",
"yX	c #404066668888",
"uX	c #868692929494",
"iX	c #9E9EA2A27474",
"pX	c #2A2A4A4A6868",
"aX	c #3E3E52525C5C",
"sX	c #1F1F42426F6F",
"dX	c #F6F6DEDEA4A4",
"fX	c #36365E5E8989",
"gX	c #FAFAE6E6ACAC",
"hX	c #A8A8A0A07474",
"jX	c #2E2E46465E5E",
"kX	c #0C0C13131919",
"lX	c #1D1D36365757",
"zX	c #2E2E56568080",
"xX	c #E6E6CCCC9898",
"cX	c #32324A4A6464",
"vX	c #C6C6A2A27C7C",
"bX	c #7A7A6A6A6C6C",
"nX	c #20203E3E6767",
"mX	c #16162B2B3F3F",
"MX	c #262646466C6C",
"NX	c #0E0E1A1A2424",
"                                                                                                ",
"                                                                                                ",
"                                                                                                ",
"                                                                                                ",
"                                                                                                ",
"                                                                                                ",
"                                                                                                ",
"                                      . X o O + @ # $                                           ",
"                                % & & * = - ; : : > , < < 1                                     ",
"                            % 2 3 4 5 6 * 5 = 7 = 8 > 9 , 0 q w                                 ",
"                          e r t 4 y u i i p a s d f g h j k k l z                               ",
"                        & x c v b n m M N B V a C Z A S D F 9 G H J K                           ",
"                      r L P I n U M M M Y N T R E W Q ! ~ ^ / ( ) H J _                         ",
"                    & t ` n n M M U b m m Y M U ' ] [ { } |  .> ) H ..X.                        ",
"                  o.r O.M U U U M m b M m n n n U n +.@.#.I { $.%.j J &.*.                      ",
"                  =.t -.n M M M m n m m Y #.m U M m ;.:.| } +.%.>...,.<.l 1.                    ",
"                o.r L 2.+.} m n m n M U M n n U M m +.3.4.5.6.+ 7.7.,.<.8.9.0.                  ",
"                q.r L w.;.e.r.t.n U U b U m m M m #.| 3.y.u.6.i.%.p.z &.a.s.d.                  ",
"                =.r f.g.e.;.N e.h.j.t.@.| Y #.#.t.6.k.Q l.u.6.6.^ z.x.*.c.v.K 0.                ",
"              o =.t t f.b.n.m.T M.N.B.B.B.V.C.~ Z.~ Z F A.S.S./ D.F.x.G.H.c.J.0.                ",
"              % =.t f.f.3 f.K.K.i B.L.P.I.U.( Y.F T.R.! / W g E.W.Q.x.!.H.c.~.0.0.              ",
"              ^.=.x t L L K.f./.(.).M.U._._.`.y.T.T.T.'.'.~ G ].W.W.Q.Q.[.*.{.0.0.              ",
"              ^.e r t L L L L }.(.;.:.:.F %.|.R.F y.T.T.G $. X.XXXQ.x.x.~.H.x.0.0.              ",
"              o e =.r x L t V x B oXA T.$.T.T.OXS R.! j &.+X.XW.XXXXQ.XXF.@X#X0.0.0.            ",
"              $X%Xq.=.&X=.&Xx &X}.*XC.$.=XZ F R.OXOX-X;XE.:X>XW.Q.Q.!.#XQ.G.{.0.0.0.            ",
"              ,X% %Xq.q.&X&X<X<XV y r.1X1X) 2Xk R.J +X3X:X.XW.XX#XQ.x.Q.Q.XX{.0.0.0.            ",
"              4Xo ^.%X5Xq.5X. 5X6X{ r.{ 1X) 7 / j ,.7X3X:XW.W.Q.Q.Q.!.Q.x.x.8X0.0.0.            ",
"              #X,Xo ^.%X%X%X9X0XoX*XS.{ G d 7 qX7...7X.XW.F.#Xx.Q.Q.x.XXQ.XXwX0.0.0.            ",
"                eXrXtXo 9X9X9XyXuXC.^ { G %.iXA.+ h ].pXaX!.Q.#XQ.Q.#XQ.Q.Q.0.0.0.0.            ",
"                sX,X,XrXtXtXtXtXX u.dX{ y.|.iX< +X].aX8.v.x.#X#X#X#XQ.Q.#X8X0.0.0.              ",
"                  3XeX,X,XfXfXrXyX' gXC.|.2XhXp.jXW.9.s.jXQ.Q.Q.Q.#X#XQ.Q.kX0.0.0.              ",
"                  lX4X3X,XeXeXzXzX7 gXxX! k s.cXW.jX*.@Xx.Q.Q.Q.#XQ.Q.#X8X0.0.0.0.              ",
"                    W..X4X:X:X:X:X;XT.! vXbXjXW.nXsXF.W.XXXXQ.Q.x.Q.Q.mX0.0.0.0.                ",
"                    kXnXMX.X.X.X>X4X4XpXjXsXnXnXnXXXQ.XXQ.XXXXXXQ.Q.{.kX0.0.0.0.                ",
"                      NX#X!.W.MX>XsX>XsXnXsXsXsXQ.W.Q.Q.Q.W.Q.XXXX#XkX0.0.0.0.                  ",
"                        kXlX#XnXnXsXnXsXsXXXXXXXW.XXXXW.XXXXXXXX{.d.0.0.0.0.0.                  ",
"                          0.mXnXnXnX#X#XnXXX#X#XQ.Q.XXW.XXW.XXmX0.0.0.0.0.0.                    ",
"                            0.kXmXnXnXnXnX#XXXQ.XXXXXX#XXXmXd.0.0.0.0.0.0.                      ",
"                              0.0.d.wXmXlX#XnX#X#X{.mXkX0.0.0.0.0.0.0.0.                        ",
"                                  0.0.0.0.0.0.0.0.0.0.0.0.0.0.0.0.0.0.                          ",
"                                    0.0.0.0.0.0.0.0.0.0.0.0.0.0.0.                              ",
"                                          0.0.0.0.0.0.0.0.0.0.                                  ",
"                                                                                                ",
"                                                                                                ",
"                                                                                                ",
"                                                                                                ",
"                                                                                                ",
"                                                                                                "};
