/* XPM */
static char * image_name[] = {
"48 48 225 2",
"  	c None",
". 	c #8C8C9E9E9090",
"X 	c #84849E9E8E8E",
"o 	c #7E7E92928484",
"O 	c #6E6E82827474",
"+ 	c #62627A7A6C6C",
"@ 	c #5E5E76766464",
"# 	c #59596A6A5C5C",
"$ 	c #36364A4A3C3C",
"% 	c #A7A7BABAACAC",
"& 	c #A2A2B6B6ABAB",
"* 	c #9A9AAEAEA4A4",
"= 	c #8989A2A29494",
"- 	c #8A8A9A9A8C8C",
"; 	c #75758E8E7C7C",
": 	c #676782827474",
"> 	c #6A6A7A7A7474",
", 	c #868692928C8C",
"< 	c #56565E5E5454",
"1 	c #2F2F42423434",
"2 	c #AEAEC2C2B4B4",
"3 	c #9696AEAE9C9C",
"4 	c #7E7E96968C8C",
"5 	c #73738A8A7C7C",
"6 	c #6A6A7E7E6C6C",
"7 	c #9696A2A29C9C",
"8 	c #56566E6E5C5C",
"9 	c #22222E2E2424",
"0 	c #B8B8C6C6BCBC",
"q 	c #AEAEBEBEB4B4",
"w 	c #9E9EB2B2A4A4",
"e 	c #9A9AB2B2A4A4",
"r 	c #8E8EA2A29494",
"t 	c #727282827474",
"y 	c #7E7E82827474",
"u 	c #464656564C4C",
"i 	c #26263A3A2C2C",
"p 	c #CACAD6D6CCCC",
"a 	c #C6C6D2D2CCCC",
"s 	c #BABACACAC2C2",
"d 	c #B2B2C2C2B9B9",
"f 	c #AAAABEBEB4B4",
"g 	c #BEBECACAC4C4",
"h 	c #4A4A62625454",
"j 	c #46465A5A4C4C",
"k 	c #2E2E3E3E3434",
"l 	c #232336362727",
"z 	c #1A1A26261C1C",
"x 	c #DFDFE6E6E4E4",
"c 	c #D7D7E2E2DCDC",
"v 	c #CDCDDADAD4D4",
"b 	c #65657E7E6C6C",
"n 	c #4A4A5E5E5050",
"m 	c #414156564444",
"M 	c #E8E8EEEEEAEA",
"N 	c #EDEDF2F2ECEC",
"B 	c #E2E2EAEAE4E4",
"V 	c #D2D2DEDED4D4",
"C 	c #CECEDEDED4D4",
"Z 	c #A6A6B6B6ACAC",
"A 	c #9696AAAA9C9C",
"S 	c #3A3A4E4E4444",
"D 	c #1C1C32322424",
"F 	c #F4F4F6F6F4F4",
"G 	c #F6F6FAFAF4F4",
"H 	c #C2C2CECEC4C4",
"J 	c #B2B2C6C6BCBC",
"K 	c #9292AAAA9C9C",
"L 	c #8E8EA6A69494",
"P 	c #6A6A8A8A7474",
"I 	c #565676766464",
"U 	c #4E4E66665454",
"Y 	c #4E4E62625454",
"T 	c #70707A7A7070",
"R 	c #19192A2A1C1C",
"E 	c #FAFAFAFAFCFC",
"W 	c #CACACACACCCC",
"Q 	c #B6B6B6B6B4B4",
"! 	c #B1B1B2B2A9A9",
"~ 	c #B2B2B6B6ACAC",
"^ 	c #AEAEAEAEACAC",
"/ 	c #A8A8AEAEA4A4",
"( 	c #AAAAB2B2ACAC",
") 	c #7A7A96968484",
"_ 	c #5E5E7A7A6464",
"` 	c #4E4E6A6A5454",
"' 	c #6E6E86867474",
"] 	c #7E7E8A8A8484",
"[ 	c #767682827C7C",
"{ 	c #1A1A36362424",
"} 	c #FEFEFEFEFCFC",
"| 	c #E2E2E2E2E4E4",
" .	c #767672726767",
"..	c #3E3E3E3E3C3C",
"X.	c #42423E3E3636",
"o.	c #464642423A3A",
"O.	c #4A4A46463E3E",
"+.	c #4E4E4A4A4040",
"@.	c #52524E4E4545",
"#.	c #5E5E5A5A5151",
"$.	c #62625E5E5959",
"%.	c #6B6B66665C5C",
"&.	c #727276766C6C",
"*.	c #767692927C7C",
"=.	c #5E5E7E7E6C6C",
"-.	c #525272725C5C",
";.	c #4A4A6A6A5C5C",
":.	c #4A4A4A4A4A4A",
">.	c #333332323131",
",.	c #3A3A36362C2C",
"<.	c #6A6A62625C5C",
"1.	c #868682827474",
"2.	c #8C8C86867C7C",
"3.	c #5A5A5A5A5C5C",
"4.	c #82827E7E7575",
"5.	c #8E8E92928484",
"6.	c #4E4E6E6E5858",
"7.	c #464666665454",
"8.	c #424262624C4C",
"9.	c #40405A5A4C4C",
"0.	c #262642422C2C",
"q.	c #3E3E3A3A3333",
"w.	c #4E4E46463C3C",
"e.	c #565652524A4A",
"r.	c #72726E6E6464",
"t.	c #5A5A52524C4C",
"y.	c #585856565050",
"u.	c #95958E8E8484",
"i.	c #929296968C8C",
"p.	c #7A7A72726C6C",
"a.	c #767686867979",
"s.	c #3A3A5E5E4C4C",
"d.	c #363656564444",
"f.	c #2E2E4E4E3C3C",
"g.	c #1E1E3E3E2C2C",
"h.	c #161632322424",
"j.	c #7E7E7A7A7070",
"k.	c #424242423C3C",
"l.	c #7E7E7E7E7C7C",
"z.	c #6E6E6E6E6C6C",
"x.	c #666666666363",
"c.	c #5E5E5E5E5C5C",
"v.	c #A4A49E9E9292",
"b.	c #A2A29A9A8C8C",
"n.	c #969692928484",
"m.	c #2A2A52523C3C",
"M.	c #1E1E4A4A2C2C",
"N.	c #1E1E46462C2C",
"B.	c #16163A3A2424",
"V.	c #EAEAEAEAEBEB",
"C.	c #4A4A4E4E4444",
"Z.	c #7A7A7A7A7474",
"A.	c #777776767272",
"S.	c #525252525353",
"D.	c #6E6E6A6A6464",
"F.	c #9A9A96968C8C",
"G.	c #8C8C8A8A7C7C",
"H.	c #161646462C2C",
"J.	c #0D0D3E3E2424",
"K.	c #BABABABAB4B4",
"L.	c #8E8E8E8E8C8C",
"P.	c #868686868484",
"I.	c #7A7A7A7A7C7C",
"U.	c #A2A2A2A29494",
"Y.	c #94949A9A9090",
"T.	c #262652523434",
"R.	c #0F0F42422424",
"E.	c #56564E4E4444",
"W.	c #5E5E56564C4C",
"Q.	c #666662625656",
"!.	c #AAAAAAAAACAC",
"~.	c #9A9A9A9A9C9C",
"^.	c #929292929494",
"/.	c #8A8A8A8A8C8C",
"(.	c #6A6A6A6A6C6C",
").	c #4E4E4E4E4B4B",
"_.	c #464646464343",
"`.	c #B4B4AEAEA4A4",
"'.	c #BEBEB6B6ACAC",
"].	c #BABAB2B2A4A4",
"[.	c #B6B6B2B2ACAC",
"{.	c #B2B2B2B2B4B4",
"}.	c #626262626464",
"|.	c #CACAC2C2B4B4",
" X	c #BEBEBEBEACAC",
".X	c #FAFAFEFEFCFC",
"XX	c #A6A6A6A6A4A4",
"oX	c #D6D6D6D6D4D4",
"OX	c #CECECECECCCC",
"+X	c #C2C2C2C2C4C4",
"@X	c #BABABABABCBC",
"#X	c #9E9E9E9E9C9C",
"$X	c #424242424444",
"%X	c #3A3A66664C4C",
"&X	c #0E0E46462424",
"*X	c #EEEEEEEEECEC",
"=X	c #D2D2D2D2D4D4",
"-X	c #DEDEDEDEDCDC",
";X	c #A2A2A2A2A4A4",
":X	c #3A3A3A3A3C3C",
">X	c #2E2E2E2E2C2C",
",X	c #AEAEA6A69C9C",
"<X	c #DADADADADCDC",
"1X	c #BEBEBEBEBCBC",
"2X	c #969696969494",
"3X	c #0A0A3A3A1C1C",
"4X	c #E6E6E6E6E4E4",
"5X	c #727272727272",
"6X	c #353536363434",
"7X	c #18182E2E2020",
"8X	c #161636362424",
"9X	c #161642422424",
"0X	c #06061E1E0C0C",
"qX	c #0E0E32321C1C",
"wX	c #06061A1A0C0C",
"eX	c #2A2A2A2A2C2C",
"rX	c #121222221C1C",
"tX	c #06060A0A0404",
"yX	c #020202020404",
"uX	c #262626262424",
"iX	c #121212121414",
"pX	c #828282828484",
"aX	c #C6C6C6C6C4C4",
"sX	c #222222222424",
"dX	c #0E0E0E0E0C0C",
"                                                                                                ",
"                                                                                                ",
"                                                                                                ",
"                                                                                                ",
"                                                                                                ",
"                                                                                                ",
"                                                    . X o O + @ # $                             ",
"                                              % & * = - ; : > , , < 1                           ",
"                                            2 % & 3 = 4 5 6 O 7 . 8 1 9                         ",
"                                        0 0 q % & w e r 5 + @ t y u 1 i                         ",
"                                  p p a s d f & d g g q X + 8 h j $ k l z                       ",
"                          x x c c v p v s 2 % & % g 0 0 r b # n m $ k i 9                       ",
"                    M N M M B c V v v C s q % e * Z w A ; b 8 h m m S 1 D                       ",
"                F G F N N M x V C v a H J q & w K L = o P : I U Y + T # 1 R                     ",
"              E F F W Q ! ! ~ ^ / / ( s J 2 Z & K = X ) ; : _ ` # ' ] [ n {                     ",
"            } |  ...X.o.o.O.+.@.#.$.%.+.#. .y &.. - X ) *.P =.-.;.@ O t # k                     ",
"            } :.>.,.,.o.+.O.@.@.+.#.%.%.O. .<.#.1.2.3.4.5.; : I 6.7.8.h 9.0.D                   ",
"            } ,.q.X.X.q.q.q.w.@.e.o.e.%.e.e.r.t.2.4.y.u.i.p.4.i.a.` s.d.f.0.g.h.                ",
"            } j.X.o.O.O.+.k.q.X.O.@.t.O.+.O.l.z.x.c.c.r.#. .v.b.n.2.T 7.m.M.N.B.                ",
"              V.X.O.w.C.@.e.@.w.q.,.k.@.Z.Z.A.z.x.c.y.S.S.4.D.%.r.4.u.F.G.7.N.H.J.              ",
"              } K.X.X.X.q.q.X.X.w.X.,.A.L.P.I.&.z.x.c.y.:.e.e.@.@.y.D.4.u.U.Y.T.R.J.            ",
"                } V.r.E.e.W.y.e.+.o.Q.!.~.^./.l.A.(.c.y.)._._.k.#.r.j.u.v.`.'.].6.R.J.          ",
"                    } [.r.Q.%.Q.$.y.'.K.{.!.~./.P.&.}.3.C._.:.>.>.,._.$.4.v.].|. XT.R.          ",
"                      .XF K.y y.Q.XXoXOX+X@X!.#X^.l.(.c.).$X..>...X.O.+.y. .b.`.|.%X&X          ",
"                          *Xx =X~ oX-XoXOXW Q ^ ;X/.z.}.S.$X:X>.>Xo.e.Q. .5.,X'.. &X&X          ",
"                              c c V.| <X=XW @X@XXX^.z.x.).k.,.O.>.>._.#.A.F.U._ R.&XR.          ",
"                                M V.| -XoXW @X1X!.2Xz.3.:...>.o.....k.).< 9.R.R.R.3X            ",
"                                V.4X| oXoX+X1XQ !.L.5X3.:.:X>.6Xz R 7X7X8X9XR.J.0X              ",
"                                B | -XoX=X@X1XQ XXL.5XS.:.:X>.6X7X7X{ 8X8XqXwX                  ",
"                              V.| -X<X=XOX^ 1X^ ;XL.5Xy._.:X>XeX7XrXwXtXyX                      ",
"                              4X-X<XoXOX+X{.Q XX~.P.z.y...:X>XuXiXyXyXyXyXyXyX                  ",
"                            | oXoX=XOXW Q {.{.XX2XpXz.y...6X>XuXuXyXyXyXyXyXyXyX                ",
"                            | OX+X=XW aX^ {.!.#X^.I.(.S...6X>XuXuXyXyXyXyXyXyXyXyX              ",
"                            -X=XQ OXaX@XXX^ XX~.L.I.}.S...6X>XeXeXyXyXyXyXyXyXyXyX              ",
"                            <X=X!.aX+XQ XX^ ;X^.P.z.x.S.:X>.>XeXuXyXyXyXyXyXyXyXyXyX            ",
"                            =XOX^ {.1X{.~.XX~.L.I.(.c.).:X6X>.eXsXyXyXyXyXyXyXyXyXyX            ",
"                            OXW Q ~.Q ;X~.#X^.pXc.(.3.).:X6X>.>XyXyXyXyXyXyXyXyXyXyX            ",
"                            W +X1XP.XX~.^.2XpX3.z.x.3.).6X6X>.sXyXyXyXyXyXyXyXyXyX              ",
"                            @X@XQ ^.^.^././.(.c.(.c.y._.:X..>.yXyXyXyXyXyXyXyXyXyX              ",
"                              @X^ 2XI./.l.&._.(.x.3.S._...eXyXyXyXyXyXyXyXyXyXyXyX              ",
"                              #X!.#Xx.A.I.c.S.x.}.3.).6XdXyXyXyXyXyXyXyXyXyXyXyX                ",
"                                x./.pXS.x.S.).x.:.6XiXyXyXyXyXyXyXyXyXyXyXyXyX                  ",
"                                      $X6X>.yXyXyXyXyXyXyXyXyXyXyXyXyXyX                        ",
"                                            yXyXyXyXyXyXyXyXyX                                  ",
"                                                                                                ",
"                                                                                                ",
"                                                                                                ",
"                                                                                                "};
