/* XPM */
static char * image_name[] = {
"20 20 186 2",
"  	c #CECECECECCCC",
". 	c #C2C2C6C6C4C4",
"X 	c #BEBEC2C2C4C4",
"o 	c #BEBEC2C2BCBC",
"O 	c #C2C2C2C2C4C4",
"+ 	c #C6C6C6C6C4C4",
"@ 	c #BABABEBEBCBC",
"# 	c #C6C6CACACCCC",
"$ 	c #86868A8A8C8C",
"% 	c #9A9AA2A2A4A4",
"& 	c #9A9A9E9E9C9C",
"* 	c #92929A9A9494",
"= 	c #929296969494",
"- 	c #96969E9E9C9C",
"; 	c #96969A9A9C9C",
": 	c #8E8E96969494",
"> 	c #8E8E92929494",
", 	c #82828A8A8C8C",
"< 	c #8A8A92929494",
"1 	c #4E4E52525454",
"2 	c #969696968C8C",
"3 	c #92929A9A9C9C",
"4 	c #828286868484",
"5 	c #82828A8A8484",
"6 	c #7E7E82828484",
"7 	c #7E7E82827C7C",
"8 	c #86868E8E8C8C",
"9 	c #4A4A4E4E4C4C",
"0 	c #72728A8A9C9C",
"q 	c #6A6A8686A4A4",
"w 	c #767692928C8C",
"e 	c #828296967C7C",
"r 	c #82828E8E8484",
"t 	c #767686866C6C",
"y 	c #6A6A76766464",
"u 	c #76767A7A7474",
"i 	c #8A8A8E8E8C8C",
"p 	c #86868A8A8484",
"a 	c #5E5E8282A4A4",
"s 	c #8A8AA6A6BCBC",
"d 	c #D2D2D2D2BCBC",
"f 	c #9696AAAAACAC",
"g 	c #868696969494",
"h 	c #A2A2A2A28C8C",
"j 	c #929292927C7C",
"k 	c #A2A2A2A27474",
"l 	c #96968E8E6464",
"z 	c #727276767474",
"x 	c #9A9AA2A29C9C",
"c 	c #5E5E8686A4A4",
"v 	c #CACAD6D6CCCC",
"b 	c #FAFAFAFADCDC",
"n 	c #FAFAFAFAE4E4",
"m 	c #F2F2F2F2C4C4",
"M 	c #CECEDADACCCC",
"N 	c #AAAAB6B6ACAC",
"B 	c #D6D6CECE9C9C",
"V 	c #B6B6B2B28484",
"C 	c #5A5A5E5E5C5C",
"Z 	c #7A7A7E7E7C7C",
"A 	c #424246464444",
"S 	c #6A6A82829494",
"D 	c #7A7A9E9EBCBC",
"F 	c #F6F6F6F6D4D4",
"G 	c #FAFAFAFAD4D4",
"H 	c #F2F2F6F6D4D4",
"J 	c #CECECECE9C9C",
"K 	c #EAEAE6E6A4A4",
"L 	c #AEAEA6A67C7C",
"P 	c #6A6A6A6A5C5C",
"I 	c #6A6A6A6A6C6C",
"U 	c #46464A4A4C4C",
"Y 	c #9E9EA2A2A4A4",
"T 	c #4A4A7A7AA4A4",
"R 	c #6E6E9696B4B4",
"E 	c #BABAC6C6A4A4",
"W 	c #D6D6DADAB4B4",
"Q 	c #EAEAEEEEC4C4",
"! 	c #FAFAF6F6CCCC",
"~ 	c #FAFAF2F2BCBC",
"^ 	c #AEAEAEAEA4A4",
"/ 	c #EEEEE6E6A4A4",
"( 	c #626266665454",
") 	c #6A6A6A6A5454",
"_ 	c #626266666464",
"` 	c #7A7A82828484",
"' 	c #46467676ACAC",
"] 	c #4E4E8686BCBC",
"[ 	c #5A5A8E8EBCBC",
"{ 	c #6E6E9696ACAC",
"} 	c #9A9ABABA9494",
"| 	c #9696B2B28C8C",
" .	c #BABABEBE8C8C",
"..	c #D6D6C2C29494",
"X.	c #BEBEB2B28484",
"o.	c #424256566464",
"O.	c #26263A3A4C4C",
"+.	c #56565A5A4C4C",
"@.	c #3A3A3E3E3C3C",
"#.	c #3E3E7272A4A4",
"$.	c #4A4A8282B4B4",
"%.	c #62628686A4A4",
"&.	c #BABABABA9494",
"*.	c #BEBEBABA8C8C",
"=.	c #BABAB2B27C7C",
"-.	c #C2C2AEAE7C7C",
";.	c #6E6E76767474",
":.	c #9E9E9E9E9C9C",
">.	c #AAAAA6A6A4A4",
",.	c #66666E6E6C6C",
"<.	c #3A3A6A6A9C9C",
"1.	c #56567E7E9C9C",
"2.	c #D6D6CECEACAC",
"3.	c #A6A69A9A7474",
"4.	c #4E4E62627474",
"5.	c #AAAAAAAAA4A4",
"6.	c #8E8E8E8E8484",
"7.	c #A6A6A2A29C9C",
"8.	c #BABABABAACAC",
"9.	c #464646464444",
"0.	c #3E3E3E3E3C3C",
"q.	c #3E3E62628C8C",
"w.	c #A2A2A6A67C7C",
"e.	c #86868A8A6C6C",
"r.	c #4E4E5E5E6C6C",
"t.	c #8E8E8A8A8484",
"y.	c #9A9A96968C8C",
"u.	c #BABABABAB4B4",
"i.	c #C2C2BEBEBCBC",
"p.	c #32323A3A3C3C",
"a.	c #2E2E5A5A8C8C",
"s.	c #363662628C8C",
"d.	c #424266668484",
"f.	c #DEDED6D6ACAC",
"g.	c #CACABEBE8C8C",
"h.	c #8E8E8E8E6C6C",
"j.	c #3A3A52526464",
"k.	c #A2A29E9E9494",
"l.	c #C2C2BEBEB4B4",
"z.	c #C6C6C2C2BCBC",
"x.	c #2A2A2E2E3434",
"c.	c #36363A3A3434",
"v.	c #6E6E72727474",
"b.	c #32324E4E6C6C",
"n.	c #2A2A4E4E7474",
"m.	c #262642425C5C",
"M.	c #5A5A66666C6C",
"N.	c #A2A2A2A29C9C",
"B.	c #CECECACAC4C4",
"V.	c #2E2E32322C2C",
"C.	c #36363A3A3C3C",
"Z.	c #2A2A42425C5C",
"A.	c #222242426C6C",
"S.	c #1E1E42427474",
"D.	c #1E1E3E3E6464",
"F.	c #1E1E3A3A5454",
"G.	c #D2D2CECECCCC",
"H.	c #2A2A2E2E2C2C",
"J.	c #323236363434",
"K.	c #76767A7A7C7C",
"L.	c #56565A5A5C5C",
"P.	c #2E2E3E3E5454",
"I.	c #22223E3E5C5C",
"U.	c #1E1E3A3A5C5C",
"Y.	c #1E1E3E3E5C5C",
"T.	c #969692928C8C",
"R.	c #D2D2D2D2CCCC",
"E.	c #DADADADAD4D4",
"W.	c #E2E2DEDEDCDC",
"Q.	c #525256565454",
"!.	c #3E3E42424444",
"~.	c #2A2A32323C3C",
"^.	c #626262626464",
"/.	c #DEDEDADADCDC",
"(.	c #E2E2E2E2DCDC",
").	c #E6E6E6E6E4E4",
"_.	c #3A3A3A3A3C3C",
"`.	c #5E5E5E5E5C5C",
"'.	c #8E8E8E8E8C8C",
"].	c #929292929494",
"[.	c #A2A2A6A6A4A4",
"{.	c #62626A6A6464",
"}.	c #5E5E62626464",
"|.	c #4E4E52524C4C",
" X	c #46464A4A4444",
".X	c #424242424444",
"  . X X o O . . . . + . o @ @ . # + @ $ ",
". % & * = - & & & ; : > , , = & ; < = 1 ",
"O ; 2 - = 3 = < 4 , 5 6 7 $ = ; 8 * = 9 ",
"X % : ; = = 0 q w e r t y u i p > = - 1 ",
"o & > 3 i a s d f g h j k l z z i & x 9 ",
"X - 3 > c v b n m M N B B V l C Z ; i A ",
"X ; ; S D F n b b G H J K L l P I 4 4 U ",
"@ Y * T R E W Q m ! ~ ^ / V ( ) 9 _ ` 9 ",
"@ Y i ' ] [ { } |  ...X.k o.O.+.@.C Z U ",
"o % Z #.$.] %.&.*.=.X.-.4 ;.7 j :.>.,.A ",
". 3 ` <.' T 1.2...-.3.4.p 5.6.7.8.8.9.0.",
"+ : 7 q.<.<.a B ..w.e.r.t.t.y.5.u.i.p.@.",
"+ : $ 4.a.s.d.f.g.h.j.z y.2 k.^ l.z.x.c.",
". > i v.b.n.n.r l j.m.M.N.k.5.u.+ B.V.C.",
"# = > Z C Z.A.S.A.D.F.4.>.k.^ B.G.G.H.J.",
". ; = i K.L.P.I.U.F.Y.M.7.T.z.R.E.W.x.J.",
". = : : $ v.Q.!.p.~.~.^.z.z./.W.(.).J._.",
". * = ; & p v._ Q.9 9.`.> '.'.'.].t._.@.",
"+ = ; [.- 8 6 6 Z K.,.{.}.Q.1 A A U 1 !.",
"i |.|.Q.9  X X9 9 U A 9. XA A .X!.!.!.0."};
