/* XPM */
static char * image_name[] = {
"48 48 245 2",
"  	c None",
". 	c #4E4E72728C8C",
"X 	c #606078788484",
"o 	c #363666669E9E",
"O 	c #6A6A82828C8C",
"+ 	c #8E8E8C8C7474",
"@ 	c #6C6C7C7C7878",
"# 	c #74747A7A7777",
"$ 	c #6E6E6E6E6C6C",
"% 	c #34346C6CA6A6",
"& 	c #3C3C7676BCBC",
"* 	c #82829A9A9494",
"= 	c #86869E9E7070",
"- 	c #8A8AA6A67C7C",
"; 	c #7C7C9A9A7C7C",
": 	c #7A7A92927474",
"> 	c #8E8EA0A07474",
", 	c #76768E8E6060",
"< 	c #777785856767",
"1 	c #59595C5C4C4C",
"2 	c #3A3A7E7EC4C4",
"3 	c #5A5A8E8EBCBC",
"4 	c #B3B3B5B59C9C",
"5 	c #9696A4A48484",
"6 	c #78789A9AA4A4",
"7 	c #78789595A4A4",
"8 	c #8E8E9A9A7C7C",
"9 	c #868696966464",
"0 	c #6A6A86865454",
"q 	c #66667A7A5454",
"w 	c #424252523434",
"e 	c #3F3F6C6C9C9C",
"r 	c #49497D7DB5B5",
"t 	c #D6D6D6D6BCBC",
"y 	c #A4A4ACACA0A0",
"u 	c #6E6E8E8EACAC",
"i 	c #949494949090",
"p 	c #ACACABAB9E9E",
"a 	c #B6B6AAAA7474",
"s 	c #A3A39E9E8787",
"d 	c #6A6A72727070",
"f 	c #7E7E86866C6C",
"g 	c #ABABA3A38181",
"h 	c #8D8D86866767",
"j 	c #767672724444",
"k 	c #46467676AAAA",
"l 	c #4C4C8383B8B8",
"z 	c #62628A8AACAC",
"x 	c #FAFAFAFAE8E8",
"c 	c #FEFEFAFAD1D1",
"v 	c #FEFEFEFED7D7",
"b 	c #BEBECACAC4C4",
"n 	c #57578585A7A7",
"m 	c #8B8B93939494",
"M 	c #D1D1B9B99797",
"N 	c #C5C5BDBD9C9C",
"B 	c #9C9C96969090",
"V 	c #8E8E8E8E8888",
"C 	c #C5C5B5B57474",
"Z 	c #D0D0C4C48C8C",
"A 	c #A7A799996060",
"S 	c #363636363636",
"D 	c #41417A7AB2B2",
"F 	c #F5F5F4F4BCBC",
"G 	c #FAFAFAFAD5D5",
"H 	c #FAFAF6F6BCBC",
"J 	c #BCBCC6C6A7A7",
"K 	c #8282A2A2ACAC",
"L 	c #9696AEAEB4B4",
"P 	c #7C7C8C8C8C8C",
"I 	c #ADADA5A59797",
"U 	c #CBCBB7B78989",
"Y 	c #E9E9D3D39898",
"T 	c #E2E2CCCC9999",
"R 	c #AAAAB2B28C8C",
"E 	c #C4C4BCBC8080",
"W 	c #C4C4AEAE7878",
"Q 	c #272727272424",
"! 	c #D2D2DCDCD0D0",
"~ 	c #FEFEFEFEECEC",
"^ 	c #E6E6E6E6CCCC",
"/ 	c #A9A9BDBD9999",
"( 	c #E0E0D3D3A5A5",
") 	c #FCFCFAFABABA",
"_ 	c #F6F6EBEBA7A7",
"` 	c #D2D2CACA9494",
"' 	c #818177775757",
"] 	c #3A3A6A6A9E9E",
"[ 	c #76769E9EBCBC",
"{ 	c #E6E6DEDEB4B4",
"} 	c #FAFAF3F3A7A7",
"| 	c #BCBCB4B48080",
" .	c #93938E8E6767",
"..	c #5F5F5D5D4C4C",
"X.	c #BABABEBE9898",
"o.	c #B6B6BABA9999",
"O.	c #E1E1DDDDA8A8",
"+.	c #BCBCB4B49191",
"@.	c #84847E7E5858",
"#.	c #212124242626",
"$.	c #52528585B5B5",
"%.	c #D0D0CCCCB4B4",
"&.	c #9C9C9C9C7F7F",
"*.	c #7A7A7E7E6464",
"=.	c #030303030404",
"-.	c #C1C1CBCB9F9F",
";.	c #E8E8E4E4A4A4",
":.	c #F1F1EBEBAFAF",
">.	c #76768C8C9090",
",.	c #F4F4E6E6A0A0",
"<.	c #60606B6B6C6C",
"1.	c #737373735C5C",
"2.	c #8E8EA4A4A8A8",
"3.	c #B2B2C2C2A0A0",
"4.	c #DEDEE2E2ACAC",
"5.	c #F2F2E4E4B0B0",
"6.	c #94949C9C9090",
"7.	c #616163635757",
"8.	c #2C2C3D3D4D4D",
"9.	c #6E6E6D6D4C4C",
"0.	c #3A3A3B3B3A3A",
"q.	c #51518A8ABCBC",
"w.	c #57578A8AB8B8",
"e.	c #62629292B4B4",
"r.	c #9E9EBBBB9191",
"t.	c #A2A2C2C29494",
"y.	c #C8C8C4C4A0A0",
"u.	c #D8D8CBCB9D9D",
"i.	c #9C9C94947C7C",
"p.	c #2D2D44445959",
"a.	c #3D3D44444444",
"s.	c #8888AEAE8888",
"d.	c #7B7B84847E7E",
"f.	c #8C8C86867474",
"g.	c #2D2D4D4D6E6E",
"h.	c #323244445353",
"j.	c #A5A5A2A28787",
"k.	c #84848C8C8F8F",
"l.	c #7E7E8A8A8484",
"z.	c #51515B5B6161",
"x.	c #464654545B5B",
"c.	c #4D4D53534C4C",
"v.	c #68686B6B5656",
"b.	c #0C0C0C0C0C0C",
"n.	c #3F3F7373A9A9",
"m.	c #929284846868",
"M.	c #DEDECECEACAC",
"N.	c #575755554B4B",
"B.	c #50504C4C3B3B",
"V.	c #49494A4A4141",
"C.	c #4B4B45453F3F",
"Z.	c #616164646666",
"A.	c #8C8C92928484",
"S.	c #595962625959",
"D.	c #48484B4B4D4D",
"F.	c #141414141414",
"G.	c #1A1A1A1A1C1C",
"H.	c #54547E7EA8A8",
"J.	c #D2D2C5C5A9A9",
"K.	c #CBCBBEBE9797",
"L.	c #9C9C8D8D7474",
"P.	c #666662625757",
"I.	c #56564E4E3C3C",
"U.	c #444444444141",
"Y.	c #30303A3A3E3E",
"T.	c #17172C2C4040",
"R.	c #252534343E3E",
"E.	c #3B3B4C4C5656",
"W.	c #747474747171",
"Q.	c #323232323737",
"!.	c #373763639191",
"~.	c #4A4A7B7BABAB",
"^.	c #AAAA96967474",
"/.	c #BCBC94948888",
"(.	c #B5B58E8E8080",
").	c #9E9E66664C4C",
"_.	c #27272E2E2F2F",
"`.	c #2B2B35353838",
"'.	c #4E4E4E4E5656",
"].	c #69696D6D6C6C",
"[.	c #676766666464",
"{.	c #30305D5D8D8D",
"}.	c #484874749C9C",
"|.	c #606084849C9C",
" X	c #C7C7A6A69F9F",
".X	c #B6B686867474",
"XX	c #AAAA6A6A5454",
"oX	c #626246463C3C",
"OX	c #3B3B55556B6B",
"+X	c #34344C4C6262",
"@X	c #21212D2D3535",
"#X	c #2F2F2E2E2D2D",
"$X	c #A2A29E9E6C6C",
"%X	c #C5C5B5B59F9F",
"&X	c #1E1E1E1E1C1C",
"*X	c #25254C4C7878",
"=X	c #BABAAAAA9898",
"-X	c #C2C29A9A9494",
";X	c #767662625454",
":X	c #4A4A5B5B6969",
">X	c #3E3E5A5A7070",
",X	c #24243D3D5757",
"<X	c #1A1A3A3A5C5C",
"1X	c #404066668888",
"2X	c #686860604848",
"3X	c #8A8A7E7E7474",
"4X	c #B2B29E9E7878",
"5X	c #292955558080",
"6X	c #46466A6A9494",
"7X	c #BABAAEAE8484",
"8X	c #59595D5D5E5E",
"9X	c #868676766C6C",
"0X	c #86866A6A5454",
"qX	c #1F1F44447373",
"wX	c #36365E5E8989",
"eX	c #F4F4DEDEA4A4",
"rX	c #525253535A5A",
"tX	c #191923232F2F",
"yX	c #525236362C2C",
"uX	c #B4B4AEAE8888",
"iX	c #B4B4ACAC9C9C",
"pX	c #A5A5A5A5A4A4",
"aX	c #242418181414",
"sX	c #9A9A5E5E4C4C",
"dX	c #2E2E56568080",
"fX	c #7D7D7E7E7676",
"gX	c #43435B5B6F6F",
"hX	c #464655556666",
"jX	c #10101C1C2424",
"kX	c #0C0C13131A1A",
"lX	c #20203E3E6767",
"zX	c #52526A6A7C7C",
"xX	c #C6C6A2A28484",
"cX	c #7E7E6E6E6C6C",
"vX	c #7A7A7A7A7C7C",
"bX	c #262646466E6E",
"nX	c #252543436060",
"mX	c #9B9B9B9B9C9C",
"MX	c #848485858080",
"NX	c #5E5E5E5E6464",
"BX	c #3E3E3D3D3A3A",
"VX	c #1E1E36365757",
"CX	c #36363C3C4848",
"ZX	c #282826264040",
"AX	c #424242425454",
"                                                                                                ",
"                                                                                                ",
"                                                                                                ",
"                                                                                                ",
"                                                                                                ",
"                                                                                                ",
"                                                                                                ",
"                                      . X o O + @ # $                                           ",
"                                % & & * = - = ; : > : , < 1                                     ",
"                            % 2 3 4 5 6 7 5 > 5 > = 8 9 0 0 q w                                 ",
"                          e 2 r 4 t y 6 u u i p a s d f g a a h j                               ",
"                        k l z t x c v c b z n i m M N B V C 8 Z C A S                           ",
"                      D l b F G x x x x H J K L z P I U Y T p R E W A Q                         ",
"                    & l ! v G ~ ~ ~ c x c G x x ^ / 8 ( ) _ ` 8 E C A '                         ",
"                  ] r [ x x x x x v v v G G G G ~ G { _ ) } T Z | A A  ...                      ",
"                  D l ! x ~ ~ ~ v G x G G H v ~ x v X.o._ ) O.+.| A A @. .#.                    ",
"                % r $.%.O.H G c v v ~ x ~ G G ~ x v O.P ` _ } + &.&.A @.*...=.                  ",
"                D l $./ X.-.;.F G c x ~ G v G x G ) :.>.X.,.} ;.| <.1.h ' 1.=.                  ",
"                D r l 2.3.J J -.-.4.H F :.H ) ) H } 5.s 6.,.} _ Y 7.8.7.9.9.0.=.                ",
"              % D l q.w.e.6 e.K r.t.r.r.r.y.u.Y Y T M | i.` ` g # p.8.8.1 9.a.=.                ",
"              o r r q.q.q.3 w.w.7 r.s.s.: < p g f @ d. .f.d d g.g.p.p.h.1 9.a.=.=.              ",
"              % D r l $.w.q.$.n 2./ r.s.< %.N j.f d.k.k.l.l.@.z.x.x.h.h.c.v.8.b.b.              ",
"              o n.l l l $.q.$.$.6.X.o.R m.M.i.7.N.B.V.C.Z.P m m A.d.S.Z.D.z.p.F.F.G.            ",
"              o n.& r r l l H.H.z J.K.| m.M L.P.B.c.I.I.U.Y.T.R.E.z.<.l.l.d.W.U.Q.Q.Q           ",
"              !.e k ~.~.~.~.~.~.H.%.u.^./.(.).C.C.I...V.p.8.R.R.R._._.`.'.z.].# f L.[.#.        ",
"              {.% n.n.k ~.}.~.}.|.( { L. X.XXXoXV.I.c.OXOXOX+X8.8.Y.R.@X@XR.Y.#XW.$X%X&XG.      ",
"              *X!.] e n.k }.. }.o.( { =X X-X(.;XU.N.:X>XOXOX+Xh.p.h.8.8.R.,X@XF.#X..N b.F.      ",
"              <X{.o e e e e e 1Xy.u.M.m.' 2XB.C.C.2X].z.OX+X+X+Xp.h.p.a.a.8.S C.3X4X=Xb.b.      ",
"                5X{.!.o ] ] 6X1Xm u.( ` 7X+ 7.1 1 v.A.<.8X+Xp.+Xp.p.x.l.a.a.9X=X%X(.0XF.b.      ",
"                qX{.wXwX!.!.!.wXX 5.eXT +.$Xh <.S.:X&.B W.rXx.w x.z.A.W.,XtXS (./.).yXF.b.      ",
"                  *X{.{.{.wX!.{.1X^ ,.u.+.uXA d OXOX# p p iXK.N pXB P.@X@XF.=.aXXXsXaX=.b.      ",
"                  <X*X5X5X5X5X{.dXy ,.T U uXfXgXdXhX1.z.8.h.j.&.Y._.tXjXkX=.=.=.b.F.b.=.F.      ",
"                    lX*X*Xg.*Xg.g.zXM U xXcX+Xg.g.g.z.<.W.W.vXvX<.'.S `.=.=.=.=.=.=.=.=.        ",
"                    kX,X*XbX*X*X*X*X*Xg.h.nXqXnXbXg.mXp mXm i MXW.N.a.Q =.=.=.=.=.=.  =.        ",
"                      F.,X,X,XnXqXqXqXqXqXlXlXnXp.z.i NXD.U.U.U.BXS Q.`.#.=.=.=.=.    =.&X      ",
"                        kXVXlXlXlXqXqXqXlXlXnXnXg.# 8XCXU.rXW.d.].1 a.Q.`.=.=.=.=.      =.      ",
"                          =.tXqXlX<X,X<XlX,XnX+Xz.Z.a.Z.A.S.<.fXMX$ $ 0.S @X=.=.=.      =.      ",
"                            =.b.T.lX<XlX<XlXnXZ.Z.D.N.# 8Xc.D.D.W.V v.U.S 0.#.=.=.=.    =.      ",
"                              =.=.b.jXT.VX,XOXMXz.0.W.pXV Z.'.c.MXB vXU.S Q.Q &X=.=.b.b.        ",
"                                  =.=.=.=.b.$ vXU.BX[.pXp fXmXpX%Xi Z.0.ZXQ.0.BXb.=.=.=.        ",
"                                    =.=.=.b.[.Z.D.U.'.NX[.W.MXMXi.L.'.0.ZXQ.U.#X=.=.=.=.&X      ",
"                                          F.'.8XNXNX8X'.AXAXD.'.'.rX'.'.'.'.'.CX=.=.=.=.=.      ",
"                                            D.'.'.C.AXCX0.S S S Q.S S S S S S b.=.=.b.=.=.=.    ",
"                                                Q.Q.Q #.G.F.F.b.b.b.b.b.b.=.=.=.=.=.b.=.=.      ",
"                                                  S Q.#X_.&X&XG.F.F.b.b.b.kXb.b.b.              ",
"                                                                                                ",
"                                                                                                ",
"                                                                                                "};
