/* XPM */
static char * image_name[] = {
"48 48 245 2",
"  	c #C6C6CACAC6C6",
". 	c #BBBBBEBEBCBC",
"X 	c #BABABABABCBC",
"o 	c #B5B5BABAB9B9",
"O 	c #BEBEC2C2C3C3",
"+ 	c #C2C2C2C2C4C4",
"@ 	c #B4B4B6B6B3B3",
"# 	c #C3C3C6C6C4C4",
"$ 	c #A8A8AEAEABAB",
"% 	c #EFEFF2F2F0F0",
"& 	c #EAEAEAEAEBEB",
"* 	c #D2D2D2D2D4D4",
"= 	c #CECED2D2D2D2",
"- 	c #CDCDCECECCCC",
"; 	c #CCCCD6D6CCCC",
": 	c #D5D5D6D6D4D4",
"> 	c #D6D6DADAD7D7",
", 	c #DDDDDEDEDCDC",
"< 	c #E2E2E2E2E4E4",
"1 	c #DADADADADCDC",
"2 	c #DDDDE2E2E1E1",
"3 	c #76767A7A7C7C",
"4 	c #505052525454",
"5 	c #BABAC6C6BCBC",
"6 	c #A8A8AAAAACAC",
"7 	c #A2A2AAAAA4A4",
"8 	c #A6A6A6A6A4A4",
"9 	c #9E9EA2A2A4A4",
"0 	c #A1A1A6A6A4A4",
"q 	c #AAAAB2B2ACAC",
"w 	c #9A9AA2A29C9C",
"e 	c #99999E9E9C9C",
"r 	c #92929A9A9494",
"t 	c #8F8F92929494",
"y 	c #868696968C8C",
"u 	c #8B8B8E8E8C8C",
"i 	c #808086868484",
"p 	c #86868E8E8C8C",
"a 	c #8A8A92929090",
"s 	c #909096969494",
"d 	c #96969A9A9C9C",
"f 	c #55555A5A5A5A",
"g 	c #4A4A4E4E4C4C",
"h 	c #979796969191",
"j 	c #82828A8A8787",
"k 	c #3E3E42424444",
"l 	c #46464A4A4B4B",
"z 	c #3C3C3E3E3C3C",
"x 	c #424246464444",
"c 	c #7B7B82827A7A",
"v 	c #6D6D7A7A7474",
"b 	c #AEAEBABAB4B4",
"n 	c #AEAEB2B2B2B2",
"m 	c #8A8A9A9A9090",
"M 	c #7E7E92928484",
"N 	c #6C6C86867474",
"B 	c #5E5E76766464",
"V 	c #5E5E72726464",
"C 	c #5A5A6A6A5C5C",
"Z 	c #4B4B5E5E5252",
"A 	c #86868A8A8C8C",
"S 	c #9E9EB2B2A4A4",
"D 	c #9A9AAEAEA4A4",
"F 	c #8E8EA6A69494",
"G 	c #82829E9E8C8C",
"H 	c #73738A8A7C7C",
"J 	c #6A6A7E7E6C6C",
"K 	c #55555E5E5858",
"L 	c #3C3C4E4E4040",
"P 	c #AEAEC2C2B4B4",
"I 	c #AAAABEBEB4B4",
"U 	c #A2A2B6B6ABAB",
"Y 	c #9696AAAA9C9C",
"T 	c #8989A2A29494",
"R 	c #61617A7A6969",
"E 	c #737382827777",
"W 	c #8E8EA2A29494",
"Q 	c #90909E9E8C8C",
"! 	c #2E2E3E3E3434",
"~ 	c #AEAEB6B6B4B4",
"^ 	c #B5B5C6C6BCBC",
"/ 	c #A7A7BABAACAC",
"( 	c #86869E9E8F8F",
") 	c #66667E7E6C6C",
"_ 	c #414156564444",
"` 	c #2F2F42423434",
"' 	c #26263A3A2C2C",
"] 	c #36363A3A3A3A",
"[ 	c #C2C2CECEC4C4",
"{ 	c #C6C6D2D2CCCC",
"} 	c #BABACACAC2C2",
"| 	c #B3B3C2C2BABA",
" .	c #BEBECECEC4C4",
"..	c #BEBECACAC4C4",
"X.	c #60607E7E6C6C",
"o.	c #56566E6E5C5C",
"O.	c #4D4D62625454",
"+.	c #4A4A5A5A5454",
"@.	c #36364A4A3C3C",
"#.	c #242436362828",
"$.	c #D6D6E2E2DCDC",
"%.	c #CDCDDADAD4D4",
"&.	c #424252524C4C",
"*.	c #E8E8EEEEEAEA",
"=.	c #E2E2EAEAE4E4",
"-.	c #9696AEAE9C9C",
";.	c #9292AAAA9C9C",
":.	c #75758E8E7C7C",
">.	c #6A6A72727070",
",.	c #343436363434",
"<.	c #F4F4F6F6F4F4",
"1.	c #DFDFE6E6E4E4",
"2.	c #D2D2DEDED4D4",
"3.	c #CECEDEDED4D4",
"4.	c #7A7A96968484",
"5.	c #666682827474",
"6.	c #565676766464",
"7.	c #4C4C6A6A5858",
"8.	c #53536A6A5C5C",
"9.	c #494952524C4C",
"0.	c #73737A7A7272",
"q.	c #464646464343",
"w.	c #F6F6FAFAF4F4",
"e.	c #B2B2B2B2B4B4",
"r.	c #A2A2AEAEA4A4",
"t.	c #5A5A7A7A6C6C",
"y.	c #767686867979",
"u.	c #2A2A3E3E3434",
"i.	c #777772726868",
"p.	c #42423E3E3636",
"a.	c #464642423A3A",
"s.	c #4A4A46463E3E",
"d.	c #4D4D4A4A4141",
"f.	c #50504E4E4848",
"g.	c #5E5E5A5A5151",
"h.	c #676762625757",
"j.	c #676766666161",
"k.	c #5D5D5E5E5C5C",
"l.	c #7E7E82828484",
"z.	c #737376767474",
"x.	c #7A7A9A9A8484",
"c.	c #767692927C7C",
"v.	c #6A6A8A8A7474",
"b.	c #545472726060",
"n.	c #6D6D82827474",
"m.	c #282842423030",
"M.	c #76767E7E7C7C",
"N.	c #707072727373",
"B.	c #AEAEAEAEACAC",
"V.	c #FEFEFEFEFCFC",
"C.	c #3A3A36362C2C",
"Z.	c #3E3E3A3A3333",
"A.	c #56564E4E4444",
"S.	c #5B5B56564C4C",
"D.	c #6E6E66665C5C",
"F.	c #888882827474",
"G.	c #8C8C86867C7C",
"H.	c #7C7C7E7E7C7C",
"J.	c #8E8E92928888",
"K.	c #7A7A8E8E7C7C",
"L.	c #4D4D6E6E5959",
"P.	c #424262624C4C",
"I.	c #4E4E66665454",
"U.	c #3E3E5A5A4C4C",
"Y.	c #B6B6BEBEBCBC",
"T.	c #565652524A4A",
"R.	c #6E6E6A6A6464",
"E.	c #82827E7E7575",
"W.	c #95958E8E8484",
"Q.	c #3A3A5E5E4C4C",
"!.	c #343456564444",
"~.	c #2E2E4E4E3C3C",
"^.	c #1C1C46462C2C",
"/.	c #1C1C3E3E2C2C",
"(.	c #7A7A76766C6C",
").	c #6F6F6E6E6A6A",
"_.	c #626262626464",
"`.	c #5A5A5A5A5C5C",
"'.	c #63635E5E5858",
"].	c #A4A49E9E9292",
"[.	c #A2A29A9A8C8C",
"{.	c #979792928484",
"}.	c #464666665454",
"|.	c #26264A4A3434",
" X	c #161642422424",
".X	c #5C5C66666060",
"XX	c #7C7C7A7A7272",
"oX	c #5E5E62626363",
"OX	c #82827A7A7474",
"+X	c #1E1E4A4A3030",
"@X	c #161646462C2C",
"#X	c #12123E3E2424",
"$X	c #6C6C76767474",
"%X	c #BEBEBEBEACAC",
"&X	c #868686868484",
"*X	c #4A4A4A4A4C4C",
"=X	c #A6A6A2A29898",
"-X	c #96969A9A9090",
";X	c #282852523838",
":X	c #E6E6E6E6E4E4",
">X	c #9E9E9E9E9C9C",
",X	c #8A8A8A8A8C8C",
"<X	c #565656565454",
"1X	c #B4B4AEAEA4A4",
"2X	c #BEBEB6B6ACAC",
"3X	c #B3B3B2B2A9A9",
"4X	c #101042422424",
"5X	c #36365A5A4444",
"6X	c #BBBBBABAB1B1",
"7X	c #313132323333",
"8X	c #363632323131",
"9X	c #BABAB2B2A4A4",
"0X	c #CACAC6C6B4B4",
"qX	c #0E0E46462424",
"wX	c #68686A6A6B6B",
"eX	c #424242424444",
"rX	c #3A3A66664C4C",
"tX	c #CACACACACCCC",
"yX	c #3A3A3A3A3C3C",
"uX	c #2E2E2E2E2C2C",
"iX	c #AEAEA6A69C9C",
"pX	c #A2A2A2A29494",
"aX	c #44445A5A4C4C",
"sX	c #6A6A6E6E6C6C",
"dX	c #EEEEEEEEECEC",
"fX	c #18182A2A1C1C",
"gX	c #16162E2E1C1C",
"hX	c #191936362424",
"jX	c #181832322424",
"kX	c #16163E3E2424",
"lX	c #525256565454",
"zX	c #2A2A2E2E2C2C",
"xX	c #2A2A3A3A3131",
"cX	c #2A2A36363434",
"vX	c #62626A6A6868",
"bX	c #2A2A2A2A2C2C",
"nX	c #828282828282",
"mX	c #242426262424",
"MX	c #26262A2A2C2C",
"NX	c #7A7A7A7A7C7C",
"BX	c #CACAC2C2B4B4",
"VX	c #626266666464",
"CX	c #1E1E1E1E1C1C",
"ZX	c #222222222424",
"AX	c #1E1E22222424",
"    . . . . . . X X o o . . . . O . . . . . . . . O O + O . o @ o @ @ @ o . O O # # # . @ o $ $ ",
"X % & * = = = - = ; : : * = : : : > : : > : : , < , , , , 1 : > : > > > 1 1 , , , 2 , > > X 3 4 ",
"X , 5 $ 6 $ $ 7 8 9 9 0 7 7 $ $ 6 $ $ $ q $ $ w e e r t y u i i i p a s d e 0 0 9 d u p s r f g ",
"@ > 8 t s s s s y a a a t s r d r s d e e e d h d s t s t p j i p a s s e 9 9 d t p p a w u k l ",
"@ > $ t s s h h d r s s d d r d d r d d d s y h s s t a a p j j s s s d e 9 e a j p s d w j z x ",
"@ : q s a d d r e d r h s d s s r d s s s t t r e s y s y c v v i s d w 0 9 s j p s d d e i z l ",
"b : n d a r d d e e r s d e d h d d s t s s s d e r s m M N B V C Z A 9 0 r A A s e d d e i z g ",
"@ > q e s s d s d d s h d d e e d s s a s s e $ S D F G H J J y a K L a w t j a d d d r e p k g ",
"n : $ 9 d a s d d d s s e e e d r t a a r 0 P I U Y T m H R E W Q C ! K d p p r r r s d 0 a k l ",
"@ > $ 9 s p s s e d s d e e e e h s a e ~ ^ P / S U D ( H ) V E E _ ` ' i j a h h s e 0 $ u ] k ",
"~ : $ 9 d p s r e d d e w e d e 7 5 [ { } | b / I  ...| m X.o.O.+.@.! #.g A r r d e 7 $ $ i ] x ",
"@ > 6 e s t d d e e s d $ [ $.2 $.%.; %.} P / U b ..} | W R o.Z &.@.! ' ' p s s d 9 $ $ 9 c ] g ",
"@ > 6 d e s d e d 7 ; % *.*.=.$.> %.%.%.} P U U -.U U ;.:.R o.O._ _ L ` #.>.d r d 9 6 w s 3 ,.l ",
"@ : 7 s s e r 9 > <.% % *.=.1.2.3.%.{ { | I / S ;.W ( 4.H 5.6.7.O.v v 8.! 9.d d 0 6 9 e s 0.,.q.",
"o > 7 t s e 9 *.w.<.- @ e.n @ q $ r.q } | I U S -.F G 4.:.5.t.7.7.y.j E +.u.d e 7 $ 0 e s v ,.x ",
"@ : 0 r d 0 1.< i.p.p.a.s.s.d.f.g.h.j.d.k.i.l.z.m m G x.c.v.X.b.7.B n.E 8.m.M.0 6 9 d d s N.,.g ",
"o > 0 d 9 B.V.s.C.C.Z.p.d.s.A.f.s.S.D.j.d.i.D.g.F.G.g.H.J.K.5.6.L.P.P.I.U.m.L 0 e s a p j >.,.9.",
"@ : 7 e 9 Y.V.Z.Z.Z.p.Z.Z.Z.s.A.S.s.T.h.T.T.R.S.F.E.S.W.h i.E.h y.L.Q.!.~.^./.Z p j p j p M.z 4 ",
"@ * 7 e 9 6 % (.p.a.s.s.d.p.Z.p.a.f.S.s.d.d.H.)._.`.'.).S.(.].[.{.G.0.}.~.|. X/..Xj u a e i z 4 ",
"~ : 0 e 6 0 X & a.a.d.f.A.T.f.s.p.Z.p.d.XX3 i.).j.oXf 4 S.OXR.R.).E.W.h u P.+X@X#X$Xa t d i z g ",
"q = 7 w 6 0 t : %Xp.p.p.p.Z.Z.p.a.p.C.(.u &XH.z.R._.k.4 *X9.A.A.A.S.R.OXW.=X-X;X#X@Xi t r E ] l ",
"B.= 6 9 7 w p i 1 :X).f.T.S.g.T.d.a.j.8 >Xh ,XE.3 R.k.<Xf.s.x a.g.R.XXW.].1X2X3XL.4X5Xa t 3 ,.l ",
"e.= 6 9 9 r i i J.X V.3X).'.D.h.'.S.6X@ B.8 e ,Xi (.j.`.g q.*X7X8XC.s.'.E.].9X0X6X;XqXc t 3 ,.x ",
"o : 0 w e s j j s r 8 1 <.6XE.S.h.=X: - + X 6 >Xt E.wXk.f.eXz 8Xz p.d.g S.i.[.1X0XrXqXV u 0.,.q.",
"O > e 9 d s a p s r e e q , =.; o : , : - tX@ B.9 ,X)._.4 a.yX8XuXa.f.h.i.J.iX2XQ qXqX$Xp 0.,.x ",
"+ > 9 d s d s s h e e -Xe 9 o { 2.& :X1 * tXX . 8 t N.j.f.k ,.s.8XuXs.`.(.{.pX6.qX4X5Xl.i >.,.x ",
"# > 9 d t s s s r e e e e 0 0 9 tX:X:X, : tX2X+ iXt ).k.*Xz ,.a.p.z a.g k.aX4X#XqX!.>.3 l.sX7Xx ",
"O 1 e d s d r t h d 9 e w w 9 e dX:X, 1 * + X @ 6 t N.<X*Xz 7X,.fXfXfXgXhX4X4X+X+..XsX$XM.sX7Xx ",
"# > e s s d r s d r e e d >Xe @ & < 1 1 * . + @ 8 t N.T.*XyX7X7XgXjXhXkXhX|.&.lX`.k.j.N.M.sX7Xx ",
"5 , s r d d d r d d s d e w 9 : < , 1 * - B.X 1X>X,XN.<Xa.,.uXzXxXcX#.,.x q.l g lXf oXwXz.vX7Xk ",
"+ 1 s s d e e e d d e e e 9 n :X< 1 * * . e.X 8 >X&X).<XeXyXuXbXz ,.,.,.k x q.*X4 f .XwXz..X7Xx ",
"# 2.s t r e d d s r d e 9 9 + 1 * * * tXX e.B.8 h nXwX<Xz ,.uXmXyXyX] z yXz k x g lXk.sXN.wX,.x ",
"# 1 s t r e d d t s d e w 0 : - + * tX+ B.e.6 >Xt H.R.4 p.,.uXMX7X] ] yXyXyXz eXf.lXk.vXz.sX,.l ",
"# 1 d s d r e s s t s d e 9 , * 2XtX# X 6 e.iXh t NX_.4 z C.uXmXuX7X7X7X7X] ] z q.g f wXN.vX7Xz ",
"  1 d s d r e r y s s d d B.1 * 6 + BXX ].$ 8 W.&X)._.4 yX8XuXbXuXbXzX7XzX7X,.z eX*X4 oXVXK zXz ",
"# 1 d s s d d d h s d s h 6 * - B.e.. B.>X8 d u NXR._.f.yX7X7XbXuXmXmXmXzX7X,.] k l 4 lXoXf uXz ",
"# 1 e d s d d e h r d r s 0 - tXX d X 9 >X>Xt H.k.wX`.g yXC.7XuXCXZXmXmXmXbX7X] k q.9.f wXoX7Xk ",
"# 2.e d h s d d r s e t t ,XtX+ X nX8 h t h nXk.).j.`.*XyX,.,.zXCXCXCXZXbXzX7XyXk g <X.XsX.X7Xx ",
"+ 1 d r s s r e d s r a p i e.. X W.t W.,X,Xj.k.wX_.<Xq.z yX,.CXCXCXZXZXMXzX,.z x 4 `.VXz.vX,.eX",
"# 1 e s s s s d e s s t ,XH.u 2X6 >XNX,XnXz.*XwXj.`.4 eXyX,.CXCXAXmXmXMXuX7X] k g lXoXsXz.>.cXl ",
"5 1 d h s s s h d d e r u nXz.d 8 >XwXN.NX`.4 j._.`.4 eXbXZXmXMXMXzXuX7X,.yXz q.lXf VXN.NXN.,.l ",
"+ > s d h d s s d e d d A l.3 ).NX,XnX4 j.<Xf._.T.eX7XbXuXuXzXuX7X,.z z eXx *X4 f _.sXz.c $X,.l ",
"# , s r d s s d e 9 e r p i M.>.wXk.<Xk.4 g eXyXyX,.,.,.] ] yXz z k q.l g 4 f k.VXwX$Xl.&X0.,.l ",
"# > e d s s s e 0 0 >Xs A l.3 >.sXVX_.`.<X4 g q.x eXeXk q.l l l f.4 lXf `.k._.sXN.3 nXi t M.z g ",
"# , d s t t r 0 7 0 e s j l.M.$XN.sXwXj._._.oX<X4 4 4 4 f k.f f oXoXj.vXsXsXN.z.c i u a t M.] g ",
"tX- r a t s e 6 0 9 d u j l.M.3 3 3 z.N.>.sXwXvXoXk.oXoXf f f K k.oXoXoXoX.XVXsXN.$X$Xz.0.wX] x ",
". e f 7XcX,.] z z ,.MXmXmXmXZXAXmXmXAXZXAXAXAXCXAXCXCXCXzXbXbXbXzX7XzXuX7X7X7X7X7X7XcX,.,.zXbXl ",
"j lXg x q.g 9.9.g g lX4 g g 9.g g 4 9.9.g f.l l l l g 9.4 lXlXlXlX4 9.4 9.9.4 4 lX<X<Xf lX4 x k."};
