/* XPM */
static char * image_name[] = {
"48 48 240 2",
"  	c #C6C6CACAC6C6",
". 	c #BABABEBEBCBC",
"X 	c #BABABABABABA",
"o 	c #B6B6BABABCBC",
"O 	c #BEBEC2C2C4C4",
"+ 	c #BEBEBEBEBCBC",
"@ 	c #C2C2C2C2C3C3",
"# 	c #B2B2B6B6B4B4",
"$ 	c #B2B2BABAB4B4",
"% 	c #C2C2C6C6C4C4",
"& 	c #ACACAEAEACAC",
"* 	c #EEEEF2F2F4F4",
"= 	c #EAEAEAEAECEC",
"- 	c #D2D2D2D2D3D3",
"; 	c #CECED2D2D3D3",
": 	c #CACACECECCCC",
"> 	c #D2D2D6D6D4D4",
", 	c #D6D6D6D6D4D4",
"< 	c #D6D6DADAD7D7",
"1 	c #DEDEDEDEDCDC",
"2 	c #E2E2E2E2E4E4",
"3 	c #DADADEDEDCDC",
"4 	c #DADADADADCDC",
"5 	c #72727A7A7777",
"6 	c #4E4E52525353",
"7 	c #AAAAAAAAABAB",
"8 	c #A6A6AEAEACAC",
"9 	c #A2A2AAAAA4A4",
"0 	c #A4A4A6A6A4A4",
"q 	c #9E9EA2A2A4A4",
"w 	c #A2A2A2A2A3A3",
"e 	c #9E9EA6A6A4A4",
"r 	c #A6A6AAAAABAB",
"t 	c #AAAAB2B2ACAC",
"y 	c #9A9AA2A29C9C",
"u 	c #9A9A9E9E9C9C",
"i 	c #92929A9A9494",
"p 	c #8E8E92929494",
"a 	c #8E8E96969494",
"s 	c #86868E8E8C8C",
"d 	c #828286868484",
"f 	c #7E7E86868484",
"g 	c #8A8A92928F8F",
"h 	c #96969A9A9C9C",
"j 	c #8A8A8E8E8C8C",
"k 	c #929296969494",
"l 	c #52525A5A5454",
"z 	c #4A4A4E4E4C4C",
"x 	c #96969E9E9C9C",
"c 	c #969696969494",
"v 	c #929292929393",
"b 	c #82828A8A8686",
"n 	c #3E3E42424444",
"m 	c #46464A4A4C4C",
"M 	c #86868A8A8B8B",
"N 	c #3A3A3E3E3C3C",
"B 	c #424246464444",
"V 	c #AEAEB2B2B2B2",
"C 	c #9E9E92928787",
"Z 	c #AEAE9E9E8E8E",
"A 	c #C5C5B6B6A4A4",
"S 	c #CECEC6C6BCBC",
"D 	c #7A7A82828080",
"F 	c #3E3E3E3E3C3C",
"G 	c #9A9A9A9A9B9B",
"H 	c #99998A8A7C7C",
"J 	c #8E8E7A7A6464",
"K 	c #9E9E86867070",
"L 	c #C0C0AEAE9C9C",
"P 	c #76767A7A7B7B",
"I 	c #9E9E8E8E7C7C",
"U 	c #9A9A7E7E6464",
"Y 	c #AAAA8E8E7474",
"T 	c #AAAA92927B7B",
"R 	c #969682826C6C",
"E 	c #AEAEB6B6B4B4",
"W 	c #AEAEA2A29494",
"Q 	c #AEAE9A9A8484",
"! 	c #A6A696968484",
"~ 	c #9E9E82826C6C",
"^ 	c #828266664C4C",
"/ 	c #92927A7A6464",
"( 	c #A2A292928484",
") 	c #767676767474",
"_ 	c #6A6A6E6E6C6C",
"` 	c #6E6E76767474",
"' 	c #7A7A7E7E7C7C",
"] 	c #7E7E7E7E7C7C",
"[ 	c #36363A3A3A3A",
"{ 	c #B2B2B2B2B3B3",
"} 	c #B2B29E9E8D8D",
"| 	c #A2A292927C7C",
" .	c #92927E7E6868",
"..	c #8A8A76766363",
"X.	c #66666E6E6C6C",
"o.	c #626266666464",
"O.	c #6E6E6E6E6C6C",
"+.	c #363636363434",
"@.	c #B6B6B6B6B4B4",
"#.	c #B7B7A6A69494",
"$.	c #CECEBEBEAFAF",
"%.	c #A2A28E8E7979",
"&.	c #A2A28A8A7474",
"*.	c #969686867777",
"=.	c #5A5A5E5E5C5C",
"-.	c #76767E7E7C7C",
";.	c #B2B2AAAA9C9C",
":.	c #B6B6A2A29292",
">.	c #9E9E8A8A7777",
",.	c #A2A296968484",
"<.	c #5A5A5A5A5C5C",
"1.	c #4E4E4E4E4C4C",
"2.	c #56565A5A5B5B",
"3.	c #6A6A6A6A6C6C",
"4.	c #727276767474",
"5.	c #323236363434",
"6.	c #9E9E9E9E9C9C",
"7.	c #B6B6AEAEACAC",
"8.	c #AEAE9A9A8C8C",
"9.	c #A6A68E8E7777",
"0.	c #B2B29A9A8080",
"q.	c #7A7A72726C6C",
"w.	c #5E5E66666464",
"e.	c #464646464444",
"r.	c #8E8E8E8E8C8C",
"t.	c #BABAAAAA9C9C",
"y.	c #A2A282826464",
"u.	c #9A9A8E8E7C7C",
"i.	c #96968E8E8080",
"p.	c #2A2A2E2E2C2C",
"a.	c #4A4A4A4A4C4C",
"s.	c #565656565454",
"d.	c #5E5E5E5E5C5C",
"f.	c #868686868484",
"g.	c #B2B2AEAEACAC",
"h.	c #B6B6AAAAA4A4",
"j.	c #BABAA2A28C8C",
"k.	c #96967E7E6666",
"l.	c #565652524C4C",
"z.	c #19191A1A1C1C",
"x.	c #262626262424",
"c.	c #525256565454",
"v.	c #8A8A8A8A8B8B",
"b.	c #6A6A72726C6C",
"n.	c #46464E4E4C4C",
"m.	c #828282828484",
"M.	c #AAAA9A9A8B8B",
"N.	c #AAAA96968383",
"B.	c #C6C6BABAACAC",
"V.	c #8A8A7E7E7474",
"C.	c #161616161414",
"Z.	c #3A3A3A3A3C3C",
"A.	c #4A4A52524C4C",
"S.	c #7A7A7A7A7C7C",
"D.	c #CACABABAACAC",
"F.	c #A2A286866D6D",
"G.	c #A6A692927C7C",
"H.	c #4A4A46464444",
"J.	c #66666A6A6B6B",
"K.	c #86867A7A6C6C",
"L.	c #7E7E6A6A5959",
"P.	c #787866665454",
"I.	c #96967A7A6060",
"U.	c #CACAB6B6A4A4",
"Y.	c #9E9E7E7E6060",
"T.	c #7E7E72726464",
"R.	c #222222222222",
"E.	c #1E1E1E1E1C1C",
"W.	c #6E6E72727373",
"Q.	c #8E8E76766060",
"!.	c #868672725C5C",
"~.	c #B6B69E9E8484",
"^.	c #8A8A72725C5C",
"/.	c #2A2A2A2A2C2C",
"(.	c #9A9A92928C8C",
").	c #9A9A82826C6C",
"_.	c #BEBEAAAA9696",
"`.	c #8E8E72725454",
"'.	c #727262625454",
"].	c #9A9A86867474",
"[.	c #5A5A56564C4C",
"{.	c #2E2E2E2E2C2C",
"}.	c #7E7E82828383",
"|.	c #D2D2C2C2B4B4",
" X	c #B2B296967C7C",
".X	c #72725E5E4C4C",
"XX	c #929282827474",
"oX	c #828276766868",
"OX	c #B2B2A2A29292",
"+X	c #8A8A6E6E5454",
"@X	c #42423E3E3C3C",
"#X	c #525252525454",
"$X	c #5E5E62626363",
"%X	c #62625A5A5454",
"&X	c #66665E5E5C5C",
"*X	c #727272727474",
"=X	c #CACACACACCCC",
"-X	c #BEBEB6B6ACAC",
";X	c #A6A68A8A7474",
":X	c #C6C6B2B2A0A0",
">X	c #AEAE96968080",
",X	c #A6A692928484",
"<X	c #8E8E82827878",
"1X	c #D6D6D2D2D4D4",
"2X	c #929276765C5C",
"3X	c #6A6A56564444",
"4X	c #CECEC2C2BCBC",
"5X	c #666652524444",
"6X	c #C2C2B2B29C9C",
"7X	c #323232323434",
"8X	c #424242424444",
"9X	c #AEAEA6A69C9C",
"0X	c #8E8E8A8A8484",
"qX	c #C6C6C6C6C4C4",
"wX	c #7A7A6A6A5C5C",
"eX	c #CECECECECCCC",
"rX	c #62626A6A6767",
"tX	c #86866A6A5050",
"yX	c #AAAA9E9E9494",
"uX	c #86867E7E7878",
"iX	c #26262A2A2929",
"pX	c #626262626161",
"aX	c #2A2A26261C1C",
"sX	c #4E4E4A4A4444",
"dX	c #666666666464",
"fX	c #AEAEAAAAA4A4",
"gX	c #767662624C4C",
"hX	c #2E2E32323131",
"jX	c #72725A5A4444",
"kX	c #52524E4E4444",
"lX	c #8A8A82827C7C",
"zX	c #72726A6A6464",
"xX	c #6C6C5A5A4444",
"cX	c #5A5A4E4E4444",
"vX	c #5E5E4A4A3434",
"bX	c #4E4E42423434",
"nX	c #4A4A3A3A2C2C",
"mX	c #36362A2A2424",
"MX	c #5E5E56564C4C",
"NX	c #4E4E56565454",
"    . . . . . . X X o o . . . . O + . . + . . . . O O @ O . o # $ # # # o . O O % % % . # X & & ",
"X * = - ; ; - : ; > > > - - > , > < , , < , > 1 2 1 1 3 1 4 , < , < < < 4 4 1 1 1 2 1 < < $ 5 6 ",
"X 1 % & 7 8 & 9 0 q w e 9 r 8 & r 8 8 8 t & & y u u i p a s d f d s g a h u q e y h j s k i l z ",
"# < 0 g a k k a a p g p p k h i i k h u u x i c h a v a g s b d s p k k x u q h p s s g q j n m ",
"# < 8 p a k k k i i k k i h h h i h h h h k a k c a p p g s b b a a k h y y h s f b p k q M N B ",
"# > V a g i h h x h i k c h k k h i k k k g p i x k a a a s b s p k k w 0 w c j M k h h x f N m ",
"$ , V h p i i h x x i a i x h k h h k g a a k h u k g p p s s g v C Z A S h f D j k i k x d F z ",
"# < t u k c h k G G k k h G x u h a a p k k x y u i p a a j j H J K L L 7 b P d j p p k h b n z ",
"V , 8 q i p k i h h k k x u u h h p g g h h u u u i p p a p I U Y T R Z j 5 5 f b M j k q s N m ",
"E < & y k s a k x h k h u u x x k k p k h u u x h k u 0 W Q ! L ~ ^ / ( ) _ ` ' ] b g x r j [ n ",
"E > 8 y h s k i x h i x y u h x i i k i x u q & & { & W } } A |  ...R ' X.o.O.5 P d k e 9 f +.B ",
"# < r u k g i h u x k G G h h k u u r 0 @.@.X @.{ & T T #.$.%.K &.K *.o.=.=.X.O.P d c u h -.[ z ",
"# < r h x k h x h h i x i u & 7 7 & @.X X @.@.@.;.%.%.:.L &.R >.| ,.<.1.6 2.o.3.4.d v a j 5 5.m ",
"# , r a c u h h h a k h c O w G 6.7 { { @.# { 7.8.9.0.Y K K >.H ( q.N n z 2.w.X.' b g p j 4.5.e.",
"$ < 9 g k u h a p a k i { , 7 r.v 6.& & { { 7.t.:.L y./ ~ >.%.u.i.p.p.[ a.s.d._ ] j p k g 4.5.e.",
"@.> 0 i h e u j g p k V 1 1 @.f.f.G w & g.h.L L A j.k.U K >.u.H l.z.x.+.m c.o.4.f M v.p g b.5.n.",
"o < 0 h q 0 x s g a u < 1 4 - ] m.v G 0 M.N.Z B.A 9.T %.%.I H V.C.C.x.Z.1.=._ ' ] D f d f _ +.A.",
"@., 9 x q 9 u s g p # 2 + 0 m.S.] v.G R ..k.} D.F.T N.N.G.>.R H.C.z.x.[ z =.J.4.5 ' d b s -.N 6 ",
"# - r x 0 0 h M g g { f.S.S.] ] f.r.K.L.P.I.U.Y.F.9.Q M.G.H T.R.E.z.x.N z s.J.W.5 f b g h f F 6 ",
"E > 0 u 0 9 h b s j h v f.f.f.f.v.u.Q.!.Q.~.Y.^.R &.G.G.H *./.E.x.x./.F a.c.o.` -.b p k x b n n.",
"t ; r q r e g f b s r.w c c v v (.K ).K _.`.'.Q.).K ].K R [.E.R.{.F +.B 6 c.o.-.d g k i h D Z.n.",
"& ; r q 9 q s f s s }.{ 7 w 6.w 8.M.N.|. X.XQ.K 9.%.K XXoXR.x./.Z.z 2.e.6 2.b.}.j p k c h ' [ e.",
"V ; 8 q q h d d j j d X @.{ g.Z } OX$.L +X].F.! N.| >.*.@XR.{.+.a.d.4.#XA.$X4.f g a h i i D [ e.",
"o , e u y k b b p g }.w @ @ 8.9.T L D.^ T T T N.M.( I %Xx./.+.m &X*Xf.p z o.4.}.M p k k h D Z.m ",
"O < y u h k s s p p d 7 =X-X&.K ;X:XI.).T Q >X,X,XC <Xx./.+.H.=.*Xf.c 0 P o.*X' d j k h h D [ m ",
"O 4 q x a h a g p g d G 1X#.Q &. X2X3Xk.9.N.! ( u.H +./.+.e.<.*XM G 0 & @.3.b.P }.b p i h -.[ e.",
"O < 6.h g c k p v a d ` 4X_.#.t.y.5XL./ ).F.>.I H @X{.+.e.<.*Xf.G 0 { X + 6.J.W.' f v.p h ' [ m ",
"% 4 u h a h i g a v M S.6X:XA L +X..R k./ J k.k.&Xp.7X8X<.W.f.G 9X{ X @ @ @ *X_ 4.P b g k D [ m ",
"% 3 x c a h h p a p f.0XL U.$.y.k.} M.&. ...T.L./.7X8Xs.*Xf.G r @.+ @ qXqXqX@.$XO.4.' M p D Z.m ",
"@ < k k h h h i k g f *.! :XY L.#.#.} G.K J wX/.{.8Xs.O.m.G & @.+ qX=X=X=X=XqX6.w._ ) f j P [ m ",
"% < h a h u u h k p d ..9. X^ T #.OXW M.%.oX/.7XZ.#X3.m.c 0 @.+ qX=XeXeX=XeXX *X2.rX4.}.M 5 [ n.",
"% 3 a p i x G h a M D ..Y tX!.} Z W yXyXuXiX{.Z.#X3.m.G 7 @.@ =XeXeX- - - f.B n 1.pX_ ' M P F 1.",
"% 4 k v k x h k g d P F.+X3X].! M.yXyXuXaX{.F sXdX] c fXX @ =X1X, , , v.8X{.7XF 1.$X_ }.s D N A.",
"qX4 i a h i i k s }.K.2X3XgX].| ! C l.p.hXZ.1.o.S.v 7 @.@ eX, 4 4 r.e.5.hX+.Z.B 6 pX4.D v.P [ e.",
"  4 h k c h h v M ] tXjXsXkXV.lXzX{.{.+.8X#XdXS.v 7 X qXeX4 =X}.5.5.+.Z.N n e.z l $XO.5 D _ hXn ",
"% 4 h k a k k k M '.xXcX8X/.Z.8XF 8X8X1.<.3.] c 0 X =X1X@.O.7X7X+.[ F B m 1.#X<.pXo.X._ 4.rX5.B ",
"% 4 x h k k a p ) vXbXd.a.+.[ <.s.<.d.3.) f.6.& X =Xr.<.5.[ +.Z.F B a.#X2.=.$Xo.3._ ` 5 D W.+.e.",
"% 3 u k a a p p bXnXpXJ.c.n {.*X*X) S.f.c 0 { 6.*X{.hX+.Z.Z.n B z 6 2.=.o.J.b.W.4.P S.D M 4.5.m ",
"O < h a p p p pXmXMXP _ $X6 N O.r.v G w 6.S.1.p./.7X[ F B e.z #X=.d.J._ ` 4.P -.' f d d s 5 [ B ",
"% 3 x v p g j aXH.}.' 4.J.2.z c.0 6.) <./.p.p.7X5.Z.B 1.c.c.2.w.o._ W.4.' ' }.d M f.M j p P [ n.",
"O < i p p p j pXj b d ] *XJ.<.a.n 7X{.7X7X7X[ n B a.2.$Xo.$XJ.W.` P ' }.m.d M M s s j g a ' Z.n.",
"% 4 k k k p s j p p j b D 4.X.$X1.e.n F e.a.m #Xc.$XJ.W.` ` 4.-.' ' d f.b M M j r.j g v k D [ m ",
"% 3 i k k p s g c i k j d ] 5 b.w.2.2.2.=.pX$XJ.O.W.) S.}.D D }.d b s s s j p p p k a h x }.Z.n.",
"@ < u i k p p c y u u k j b D P P 4.` *XP }.}.' }.}.f f j s M s j r.p p p a a k i h h u u f N z ",
"qX4 h a p g i q 0 y u k s M b f f d M M j k k s b M s j h k r.g a p k k k k i c h q y u u f Z.z ",
"  : i g g a h e e u k g M b b b M p a k k i u h s g p j }.D 5 -.-.D ' -.-.D ' D f D D D D _ N m ",
"O u 2.hX5.[ Z.Z.Z.+.iXiXx.x.x.x.iXiXiXiX/.p.iXiXx.x.iXiX[ [ 5.+.5.5.+.5.5.[ [ [ [ +.5.5.+.p.iXm ",
"d c.z B e.n.z A.z A.c.6 6 6 A.NXc.l 2.2.2.2.2.2.l NXc.l 2.=.=.2.2.2.c.s.c.l 2.2.2.2.2.2.l c.e.=."};
