/* XPM */
static char * image_name[] = {
"20 20 129 2",
"  	c #CECECECECCCC",
". 	c #C2C2C6C6C4C4",
"X 	c #BEBEC2C2C4C4",
"o 	c #BEBEC2C2BCBC",
"O 	c #C2C2C2C2C4C4",
"+ 	c #C6C6C6C6C4C4",
"@ 	c #BABABEBEBCBC",
"# 	c #C6C6CACACCCC",
"$ 	c #86868A8A8C8C",
"% 	c #9A9AA2A2A4A4",
"& 	c #9A9A9E9E9C9C",
"* 	c #92929A9A9494",
"= 	c #929296969494",
"- 	c #96969E9E9C9C",
"; 	c #96969A9A9C9C",
": 	c #8E8E92929494",
"> 	c #82828A8A8C8C",
", 	c #86868E8E8C8C",
"< 	c #8E8E96969494",
"1 	c #8A8A92929494",
"2 	c #4E4E52525454",
"3 	c #969696969494",
"4 	c #8A8A8E8E8C8C",
"5 	c #A6A6A2A29494",
"6 	c #A2A2A2A2A4A4",
"7 	c #82828A8A8484",
"8 	c #4A4A4E4E4C4C",
"9 	c #9A9AA2A29C9C",
"0 	c #969692928484",
"q 	c #9E9E86866C6C",
"w 	c #A6A692928484",
"e 	c #828286868484",
"r 	c #7E7E82828484",
"t 	c #9A9A9A9A9C9C",
"y 	c #AAAAAAAAACAC",
"u 	c #AEAEAAAAA4A4",
"i 	c #AEAE9E9E9494",
"p 	c #B6B6A2A29494",
"a 	c #8A8A7A7A6C6C",
"s 	c #62626A6A6464",
"d 	c #727272727474",
"f 	c #46464A4A4C4C",
"g 	c #A6A6AAAAACAC",
"h 	c #9E9E9E9E9C9C",
"j 	c #AEAEAEAEACAC",
"k 	c #B6B6B6B6B4B4",
"l 	c #B6B6B2B2ACAC",
"z 	c #AAAA9A9A8C8C",
"x 	c #AAAA92927C7C",
"c 	c #A2A28A8A7474",
"v 	c #8A8A86867C7C",
"b 	c #525256565454",
"n 	c #6E6E72727474",
"m 	c #46464A4A4444",
"M 	c #8A8A92928C8C",
"N 	c #A2A2A6A6A4A4",
"B 	c #D2D2D2D2D4D4",
"V 	c #929292929494",
"C 	c #A6A6A6A6A4A4",
"Z 	c #BABAAAAA9C9C",
"A 	c #B6B6A2A28C8C",
"S 	c #9E9E8A8A7474",
"D 	c #5A5A56564C4C",
"F 	c #2A2A2E2E2C2C",
"G 	c #525252525454",
"H 	c #767676767474",
"J 	c #86868A8A8484",
"K 	c #BEBEBEBEBCBC",
"L 	c #AAAAAEAEACAC",
"P 	c #828282828484",
"I 	c #8E8E7A7A6464",
"U 	c #B2B29A9A8484",
"Y 	c #A6A68E8E7474",
"T 	c #262626262424",
"R 	c #4E4E52524C4C",
"E 	c #969692928C8C",
"W 	c #9E9E8A8A7C7C",
"Q 	c #A2A28E8E7474",
"! 	c #8E8E76765C5C",
"~ 	c #9A9A86867474",
"^ 	c #464642423C3C",
"/ 	c #2E2E2E2E2C2C",
"( 	c #3E3E3E3E3C3C",
") 	c #76767A7A7474",
"_ 	c #9E9EA2A2A4A4",
"` 	c #9E9E86867474",
"' 	c #A2A292928484",
"] 	c #727266665C5C",
"[ 	c #4E4E4E4E4C4C",
"{ 	c #6A6A6E6E6C6C",
"} 	c #5A5A5E5E5C5C",
"| 	c #7E7E86868484",
" .	c #C2C2B6B6ACAC",
"..	c #92927A7A6464",
"X.	c #8A8A7E7E7474",
"o.	c #3A3A36363434",
"O.	c #4E4E4A4A4444",
"+.	c #7E7E7E7E7C7C",
"@.	c #76767A7A7C7C",
"#.	c #4A4A4A4A4C4C",
"$.	c #C6C6B6B6A4A4",
"%.	c #AEAE96968484",
"&.	c #96967E7E6C6C",
"*.	c #92927E7E6C6C",
"=.	c #7A7A7E7E7C7C",
"-.	c #727276767474",
";.	c #96968A8A7C7C",
":.	c #4E4E46464444",
">.	c #86866E6E5454",
",.	c #9E9E92928484",
"<.	c #52524E4E4C4C",
"1.	c #424242424444",
"2.	c #56565A5A5454",
"3.	c #424246464444",
"4.	c #66666A6A6464",
"5.	c #868686868484",
"6.	c #767662625454",
"7.	c #666662625C5C",
"8.	c #565656565454",
"9.	c #8E8E92928C8C",
"0.	c #5E5E5A5A5454",
"q.	c #5E5E5E5E5C5C",
"w.	c #464646464444",
"e.	c #36363A3A3C3C",
"r.	c #626266666464",
"t.	c #7A7A7A7A7C7C",
"y.	c #6E6E6E6E6C6C",
"u.	c #3A3A3E3E3C3C",
"i.	c #56565A5A5C5C",
"  . X X o O . . . . + . o @ @ . # + @ $ ",
". % & * = - & & % ; * : > , < & = 1 = 2 ",
"O ; 3 - = ; * = < = * : $ 4 5 6 7 < < 8 ",
"o 9 < ; = - ; < = - ; = 0 q w e r 4 ; 2 ",
"X & : - ; t ; ; 6 y u i p q a s d , * f ",
"X - ; = = g h j k l z x c v 8 b n $ $ m ",
"X - & M N B V & C Z A q S D F G H J e f ",
"K 9 % 4 L t P v I U Y w a T F b n r , R ",
"@ N - 7 V 3 E W Q ! S ~ ^ / ( b ) 4 : 8 ",
"K _ 4 $ * l z Z ` Q ' ] / [ { } | < 1 f ",
". - < 4 :  .Y ..c w X.o.O.+.N r @.4 < #.",
". = = = P $.%.&.*...^ f =.C @ k -.r $ 8 ",
"+ = ; = P %.S i ;.:.^ H C K + O r n | f ",
". = ; M X.>.w ,.<.1.H C +   C 2.3.4.r 8 ",
"# = = 5.6.O.7.^ f d C + h 8.( 1.2 4.) 3.",
". * 9.7.0.3.q.d 5.3 H w.e.f 8.r.{ -.=.3.",
". = J 2.t.q.7.y.[ e.u.G i.s -.=.e > $ f ",
". = 1 9.M =.r.2 2 i.r.-.@.+.e 4 1 : : 8 ",
". = < & * > r | 5.4 > , , , , 4 9.< 1 8 ",
"1 8 [ b 8 m f 8 2 2 f [ 2 [ [ 2 2 2 [ 3."};
