/* XPM */
static char * image_name[] = {
"20 20 180 2",
"  	c #CECECECECCCC",
". 	c #C2C2C6C6C4C4",
"X 	c #BEBEC2C2C4C4",
"o 	c #BEBEC2C2BCBC",
"O 	c #C2C2C2C2C4C4",
"+ 	c #C6C6C6C6C4C4",
"@ 	c #BABABEBEBCBC",
"# 	c #C6C6CACACCCC",
"$ 	c #86868A8A8C8C",
"% 	c #9A9AA2A29C9C",
"& 	c #9A9A9E9E9C9C",
"* 	c #92929A9A9C9C",
"= 	c #8A8A92929494",
"- 	c #96969E9E9C9C",
"; 	c #96969A9A9C9C",
": 	c #8E8E92929494",
"> 	c #828286868484",
", 	c #82828A8A8484",
"< 	c #8E8E96969494",
"1 	c #929296969494",
"2 	c #4E4E52525454",
"3 	c #868692929C9C",
"4 	c #9292AEAEB4B4",
"5 	c #8A8A9E9E9494",
"6 	c #8E8E96967C7C",
"7 	c #969696967C7C",
"8 	c #8E8E92928C8C",
"9 	c #86868E8E8C8C",
"0 	c #7A7A82828484",
"q 	c #7E7E82828484",
"w 	c #4A4A4E4E4C4C",
"e 	c #B2B2C6C6C4C4",
"r 	c #FAFAFAFADCDC",
"t 	c #E6E6EAEACCCC",
"y 	c #CECECECEACAC",
"u 	c #CACAC6C69494",
"i 	c #92928E8E8484",
"p 	c #76767E7E7C7C",
"a 	c #8E8E8E8E8C8C",
"s 	c #86867E7E7474",
"d 	c #6A6A6A6A6C6C",
"f 	c #66666A6A6464",
"g 	c #666666666464",
"h 	c #76767A7A7474",
"j 	c #6E6E8E8EACAC",
"k 	c #C6C6D6D6B4B4",
"l 	c #DEDEE2E2B4B4",
"z 	c #D6D6CECEA4A4",
"x 	c #B6B6B2B28C8C",
"c 	c #5E5E62625C5C",
"v 	c #5E5E5E5E5C5C",
"b 	c #92928A8A7C7C",
"n 	c #D6D6BEBE9C9C",
"m 	c #DEDEBEBE9494",
"M 	c #E2E2B6B68484",
"N 	c #CACA9E9E6C6C",
"B 	c #96967A7A5C5C",
"V 	c #42423E3E3C3C",
"C 	c #46464A4A4C4C",
"Z 	c #727276767474",
"A 	c #8A8A8E8E8C8C",
"S 	c #62627E7E9C9C",
"D 	c #4E4E8282B4B4",
"F 	c #9292A6A69C9C",
"G 	c #BABAB6B68484",
"H 	c #B2B2A6A68484",
"J 	c #525266666C6C",
"K 	c #2A2A42424C4C",
"L 	c #565652524444",
"P 	c #B6B68A8A5C5C",
"I 	c #DEDEBABA8484",
"U 	c #EEEEC6C69494",
"Y 	c #CECE9E9E6C6C",
"T 	c #969672724C4C",
"R 	c #3A3A36363434",
"E 	c #4A4A4A4A4C4C",
"W 	c #3E3E42424444",
"Q 	c #42426E6E9C9C",
"! 	c #A2A2A6A6A4A4",
"~ 	c #6A6A6E6E6C6C",
"^ 	c #22223E3E4C4C",
"/ 	c #22223E3E5454",
"( 	c #4E4E4A4A4444",
") 	c #86866E6E5454",
"_ 	c #D2D2B6B68C8C",
"` 	c #F6F6DEDEB4B4",
"' 	c #F2F2DADAB4B4",
"] 	c #EAEAD2D2ACAC",
"[ 	c #BEBE9E9E7474",
"{ 	c #6E6E5A5A4444",
"} 	c #2E2E32323434",
"| 	c #4E4E52524C4C",
" .	c #3E3E42423C3C",
"..	c #36365A5A7C7C",
"X.	c #6E6E82828484",
"o.	c #7A7A7E7E7474",
"O.	c #32324A4A5C5C",
"+.	c #2A2A3A3A4444",
"@.	c #42423A3A3434",
"#.	c #72725E5E4C4C",
"$.	c #CACAB2B28C8C",
"%.	c #DADABEBE9494",
"&.	c #86866A6A5454",
"*.	c #2A2A2A2A2424",
"=.	c #424242424444",
"-.	c #72727E7E8484",
";.	c #2E2E4A4A6C6C",
":.	c #22223E3E6464",
">.	c #222236364444",
",.	c #3E3E32322424",
"<.	c #727252523C3C",
"1.	c #C6C692925C5C",
"2.	c #E2E2B2B27474",
"3.	c #D6D6A2A26464",
"4.	c #C2C28A8A5C5C",
"5.	c #A2A272724C4C",
"6.	c #2A2A2A2A2C2C",
"7.	c #3A3A3E3E3C3C",
"8.	c #9E9EA2A2A4A4",
"9.	c #5A5A5E5E5C5C",
"0.	c #3A3A42424444",
"q.	c #26262A2A2C2C",
"w.	c #1E1E22222424",
"e.	c #2A2A22221C1C",
"r.	c #525236362424",
"t.	c #868652523434",
"y.	c #C2C27A7A4444",
"u.	c #C6C67A7A4444",
"i.	c #B6B66E6E3C3C",
"p.	c #B2B276764C4C",
"a.	c #92925E5E3C3C",
"s.	c #6E6E46462C2C",
"d.	c #52523A3A2C2C",
"f.	c #2A2A2E2E2C2C",
"g.	c #36363A3A3C3C",
"h.	c #76767A7A7C7C",
"j.	c #5A5A5A5A5C5C",
"k.	c #3A3A3A3A3C3C",
"l.	c #2E2E2A2A2424",
"z.	c #868662624444",
"x.	c #C2C292926464",
"c.	c #727256563C3C",
"v.	c #565646463434",
"b.	c #424236362C2C",
"n.	c #92929A9A9494",
"m.	c #6A6A56564444",
"M.	c #A6A67E7E5C5C",
"N.	c #92926A6A4C4C",
"B.	c #72725A5A4444",
"V.	c #76766A6A5C5C",
"C.	c #7A7A72726C6C",
"Z.	c #56564E4E4444",
"A.	c #2E2E2E2E2C2C",
"S.	c #525256565454",
"D.	c #969696969494",
"F.	c #66665E5E5454",
"G.	c #82827E7E7C7C",
"H.	c #A2A2A2A2A4A4",
"J.	c #6E6E6E6E6C6C",
"K.	c #6A6A72726C6C",
"L.	c #565656565454",
"P.	c #9A9A9A9A9C9C",
"I.	c #8A8A8A8A8484",
"U.	c #7A7A7A7A7474",
"Y.	c #626262626464",
"T.	c #424246464444",
"R.	c #828282828484",
"E.	c #52525A5A5454",
"W.	c #7A7A7E7E7C7C",
"Q.	c #7A7A7A7A7C7C",
"!.	c #727272727474",
"~.	c #323236363434",
"^.	c #8A8A92928C8C",
"/.	c #626266665454",
"(.	c #4E4E4E4E4C4C",
").	c #363636363434",
"_.	c #6E6E72727474",
"`.	c #56565A5A5454",
"'.	c #66666A6A6C6C",
"].	c #46464A4A4444",
"  . X X o O . . . . + . o @ @ . # + @ $ ",
". % & * = - & & % ; * : > , < & ; = 1 2 ",
"O ; 3 4 5 6 7 1 8 < 1 9 0 q $ < $ 1 1 w ",
"X * e r t y u i p a < i s d f g h 9 < 2 ",
"X j 4 k l z x c v b n m M N B V C Z A C ",
"e S D F G H J K L P I U U I Y T R E f W ",
"X S Q ! x ~ ^ / ( ) _ ` ' ] m [ { } |  .",
"@ 9 ..X.o.O./ +.@.#.$.' ` ] %.[ &.*.=.W ",
"@ % -.;.:.^ >.*.,.<.1.2.2.3.4.5.<.6.W 7.",
"X 8.> 9.0.q.w.e.r.t.y.u.i.p.a.s.d.f.=.g.",
". ; = h.j.k.l.l.z.P N x.5.a.c.v.b.f.E 7.",
". n.1 : , ~ 2 k.m.M.5.N.B.V.C.Z.*.A.S. .",
". 1 - D.1 = Z S.2 F.m.v.G.H.D.J.7.g.9.W ",
"+ 1 ; A D.Z h.K.f f v L.P.I.U.Y.T.7.j.=.",
"# 1 * : R.Y.E.K.h.W.Q.!.R.a J.L.V ~.w k.",
". n.: !.J.E 7.w Z = ^.A d J.j.T.~.} |  .",
"+ ; 1 $ /.E g.W d A < ; h.(.=.).A.).E.T.",
". 1 < & * _.2 `.h A 1 n.8 q '.w T.2 ~ C ",
". 1 1 ! - $ h.p $ 1 : < 8 A > h._.W.0 w ",
": (.2 2 w ].].w | 2 w w S.2 2 w w w w T."};
