/* XPM */
static char * image_name[] = {
"20 20 142 2",
"  	c #CECECECECCCC",
". 	c #C2C2C6C6C4C4",
"X 	c #BEBEC2C2C4C4",
"o 	c #BEBEC2C2BCBC",
"O 	c #C2C2C2C2C4C4",
"+ 	c #C6C6C6C6C4C4",
"@ 	c #BABABEBEBCBC",
"# 	c #C6C6CACACCCC",
"$ 	c #86868A8A8C8C",
"% 	c #9A9AA2A2A4A4",
"& 	c #9A9A9E9E9C9C",
"* 	c #92929A9A9494",
"= 	c #929296969494",
"- 	c #96969E9E9C9C",
"; 	c #96969A9A9C9C",
": 	c #92929A9A9C9C",
"> 	c #8E8E92929494",
", 	c #86868E8E8C8C",
"< 	c #96969A9A9494",
"1 	c #8A8A92929494",
"2 	c #4E4E52525454",
"3 	c #8E8E96969494",
"4 	c #4A4A4E4E4C4C",
"5 	c #8A8A92928C8C",
"6 	c #AAAA9E9E9494",
"7 	c #BEBE8A8A7C7C",
"8 	c #AEAE7A7A6C6C",
"9 	c #96968A8A8484",
"0 	c #9A9A9A9A9C9C",
"q 	c #8A8A8E8E8C8C",
"w 	c #C2C296968C8C",
"e 	c #DADA8E8E7C7C",
"r 	c #C2C272726464",
"t 	c #AEAE66665454",
"y 	c #96966A6A6464",
"u 	c #46464A4A4C4C",
"i 	c #9A9A92928C8C",
"p 	c #D2D296968484",
"a 	c #DADA8A8A7C7C",
"s 	c #CACA76766C6C",
"d 	c #A2A25E5E5454",
"f 	c #82824A4A4444",
"g 	c #6A6A4E4E4C4C",
"h 	c #6E6E72727474",
"j 	c #3E3E42424444",
"k 	c #9E9EA2A2A4A4",
"l 	c #B2B29A9A9494",
"z 	c #DADA9A9A8C8C",
"x 	c #CECE7A7A6C6C",
"c 	c #AAAA62625454",
"v 	c #7A7A46463C3C",
"b 	c #5A5A36362C2C",
"n 	c #52524A4A4C4C",
"m 	c #626262626464",
"M 	c #9A9AA2A29C9C",
"N 	c #BEBE9E9E9494",
"B 	c #EEEEA2A28C8C",
"V 	c #424232322C2C",
"C 	c #424246464444",
"Z 	c #66666A6A6464",
"A 	c #A2A2A6A6A4A4",
"S 	c #C6C69E9E9494",
"D 	c #E2E292927C7C",
"F 	c #C6C676766C6C",
"G 	c #B2B266665C5C",
"H 	c #5E5E36362C2C",
"J 	c #42422E2E2C2C",
"K 	c #323236363434",
"L 	c #4E4E52524C4C",
"P 	c #727276767474",
"I 	c #CACA9E9E9494",
"U 	c #8E8E52524444",
"Y 	c #66663A3A3434",
"T 	c #2E2E2E2E2C2C",
"R 	c #3E3E3E3E3C3C",
"E 	c #5E5E62626464",
"W 	c #7A7A7E7E7C7C",
"Q 	c #969696968C8C",
"! 	c #A2A29E9E8484",
"~ 	c #D6D68A8A7C7C",
"^ 	c #86864E4E4444",
"/ 	c #4A4A32322C2C",
"( 	c #32322E2E2C2C",
") 	c #36363A3A3C3C",
"_ 	c #7E7E86868484",
"` 	c #9E9E9A9A8484",
"' 	c #AEAEA2A27C7C",
"] 	c #9E9E5E5E4444",
"[ 	c #9A9A56564444",
"{ 	c #AAAA5E5E5454",
"} 	c #8A8A4E4E4444",
"| 	c #363632323434",
" .	c #5A5A5A5A5C5C",
"..	c #A2A29A9A7C7C",
"X.	c #BEBEA6A65C5C",
"o.	c #92925A5A3C3C",
"O.	c #8E8E56563C3C",
"+.	c #3E3E32322C2C",
"@.	c #363636363434",
"#.	c #7E7E82828484",
"$.	c #C6C6C6C6BCBC",
"%.	c #CACAAAAA5454",
"&.	c #D6D6B2B25C5C",
"*.	c #DEDEBABA5C5C",
"=.	c #C6C692924444",
"-.	c #A2A26E6E2424",
";.	c #4E4E36362424",
":.	c #7E7E4A4A3C3C",
">.	c #3A3A3E3E3C3C",
",.	c #565656565454",
"<.	c #66666A6A6C6C",
"1.	c #76767A7A7C7C",
"2.	c #D6D6B6B66464",
"3.	c #F6F6DADA9494",
"4.	c #F6F6E2E2ACAC",
"5.	c #7E7E5E5E3434",
"6.	c #727246463C3C",
"7.	c #36363A3A3434",
"8.	c #5A5A5E5E5C5C",
"9.	c #C2C2AAAA6C6C",
"0.	c #F6F6E2E2B4B4",
"q.	c #FAFAEEEECCCC",
"w.	c #E6E6C6C66C6C",
"e.	c #BEBE9A9A4444",
"r.	c #7A7A6E6E4444",
"t.	c #4A4A3E3E3434",
"y.	c #3A3A36363434",
"u.	c #4A4A4A4A4C4C",
"i.	c #6A6A6E6E6C6C",
"p.	c #9A9A96967C7C",
"a.	c #AAAA92924C4C",
"s.	c #DEDEBEBE6C6C",
"d.	c #BABAAAAA7474",
"f.	c #96968A8A5C5C",
"g.	c #62625A5A3C3C",
"h.	c #4E4E4A4A3C3C",
"j.	c #4E4E4E4E4C4C",
"k.	c #CACAAEAE6464",
"l.	c #7A7A82827C7C",
"z.	c #AEAEA6A68C8C",
"x.	c #828286867C7C",
"c.	c #464646464444",
"  . X X o O . . . . + . o @ @ . # + @ $ ",
". % & * = - & & % ; : > $ , = & < 1 = 2 ",
"O < = - = ; : = 3 = * 1 $ 1 ; ; , = 3 4 ",
"X % = ; = - < 3 = - : > 5 < 6 7 8 9 = 2 ",
"o & > - ; 0 < = ; & 3 5 q w e r t y q u ",
"X - ; = = : = * & < q i p a s d f g h j ",
"X - & 5 = & k = ; = l z a x c v b n m j ",
"@ M % q = & & : & N B a x c v b V C Z 4 ",
"@ A - , = k k 0 S z D F G f H J K L P u ",
"@ k q q - k k I z e F c U Y J T R E W u ",
". - 3 Q ! 6 p ~ a r c ^ Y / ( ) 4 h _ u ",
"+ = Q ` ' ] U [ { c } Y / | K j  .P $ u ",
"+ ..! ' X.] o.O.} } Y / +.@.R L Z #.q 4 ",
"$...%.&.*.=.-.;.:.f / | >.u ,.<.1.= < 4 ",
"$.! 2.3.4.&.5.H Y 6.V 7.u 8.<.W q > $ C ",
"$...9.0.q.w.e.r.t.y.7.u. .i.#.q > 3 , 4 ",
"O p.a.s.w.d.f.r.g.h.j.E i.W q 3 = = 1 4 ",
"+ Q ` d.k...#.i.m E i.1.l.$ 3 = = = > 4 ",
"# = = z.' q x._ #.$ $ $ , q > > 3 * 1 4 ",
"q 4 L  .L u c.u j.j.u 4 L 2 L L 2 2 4 C "};
