/* XPM */
static char * image_name[] = {
"20 20 155 2",
"  	c #CECECECECCCC",
". 	c #C2C2C6C6C4C4",
"X 	c #BEBEC2C2C4C4",
"o 	c #BEBEC2C2BCBC",
"O 	c #C2C2C2C2C4C4",
"+ 	c #C6C6C6C6C4C4",
"@ 	c #BABABEBEBCBC",
"# 	c #C6C6CACACCCC",
"$ 	c #86868A8A8C8C",
"% 	c #9A9AA2A2A4A4",
"& 	c #9A9A9E9E9C9C",
"* 	c #92929A9A9494",
"= 	c #929296969494",
"- 	c #96969E9E9C9C",
"; 	c #8A8A92928C8C",
": 	c #86868E8E8C8C",
"> 	c #7E7E82828484",
", 	c #7E7E86868484",
"< 	c #8E8E92929494",
"1 	c #96969A9A9C9C",
"2 	c #4E4E52525454",
"3 	c #525256565454",
"4 	c #424242424444",
"5 	c #5E5E62626464",
"6 	c #666662626464",
"7 	c #868686868484",
"8 	c #6A6A6E6E6C6C",
"9 	c #7A7A82827C7C",
"0 	c #8A8A8E8E8C8C",
"q 	c #4A4A4E4E4C4C",
"w 	c #9A9AA2A29C9C",
"e 	c #56565A5A5C5C",
"r 	c #464642424444",
"t 	c #6E6E72727474",
"y 	c #727276767474",
"u 	c #82828A8A8484",
"i 	c #4E4E4A4A4C4C",
"p 	c #3E3E3E3E3C3C",
"a 	c #464646464444",
"s 	c #6A6A5E5E5454",
"d 	c #BEBE96968484",
"f 	c #A6A692928484",
"g 	c #62625E5E5C5C",
"h 	c #626262626464",
"j 	c #72727A7A7474",
"k 	c #5A5A5E5E5C5C",
"l 	c #4A4A3A3A3434",
"z 	c #7A7A7A7A7474",
"x 	c #9A9A9A9A9494",
"c 	c #A2A29E9E9494",
"v 	c #AAAAA6A69C9C",
"b 	c #BABAAEAEA4A4",
"n 	c #8E8E6A6A5C5C",
"m 	c #8E8E6E6E6464",
"M 	c #424246464444",
"N 	c #AEAEAEAEACAC",
"B 	c #E6E6E6E6E4E4",
"V 	c #CECEC2C2BCBC",
"C 	c #9E9E66666464",
"Z 	c #C6C6C2C2BCBC",
"A 	c #D6D6D2D2CCCC",
"S 	c #BABAAAAA9C9C",
"D 	c #727252524444",
"F 	c #A6A67A7A6464",
"G 	c #82825E5E5454",
"H 	c #66666A6A6C6C",
"J 	c #828286868484",
"K 	c #46464A4A4C4C",
"L 	c #9A9A5E5E5C5C",
"P 	c #BEBEB6B6ACAC",
"I 	c #DADAD6D6CCCC",
"U 	c #DEDED6D6CCCC",
"Y 	c #7E7E5A5A4C4C",
"T 	c #464642423C3C",
"R 	c #A2A2A6A6A4A4",
"E 	c #4E4E52524C4C",
"W 	c #E2E2E2E2DCDC",
"Q 	c #CACAC6C6BCBC",
"! 	c #CECECACAC4C4",
"~ 	c #DEDEDADAD4D4",
"^ 	c #E2E2DEDED4D4",
"/ 	c #96967E7E7474",
"( 	c #767652524444",
") 	c #56563A3A3434",
"_ 	c #4E4E3A3A3434",
"` 	c #6E6E72726C6C",
"' 	c #9E9EA2A2A4A4",
"] 	c #C6C6C6C6BCBC",
"[ 	c #CECECECEC4C4",
"{ 	c #72723E3E4444",
"} 	c #EAEAE6E6DCDC",
"| 	c #A6A696968C8C",
" .	c #6E6E4A4A3C3C",
"..	c #525236362C2C",
"X.	c #72724E4E4444",
"o.	c #6A6A6A6A6C6C",
"O.	c #7A7A7E7E7C7C",
"+.	c #6E6E6E6E6464",
"@.	c #D2D2CACABCBC",
"#.	c #7E7E62625454",
"$.	c #A6A69E9E9C9C",
"%.	c #E6E6E2E2DCDC",
"&.	c #4A4A32322C2C",
"*.	c #46462E2E2424",
"=.	c #5A5A3A3A3434",
"-.	c #666666666464",
";.	c #7E7E7E7E7C7C",
":.	c #767676767474",
">.	c #D2D2CECEC4C4",
",.	c #868656565C5C",
"<.	c #CACAC2C2BCBC",
"1.	c #F2F2EEEEE4E4",
"2.	c #86866E6E6464",
"3.	c #46462A2A2424",
"4.	c #4E4E32322C2C",
"5.	c #3A3A26262424",
"6.	c #6E6E6E6E6C6C",
"7.	c #C2C2AEAEACAC",
"8.	c #BEBEBABAB4B4",
"9.	c #EEEEEAEAE4E4",
"0.	c #3A3A22221C1C",
"q.	c #3E3E26261C1C",
"w.	c #2E2E22221C1C",
"e.	c #626266666464",
"r.	c #B2B2A2A29C9C",
"t.	c #262616161414",
"y.	c #2E2E1A1A1414",
"u.	c #2E2E2A2A2C2C",
"i.	c #4A4A4A4A4C4C",
"p.	c #4E4E4E4E4C4C",
"a.	c #76767A7A7474",
"s.	c #262612120C0C",
"d.	c #26261A1A1414",
"f.	c #525252524C4C",
"g.	c #76767A7A7C7C",
"h.	c #A2A28A8A7C7C",
"j.	c #EAEAEAEAE4E4",
"k.	c #D2D2C2C2B4B4",
"l.	c #222216161414",
"z.	c #1E1E16161414",
"x.	c #16160E0E0C0C",
"c.	c #121212121414",
"v.	c #565656565454",
"b.	c #92927A7A7474",
"n.	c #7A7A66665C5C",
"m.	c #66664E4E4444",
"M.	c #5E5E4A4A4444",
"N.	c #4A4A36362C2C",
"B.	c #1A1A16161414",
"V.	c #1A1A1A1A1414",
"C.	c #5E5E5E5E5C5C",
"Z.	c #8E8E96969494",
"A.	c #6E6E76767474",
"S.	c #46464A4A4444",
"D.	c #46464E4E4C4C",
"  . X X o O . . . . + . o @ @ . # + @ $ ",
". % & * = - & & & = ; : > , < & 1 ; = 2 ",
"O 1 = - = 1 $ 3 4 5 6 7 8 9 0 = : * = q ",
"o w = 1 = 1 e r t y 8 7 3 t , u < = - 2 ",
"X & < - * 8 i p a s d f g h y j < % w q ",
"X - 1 = k l z x c v b d n m e t $ & 0 M ",
"X - & y 4 N B V C Z A S D F G H > 0 J K ",
"@ w % q c A A Z L P I U n Y Y T h y J q ",
"@ R 1 E O W Q ! L P ~ ^ / ( ) _ 2 ` J q ",
"@ ' ; g ] [ Q N { P W } |  ...X.i o.O.M ",
". 1 = +.@.! @.#.i $.%.} f &.*.=.a -.;.K ",
". * = :.! >.>.,.>.<.} 1.2.3.4.5.a h ;.a ",
". = & 6.Q A 7.V 8.9.9.1.4.0.q.w.a e.;.K ",
"+ = * O.N I ^ I %.9.1.r.t.y.y.u.i.o., p.",
"# = * < a.>.W } 9.1.I t.s.s.d.p f.o.g.M ",
". 1 = = $ h.@.j.} k.l l.z.x.c.4 v.` 9 K ",
". = = 1 :.b.n.m.m.M.l N.B.c.V.p C.g.J q ",
". 1 = - & 0 z H e.C.k e v.v.3 k 8 O.: K ",
". Z.= R 1 u > O.9 O.y y A.t t y ;.$ 0 q ",
"< 2 2 3 q K S.D.i.q K D.q q q D.E 2 q M "};
