/* XPM */
static char * image_name[] = {
"20 20 96 2",
"  	c #CECECECECCCC",
". 	c #C2C2C6C6C4C4",
"X 	c #BEBEC2C2C4C4",
"o 	c #BEBEC2C2BCBC",
"O 	c #C2C2C2C2C4C4",
"+ 	c #C6C6C6C6C4C4",
"@ 	c #BABABEBEBCBC",
"# 	c #C6C6CACACCCC",
"$ 	c #86868A8A8C8C",
"% 	c #9A9AA2A29C9C",
"& 	c #9A9A9E9E9C9C",
"* 	c #92929A9A9494",
"= 	c #929296969494",
"- 	c #96969E9E9C9C",
"; 	c #96969A9A9C9C",
": 	c #8E8E92929494",
"> 	c #82828A8A8C8C",
", 	c #8A8A92929494",
"< 	c #4E4E52525454",
"1 	c #969696969494",
"2 	c #8A8A8E8E8C8C",
"3 	c #82828A8A8484",
"4 	c #86868E8E8C8C",
"5 	c #4A4A4E4E4C4C",
"6 	c #8A8A8A8A8C8C",
"7 	c #A2A2A6A6A4A4",
"8 	c #A6A6AAAAACAC",
"9 	c #AAAAAAAAACAC",
"0 	c #B6B6B6B6B4B4",
"q 	c #B2B2B6B6B4B4",
"w 	c #7E7E82827C7C",
"e 	c #7E7E7E7E7C7C",
"r 	c #9E9E9E9E9C9C",
"t 	c #D2D2D6D6D4D4",
"y 	c #D2D2D2D2D4D4",
"u 	c #E6E6EAEAECEC",
"i 	c #EAEAEAEAECEC",
"p 	c #DEDEDEDEDCDC",
"a 	c #DADADADADCDC",
"s 	c #CACACECECCCC",
"d 	c #626266666464",
"f 	c #46464A4A4C4C",
"g 	c #F6F6F6F6F4F4",
"h 	c #EEEEEEEEECEC",
"j 	c #E6E6E6E6E4E4",
"k 	c #E2E2E2E2E4E4",
"l 	c #BEBEBEBEBCBC",
"z 	c #6E6E6E6E6C6C",
"x 	c #76767A7A7C7C",
"c 	c #7A7A82827C7C",
"v 	c #424246464444",
"b 	c #D6D6D6D6D4D4",
"n 	c #AAAAAEAEACAC",
"m 	c #6A6A6A6A6C6C",
"M 	c #727272727474",
"N 	c #868686868484",
"B 	c #56565A5A5C5C",
"V 	c #6A6A6E6E6C6C",
"C 	c #424242424444",
"Z 	c #AEAEB2B2B4B4",
"A 	c #7E7E82828484",
"S 	c #727276767474",
"D 	c #828286868484",
"F 	c #5A5A5E5E5C5C",
"G 	c #5E5E62626464",
"H 	c #9E9EA2A2A4A4",
"J 	c #76767E7E7C7C",
"K 	c #B2B2B2B2B4B4",
"L 	c #666666666464",
"P 	c #66666A6A6C6C",
"I 	c #525256565454",
"U 	c #3A3A3E3E3C3C",
"Y 	c #7A7A7E7E7C7C",
"T 	c #6E6E72727474",
"R 	c #66666A6A6464",
"E 	c #323236363434",
"W 	c #6A6A72726C6C",
"Q 	c #2E2E32323434",
"! 	c #8E8E96969494",
"~ 	c #3A3A3A3A3C3C",
"^ 	c #222222222424",
"/ 	c #2E2E2E2E2C2C",
"( 	c #A2A2A2A2A4A4",
") 	c #363636363434",
"_ 	c #AEAEAEAEACAC",
"` 	c #7E7E86868484",
"' 	c #6E6E72726C6C",
"] 	c #1A1A1A1A1C1C",
"[ 	c #262626262424",
"{ 	c #66666E6E6C6C",
"} 	c #565656565454",
"| 	c #42424A4A4444",
" .	c #6E6E76767474",
"..	c #3E3E42424444",
"X.	c #36363A3A3C3C",
"o.	c #4E4E52524C4C",
"  . X X o O . . . . + . o @ @ . # + @ $ ",
". % & * = - & & % ; * : > > : & ; , = < ",
"O ; 1 - = * = = : : = 2 3 4 : : 3 = = 5 ",
"X % , : $ 6 2 ; - 7 8 7 9 0 q w e , * < ",
"X & r t y u i i p a t s . @ r : d $ = f ",
"X ; ; g h j j k a t s . l 9 w , z x c v ",
"o ; : j j b O o O . O @ n m M 4 N B V C ",
"X % & Z j p   l n 6 $ 1 A B m S D F G v ",
"@ H * J k a y . K D x z L P M V z S I U ",
"@ % 2 D s t s + q e e Y x x S T V R < E ",
". ; : 2 1 # . l 7 A w x x x x S W B U Q ",
"+ = ! ! A O @ K 1 D D w Y J S P ~ ^ ~ / ",
". * ; = 2 ( q n : N N D e x I ^ ^ E 5 ) ",
". = 1 : : A _ ( N ` ` Y ' E ] [ ~ I { v ",
"+ * * : : c % * A A Y } ^ ^ E | F z  ...",
". = = * * 6 x 2 A V X.[ / U < m x ` D f ",
". * = ; * 2 L D B ~ E U f F  .D 2 : 2 5 ",
"+ 1 ! ; H 2  .F o.f 5 F R x D 2 = ! ! 5 ",
". = ; 7 ; $ x S P R R S w D 2 2 : * , 5 ",
", 5 < I 5 | v v C ....f 5 < < < < < 5 v "};
