/* XPM */
static char * image_name[] = {
"20 20 113 2",
"  	c #CECECECECCCC",
". 	c #C2C2C6C6C4C4",
"X 	c #BEBEC2C2C4C4",
"o 	c #BEBEC2C2BCBC",
"O 	c #C2C2C2C2C4C4",
"+ 	c #C6C6C6C6C4C4",
"@ 	c #BABABEBEBCBC",
"# 	c #C6C6CACACCCC",
"$ 	c #86868A8A8C8C",
"% 	c #9A9AA2A2A4A4",
"& 	c #9A9A9E9E9C9C",
"* 	c #92929A9A9494",
"= 	c #929296969494",
"- 	c #96969E9E9C9C",
"; 	c #96969A9A9C9C",
": 	c #8E8E92929494",
"> 	c #82828A8A8C8C",
", 	c #86868E8E8C8C",
"< 	c #96969A9A9494",
"1 	c #8A8A92929494",
"2 	c #4E4E52525454",
"3 	c #969696969494",
"4 	c #8E8E96969494",
"5 	c #8A8A92928C8C",
"6 	c #4A4A4E4E4C4C",
"7 	c #8A8A8E8E8C8C",
"8 	c #8E8E8E8E8C8C",
"9 	c #9A9A9A9A9C9C",
"0 	c #A6A6AAAAACAC",
"q 	c #A2A2A6A6A4A4",
"w 	c #828286868484",
"e 	c #46464A4A4C4C",
"r 	c #B6B6B2B2B4B4",
"t 	c #CECECACACCCC",
"y 	c #E2E2E2E2E4E4",
"u 	c #C2C2BEBEBCBC",
"i 	c #DEDEDEDEDCDC",
"p 	c #F6F6F6F6F4F4",
"a 	c #DADADADADCDC",
"s 	c #7E7E82828484",
"d 	c #424246464444",
"f 	c #868686868484",
"g 	c #4A4A4A4A4C4C",
"h 	c #EAEAE6E6E4E4",
"j 	c #FAFAFAFAFCFC",
"k 	c #FEFEFEFEFCFC",
"l 	c #66666A6A6464",
"z 	c #3E3E42424444",
"x 	c #BEBEBEBEBCBC",
"c 	c #9A9AA2A29C9C",
"v 	c #9E9E9E9E9C9C",
"b 	c #A6A6A6A6A4A4",
"n 	c #B2B2B2B2B4B4",
"m 	c #46464A4A4444",
"M 	c #CACACACACCCC",
"N 	c #EEEEEEEEECEC",
"B 	c #AAAAAEAEACAC",
"V 	c #525256565454",
"C 	c #3A3A3E3E3C3C",
"Z 	c #8A8A8A8A8484",
"A 	c #A2A2A2A29C9C",
"S 	c #AAAAAAAAA4A4",
"D 	c #9E9E9A9A9C9C",
"F 	c #6A6A66666464",
"G 	c #E6E6E6E6E4E4",
"H 	c #626266666464",
"J 	c #3A3A3A3A3C3C",
"K 	c #9E9EA2A2A4A4",
"L 	c #7A7A76767474",
"P 	c #868682828484",
"I 	c #92928E8E8C8C",
"U 	c #EAEAEAEAECEC",
"Y 	c #D6D6D6D6D4D4",
"T 	c #363636363434",
"R 	c #4E4E4E4E4C4C",
"E 	c #6A6A6A6A6464",
"W 	c #666662625C5C",
"Q 	c #72726E6E6C6C",
"! 	c #7A7A7A7A7474",
"~ 	c #8E8E8A8A8C8C",
"^ 	c #7E7E7E7E7C7C",
"/ 	c #5A5A5A5A5C5C",
"( 	c #828282828484",
") 	c #323236363434",
"_ 	c #7A7A7E7E7C7C",
"` 	c #666666666464",
"' 	c #767672726C6C",
"] 	c #82827E7E7C7C",
"[ 	c #4A4A46464444",
"{ 	c #6A6A6A6A6C6C",
"} 	c #767672727474",
"| 	c #727272727474",
" .	c #D2D2D2D2D4D4",
"..	c #626262626464",
"X.	c #424242424444",
"o.	c #767676767474",
"O.	c #5E5E5E5E5C5C",
"+.	c #5E5E62626464",
"@.	c #AEAEAEAEACAC",
"#.	c #BABABABAB4B4",
"$.	c #2A2A2A2A2C2C",
"%.	c #727276767474",
"&.	c #929292928C8C",
"*.	c #6A6A6E6E6C6C",
"=.	c #969692929494",
"-.	c #B6B6B6B6B4B4",
";.	c #2A2A2E2E2C2C",
":.	c #BABABABABCBC",
">.	c #76767A7A7C7C",
",.	c #56565A5A5C5C",
"<.	c #5E5E66666464",
"1.	c #66666A6A6C6C",
"2.	c #6E6E72726C6C",
"  . X X o O . . . . + . o @ @ . # + @ $ ",
". % & * = - & & % ; * : > , = & < 1 = 2 ",
"O < 3 - = ; * = 4 = * 5 > 1 ; - , * = 6 ",
"X % 4 ; = - ; 4 = ; = 7 7 : & 8 : 3 - 2 ",
"o & : - ; 9 ; = * * & 0 q - 4 w 1 - & e ",
"X - ; = = * = 4 r t   y u i p a X 0 s d ",
"X - & 1 = ; 9 0 r f g +   h j k k i l z ",
"x c % 7 4 = v b n v m M a N j k k B V C ",
"@ q - > 7 Z 3 A S D C F M G p k j H 2 J ",
"x K , L L P I D b P F L A y U p Y T R C ",
". = E W Q ! P ~ ^ Z / f ( a G N ^ ) V C ",
". : _ H ` ' ] ] [ { ` } |  .a M ) C ..X.",
". : 7 o.O.+.| ( I 3 b @.#.t Y Q $.e %.m ",
"+ 4 &.s *./ g O.] =.v S -.O -.;.) +.s 6 ",
"+ = * 5 $ _ +.6 R W I A S :.O.;.C l _ d ",
". * = ; < 4 s %.*.V g F 3 ~ ;.T R %.> e ",
". = = ; & = , $ $ >.H ,.g g T z ,._ 5 6 ",
"+ ; 4 & K * : 4 = 7 s | <.V 2 2 1.> &.6 ",
". = * q & 5 , = - & 5 w _ %.*.2.s 1 7 6 ",
"1 R 2 V 6 e m 6 6 6 e 6 2 6 6 6 6 2 2 d "};
