/* XPM */
static char * gnome_menu_right_xpm[] = {
"48 48 260 2",
"  	c #BEFBC30BC71B",
". 	c #C71BC71BC71B",
"X 	c #B6DABAEABEFB",
"o 	c #B6DAB6DAB6DA",
"O 	c #BEFBBAEABEFB",
"+ 	c #BEFBBEFBBEFB",
"@ 	c #AEBAB2CAB6DA",
"# 	c #BEFBC30BBEFB",
"$ 	c #A699AAAAA699",
"% 	c #A699AAAAAEBA",
"& 	c #EFBEEBADEFBE",
"* 	c #E79DE79DE79D",
"= 	c #CF3CCF3CCF3C",
"- 	c #C71BCB2BCF3C",
"; 	c #CF3CCB2BCF3C",
": 	c #CF3CD34CCF3C",
"> 	c #CF3CD34CD75C",
", 	c #DF7DDB6CDF7D",
"< 	c #D75CD75CD75C",
"1 	c #D75CD34CD75C",
"2 	c #D75CDB6CDF7D",
"3 	c #71C679E771C6",
"4 	c #492451444924",
"5 	c #A699A699A699",
"6 	c #9E79A289A699",
"7 	c #A699AEBAAEBA",
"8 	c #9E799E799E79",
"9 	c #96589A699E79",
"0 	c #96589A699658",
"q 	c #8E3896589658",
"w 	c #8E3892489658",
"e 	c #8E388E388E38",
"r 	c #86178A288E38",
"t 	c #79E786178617",
"y 	c #79E782078617",
"u 	c #86178E388E38",
"i 	c #8E3892488E38",
"p 	c #965896589658",
"a 	c #86178A288617",
"s 	c #514455555144",
"d 	c #410349244924",
"f 	c #38E33CF338E3",
"g 	c #410345144103",
"h 	c #861786178617",
"j 	c #410341034103",
"k 	c #9E79A2899E79",
"l 	c #30C238E338E3",
"z 	c #96589E799E79",
"x 	c #AEBAAEBAAEBA",
"c 	c #38E341034103",
"v 	c #AEBAB2CAAEBA",
"b 	c #69A671C669A6",
"n 	c #410349244103",
"m 	c #4103410338E3",
"M 	c #69A669A66185",
"N 	c #30C234D330C2",
"B 	c #71C675D671C6",
"V 	c #28A22CB228A2",
"C 	c #28A228A22081",
"Z 	c #514451444103",
"A 	c #69A66DB65965",
"S 	c #965896588617",
"D 	c #69A66DB669A6",
"F 	c #71C67DF779E7",
"G 	c #30C238E330C2",
"H 	c #492451445144",
"J 	c #208124922081",
"K 	c #8E38861771C6",
"L 	c #C71BBEFB9E79",
"P 	c #BEFBBAEA9E79",
"I 	c #96589A698E38",
"U 	c #596561856185",
"Y 	c #38E338E330C2",
"T 	c #71C675D669A6",
"R 	c #4103410330C2",
"E 	c #9E79A2899658",
"W 	c #8617820769A6",
"Q 	c #BEFBB6DA9658",
"! 	c #B6DAB6DAA699",
"~ 	c #69A675D671C6",
"^ 	c #30C230C230C2",
"/ 	c #596561855965",
"( 	c #596559654924",
") 	c #C71BC30BAEBA",
"_ 	c #51444D344103",
"` 	c #C71BC30BA699",
"' 	c #D75CCB2BAEBA",
"] 	c #C71BC30BB6DA",
"[ 	c #B6DAB2CAB6DA",
"{ 	c #8E388A2879E7",
"} 	c #BEFBB6DA9E79",
"| 	c #F7DEEFBEEFBE",
" .	c #A699A289A699",
"..	c #514455554924",
"X.	c #71C671C65965",
"o.	c #CF3CCB2BAEBA",
"O.	c #DF7DDF7DDF7D",
"+.	c #EFBEEBADE79D",
"@.	c #A699A6999658",
"#.	c #B6DAAEBA9E79",
"$.	c #DF7DDB6CD75C",
"%.	c #EFBEEFBEEFBE",
"&.	c #8E388A288617",
"*.	c #CF3CC71BBEFB",
"=.	c #E79DE38DDF7D",
"-.	c #49244D344924",
";.	c #79E77DF779E7",
":.	c #69A671C671C6",
">.	c #A699A2899E79",
",.	c #618561855965",
"<.	c #71C679E779E7",
"1.	c #514451445144",
"2.	c #492449244103",
"3.	c #596559655144",
"4.	c #30C230C228A2",
"5.	c #8E388A2871C6",
"6.	c #AEBAAAAA9658",
"7.	c #208120811861",
"8.	c #41033CF330C2",
"9.	c #861779E76185",
"0.	c #A6999A6979E7",
"q.	c #A6999E798617",
"w.	c #96588E3871C6",
"e.	c #79E775D66185",
"r.	c #8617820779E7",
"t.	c #9E79965879E7",
"y.	c #BEFBAEBA9658",
"u.	c #C71BC30BC71B",
"i.	c #410338E330C2",
"p.	c #9E798E3879E7",
"a.	c #B6DAA2898E38",
"s.	c #B6DAA6998E38",
"d.	c #AEBAA2898617",
"f.	c #A69996588617",
"g.	c #9E7996588E38",
"h.	c #9E7996588617",
"j.	c #B6DAAAAA8E38",
"k.	c #E79DDF7DDF7D",
"l.	c #71C665955144",
"z.	c #AEBA9A698617",
"x.	c #AEBA9E798617",
"c.	c #A699A6999E79",
"v.	c #79E7820779E7",
"b.	c #79E76DB65965",
"n.	c #A699965879E7",
"m.	c #AEBA965879E7",
"M.	c #AEBA96588617",
"N.	c #B6DAA6999658",
"B.	c #69A665956185",
"V.	c #79E76DB66185",
"C.	c #A6998E3879E7",
"Z.	c #A699924879E7",
"A.	c #B6DA9E798E38",
"S.	c #20811C711861",
"D.	c #59654D344103",
"F.	c #AEBAA2899658",
"G.	c #861782078617",
"H.	c #86177DF771C6",
"J.	c #9E798A2879E7",
"K.	c #A6998A2879E7",
"L.	c #AEBA924879E7",
"P.	c #B6DA9A698617",
"I.	c #965892488E38",
"U.	c #596555554924",
"Y.	c #BEFBA6999658",
"T.	c #9658861779E7",
"R.	c #9E79861771C6",
"E.	c #AEBA92488617",
"W.	c #965892488617",
"Q.	c #B6DAA2899E79",
"!.	c #F7DEF3CEF7DE",
"~.	c #618561856185",
"^.	c #79E769A65965",
"/.	c #AEBA8E3879E7",
"(.	c #9E7996589658",
").	c #38E334D328A2",
"_.	c #AEBA8A2879E7",
"`.	c #A699861771C6",
"'.	c #9E79820771C6",
"].	c #38E330C228A2",
"[.	c #A699861779E7",
"{.	c #9E797DF771C6",
"}.	c #A69986178617",
"|.	c #AEBAAAAAAEBA",
" X	c #18611C711861",
".X	c #A6997DF771C6",
"XX	c #9E7979E769A6",
"oX	c #965879E769A6",
"OX	c #A6999A699E79",
"+X	c #492449244924",
"@X	c #28A228A228A2",
"#X	c #38E334D330C2",
"$X	c #28A220812081",
"%X	c #69A655554924",
"&X	c #9E7979E771C6",
"*X	c #9E7975D669A6",
"=X	c #965875D669A6",
"-X	c #AEBAA699A699",
";X	c #186118611861",
":X	c #28A224922081",
">X	c #5965410338E3",
",X	c #69A64D344924",
"<X	c #61854D344924",
"1X	c #861761855965",
"2X	c #965871C66185",
"3X	c #965871C669A6",
"4X	c #CF3CD75CD75C",
"5X	c #9E79A699A699",
"6X	c #71C651444924",
"7X	c #8E3861855965",
"8X	c #8E3865956185",
"9X	c #965869A66185",
"0X	c #96586DB66185",
"qX	c #96586DB669A6",
"wX	c #9E7971C669A6",
"eX	c #C71BBEFBBEFB",
"rX	c #C71BCF3CCF3C",
"tX	c #E79DEFBEEFBE",
"yX	c #8E388A288E38",
"uX	c #000004100000",
"iX	c #514438E338E3",
"pX	c #86175D755965",
"aX	c #965865956185",
"sX	c #B6DAAEBAAEBA",
"dX	c #E79DE38DE79D",
"fX	c #BEFBC71BC71B",
"gX	c #59655D755965",
"hX	c #000000000000",
"jX	c #59653CF338E3",
"kX	c #861755555144",
"lX	c #8E385D755965",
"zX	c #FFFFFFFFFFFF",
"xX	c #514449244924",
"cX	c #596538E338E3",
"vX	c #79E751445144",
"bX	c #8E3859655965",
"nX	c #8E3861856185",
"mX	c #BEFBB2CAB6DA",
"MX	c #618565956185",
"NX	c #596549244924",
"BX	c #D75CCF3CCF3C",
"VX	c #79E779E779E7",
"CX	c #861761856185",
"ZX	c #8E387DF779E7",
"AX	c #965869A669A6",
"SX	c #96588E388E38",
"DX	c #B6DAAAAAAEBA",
"FX	c #186120812081",
"GX	c #208120812081",
"HX	c #596559655965",
"JX	c #28A230C230C2",
"KX	c #38E338E338E3",
"LX	c #C71BCB2BC71B",
"PX	c #61856DB669A6",
"IX	c #208128A22081",
"UX	c #208128A228A2",
"YX	c #492455555144",
"TX	c #41034D344924",
"RX	c #514459655144",
"EX	c #514459655965",
"  . X X X X X o o o o o o o o X O X X X X o o X X O + + + X o @ @ @ @ @ o o O + + # # o @ o $ % ",
"o & * = = = = - ; = = = = = : > > > : > > > > , , , , < < < > > > > 1 < < < 2 , , , 2 < < o 3 4 ",
"o , + % 5 $ 5 5 6 6 6 6 6 5 5 % $ 5 $ % 7 % % 8 9 0 q w e r t y t r u i p 9 8 6 8 p u a i q s d ",
"@ > 6 i i w w i e u u e i q p p p p p 9 9 p q p p w i i u r t t r i w w 9 8 8 0 i a a i 8 u f g ",
"@ > 5 i i q q q q w w w q p p q q p p p p w i w q w i i u r t t e w w p 8 8 9 u t r i p 8 h f j ",
"@ > 7 w u q p p 9 p q w q 0 q w p p p q w i i p p w i i e r t r i w p 9 k 8 i t r q 0 0 9 y l g ",
"@ > 7 p e p p p 9 9 q w q 0 p p p p w i i i w 9 9 w e i i r a e w q 9 8 6 p a h w 0 p p 9 t f d ",
"@ > % 9 w q p p 0 0 w w p 9 9 0 p w e u w q p 9 9 q i w i u u w w p z 8 8 i t u p p p p 9 a f d ",
"x 1 % 8 p i w q p p w q 9 9 9 0 q i u e q 0 9 9 9 q i i i u i w w 0 8 k p a a q p p q 0 6 u f g ",
"x > $ 8 q a i q 0 p w p 9 9 9 p q w i w p 0 p p p i u i e u i w w 9 8 8 w t u p q q 0 6 % u l c ",
"v > 5 z q r w p 9 p q 9 9 9 9 p p p w q p b n m M a u r r r u i q 8 6 8 u a w p q 9 6 % % t N c ",
"@ > 5 9 p e p p 9 p q 9 9 p p p p q w q B V C Z A S e h D b h e 0 6 6 p a a w q p 8 % 5 8 F G d ",
"@ 1 5 p 0 q p 9 9 p q 0 p w w q q w w p H J K L L P I U V Y T p k 6 z u t u q p 0 8 5 8 w 3 N g ",
"@ > 5 w q 9 p p p w w p q w w p p q w p j R L L P L E H C W Q ! 5 8 i a r q p p 8 6 6 9 w ~ ^ g ",
"@ > 6 e w 9 p w i i w p p q p z z p w q / ( L L L ) E 4 _ ` ' ] 6 i r u w p p 9 5 5 k z q ~ N g ",
"[ > 6 w 0 k 9 r u i w p p p 9 k 8 p q p e { } L L |  ...X.o.O.+.p a u p 8 9 z 6 5 k 0 p i D N n ",
"o > 6 p 8 6 9 a u i w p 0 9 8 6 8 p q 9 9 p @.#.$.%.i &.P *.=.8 r a w k 5 6 6 6 9 i u r t D N -.",
"[ > 6 9 8 5 9 a u i w p 9 8 6 6 9 p q p w ;.:.u q i r e >.$ k ,.( a 9 5 5 9 0 p r h r h r <.l 4 ",
"@ = 6 9 k 5 9 a u i w p 9 9 8 z p q w h 1.V C Y 2.3.3 u 9 B 4.m 5.6.8 5 8 u u a t a u e 0 t f -.",
"@ = 6 z 6 6 p t r e w 0 9 9 8 8 9 q e s 7.8.9.0.q.w.e.r.p D Y t.y.u.z k q t a t t u i w 9 t f d ",
"x ; 6 8 5 6 i y a u w 0 z 8 k k 9 p h N i.p.a.s.a.d.d.f.g.9 h.j.k.%.k 8 i ;.t a r i q q p ;.l d ",
"% = 5 8 5 z a y r i q 9 8 8 6 6 z p ;.N l.z.x.x.x.x.x.s.s.c.0 i [ 0 6 9 r v.r i w w q q p F N g ",
"v = 5 8 k p y t u w p 9 8 8 k k 9 w y m b.n.m.M.M.z.x.a.s.N.w :.-.s p p t a w q q q q p p F G g ",
"[ > 6 z 9 w t h w q 0 9 8 8 8 8 p i r B.V.C.Z.Z.Z.m.z.A.a.a.i d S.D.F.w t i q p q q q p p ;.G g ",
"+ 1 z 9 p q u r w p 9 9 9 8 k 8 p u a G.H.J.K.C.Z.L.M.P.P.z.I.B U.Y.u. .t w p p q q p p p F G g ",
"+ < 8 9 w q i i q 0 9 9 9 8 6 8 w r a h h &.T.R.K.L.E.M.E.L.W.p g.Q.!.% u q p p p p p p p F G g ",
"+ < 8 p i p w i p 9 9 9 9 8 6 z i r a t a u ~.^.K./.L./.K.C.(.9 k 5 8 u i q p p p p p p p F G g ",
"+ < 9 p i p q i q 9 z 9 9 8 8 9 e r h t r i l ).K._.K.`.'.K.8 8 6 6 z w w q p p p q p p p F G n ",
"+ < p q w p q w p p 9 9 9 9 z 0 u a h a i p l ].[.[.'.{.{.}.|.8 6 6 p q w i q q q q q p 0 ;.l n ",
"+ < q w q 9 0 q p p p 0 9 z 8 p a <.:.F y ~. Xi..X{.XXoX{.OX[ z 0 q r r i u i i w q q p p F G g ",
"+ < q w p 9 9 p p p 0 9 8 8 8 a +X@X@X#X#X7.$X%X&X*X=X*XXX-X[ 0 q q q 0 k 8 9 w w w p 9 p F l d ",
"# < w i q 9 9 p q w p 9 8 6 w -.;X:X>X,X<X<X1X*X*X2X2X3X*X-X|.p 6 # > 4X> 4X  5X0 p p 9 9 v.f -.",
"# < w w q p 0 q w w p 9 8 6 r @X$X6X7X8X9X0XqXqX0X9X0XqXwXeX[ 5XrXtXyXN uXuXN yX8 9 9 z 8 h f -.",
"  < q w p p 0 q i i q 9 8 6 y :XiXpX7X8XaX9X9X9X9X9X9X0XsXdX|.fXtXgXhXhXhXhXhXhXgXh w 8 8 y l g ",
"  < q w p p 0 p i i q 9 8 8 e 4.jXkXpXlX7X8X8X8X7X8X9X(.| O.5X< yXhXhXhXhXzXhXhXhXyXD u u :.^ c ",
"  < p w q p p 0 w q p 9 8 z p xXcXvXkXbXlXlXlXlXlXnXmX| & z 5X4XN hXzXMXhXzXzXhXhXN n <.y b N j ",
"# < 9 p q p p 9 p p 9 9 8 9 p ;.NXvXkXbXbXlXlXbX8XBX| O.z 9 5X4XuXhXzXzXzXzXzXzXhXuXf 3 a 3 G g ",
"+ < 9 p w q q 9 p p z 9 9 9 w u VXCXbXbXbXlXlX(.k.| ; 9 9 p 8 rXuXhXzXzXzXzXzXzXhXuXf ;.e F G n ",
"+ < 0 w w w q 9 9 p 9 0 0 p i r a h ZXAXSX(.DX, & |.z 9 9 w 0 # N hXzXMXhXzXzXhXhXN f v.w F l g ",
"+ < 0 w w w w 9 9 p 9 9 0 q i u u u i 9 z 8 |.u.p w 9 z p u u 5XyXhXhXhXhXzXhXhXhXFXc y w ;.l d ",
"+ < p w w w w q 9 9 8 k 9 q w i i w w w q p q q w q 9 z p r u w w gXhXhXhXhXhXhXGXJ HXu p ;.l d ",
"+ < q q p q i w 9 8 8 k 9 q w i i w q q 0 p i w q q p p q u u u u <.yXN uXuXJXGXJ 4 ;.w p v.l d ",
"+ < p p p q i p 8 6 k 8 0 w i u i i q q 9 9 q q p q w w q i e e e a D -.f f f j gXv.w p 9 v.l d ",
"+ < 9 p q i w 9 6 6 6 9 q i r r u i w q p 8 8 p p q i i p q i w i w e h y y y h e p 9 9 9 y f d ",
"  < 0 w i i p 6 5 6 8 p i r a h r e w p p 8 k p i w i w 9 9 w w q p q w w q q p 9 8 8 9 9 v.KXd ",
". LXq u u w 9 5 6 8 0 i r a a h r i q p p 9 8 0 u e i u y v.<.<.F ;.F F F F F ;.y v.;.F F PXl g ",
"+ 9 s JX^ N l KXl N IXJ J J J J J J IXUXUXUXUXIXJ J J UXN N N N N N N N N N N N N N N N N V UXg ",
"y YXTXc g d -.-.TXTXYXH 4 4 4 4 YXs s RXRXEXRXs s H YXs RXEXEXRXRXs s s s s RXRXRXs RXRXs H j EX"};
