/* XPM */
static char * image_name[] = {
"48 48 226 2",
"  	c None",
". 	c #DADA8E8E7C7C",
"X 	c #DADA8A8A7474",
"o 	c #C6C67A7A6C6C",
"O 	c #BABA6E6E6464",
"+ 	c #BEBE6E6E5C5C",
"@ 	c #DEDE92927C7C",
"# 	c #D6D68E8E7C7C",
"$ 	c #CECE7E7E6C6C",
"% 	c #CECE7E7E7474",
"& 	c #BEBE72726464",
"* 	c #BABA6E6E5C5C",
"= 	c #B6B666665C5C",
"- 	c #EEEE9E9E8C8C",
"; 	c #E2E296968484",
": 	c #D6D686867474",
"> 	c #C2C276766464",
", 	c #BEBE6E6E6464",
"< 	c #B2B266665C5C",
"1 	c #A6A662625454",
"2 	c #A6A65E5E5454",
"3 	c #DADA9A9A8C8C",
"4 	c #DEDE96968484",
"5 	c #E2E28E8E7C7C",
"6 	c #969656564444",
"7 	c #8A8A4E4E4444",
"8 	c #7A7A42423838",
"9 	c #DEDE8A8A7C7C",
"0 	c #CECE7A7A6C6C",
"q 	c #B6B66A6A5C5C",
"w 	c #AAAA62625454",
"e 	c #A2A25E5E4C4C",
"r 	c #9A9A5A5A4A4A",
"t 	c #86864A4A4444",
"y 	c #767642423C3C",
"u 	c #5A5A32322C2C",
"i 	c #DEDE9E9E8C8C",
"p 	c #DADA96968484",
"a 	c #E2E292928484",
"s 	c #DADA8A8A7C7C",
"d 	c #D6D682827474",
"f 	c #969656564C4C",
"g 	c #8E8E52524444",
"h 	c #82824A4A4444",
"j 	c #6E6E42423434",
"k 	c #626236362C2C",
"l 	c #3E3E22221C1C",
"z 	c #EAEAA6A69494",
"x 	c #DADA92928484",
"c 	c #CECE76766464",
"v 	c #C2C272726464",
"b 	c #9E9E5E5E4C4C",
"n 	c #86864E4E4444",
"m 	c #7A7A46463C3C",
"M 	c #6E6E3E3E3434",
"N 	c #5E5E36362C2C",
"B 	c #E6E6A2A29494",
"V 	c #E2E29A9A8C8C",
"C 	c #DADA86867474",
"Z 	c #AEAE62625757",
"A 	c #767646463C3C",
"S 	c #62623E3E3434",
"D 	c #525232322C2C",
"F 	c #3E3E26261C1C",
"G 	c #F2F2AAAA9C9C",
"H 	c #D2D27E7E6C6C",
"J 	c #C6C676766464",
"K 	c #A2A25A5A4C4C",
"L 	c #8E8E56564444",
"P 	c #66663A3A3434",
"I 	c #4E4E2E2E2C2C",
"U 	c #4A4A2E2E2424",
"Y 	c #020202020404",
"T 	c #EAEAAAAA9494",
"R 	c #EEEEAAAA9797",
"E 	c #EEEEA2A29494",
"W 	c #D2D282827070",
"Q 	c #8A8A52524C4C",
"! 	c #6A6A3E3E3434",
"~ 	c #16160E0E0C0C",
"^ 	c #E6E6A6A69494",
"/ 	c #F2F2A6A69494",
"( 	c #F2F29E9E8C8C",
") 	c #E6E696968484",
"_ 	c #8A8A52524444",
"` 	c #5A5A36362C2C",
"' 	c #4E4E32322C2C",
"] 	c #46462E2E2C2C",
"[ 	c #2A2A1A1A1414",
"{ 	c #F6F6A2A28C8C",
"} 	c #EAEA9A9A8484",
"| 	c #CECE76766C6C",
" .	c #7E7E46463C3C",
"..	c #6A6A3A3A3434",
"X.	c #565632322C2C",
"o.	c #32321E1E1C1C",
"O.	c #929256564C4C",
"+.	c #7E7E4A4A3C3C",
"@.	c #4A4A2E2E2C2C",
"#.	c #42422A2A2424",
"$.	c #E6E68E8E7C7C",
"%.	c #CECE82826C6C",
"&.	c #7E7E4A4A4444",
"*.	c #46462A2A2424",
"=.	c #DADA9E9E8C8C",
"-.	c #D6D692928484",
";.	c #AEAE66665858",
":.	c #9A9A56564C4C",
">.	c #525236362C2C",
",.	c #929252524C4C",
"<.	c #82824A4A3C3C",
"1.	c #46462E2E2424",
"2.	c #EEEEB2B29C9C",
"3.	c #96965A5A4444",
"4.	c #BABA66665454",
"5.	c #A6A656564C4C",
"6.	c #9A9A52524444",
"7.	c #A2A256564C4C",
"8.	c #8E8E4E4E4646",
"9.	c #8E8E52524C4C",
"0.	c #9E9E5A5A4C4C",
"q.	c #A6A65A5A4C4C",
"w.	c #A2A25E5E5454",
"e.	c #2E2E1E1E1C1C",
"r.	c #8E8E56563C3C",
"t.	c #929252524444",
"y.	c #96964E4E4444",
"u.	c #F6F6B2B20404",
"i.	c #868652524444",
"p.	c #868652523C3C",
"a.	c #F6F6B2B21414",
"s.	c #AAAA66664444",
"d.	c #9E9E5E5E4444",
"f.	c #92925A5A3C3C",
"g.	c #9E9E66663434",
"h.	c #82824E4E4444",
"j.	c #8A8A4A4A3C3C",
"k.	c #F6F6BABA2424",
"l.	c #F6F6B6B61414",
"z.	c #AEAE7A7A3C3C",
"x.	c #AEAE6E6E3434",
"c.	c #B2B276762C2C",
"v.	c #AAAA72722C2C",
"b.	c #6E6E4A4A2C2C",
"n.	c #F6F6C2C24444",
"m.	c #F6F6C6C64C4C",
"M.	c #D6D6AAAA3C3C",
"N.	c #CECE8E8E3434",
"B.	c #C2C282822424",
"V.	c #7A7A52522424",
"C.	c #2E2E26261C1C",
"Z.	c #323226261C1C",
"A.	c #666642423C3C",
"S.	c #F6F6BEBE3434",
"D.	c #FAFACECE6C6C",
"F.	c #FAFAD2D27474",
"G.	c #F6F6CECE6C6C",
"H.	c #F6F6C6C64444",
"J.	c #E6E6B2B22C2C",
"K.	c #CECE92922C2C",
"L.	c #86865E5E2424",
"P.	c #424232321C1C",
"I.	c #7E7E4E4E4444",
"U.	c #FAFAD2D26C6C",
"Y.	c #FAFADEDE9898",
"T.	c #FAFAE6E6ACAC",
"R.	c #FAFACECE6464",
"E.	c #EEEEBEBE4444",
"W.	c #9A9A76762C2C",
"Q.	c #66664A4A2424",
"!.	c #6A6A42423C3C",
"~.	c #464632322C2C",
"^.	c #76764A4A4444",
"/.	c #F6F6D6D68888",
"(.	c #FEFEF6F6DCDC",
").	c #F2F2D2D28484",
"_.	c #C6C6A6A65454",
"`.	c #8A8A72723434",
"'.	c #7E7E5E5E2C2C",
"].	c #42422E2E2C2C",
"[.	c #FEFEEEEECCCC",
"{.	c #FEFEFAFAF4F4",
"}.	c #F2F2D6D68C8C",
"|.	c #E6E6BEBE5C5C",
" X	c #E6E6B6B63C3C",
".X	c #CECE9E9E2424",
"XX	c #666642422424",
"oX	c #42422E2E2424",
"OX	c #222216161414",
"+X	c #CECEA6A64444",
"@X	c #E6E6C2C26464",
"#X	c #FAFAE6E6BCBC",
"$X	c #F6F6CACA5454",
"%X	c #F6F6BABA1C1C",
"&X	c #EAEAAEAE1414",
"*X	c #CECE96960C0C",
"=X	c #96966E6E0404",
"-X	c #56563E3E0404",
";X	c #1A1A12120404",
":X	c #0A0A06060404",
">X	c #6A6A56561C1C",
",X	c #7E7E66662C2C",
"<X	c #BABA96964444",
"1X	c #E2E2C2C26464",
"2X	c #FAFAE2E2ACAC",
"3X	c #FAFAD6D67C7C",
"4X	c #F2F2C6C65454",
"5X	c #D6D69E9E1414",
"6X	c #CACA92920404",
"7X	c #BEBE8A8A0404",
"8X	c #AEAE7E7E0404",
"9X	c #6E6E4E4E0404",
"0X	c #363626260404",
"qX	c #929272722424",
"wX	c #BEBE96963434",
"eX	c #D6D6AEAE4C4C",
"rX	c #F2F2CECE6C6C",
"tX	c #FAFAD6D67474",
"yX	c #66664A4A0404",
"uX	c #626246460404",
"iX	c #52523A3A0404",
"pX	c #3A3A2A2A0404",
"aX	c #1E1E16160404",
"sX	c #12120E0E0404",
"dX	c #22221A1A0404",
"fX	c #F2F2BABA2C2C",
"                                                                                                ",
"                                                                                                ",
"                                                                                                ",
"                                                                                                ",
"                                                                                                ",
"                                                                                                ",
"                                                                                                ",
"                                                                                                ",
"                                                                        . X o O +               ",
"                                                                    @ # $ % & * = =             ",
"                                                                - ; ; : > & , < 1 2             ",
"                                                              3 4 4 5 % O , = 1 6 7 8           ",
"                                                            ; @ . 9 9 0 q w e r t y u           ",
"                                                        i p ; a s d 0 , 1 f g h j k l           ",
"                                                      z 4 # x 9 : c v = b n m M N u             ",
"                                                    B V ; . C d 0 v Z b 7 A S N D F             ",
"                                                  G - @ 4 X $ H J Z K L y P u I U Y             ",
"                                              T R E V x C W 0 , = b Q m ! u I U ~ Y             ",
"                                            ^ R / ( ) : H 0 J q 2 _ m M ` ' ] [ Y Y             ",
"                                          ^ B E { } 5 W 0 | , 2 Q  ...N X.U o.Y Y Y             ",
"                                        ^ B 3 - ) C C v O + w O.+.M N D @.#.Y Y Y Y             ",
"                                      T 3 4 @ ; $.%.0 O Z w O.&.M N X.I *.Y Y Y Y               ",
"                                    =.=.-.x a s d v , ;.e :.t y M >.@.#.Y Y Y Y Y               ",
"                                T =.3 V x x X W 0 , < 2 ,.<.y P N I 1.Y Y Y Y Y                 ",
"                              2.^ p -.; ) s $ J & Z 2 3.<.y ! ` D @.~ Y Y Y Y Y                 ",
"                            2.T =.-.x ; C d & q 4.2 f g y P N D @.~ Y Y Y Y Y                   ",
"                          J 5.:.6.7.4.c W v q w w f 8.y P ` ' U ~ Y Y Y Y Y Y                   ",
"                        L _ 9.,.7 7 0.q.7.Z < w.r _ y ..` ' ] e.Y Y Y Y Y Y                     ",
"                        :.r.Q 9.7 7 3.t.8.y.7.r y.m P X.I 1.o.Y Y Y Y Y Y Y                     ",
"                  u.u.  r 6 L i.p.r.3.7 7 t.t.t y ..` ' 1.o.Y Y Y Y Y Y Y                       ",
"                  u.a.  s.d.3.f.g.d.r.h.g g j.m P N D 1.F Y Y Y Y Y Y Y                         ",
"                  k.l.  z.x.x.c.v.b.! n h.n h  .X.>.' #.Y Y Y Y Y Y                             ",
"          a.a.n.n.n.n.m.M.N.N.B.V.C.Z.A.h n 7 t I @.] Y Y Y Y Y Y                               ",
"          l.S.n.D.F.F.G.H.J.K.L.P.P.o.D I.n h.A 1.#.~ Y Y Y Y Y                                 ",
"          S.m.U.Y.T.T.Y.R.E.W.Q.b.!.~.] ^.n &.! ] e.Y Y Y Y                                     ",
"          m.R./.T.(.(.T.)._.`.'.f.p.S ].S h.&.>.e.Y Y Y Y Y                                     ",
"          m.F.Y.[.{.{.[.}.|. X.X  XXS oX].@.OXY Y Y Y Y Y                                       ",
"          +X@X}.#X(.(.#X}.$X%X&X*X=X-X;X:XY Y Y Y Y Y Y                                         ",
"        >X,X<X1X).Y.2XY.3X4XJ.5X6X7X8X9X0X~ :XY Y Y Y                                           ",
"          qXwXeXrXtX3XF.rX          yXyXuXiXpXaXsX                                              ",
"                m.n.H.4X                aXaXdXaX                                                ",
"                  fXfX                                                                          ",
"                  u.l.                                                                          ",
"                                                                                                ",
"                                                                                                ",
"                                                                                                ",
"                                                                                                ",
"                                                                                                "};
