/* XPM */
static char * image_name[] = {
"48 48 229 2",
"  	c #C6C6CACAC7C7",
". 	c #BABABEBEBCBC",
"X 	c #BABABABABCBC",
"o 	c #B6B6BABABCBC",
"O 	c #BEBEC2C2C4C4",
"+ 	c #BEBEBEBEBCBC",
"@ 	c #C2C2C2C2C4C4",
"# 	c #B2B2B6B6B4B4",
"$ 	c #B2B2BABAB4B4",
"% 	c #C2C2C6C6C4C4",
"& 	c #AAAAAEAEACAC",
"* 	c #EEEEF2F2F4F4",
"= 	c #EAEAEAEAECEC",
"- 	c #D2D2D2D2D4D4",
"; 	c #CECED2D2D2D2",
": 	c #CACACECECCCC",
"> 	c #D2D2D6D6D4D4",
", 	c #D6D6D6D6D4D4",
"< 	c #D6D6DADAD7D7",
"1 	c #DEDEDEDEDCDC",
"2 	c #E2E2E2E2E4E4",
"3 	c #DADADEDEDCDC",
"4 	c #DADADADADCDC",
"5 	c #72727A7A7878",
"6 	c #4E4E52525454",
"7 	c #A6A6AAAAACAC",
"8 	c #A6A6AEAEACAC",
"9 	c #A2A2AAAAA4A4",
"0 	c #A2A2A6A6A4A4",
"q 	c #9E9EA2A2A4A4",
"w 	c #9A9A9E9E9C9C",
"e 	c #AAAAB2B2AFAF",
"r 	c #9A9AA2A29E9E",
"t 	c #8A8A8E8E8D8D",
"y 	c #8E8E92929494",
"u 	c #8E8E96969595",
"i 	c #86868E8E8D8D",
"p 	c #828286868484",
"a 	c #7E7E86868C8C",
"s 	c #8A8A92929292",
"d 	c #96969A9A9C9C",
"f 	c #9E9EA6A6A4A4",
"g 	c #56565A5A5B5B",
"h 	c #4A4A4E4E4D4D",
"j 	c #929296969494",
"k 	c #86868A8A8C8C",
"l 	c #7E7E82828383",
"z 	c #7E7E86868484",
"x 	c #82828A8A8888",
"c 	c #7A7A7E7E7D7D",
"v 	c #7A7A82828282",
"b 	c #3E3E42424444",
"n 	c #46464A4A4B4B",
"m 	c #868692929494",
"M 	c #92929A9A9797",
"N 	c #7E7E8A8A8C8C",
"B 	c #6E6E76767575",
"V 	c #727276767575",
"C 	c #3A3A3A3A3C3C",
"Z 	c #424246464444",
"A 	c #6E6E72727474",
"S 	c #76767A7A7B7B",
"D 	c #36363A3A3939",
"F 	c #7A7A7A7A7C7C",
"G 	c #96969E9E9C9C",
"H 	c #3E3E3E3E3E3E",
"J 	c #AEAEB6B6B4B4",
"K 	c #6A6A6E6E6C6C",
"L 	c #76767E7E7D7D",
"P 	c #AEAEB2B2B4B4",
"I 	c #767676767474",
"U 	c #8A8A92929C9C",
"Y 	c #6A6A72727272",
"T 	c #727272727474",
"R 	c #66666A6A6A6A",
"E 	c #1E1E1E1E1C1C",
"W 	c #222222222424",
"Q 	c #3A3A3E3E3C3C",
"! 	c #626266666565",
"~ 	c #5A5A5E5E5C5C",
"^ 	c #5E5E62626262",
"/ 	c #525256565555",
"( 	c #666666666464",
") 	c #52525A5A5555",
"_ 	c #2E2E2E2E2C2C",
"` 	c #323236363434",
"' 	c #2E2E2A2A2C2C",
"] 	c #323232323434",
"[ 	c #5A5A5A5A5C5C",
"{ 	c #424242424444",
"} 	c #32322E2E2C2C",
"| 	c #6A6A6A6A6C6C",
" .	c #363636363434",
"..	c #2E2E32323333",
"X.	c #4E4E4E4E4C4C",
"o.	c #464646464444",
"O.	c #767682828484",
"+.	c #5E5E66666767",
"@.	c #7A7A82828C8C",
"#.	c #222226262424",
"$.	c #4A4A4A4A4C4C",
"%.	c #363632323434",
"&.	c #626262626464",
"*.	c #4E4E56565656",
"=.	c #66666E6E6E6E",
"-.	c #565656565454",
";.	c #1A1A1A1A1C1C",
":.	c #2A2A26262424",
">.	c #22221A1A1C1C",
",.	c #2A2A22222424",
"<.	c #26261A1A1C1C",
"1.	c #1A1A16161414",
"2.	c #262622222424",
"3.	c #3A3A36363434",
"4.	c #5A5A62626161",
"5.	c #4A4A52525050",
"6.	c #525252525454",
"7.	c #161616161414",
"8.	c #424232323434",
"9.	c #525236363434",
"0.	c #62623A3A3C3C",
"q.	c #7E7E3E3E3C3C",
"w.	c #666632323434",
"e.	c #52522A2A2C2C",
"r.	c #3A3A22222424",
"t.	c #2A2A2E2E2C2C",
"y.	c #36362E2E2C2C",
"u.	c #565642423C3C",
"i.	c #7A7A4A4A4C4C",
"p.	c #82824A4A4C4C",
"a.	c #8E8E52525454",
"s.	c #7A7A46464444",
"d.	c #76763A3A3C3C",
"f.	c #5A5A2E2E2C2C",
"g.	c #1E1E1A1A1C1C",
"h.	c #1A1A1E1E1C1C",
"j.	c #22221E1E1C1C",
"k.	c #4E4E3E3E3C3C",
"l.	c #72724E4E4C4C",
"z.	c #828262625C5C",
"x.	c #9A9A6A6A6C6C",
"c.	c #969662626464",
"v.	c #96965A5A5C5C",
"b.	c #7E7E4E4E4C4C",
"n.	c #7A7A3A3A3C3C",
"m.	c #4A4A26262424",
"M.	c #1E1E16161414",
"N.	c #262626262525",
"B.	c #56565E5E5C5C",
"V.	c #46464E4E4C4C",
"C.	c #5A5A4A4A4C4C",
"Z.	c #7E7E5E5E5C5C",
"A.	c #9E9E6E6E6C6C",
"S.	c #AEAE82828181",
"D.	c #AEAE7E7E7C7C",
"F.	c #A6A672727474",
"G.	c #9A9A5E5E5C5C",
"H.	c #8A8A52525454",
"J.	c #7E7E46464444",
"K.	c #6A6A36363434",
"L.	c #5E5E2E2E2C2C",
"P.	c #16161A1A1C1C",
"I.	c #323226262424",
"U.	c #969672727474",
"Y.	c #B2B28A8A8C8C",
"T.	c #92925A5A5C5C",
"R.	c #6A6A3A3A3C3C",
"E.	c #464626262424",
"W.	c #2A2A2A2A2C2C",
"Q.	c #4A4A2E2E2C2C",
"!.	c #8E8E66666464",
"~.	c #A2A272727474",
"^.	c #8E8E56565454",
"/.	c #626236363434",
"(.	c #52522E2E2C2C",
").	c #2A2A1E1E1C1C",
"_.	c #565632323434",
"`.	c #6A6A46464444",
"'.	c #828256565454",
"].	c #9A9A72727474",
"[.	c #AEAE7A7A7C7C",
"{.	c #A6A676767474",
"}.	c #66663A3A3C3C",
"|.	c #3E3E2A2A2C2C",
" X	c #6A6A42424444",
".X	c #8A8A5E5E5C5C",
"XX	c #A2A26E6E6C6C",
"oX	c #9A9A66666464",
"OX	c #92925E5E5C5C",
"+X	c #86864E4E4C4C",
"@X	c #6A6A3E3E3C3C",
"#X	c #36362A2A2C2C",
"$X	c #42424A4A4949",
"%X	c #42422A2A2C2C",
"&X	c #828252525454",
"*X	c #8A8A4E4E4C4C",
"=X	c #727242424444",
"-X	c #5A5A36363434",
";X	c #3A3A2A2A2C2C",
":X	c #6E6E72727C7C",
">X	c #26262A2A2929",
",X	c #26261E1E1C1C",
"<X	c #6E6E3E3E3C3C",
"1X	c #868652525454",
"2X	c #767646464444",
"3X	c #3A3A2E2E2C2C",
"4X	c #5E5E36363434",
"5X	c #6E6E42424444",
"6X	c #5A5A3A3A3C3C",
"7X	c #3E3E2E2E2C2C",
"8X	c #525232323434",
"9X	c #62623E3E3C3C",
"0X	c #56563A3A3C3C",
"qX	c #3E3E36363434",
"wX	c #3A3A32323434",
"eX	c #5E5E5E5E5C5C",
"rX	c #62626A6A6868",
"tX	c #42422E2E2C2C",
"yX	c #4A4A32323434",
"uX	c #B6B6BEBEC4C4",
"iX	c #82828A8A9494",
"pX	c #4A4A36363434",
"aX	c #464642424444",
"sX	c #7E7E8E8E9494",
"dX	c #3E3E3A3A3C3C",
"fX	c #C6C6C6C6C4C4",
"gX	c #82828E8E9595",
"hX	c #7E7E8A8A9494",
"jX	c #3E3E46464848",
"    . . . . . . X X o o . . . . O + . . + . . . . O O @ O . o # $ # # # o . O O % % % . # X & & ",
"X * = - ; ; - : ; > > > : : > , > < , , < , > 1 2 1 1 3 1 4 , < , < < < 4 4 1 1 1 2 1 < < o 5 6 ",
"X 1 % & 7 8 & 9 0 q q 0 q w 8 & 7 8 8 8 e & & r w w t y u i p a p i s u d w f 0 r d t i u d g h ",
"# < 0 y j j j u u y y y y p k k p l p p p p z p k x c i p v v v i y j j w r q d y i i y q i b n ",
"# < 7 m u j j j M M u u k k v s t t y y y t k t t k c N z v B B B V V v p t i x v z u M r v C Z ",
"# > e y t M d M d d j p p d c t M d d M j y j M w x z y y i p x s u j j d y l A V l l k t S D n ",
"$ < e M s j d d d w y c M w t F M j j s u y j d w S z u s t i y j d G r q d x x u w y l v x H h ",
"# , & d u j j M G j p k d G w v j M y y t s t k x A z k u m y u j d w q q s x s j t l y c i b h ",
"J < 8 w M u j j G z p j d w d l K c 5 5 l p t j u A l K S L p y j d G q G i i j l F y w l s b n ",
"P , & q j i s j y l u d w w u a I z t y y d w d t I B C g V v c L p j f y k s p v M w 0 y p D b ",
"# , 7 w j t j j l k j M M U l L S Y V T R V y w x S b E W Q ! p s s t k v l c l y d 0 e y v D Z ",
"J < 8 G j s j l k u u j y i B S T ~ ^ / Z D ( y I ) _ ` Z ' ] n 5 w 0 M S ! l M d r & 7 y A D h ",
"J , & d d u s c y u j d j k c u t v V p K D [ y ! { } ! v ! n _ { ! k x A c l M M w 0 r l |  .n ",
"# > 0 y u M l s k k j M d a x j w j S t l H Q c / ..n v t i k A X._ o.) O.j l t 0 f r w t +.` o.",
"o > f k k x k y l O.u M s @.M w w M L V l o.W ~ n #.h L O.k j r p $.H { R S k l 7 7 G r s +.` o.",
"# < 9 j y p l L v T t d p a w f q t [ { $...E H %._ H H Q Z X.&./ ) ) h b C &.F d r j u y / b *.",
"# , 9 M d y j c =.-.A y L j q 7 w A C  ._ ;.;.:.>.,.<.<.1.;.;.W 2.} 3.H C D 6 =.( c p N N 4.b 5.",
"o , 0 w G s G i k +.$.X.^ a w f t 6.o.5.] E 7.8.9.0.q.w.w.e.r.<.7.t.n [ R [ K c ^ +.Y V x L D 6 ",
"J ; 0 d d t d i t v ! n C { 6.[ 6 t.C $. ._ y.u.i.p.a.s.q.q.d.f.<.g.h K | ! S z L A z k u x H 6 ",
"& : 0 r w t d x i s k K 4.D E h.E j.:.` ]  .k.l.z.x.c.v.b.q.n.w.m.M.N.~ ~ B.Y v p L p u M z b V.",
"e ; 0 q q t s z k s j c l h E E h.h.j.W W C C.Z.A.S.D.F.G.H.J.K.L.r.M.Q ^ 6 Y x k i l d M v C V.",
"& ; 7 f q x k z i u d S g  .{ -. .;.h.7.P.I.u.Z.U.S.Y.S.A.T.p.R.f.E.>.;.h 4.! i u j z i d L D o.",
"# > 7 q d z z x s u k *._ { c c C N.W.;.P.>.Q.l.!.S.S.S.~.c.^.s./.(.).g.] ~ | p j j y l d v Q o.",
"# , 0 r w F x x y k ) _ b 5 t ( W _ ..P.;.I._.`.'.].D.[.{.x.T.J.}.(.I.W ] Z V S s d d i y v Q n ",
"O < w w G F i i y | ..b S M a b W ` ] N.1.|.f.0. X.Xx.XXA.oXOX+X@X(.#X:.C H 6.^ R p k s k v $Xn ",
"O 4 q G y c y N K Z { K j k &._ _ Z D ..;.,.%XE.E. X&X.XOXc.v.*X=X-X;X' $.[ h V V c K l c A b $.",
"O < q G m L t R / ~ K :Xc V ~ >Xb 6 o.Q W.h.:.,X<.-X<Xs.b.1XH.+X2X-X3X' b v -.~ V c t d l B b 5.",
"% 4 w j y F V V.-.A Y V V A b ] h g $XQ D _ N.W 1.E.4XR.<X5X2X2X5X6X7X_ C j v ( ~ K y M p S Q 6 ",
"% < j u u K [ 5.R L B ( V ~ ` $.4./ Z $Xn h n ..P.2.7X8X4X/./.0.9X0XqXwXH y u k eX! l M p 5 D 6 ",
"e   u s c g rX5 @.5 S V Y g Z +.+.) 5.g 4.! ~ { W ` t.' tX8.yX9.8XyX8.3.{ i u p L l S y l S C 5.",
". uXiX@.T ( k t a @.i j Y 6 / rX! 6 ! K V V A 6 :.C H C ' #Xy.tXpXyX8.3.aXy s V y t c p c 5 C h ",
". : i i sXa k u i i U m :Xo.~ K 4.^ L p k z c eX..$.5.n C b dX .3X%. .3./ j l p M d s z z v Q 5.",
"fX< y y j t a U iXgXgXm :Xg | V ^ x i s y t k R D g ~ 6 h h ^ Y S { %.] ^ i L y G d d i z c H 6 ",
"  3 u u d G p k hXhXu k Y V 5 B O.iXi s s m gXB { ! =.B.rX=.Y c x s u o.p l s M d q G y d L b *.",
"fX3 j u j d j @.hXhXU p 5 U U R L i s M d j j c h A V | c p Y k y j j j t c j d M j p k s B b b ",
"% 4 d j M d M i x U U @.p d t v Y B l t d M j l -.V V V k s L v j j j d c j j M d i S z N B ` Z ",
"fX4 G j j j d j z s j p s u p y p v p c v p i l ~ A S p t y p S j M u p l d j j j S x k i 5 C n ",
"% 3 w d j d j w p k d y d p p y i t u M d y k S 6.| x s s y y S x j y V M j j j k z y u y c D n ",
"@ 4 d j y u M w M v G d d L s i i k j q w d j k ^ | c v p p x k S y p k d d j u c s j j M L C n ",
"% < G u u y j d G l k G k c s s s s u j G d d t A p y u k c V L V c S d M M M k k j u M j v Q n ",
"% 4 d j j y u j w w c d S j y s y y j j j j j y v z j G j i s x S V t j j j y l j j j d d v Q h ",
"@ < u j d d y j d w y v t M j u u j M j G M m y k x j d j y s y u c t M j j l i j y j j d z C n ",
"% < u M M M y M q 0 k A y s y s u y j j w w u i y i t u M y u y y p c j j k c j d j M G d z Q V.",
"% 4 w d j y j w f d k t l S Y K K L c c k t j m i k t y M M s u u j p s u p y M M G w w r z Q h ",
"% 4 d j j u d 0 q y j j u t i i i i s s k t p l L B B V l l l p x y t p i k d d w w q w w l C h ",
": : M s s u w 0 u M j j t i x x t s j d G w q d s u y s c L Y Y A K Y K 5 L v l l z v v L Y Q n ",
"O w g ] ] ` Q C  . .>X>X#.>XN.#.>X>X>XW.t.t.t.>XN.>XN.t.D  .` D D  .D  . . .D D D  . .D ` t.>Xn ",
"p / h jXn h h 5.h 5./ 6 6 6 6 6 / g ) g g g g -.) / ) ) g ~ ~ g g ) / ) ) ) g g g ) g g g / o.~ "};
