/* XPM */
static char * image_name[] = {
"48 48 241 2",
"  	c #C4C4CACAC6C6",
". 	c #B9B9BDBDBCBC",
"X 	c #BDBDC3C3C1C1",
"o 	c #B2B2B6B6B4B4",
"O 	c #B0B0BABAB1B1",
"+ 	c #C2C2C6C6C4C4",
"@ 	c #AAAAAEAEACAC",
"# 	c #EEEEF2F2F4F4",
"$ 	c #EAEAEAEAECEC",
"% 	c #D3D3D6D6D4D4",
"& 	c #CECED2D2D2D2",
"* 	c #D6D6DADAD6D6",
"= 	c #DBDBDBDBDCDC",
"- 	c #E2E2E2E2E4E4",
"; 	c #72727A7A7777",
": 	c #505054545454",
"> 	c #A4A4AAAAA7A7",
", 	c #A2A2A6A6A4A4",
"< 	c #ACACB3B3B1B1",
"1 	c #9E9EA2A2A3A3",
"2 	c #96969E9E9C9C",
"3 	c #96969A9A9C9C",
"4 	c #919197979494",
"5 	c #8C8C92929191",
"6 	c #8A8A8E8E8C8C",
"7 	c #828286868383",
"8 	c #9A9A9E9E9C9C",
"9 	c #56565A5A5959",
"0 	c #4A4A4D4D4C4C",
"q 	c #9A9A96968C8C",
"w 	c #7E7E86868585",
"e 	c #85858B8B8A8A",
"r 	c #3B3B3E3E3C3C",
"t 	c #46464B4B4B4B",
"y 	c #7E7E8E8E9494",
"u 	c #464646464444",
"i 	c #3E3E4A4A4C4C",
"p 	c #7E7E82828484",
"a 	c #79797F7F7D7D",
"s 	c #616176768181",
"d 	c #61617A7A8C8C",
"f 	c #6A6A81818484",
"g 	c #393968689C9C",
"h 	c #7E7E82827474",
"j 	c #76767A7A7A7A",
"k 	c #6D6D73737272",
"l 	c #727276767474",
"z 	c #414144444444",
"x 	c #4E4E7C7CAAAA",
"c 	c #3C3C7676BCBC",
"v 	c #7E7E9A9A9494",
"b 	c #8B8BA5A57C7C",
"n 	c #86869E9E7070",
"m 	c #82829A9A7C7C",
"M 	c #7A7A92927C7C",
"N 	c #8E8E9A9A7C7C",
"B 	c #72728E8E5C5C",
"V 	c #7A7A90906868",
"C 	c #787880806060",
"Z 	c #6B6B6E6E5454",
"A 	c #6A6A6E6E6C6C",
"S 	c #A6A6AEAEACAC",
"D 	c #5A5A7E7E9C9C",
"F 	c #3A3A7E7EC4C4",
"G 	c #5D5D8B8BB7B7",
"H 	c #BABAB6B6A4A4",
"J 	c #9292A4A49C9C",
"K 	c #767696969C9C",
"L 	c #90909E9E7878",
"P 	c #9696A4A48484",
"I 	c #868696966464",
"U 	c #6A6A86865454",
"Y 	c #66667A7A5454",
"T 	c #5E5E66665858",
"R 	c #3A3A3A3A3C3C",
"E 	c #48487D7DB5B5",
"W 	c #4D4D8383B9B9",
"Q 	c #DEDED6D6ACAC",
"! 	c #7A7A9292ACAC",
"~ 	c #6E6E8E8EACAC",
"^ 	c #B6B6A9A97F7F",
"/ 	c #B6B6AEAE8484",
"( 	c #A6A6A2A28C8C",
") 	c #B6B6AAAA6C6C",
"_ 	c #8E8E86865C5C",
"` 	c #797976765C5C",
"' 	c #66666A6A6A6A",
"] 	c #343437373636",
"[ 	c #41417A7AB1B1",
"{ 	c #4E4E7E7EB4B4",
"} 	c #D6D6D2D2BCBC",
"| 	c #FBFBFAFAD9D9",
" .	c #68688C8CA4A4",
"..	c #DADABEBE9494",
"X.	c #CCCCB7B78E8E",
"o.	c #92928F8F6F6F",
"O.	c #C4C4B6B68989",
"+.	c #D0D0C4C48D8D",
"@.	c #C6C6B4B46C6C",
"#.	c #AAAA9A9A6060",
"$.	c #616167676464",
"%.	c #78788C8C9191",
"&.	c #F3F3F2F2BCBC",
"*.	c #FEFEFEFEDBDB",
"=.	c #FDFDFDFDF0F0",
"-.	c #8282A2A2A8A8",
";.	c #9696AEAEB4B4",
":.	c #606084849C9C",
">.	c #ADADA7A78181",
",.	c #F2F2D2D29C9C",
"<.	c #E3E3D1D19C9C",
"1.	c #ACACAAAA9494",
"2.	c #A2A2B2B28C8C",
"3.	c #C3C3BCBC8282",
"4.	c #C6C6AEAE6C6C",
"5.	c #A5A599996060",
"6.	c #5D5D5E5E4C4C",
"7.	c #727280808484",
"8.	c #49497A7AABAB",
"9.	c #CECEDADAD4D4",
"0.	c #E2E2E6E6CCCC",
"q.	c #FEFEFAFAB8B8",
"w.	c #FAFAEAEAA4A4",
"e.	c #D3D3CACA9C9C",
"r.	c #80807A7A5454",
"t.	c #494952524F4F",
"y.	c #5C5C60605F5F",
"u.	c #76769E9EBCBC",
"i.	c #FEFEFEFECACA",
"p.	c #FBFBF9F9CCCC",
"a.	c #DEDEDADAA4A4",
"s.	c #F9F9F7F7B9B9",
"d.	c #FBFBF2F2A8A8",
"f.	c #BDBDB4B48484",
"g.	c #6E6E6A6A4C4C",
"h.	c #626262626464",
"j.	c #54548383A8A8",
"k.	c #BABABCBCA0A0",
"l.	c #B6B6BABA9494",
"z.	c #F4F4ECECABAB",
"x.	c #B6B6B3B38888",
"c.	c #9C9C96966868",
"v.	c #84847E7E5858",
"b.	c #323232323434",
"n.	c #4B4B75759999",
"m.	c #52528686B9B9",
"M.	c #CCCCCACAC0C0",
"N.	c #E2E2DEDEA4A4",
"B.	c #909098987070",
"V.	c #9C9C9A9A7878",
"C.	c #A2A29A9A7474",
"Z.	c #696968685050",
"A.	c #B2B2C2C2A0A0",
"S.	c #BFBFC7C79E9E",
"D.	c #E6E6E6E6ACAC",
"F.	c #F6F6E6E6ACAC",
"G.	c #E6E6DFDFB0B0",
"H.	c #727272725C5C",
"J.	c #8E8EA6A6B4B4",
"K.	c #BABACACA9C9C",
"L.	c #DEDEE2E2ACAC",
"P.	c #EAEAE2E29C9C",
"I.	c #E8E8D6D69898",
"U.	c #2D2D3D3D4949",
"Y.	c #4F4F53534949",
"T.	c #51518A8ABCBC",
"R.	c #62629292B4B4",
"E.	c #7A7A9696ACAC",
"W.	c #6A6A9696B4B4",
"Q.	c #9E9EBBBB9191",
"!.	c #A2A2C2C29494",
"~.	c #C6C6C6C69C9C",
"^.	c #DDDDD0D09F9F",
"/.	c #EFEFD7D79999",
"(.	c #DCDCC4C48F8F",
").	c #B6B6A2A27C7C",
"_.	c #2C2C3E3E5858",
"`.	c #26263A3A4C4C",
"'.	c #3F3F6F6FA1A1",
"].	c #56568B8BB9B9",
"[.	c #8282AEAE8C8C",
"{.	c #8282AAAA8484",
"}.	c #8E8EAEAE8484",
"|.	c #2D2D53537171",
" X	c #28284C4C6E6E",
".X	c #22223E3E5454",
"XX	c #3F3F6A6A9797",
"oX	c #5A5A8484A8A8",
"OX	c #8A8A9E9E9494",
"+X	c #AAAABEBE9494",
"@X	c #9898B0B08C8C",
"#X	c #AAAAB4B48C8C",
"$X	c #CCCCBEBE8E8E",
"%X	c #CBCBB8B88282",
"&X	c #E5E5C5C58F8F",
"*X	c #2F2F4E4E6A6A",
"=X	c #222244446060",
"-X	c #626262624C4C",
";X	c #45457676AAAA",
":X	c #C0C0BCBC9191",
">X	c #515167677777",
",X	c #222239394B4B",
"<X	c #3A3A4A4A4C4C",
"1X	c #969698988484",
"2X	c #BCBCACAC7E7E",
"3X	c #ADAD9F9F7676",
"4X	c #4E4E62627070",
"5X	c #20203E3E6767",
"6X	c #2C2C2F2F2D2D",
"7X	c #464672729C9C",
"8X	c #D6D6CECEB4B4",
"9X	c #565666667474",
"0X	c #3B3B62628B8B",
"qX	c #EAEAEAEACCCC",
"wX	c #A2A2AAAA7C7C",
"eX	c #AEAE9E9E6464",
"rX	c #373755556C6C",
"tX	c #20203A3A5656",
"yX	c #212131313D3D",
"uX	c #31315F5F8E8E",
"iX	c #404066668888",
"pX	c #CECEC6C6A4A4",
"aX	c #272745456161",
"sX	c #292955558282",
"dX	c #A2A2A2A27474",
"fX	c #2F2F47476161",
"gX	c #2A2A2A2A2C2C",
"hX	c #3E3E5A5A7474",
"jX	c #2E2E5A5A8C8C",
"kX	c #F4F4E0E0A4A4",
"lX	c #A1A19E9E7474",
"zX	c #3E3E52526464",
"xX	c #252528282626",
"cX	c #2A2A42425151",
"vX	c #24244D4D7E7E",
"bX	c #2E2E56568080",
"nX	c #E2E2CACA9494",
"mX	c #C6C6A2A27C7C",
"MX	c #7A7A6A6A6C6C",
"NX	c #262645456C6C",
"BX	c #1F1F45457676",
"    . . . . . . . . . . . . . . X . . . . . . . . X X X X . . o O o o o . . X X X + + . o . @ @ ",
". # $ % & & & & & & & & & % % % % * % * = % % - - - - = = = % * % * * * = = = - - - = * * o ; : ",
". = X @ @ @ > , > , , , , > @ @ > @ > @ < < > 1 2 3 3 4 5 6 7 7 7 6 5 5 3 8 1 1 1 2 6 6 4 3 9 0 ",
"o = , 4 5 4 4 4 5 5 5 5 5 4 3 3 3 3 8 2 3 3 4 4 q 5 5 5 5 6 w w 6 5 4 4 2 1 1 8 5 e 6 5 1 6 r t ",
"o * > 4 5 3 4 4 4 4 4 4 3 3 3 3 4 4 4 3 4 5 6 5 4 6 6 6 y 6 w e 5 5 4 3 1 1 3 5 e 6 4 4 1 y r u ",
"o % < 4 5 4 3 3 8 3 3 4 4 2 4 5 4 4 5 5 6 6 e 6 6 e e e e w w w 6 4 4 2 1 , 4 e 6 4 3 2 2 7 r i ",
"o % @ 3 5 q 3 3 8 3 3 4 4 3 3 4 5 5 6 7 w w 7 e e p a a p a a w e 6 q 2 1 4 e e 4 2 3 3 8 7 r 0 ",
"o * < 8 4 3 3 4 3 8 4 4 4 3 3 5 5 7 s d f g f 6 ; h j k k l ; a w 6 4 3 3 5 w 5 3 3 3 3 3 6 z 0 ",
"< % @ 1 3 5 4 3 3 3 5 4 3 q 4 w x c c v b b n m M N B V C Z A k l p 6 4 6 w w 4 4 4 4 2 1 6 z t ",
"< * S 1 4 6 5 4 3 4 4 5 4 5 D F G H J v K J L P n n N I B U Y T A l p 7 h a e 5 5 4 2 , < 5 R z ",
"o * > 8 3 y 4 3 3 4 4 5 y x E W o Q S ! y ~ 3 ^ / 8 s h ( ^ ) _ ` ' l j l l e 5 5 3 , @ S w ] u ",
"o % S 2 4 4 4 3 3 4 6 w [ { G } | | | | X  .{ 4 5 ..X.q o.O.N +.@.#.A ' $.k a 7 6 3 > > 1 h ] 0 ",
"o % @ 3 3 3 3 2 4 5 %.E W   &.| *.=.=.*.&.X -.;.:.%.>.X.,.<.1.2.3.4.5.6.: ' j p 6 3 1 8 5 7.] t ",
". * , 4 3 3 3 4 5 7 8.W 9.*.| | =.| | *.*.| | | 0.. v Q q.w.e.N 3.4.5.r.t.y.A j e 4 2 3 4 l ] u ",
"o * , 5 4 2 q 5 e D E u.=.=.=.| =.| | *.*.i.| | =.p.a.w.s.d.<.+.f.#.#.o.g.: h.k 7 4 4 4 4 l ] u ",
". % > 4 2 1 3 7 7.[ j.9.| =.=.| *.i.*.| p.s.*.*.=.*.k.l.z.q.a.x.f.5.c.v.o.: 9 A p 7 e 6 y A b.0 ",
". % , 3 8 , 4 p n.E m.M.a.s.| | | | =.=.| | | | | i.N.%.e.d.w.B.V.C.5.v.C Z.: h.' k a h w k ] t.",
"o % > 3 1 , 5 a [ W m.O A.S.D.&.*.*.=.| *.*.=.=.*.i.z.%.3.F.s.G.x.$.H._ r.H.u 0 9 h.k ; w ; R : ",
". & > 2 8 , 5 s c E m.J.S.A.S.K.K.L.&.&.z.s.s.s.s.d.P.( N F.q.d.I.T U.6.Z g.Y.z 0 y.A a 6 7.r t.",
"o & , 8 , 8 e n.[ W m.T.R.E.W.u.Q.!.!.Q.Q.~.^././.,.(.f.B.<.^.).j _.`.U.9 Z 0 ] u 9 ' j e h R t ",
"< & > 8 , 3 p '.8.W W T.].T.G ].K Q.[.[.{.}.2.x.O.X.f.X.>.7.s |. X.XU..XY.g.i ] z 9 ' j 7 ; R t ",
"< & > 1 1 4 j XX[ E W m.T.].m.oXOX+XQ.}.@X@X#Xk.X.$X%X&X&XI.+.*X=X.X.X`.Y.-X`.b.z 0 $.k p l ] u ",
"o & S 1 8 6 l g ;XW E W m.m.j.j.2 k.+Xl.:Xx.3.f.O.$X$X%X(.+.>X=X=X,X.X,X<X9 ,Xb.z 0 h.k p k ] u ",
"o % , 3 4 e k g '.c W { W W W { :.e.$X+...%XO.^ 1X2XO.3X_ 4X X=X5X.X`..XU.i .X6XR t 9 A a k ] u ",
"X % 1 2 5 e ; g '.7X[ 8.8.x x x D 8X^.(.&X(.f.2X^ ).#.9X|. X=X=X.X.X.X.X,XU.,X6XR t y.' a k ] u ",
"X * 1 3 6 e ; 0Xg '.;X;X8.n.n.n.:.} G.(...3./ 2X2X3X9X|. X X=X.X,X.X.X.X.X.X,X6XR u 9 A ; k ] u ",
"+ * 8 3 e e a 0Xg g '.7X;X7X7X'.k.<.qX<.&X3.wX>.eXc.rX|. X=X=X.X,X,X,X.X,XtXyX6X] u 9 ' j A ] u ",
"X * 8 4 6 e a >XuXg g '.'.'.'.iXpX^.^.^.+./ wXP C.c.rX XaX=XtX,X.X.X.X,X.X.XyX6XR t 9 ' a k ] i ",
"+ = 3 4 6 6 a A sXuX0Xg g iXXX0X5 ^.I.^.+.x.dXB.o.7 fXaXt .X.X,X.X.X.X.X,X.XgX6XR t y.A a k ] t ",
"+ = 4 5 5 6 7 l hXjXuXuX0X0X0X0Xd D.kX<.3.f.lXh >X*XzXv.' .X,X.X,X,X.X,X.XyXxXb.r 0 y.k a l ] u ",
"+ * 3 4 4 5 e j y.sXsXjXuXuXuXuX4X0.w.(.O.2XlX$.aXaX6.` cX.X.X.X.X,X.X.X,XxXxXb.r : h.l p k ] t ",
"+ = 5 5 5 5 e 7.A zXvXsXsXbXbXsXbX2.F.nX3.) ` *X=XaXZ.i .X.X,X.X,X.X,X,XyXxX6X] t : ' a 7 ; r 0 ",
"+ = 5 5 q 5 e a A y. X XvX X XvX X>X$XX.mXMXaX=X=X5XcX5XtX.XtX.X,X.X,XyXxXgXb.r : h.k 7 5 p z 0 ",
"  = 3 4 4 4 5 7 l $.: =XNX X X XvXvX X*XfX.X5X5X5X.X.X.X=X.X=X.X.X.X.XxXxX6XR z : ' j e 5 a ] i ",
"  = 4 4 4 5 5 e l ' y.0 tX5X.XNXBXBXBXBX5XBX5X5X5X.X.X.X.X.X.X.XtXtXxXxX6Xb.r Y.9 ' j p 7 k b.z ",
"+ = 3 4 4 4 5 6 p j ' y.0 _.tX5X5X5X5X5X5X5X.X5X.X.X=XtX5X.X=XtXtXxXxXxXb.R u 9 $.k l ; p A ] u ",
"+ = 8 3 3 3 4 4 7 p l ' 9 0 _.5X5XtX5X5X5X5X.X.X.X.X5X5XtXtX=XyXxXxXxXb.r u : y.' l a p e ; ] t ",
"+ = 8 4 4 4 5 4 6 e p k ' : t R tX5XtX5XtX5X5X5X.X.XtX=X=XyXxXxXxXxX] R z 0 y.' j p 7 y 6 7.R t ",
"+ = 8 4 5 3 4 3 5 6 e j k h.: u r ] `.,XtXtX5XtXtXtXyXxXxXxXxXxX6Xb.R z : y.' l h e 6 5 5 a R t ",
"X * 3 4 4 5 4 3 3 5 6 7 j A y.: i z R ] 6XyXxXyXxXxXxX6XyXxXxX6X] r t : y.' l a 7 6 6 4 3 h R t ",
"X = 3 4 4 4 5 4 3 3 3 4 7 l ' h.: Y.0 z r r ] ] ] yX] ] ] ] ] r i t 9 h.' l p 7 e 6 5 4 3 w R 0 ",
"+ = 4 4 3 4 4 4 3 8 8 3 6 7 j k ' y.9 : Y.t z r z z r z z z i t.Y.y.$.A j a 7 6 5 5 5 4 3 h r 0 ",
"+ = 3 q 3 4 5 3 1 1 8 3 5 e p ; l A A h.y.6.9 Y.Y.t.0 t.: : 9 9 h.' l j p 7 6 5 4 4 4 3 2 p R t ",
"X * 8 3 4 5 4 8 , , , 8 5 6 p h a a l l k k A $.h.h.y.y.' ' Z.k l j p 7 e 6 4 4 4 8 8 8 2 w r 0 ",
"+ = 2 4 4 4 4 , > , 1 3 5 y w p 7.w h p a p h ; k k k A j j l a p 7 6 6 5 5 4 3 8 1 1 2 2 w r 0 ",
"M.& 4 5 5 5 8 > > 1 3 4 6 e e w e 6 6 6 e 6 6 7 j j a a l l A k l j j j a a a p p p 7.p p A r t ",
". 8 9 b.] R R r r ] gXxXxXxXxXxXxXxXxXgXxXxXxXxXxXxXxXxXb.] b.] ] ] ] ] ] R R ] R R ] ] ] 6XgXt ",
"e 9 0 z u 0 0 0 0 0 : : t.t.Y.t.: : : 9 9 : : : 0 0 : : : 9 9 9 : : 9 : : 9 9 9 9 9 9 9 9 : z y."};
