/* XPM */
static char * image_name[] = {
"48 48 241 2",
"  	c None",
". 	c #46466A6A9494",
"X 	c #60607C7C8888",
"o 	c #363666669E9E",
"O 	c #6A6A82828C8C",
"+ 	c #8D8D92927979",
"@ 	c #6A6A7A7A7C7C",
"# 	c #79797B7B7070",
"$ 	c #70706E6E5C5C",
"% 	c #34346C6CA6A6",
"& 	c #3C3C7676BCBC",
"* 	c #82829A9A9494",
"= 	c #86869E9E7070",
"- 	c #8A8AA6A67C7C",
"; 	c #82829A9A7C7C",
": 	c #7A7A92927474",
"> 	c #8E8E9A9A7474",
", 	c #76768E8E6060",
"< 	c #787886866464",
"1 	c #5E5E5E5E4444",
"2 	c #3C3C7C7CBCBC",
"3 	c #57578A8AB8B8",
"4 	c #B6B6B9B99090",
"5 	c #9696A6A69C9C",
"6 	c #7A7A9A9A9494",
"7 	c #9696A2A28C8C",
"8 	c #8E8EA0A07474",
"9 	c #A2A2AAAA7C7C",
"0 	c #868696966464",
"q 	c #6A6A86865454",
"w 	c #66667A7A5454",
"e 	c #424252523434",
"r 	c #3E3E7373AAAA",
"t 	c #4C4C8383B8B8",
"y 	c #B6B6B1B1AAAA",
"u 	c #D5D5D3D3CECE",
"i 	c #A6A6AEAEACAC",
"p 	c #79799595A9A9",
"a 	c #6C6C8E8EA8A8",
"s 	c #929296969C9C",
"d 	c #ABABA9A99E9E",
"f 	c #B6B6B0B09090",
"g 	c #9D9D9B9B7979",
"h 	c #626276767C7C",
"j 	c #808084847878",
"k 	c #ABABA2A27777",
"l 	c #B8B8A9A97E7E",
"z 	c #B6B6AAAA6C6C",
"x 	c #8E8E86865C5C",
"c 	c #767672724444",
"v 	c #4B4B7C7CAEAE",
"b 	c #60609090B8B8",
"n 	c #FBFBFAFAD8D8",
"m 	c #FEFEFCFCCBCB",
"M 	c #BABAC6C6B4B4",
"N 	c #54547E7EA8A8",
"B 	c #8E8E9A9A8C8C",
"V 	c #88888C8C8C8C",
"C 	c #DADABEBE9494",
"Z 	c #CCCCBDBD8A8A",
"A 	c #98989A9A8C8C",
"S 	c #90908E8E8686",
"D 	c #C3C3B6B68888",
"F 	c #CFCFC6C69191",
"G 	c #C2C2B6B67474",
"H 	c #A6A696965C5C",
"J 	c #363636363434",
"K 	c #45457B7BB3B3",
"L 	c #52528585B5B5",
"P 	c #BEBECACAC4C4",
"I 	c #F5F5F5F5C2C2",
"U 	c #FDFDFAFAB6B6",
"Y 	c #FDFDFDFDF3F3",
"T 	c #8282A2A2ACAC",
"R 	c #9696AEAEB4B4",
"E 	c #606084849C9C",
"W 	c #727282828484",
"Q 	c #CCCCB6B68989",
"! 	c #F1F1D5D59C9C",
"~ 	c #E6E6CCCC9898",
"^ 	c #ADADA7A78181",
"/ 	c #AAAAB2B28C8C",
"( 	c #C3C3BCBC8282",
") 	c #C6C6B0B06C6C",
"_ 	c #2E2E2E2E2B2B",
"` 	c #CECEDADAD4D4",
"' 	c #F4F4F4F4F3F3",
"] 	c #E5E5E4E4E0E0",
"[ 	c #B2B2C2C2A0A0",
"{ 	c #DDDDD3D39E9E",
"} 	c #F4F4ECECABAB",
"| 	c #D3D3CACA9C9C",
" .	c #828276765454",
"..	c #76769E9EBCBC",
"X.	c #FEFEFEFEDCDC",
"o.	c #E1E1DDDDA8A8",
"O.	c #FAFAF2F2AEAE",
"+.	c #D1D1C2C28989",
"@.	c #A9A99A9A6060",
"#.	c #626262624C4C",
"$.	c #D6D6D6D6BCBC",
"%.	c #FAFAF6F6BCBC",
"&.	c #BABABEBE9C9C",
"*.	c #A2A29C9C6868",
"=.	c #83837E7E5F5F",
"-.	c #92928E8E6464",
";.	c #222222222424",
":.	c #CECECACAB4B4",
">.	c #77778D8D8F8F",
",.	c #FAFAF2F2A0A0",
"<.	c #929296967474",
"1.	c #7C7C7C7C5C5C",
"2.	c #020202020404",
"3.	c #9E9EB8B89090",
"4.	c #C1C1CBCB9F9F",
"5.	c #E8E8E4E4B0B0",
"6.	c #C0C0BCBC9191",
"7.	c #F3F3E5E5A9A9",
"8.	c #EAEAE2E29C9C",
"9.	c #B7B7B0B08181",
"0.	c #666666666464",
"q.	c #717172726161",
"w.	c #0E0E0E0E0C0C",
"e.	c #51518A8ABCBC",
"r.	c #8E8EA6A6B4B4",
"t.	c #BEBEC6C69F9F",
"y.	c #DEDEE2E2ACAC",
"u.	c #A2A29C9C7474",
"i.	c #9090A0A09C9C",
"p.	c #E8E8D6D69898",
"a.	c #60606C6C6464",
"s.	c #28283D3D5454",
"d.	c #444444444343",
"f.	c #333363639494",
"g.	c #6A6A9696B4B4",
"h.	c #76769A9AB4B4",
"j.	c #A2A2C2C29494",
"k.	c #9E9EBEBE9494",
"l.	c #C6C6C6C69C9C",
"z.	c #DADACECEA4A4",
"x.	c #343444445050",
"c.	c #4B4B4B4B4B4B",
"v.	c #141414141414",
"b.	c #3A3A6A6A9E9E",
"n.	c #56568E8EBCBC",
"m.	c #8E8EB6B68C8C",
"M.	c #8282AEAE8C8C",
"N.	c #8282AAAA8484",
"B.	c #8E8EAEAE8484",
"V.	c #A2A2B2B28C8C",
"C.	c #373754546B6B",
"Z.	c #28284C4C6E6E",
"A.	c #30304C4C6363",
"S.	c #767676765858",
"D.	c #57578585A7A7",
"F.	c #AAAAB6B68C8C",
"G.	c #9898B0B08C8C",
"H.	c #E6E6C6C68C8C",
"J.	c #37374D4D5F5F",
"K.	c #5A5A5C5C5C5C",
"L.	c #282828282929",
"P.	c #45457474A5A5",
"I.	c #DADAC4C48C8C",
"U.	c #54546C6C7979",
"Y.	c #555566667777",
"T.	c #787874746D6D",
"R.	c #878785857D7D",
"E.	c #96968C8C7070",
"W.	c #9F9F9C9C9494",
"Q.	c #A7A7A2A29A9A",
"!.	c #BABAB8B8ADAD",
"~.	c #C0C0BCBCB5B5",
"^.	c #C7C7C4C4BCBC",
"/.	c #62628A8AACAC",
"(.	c #CECEC6C6A4A4",
").	c #979794948989",
"_.	c #AEAE9D9D7272",
"`.	c #43435B5B6F6F",
"'.	c #929292928989",
"].	c #B1B1AFAFA7A7",
"[.	c #3C3C3C3C3B3B",
"{.	c #3F3F6C6C9C9C",
"}.	c #D6D6CECEB4B4",
"|.	c #DFDFC4C49292",
" X	c #B6B6A2A27C7C",
".X	c #37375A5A7777",
"XX	c #2D2D5C5C8C8C",
"oX	c #4B4B75759797",
"OX	c #DEDED6D6B1B1",
"+X	c #EAEADEDEB4B4",
"@X	c #BEBEB0B08282",
"#X	c #C2C2C2C2BABA",
"$X	c #CACACACAC4C4",
"%X	c #292955558080",
"&X	c #E2E2D2D29C9C",
"*X	c #CACABEBE9C9C",
"=X	c #999996969797",
"-X	c #A5A5A7A79C9C",
";X	c #CFCFCCCCC6C6",
":X	c #52525A5A6464",
">X	c #1B1B38385A5A",
",X	c #404066668888",
"<X	c #9C9C96966868",
"1X	c #525252525454",
"2X	c #32325E5E8E8E",
"3X	c #868692929494",
"4X	c #9E9EA2A27474",
"5X	c #1F1F44447474",
"6X	c #3A3A62628E8E",
"7X	c #36365E5E8989",
"8X	c #F6F6DEDEA4A4",
"9X	c #4A4A5A5A6464",
"0X	c #1B1B1B1B1C1C",
"qX	c #EAEAEAEACCCC",
"wX	c #FAFAE6E6ACAC",
"eX	c #DADAD6D6D0D0",
"rX	c #24244D4D7D7D",
"tX	c #2E2E56568080",
"yX	c #FAFAEAEAA4A4",
"uX	c #2A2A45455C5C",
"iX	c #E2E2DEDEDCDC",
"pX	c #21213E3E6161",
"aX	c #2E2E4E4E6F6F",
"sX	c #C6C6A2A27C7C",
"dX	c #7A7A6A6A6C6C",
"fX	c #2F2F46465E5E",
"gX	c #242444446060",
"hX	c #272746466C6C",
"jX	c #DCDCDBDBD6D6",
"kX	c #0B0B13131C1C",
"lX	c #B5B5B6B6B1B1",
"zX	c #0E0E1A1A2424",
"xX	c #222238385858",
"cX	c #1F1F3E3E6D6D",
"vX	c #EAEAE6E6E4E4",
"bX	c #ECECECECE9E9",
"nX	c #16162D2D4444",
"mX	c #7E7E7E7E7C7C",
"MX	c #09090A0A0C0C",
"NX	c #161622222C2C",
"BX	c #313133333535",
"                                                                                                ",
"                                                                                                ",
"                                                                                                ",
"                                                                                                ",
"                                                                                                ",
"                                                                                                ",
"                                                                                                ",
"                                      . X o O + @ # $                                           ",
"                                % & & * = - ; : : > , < < 1                                     ",
"                            % 2 3 4 5 6 6 7 8 9 8 = 8 0 q q w e                                 ",
"                          r 2 t y u i p a a s d f g h j k l z x c                               ",
"                        & v b u n m m n M a N B V C Z A S D > F G H J                           ",
"                      K L P I U Y Y Y n n M T R E W d Q ! ~ ^ / ( ) H _                         ",
"                    r t ` n n n n n n n n m ' Y ] [ B { U } | > Z ) H  .                        ",
"                  % v ..Y Y Y Y Y n X.n n m m X.Y n o.} U O.{ +.G @.@.x #.                      ",
"                  K L $.n Y Y n X.m n X.n %.n n Y n &.4 } U o.f D *.*.=.-.;.                    ",
"                % t L :.o.I m n X.X.Y Y X.X.X.n X.X.o.>.| } ,.+ <.*.@.=.1.1 2.                  ",
"                2 K L 3.&.4.5.I n n n n n n n Y n U } >.6.7.,.8.9.0.q.x =.q.w.                  ",
"                K t e.r.&.t.t.4.4.y.I I } %.U m U O.7.u.i.7.,.,.p.a.s.1 $ $ d.w.                ",
"              f.K t t e.g.h.b T 3.j.k.3.k.l.z.p.! ! C Q <.{ { ^ # x.s.x.#.c c.v.v.              ",
"              b.2 t t e.e.n.3 n.p k.m.M.N.B.V.4 D Z f Q ^ W h C.Z.A.x.A.1 S.e ;.;.              ",
"              b.K K L L e.e.L D.i.F.3.B.G.G.F.D Z Z Z H.H.! F C.A.A.J.A.K.q.J.L._ J             ",
"              o P.t t t L e.D.L i.&.4 4 6.9.( f D Z Z Z I.I.U.Y.T.R.E.A W.Q.d !.!.~.^.          ",
"              o r & K v t t v N /.(.l.+.C Z D l ).9.D _.E.U.`.q.y T.'.'.W.Q.].y ~.~.^.[.        ",
"              f.{.K v v v v v v X }.z.I.|.C D l l  X_.Y..XU.R.!.~.# E.'.W.Q.].!.~.^.^._ d.      ",
"              XXb.{.r P.v oXv oXE OX+X|.|.( l @X@X_.Y..XU.q.~.~.#XT.S ).W.Q.].!.~.^.$XL.[.      ",
"              %Xo b.{.P.P.P.P.P.!.{ 5.&X|.( 9 ^ _.@.`.C.T.W.*X^.#XT.<.=XW.-Xy ~.^.^.;X;.[.:X    ",
"              >XXXo {.{.{.{.{.,X(.z.{ { +.9.9 g g <X`..XR.T.q.q.$ T.=XW.-Xd y ~.^.;X;X;._ 1X    ",
"                %X2Xf.o ,X,X{.,X3Xz.&X{ F 9.4X<.+ V C.C.).'.S S S S W.Q.-X].!.^.^.;Xu ;.L.c.    ",
"                5XXX2X6X6X6X6X7XX 7.8X&X6.G 4X< Y.C.9XR.=X=XS S '.'.=X=XQ.d y !.~.u u 0X_ c.    ",
"                  %X%XXXXX2X7X2X,XqXwX|.D 9.*.a.Z.A.0.=.W.W.W.W.Q.Q.d d ].!.^.^.;Xu eX0XL.c.    ",
"                  >XrX%XtX%XXXtXtX9 yX~ ( l T.A.uXA.$ :XW.Q.S S '.'.-Xy Q.i y ~.~.u iXv._ d.    ",
"                    pXrXrXZ.aXaXrXY.Z Q sXdXfXgXgXhXJ.C.d -Xd d ].].!.!.^.$Xu u eXjX] v._ c.    ",
"                    kXgXhXZ.gXZ.rXrXrXA.fXgXpX5XgXZ.A.J.].].W.W.W.S =XW.y lX~.#XeXiX] 0XL.d.    ",
"                      zXxXgXpXgX5X5X5X5XcXcXcXpXgXfXA.J.y y ].d y ].lX~.;X;Xu ;XiX] vXv.L.d.    ",
"                        w.>XxXcX5XcXcXcXcXpXpXgXgXfXJ.C.^.~.R.S W.R.y ;XeX;X^.;X;XjXbXv.L.c.    ",
"                          2.nX>XcXpXpXpXpXpX>Xs.uXuXA.C.^.^.mXR.'.W.#Xu jXjXjXjXiX] ' 0XL.c.    ",
"                            2.kXnXcX>XpXpXpXpXpXgXZ.A.J.^.$XT.R.V -X~.~.#XP ^.;XbXbX' v.L.d.    ",
"                              2.2.MXNXnXnXcXpXpXxXs.s.BX$X;XR.V !.W.;XiXiXvXvXbXbX' ' 0X_ d.    ",
"                                  2.2.2.2.2.2.2.MXw.0XL.;X;X^.~.u $XjXiX] ;Xu u eX' Y 0XL.c.    ",
"                                    2.2.2.2.2.2.MXw.0XL.;Xu eXeXjXiX] ] bX] ] bXbX' Y 0XL.d.    ",
"                                          2.2.2.MXv.0XL.eXeXeXjXiX] ] bXbXbX' ' Y Y Y 0X_ d.    ",
"                                                    0XL.[.d.d.d.[.[.J BX_ L.L.;.L.;.0Xv.L.[.    ",
"                                                          d.[.[.d.[.[.J _ L.L.L.L.0X0X0X;.      ",
"                                                                c.c.c.d.[.J BXBXBX_ _ _ BX      ",
"                                                                                                ",
"                                                                                                ",
"                                                                                                "};
