/* XPM */
static char * image_name[] = {
"48 48 211 2",
"  	c None",
". 	c #020202020404",
"X 	c #8A8A86867C7C",
"o 	c #F6F6F6F6F4F4",
"O 	c #56564A4A3C3C",
"+ 	c #E6E6E2E2D4D4",
"@ 	c #EAEAE6E6DCDC",
"# 	c #5A5A52524444",
"$ 	c #4E4E46463C3C",
"% 	c #B2B2B6B6B4B4",
"& 	c #AEAEB2B2ACAC",
"* 	c #AEAEAEAEACAC",
"= 	c #C2C2C6C6C4C4",
"- 	c #EEEEEAEAE4E4",
"; 	c #DEDEDADAD4D4",
": 	c #4A4A46463C3C",
"> 	c #CECECECECCCC",
", 	c #CACACACACCCC",
"< 	c #C6C6C6C6C4C4",
"1 	c #CACACECECCCC",
"2 	c #C6C6CACAC4C4",
"3 	c #BEBEC2C2C4C4",
"4 	c #BEBEBEBEBCBC",
"5 	c #B6B6BABABCBC",
"6 	c #B6B6B6B6B4B4",
"7 	c #B2B2B2B2B4B4",
"8 	c #DADADADADCDC",
"9 	c #FAFAFAFAF4F4",
"0 	c #6E6E62624C4C",
"q 	c #4A4A42423434",
"w 	c #EEEEEEEEECEC",
"e 	c #EAEAEAEAECEC",
"r 	c #E6E6E6E6E4E4",
"t 	c #E2E2E6E6E4E4",
"y 	c #DEDEDEDEDCDC",
"u 	c #DADADEDEDCDC",
"i 	c #D6D6D6D6D4D4",
"p 	c #D2D2D6D6D4D4",
"a 	c #D2D2D2D2D4D4",
"s 	c #C2C2C2C2C4C4",
"d 	c #96969A9A9C9C",
"f 	c #D6D6D2D2CCCC",
"g 	c #BEBEB6B6A4A4",
"h 	c #9A9A8E8E7474",
"j 	c #929286866C6C",
"k 	c #FEFEFEFEFCFC",
"l 	c #FAFAFAFAFCFC",
"z 	c #F2F2F2F2F4F4",
"x 	c #EAEAEEEEECEC",
"c 	c #E2E2E2E2E4E4",
"v 	c #DEDEE2E2E4E4",
"b 	c #D6D6DADADCDC",
"n 	c #CECED2D2CCCC",
"m 	c #BEBEC2C2BCBC",
"M 	c #BABABABABCBC",
"N 	c #AAAAAAAAACAC",
"B 	c #828282828484",
"V 	c #9E9EA2A2A4A4",
"C 	c #CACABEBEACAC",
"Z 	c #BEBEB2B29C9C",
"A 	c #8A8A7A7A6C6C",
"S 	c #66665A5A4444",
"D 	c #5E5E4E4E4444",
"F 	c #F6F6FAFAFCFC",
"G 	c #C6C6CACACCCC",
"H 	c #BABABEBEBCBC",
"J 	c #7E7E7E7E7C7C",
"K 	c #B6B6AAAA9494",
"L 	c #CECEC2C2ACAC",
"P 	c #BABAB2B29C9C",
"I 	c #A2A296967C7C",
"U 	c #5E5E56564444",
"Y 	c #46463E3E3434",
"T 	c #76767A7A7474",
"R 	c #9A9A92927C7C",
"E 	c #C2C2BABAA4A4",
"W 	c #AEAEA6A69494",
"Q 	c #AEAEB2B2B4B4",
"! 	c #A6A6A6A6A4A4",
"~ 	c #6E6E6E6E6C6C",
"^ 	c #727276767474",
"/ 	c #7A7A7A7A7C7C",
"( 	c #D2D2CACABCBC",
") 	c #96968A8A7474",
"_ 	c #66665A5A4C4C",
"` 	c #AAAAAEAEACAC",
"' 	c #A2A2A6A6A4A4",
"] 	c #666666666464",
"[ 	c #92928E8E8484",
"{ 	c #C2C2BABAACAC",
"} 	c #C2C2B6B6A4A4",
"| 	c #7E7E6E6E5454",
" .	c #A2A2A2A2A4A4",
"..	c #A6A6AAAAACAC",
"X.	c #828286868484",
"o.	c #5E5E5E5E5C5C",
"O.	c #5E5E62626464",
"+.	c #6A6A6A6A6C6C",
"@.	c #929292928484",
"#.	c #828272726464",
"$.	c #727266665454",
"%.	c #868686868484",
"&.	c #8A8A8E8E8C8C",
"*.	c #9A9A9A9A9C9C",
"=.	c #9E9E92927C7C",
"-.	c #A6A69A9A8484",
";.	c #7A7A6E6E5C5C",
":.	c #626256564444",
">.	c #7E7E82828484",
",.	c #767676767474",
"<.	c #727272727474",
"1.	c #86868A8A8C8C",
"2.	c #6E6E72726C6C",
"3.	c #5A5A5A5A5C5C",
"4.	c #626266666464",
"5.	c #6A6A6E6E6C6C",
"6.	c #82827A7A6464",
"7.	c #6A6A62625454",
"8.	c #9A9A8E8E7C7C",
"9.	c #767666665454",
"0.	c #121216161414",
"q.	c #7A7A7E7E7C7C",
"w.	c #66666A6A6C6C",
"e.	c #626262626464",
"r.	c #8E8E8E8E8C8C",
"t.	c #BEBEB6B69C9C",
"y.	c #929286867474",
"u.	c #525246463C3C",
"i.	c #36363A3A3434",
"p.	c #969696969494",
"a.	c #6E6E72727474",
"s.	c #AEAEA2A28C8C",
"d.	c #4A4A3E3E3434",
"f.	c #424242424444",
"g.	c #8E8E92929494",
"h.	c #86867E7E7474",
"j.	c #86867A7A6C6C",
"k.	c #AAAAA2A28C8C",
"l.	c #6A6A62624C4C",
"z.	c #52524A4A3C3C",
"x.	c #3E3E3E3E3C3C",
"c.	c #323232323434",
"v.	c #CECED2D2D4D4",
"b.	c #7E7E82827C7C",
"n.	c #76767A7A7C7C",
"m.	c #B2B2A6A69494",
"M.	c #AAAA9E9E8484",
"N.	c #3A3A3A3A3C3C",
"B.	c #B6B6BABAB4B4",
"V.	c #8A8A8A8A8484",
"C.	c #AAAA9A9A8484",
"Z.	c #8E8E7A7A6C6C",
"A.	c #2E2E2E2E2C2C",
"S.	c #8E8E8A8A7C7C",
"D.	c #AAAAA2A29494",
"F.	c #9E9E92928484",
"G.	c #32322E2E2424",
"H.	c #36363A3A3C3C",
"J.	c #1A1A1A1A1C1C",
"K.	c #929296969494",
"L.	c #A6A69E9E8C8C",
"P.	c #6A6A5E5E4C4C",
"I.	c #424236362C2C",
"U.	c #222222222424",
"Y.	c #5A5A4E4E4444",
"T.	c #86868A8A8484",
"R.	c #6E6E66665454",
"E.	c #DADACECEBCBC",
"W.	c #8A8A7E7E6464",
"Q.	c #3E3E3A3A2C2C",
"!.	c #9A9A9E9E9C9C",
"~.	c #868682827474",
"^.	c #C6C6BABAACAC",
"/.	c #3E3E36363434",
"(.	c #2A2A2A2A2424",
").	c #B6B6AEAE9C9C",
"_.	c #A2A296968484",
"`.	c #42423E3E3434",
"'.	c #D6D6CECEC4C4",
"].	c #D2D2C6C6B4B4",
"[.	c #A2A292927C7C",
"{.	c #5A5A4E4E3C3C",
"}.	c #0E0E0E0E0C0C",
"|.	c #CACAC2C2ACAC",
" X	c #BEBEB2B2A4A4",
".X	c #7A7A6A6A5454",
"XX	c #7E7E76766464",
"oX	c #8E8E82826C6C",
"OX	c #9E9E9E9E9C9C",
"+X	c #929292929494",
"@X	c #1E1E1E1E1C1C",
"#X	c #C6C6BEBEACAC",
"$X	c #969686866C6C",
"%X	c #42423A3A2C2C",
"&X	c #56565A5A5C5C",
"*X	c #6E6E66665C5C",
"=X	c #A6A696968484",
"-X	c #92928E8E7C7C",
";X	c #CECEC6C6B4B4",
":X	c #8A8A8A8A8C8C",
">X	c #4E4E52524C4C",
",X	c #DADAD2D2C4C4",
"<X	c #262626262424",
"1X	c #9A9A92928484",
"2X	c #8E8E7A7A6464",
"3X	c #6E6E5E5E4C4C",
"4X	c #4E4E52525454",
"5X	c #A2A29E9E9494",
"6X	c #62625A5A4C4C",
"7X	c #56564E4E3C3C",
"8X	c #3A3A32322C2C",
"                                                                                                ",
"                                                                                                ",
"                                                                                                ",
"                                                                                                ",
"                                                                                                ",
"                                                                        .                       ",
"                                                                        X                       ",
"                                                                        o O                     ",
"                                                                      + @ # $                   ",
"                                                            % & * & = - ; # :                   ",
"                                        > , < 1 1 , 2 = 3 4 4 5 6 7 8 9 < 0 $ q                 ",
"                    w e r r r t t y u 8 i p a > , 2 s s 4 4 6 6 & d f g h j : $                 ",
"          k k l o o z w x e r c v y b b a n > , < < s m M 5 % 7 N B V C Z A S D                 ",
"            l F o z w x e t c y y 8 i a a > , G = s H M 5 6 7 & B J K L P I U Y                 ",
"            o o z x r c r c c 8 b b p n 1 , < s 3 4 H 5 % % * d T J R E W j 0 q                 ",
"            z z e r y a < G > 8 i a > > , 2 s 3 H H 6 7 Q N ! ~ ^ / R ( C ) _ Y                 ",
"              w e c y i , 4 6 * 6 = 1 , < 3 4 M 6 5 6 7 ` ' ~ ] ^ / [ { } I | $                 ",
"              x r r y i > = H 7 * !  .` % 6 % 6 % 7 Q ` ..X.o.O.+.T @.P W #.0 $.                ",
"              c t v u i a , s M 6 N ! V d %.&.*.` & * ..V O.o.O.+.~ X =.-.;.:.0                 ",
"                c y 8 i a 1 2 3 M 6 *  .*.>./ ,.<./ 1. .2.3.o.4.+.5.X 6.7.8.9.S 0.              ",
"                y y 8 i a > , < 3 6 % N *.B q.T ^ 2.w.e.O.e.] 5.~ 2.r.P t.y.# u.i.              ",
"                f b i a > > , = s H 6 & p.J q./ / ,.~ ~ 5.w.~ a.^ <.X K s.A u.d.f.0.            ",
"                  p a a 1 2 < s s H 5 % g.J J / / J T <.,.^ <.,.,.^ h.j.k.) l.z.x.c.            ",
"                  > v.1 G < = 3 H M 6 7 B B J b.B q.J / q./ q.q.n.^ @.-.m.M._ u.N.i.0.          ",
"                    , , 2 s m 4 M B.% & >.>.>.b.B >.b./ q./ q.q.,.^ V.C C.Z.z.Y N.i.A.          ",
"                    , < s 3 4 5 B.7 7  .B q.J J >.q./ q.q.q./ n.n.^ S.D.F.#.S G.H.c.J.          ",
"                    M s s M M 6 6 & ` K.B >.X.>.b.q./ / / / / T ,.,.s.) L.P.. I.U.. .           ",
"                      m M M 6 7 Q ` ` r.B X.>.B B >.q.q.q.q.q./ n.^ y.L f ) O Y.. . .           ",
"                      H 5 B.% * * N ! T.%.%.%.X.X.>.b.b.b.q.q.n.n./ R.( E.W.Q.u.. . .           ",
"                      N B.7 Q * N ! !.%.%.X.X.%.X.X.>.>.q.>.q.q.^ ~.Z ^.F./.(.Y . . .           ",
"                        % * ` ....' d X.B X.X.%.X.B >.B J >.q.n.^ P ).)._.9.`.Y . .             ",
"                        ` * ` ..'  .r.%.X.X.%.X.X.X.>.b.>./ T ^ ] '.].L M.[.| {.}.              ",
"                        K...!  .V V X.X.B X.B B >.B b.q.q.n.+.A.M.|.I  X8..X:.u.                ",
"                          ! ' V !.d 1.B B >.>.>.b.q./ n.T f.. @ ; XX;.7.oX_ $ z.                ",
"                          !.V OX*.+XB >.>.B b.>.b.q.q.O.}.. . @X).}.u.: g =._ S                 ",
"                          %.OX!.d &.X.b.b.b.>.J q.5.i.. . . . . . . $ _ #X$XQ.%X                ",
"                            d d K.%.>.J q.>.>.q.&X}.. . . . . . .   *X^.( =X/.I.                ",
"                            V.+Xg.X.>.>.b.q.a.A.. . . . . . . .     -X( ;Xm.{.{.                ",
"                              g.:XX.>.q.q.>X. . . . . . . .         F.,X|.#.:.u.                ",
"                              :XT.B J 5.<X. . . . . . .             R m.1XoX2X3X                ",
"                              ^ X.X.4X. . . . . . .                 5XE s.6XR.7X                ",
"                                ^       . . . .                     $X} s.A %X8XQ.              ",
"                                                                      m.oXl..X.X                ",
"                                                                                                ",
"                                                                                                ",
"                                                                                                ",
"                                                                                                ",
"                                                                                                "};
