/* XPM */
static char * image_name[] = {
"48 48 146 2",
"  	c None",
". 	c #1A1A1A1A1C1C",
"X 	c #161616161414",
"o 	c #26262E2E3434",
"O 	c #222226262424",
"+ 	c #262626262424",
"@ 	c #16161A1A1C1C",
"# 	c #5E5E6E6E7C7C",
"$ 	c #222222222424",
"% 	c #121212121414",
"& 	c #323232323434",
"* 	c #22221A1A1C1C",
"= 	c #262622222424",
"- 	c #2A2A2E2E2C2C",
"; 	c #1E1E1A1A1C1C",
": 	c #2A2A1E1E1C1C",
"> 	c #222216161414",
", 	c #161612121414",
"< 	c #12120E0E0C0C",
"1 	c #2E2E32323C3C",
"2 	c #363632323434",
"3 	c #2E2E2E2E2C2C",
"4 	c #1E1E1E1E1C1C",
"5 	c #1A1A16161414",
"6 	c #3A3A2A2A2C2C",
"7 	c #4E4E2E2E2C2C",
"8 	c #62623A3A3C3C",
"9 	c #76763A3A3C3C",
"0 	c #6A6A36363434",
"q 	c #666632323434",
"w 	c #52522A2A2C2C",
"e 	c #3A3A22222424",
"r 	c #22221E1E1C1C",
"t 	c #262626262C2C",
"y 	c #1A1A1E1E1C1C",
"u 	c #32322E2E2C2C",
"i 	c #32322A2A2C2C",
"p 	c #525236363434",
"a 	c #7A7A46464444",
"s 	c #86864A4A4C4C",
"d 	c #8E8E4E4E4C4C",
"f 	c #7E7E3E3E3C3C",
"g 	c #7A7A3A3A3C3C",
"h 	c #767636363434",
"j 	c #26261A1A1C1C",
"k 	c #060606060404",
"l 	c #3A3A42424C4C",
"z 	c #464636363434",
"x 	c #6A6A4A4A4C4C",
"c 	c #8A8A5A5A5C5C",
"v 	c #969662626464",
"b 	c #9E9E62626464",
"n 	c #92925A5A5C5C",
"m 	c #86864E4E4C4C",
"M 	c #7E7E42424444",
"N 	c #727236363434",
"B 	c #4A4A26262424",
"V 	c #1E1E16161414",
"C 	c #565642424444",
"Z 	c #7A7A56565454",
"A 	c #9E9E6E6E6C6C",
"S 	c #B2B27E7E7C7C",
"D 	c #B2B27A7A7C7C",
"F 	c #A2A26E6E6C6C",
"G 	c #9A9A5A5A5C5C",
"H 	c #8A8A4E4E4C4C",
"J 	c #7A7A42424444",
"K 	c #5A5A2E2E2C2C",
"L 	c #2A2A26262424",
"P 	c #9A9A6E6E6C6C",
"I 	c #B6B68A8A8C8C",
"U 	c #BABA8A8A8C8C",
"Y 	c #A2A26A6A6C6C",
"T 	c #96965A5A5C5C",
"R 	c #6A6A3A3A3C3C",
"E 	c #5E5E2E2E2C2C",
"W 	c #464626262424",
"Q 	c #36363E3E4444",
"! 	c #26261E1E1C1C",
"~ 	c #4A4A2E2E2C2C",
"^ 	c #72724A4A4C4C",
"/ 	c #8E8E66666464",
"( 	c #AEAE82828484",
") 	c #AEAE7E7E7C7C",
"_ 	c #8E8E52525454",
"` 	c #626236363434",
"' 	c #52522E2E2C2C",
"] 	c #2E2E22222424",
"[ 	c #26262A2A2C2C",
"{ 	c #121216161414",
"} 	c #0A0A0A0A0C0C",
"| 	c #6A6A42424444",
" .	c #828256565454",
"..	c #B2B276767474",
"X.	c #A6A672727474",
"o.	c #9A9A66666464",
"O.	c #66663A3A3C3C",
"+.	c #0E0E12121414",
"@.	c #020202020404",
"#.	c #3E3E2A2A2C2C",
"$.	c #5A5A36363434",
"%.	c #6A6A3E3E3C3C",
"&.	c #9E9E6A6A6C6C",
"*.	c #42422A2A2C2C",
"=.	c #6E6E3E3E3C3C",
"-.	c #565632323434",
";.	c #363626262424",
":.	c #2E2E2A2A2C2C",
">.	c #3E3E46464C4C",
",.	c #1E1E22222424",
"<.	c #161616161C1C",
"1.	c #5A5A32323434",
"2.	c #72723E3E3C3C",
"3.	c #82824E4E5454",
"4.	c #727242424444",
"5.	c #2A2A2A2A2C2C",
"6.	c #2E2E32323434",
"7.	c #323236363C3C",
"8.	c #42424E4E5454",
"9.	c #1E1E1E1E2424",
"0.	c #0E0E0E0E0C0C",
"q.	c #06060A0A0C0C",
"w.	c #6E6E42424444",
"e.	c #767642424444",
"r.	c #565636363434",
"t.	c #3A3A2E2E2C2C",
"y.	c #1A1A1E1E2424",
"u.	c #5E5E36363434",
"i.	c #5E5E3A3A3C3C",
"p.	c #525232323434",
"a.	c #3E3E2E2E2C2C",
"s.	c #36362E2E2C2C",
"d.	c #0A0A06060404",
"f.	c #46462E2E2C2C",
"g.	c #4A4A32323434",
"h.	c #424232323434",
"j.	c #3A3A32323434",
"k.	c #727282829494",
"l.	c #42424A4A4C4C",
"z.	c #42422E2E2C2C",
"x.	c #464632323434",
"c.	c #3E3E32323434",
"v.	c #464652525C5C",
"b.	c #76768A8A9C9C",
"n.	c #767686869494",
"m.	c #3E3E42424444",
"                                                                                                ",
"                                                                                                ",
"                                                                                                ",
"                                                                                                ",
"                                                                                                ",
"                                                                                                ",
"                                                                                                ",
"                                                                                                ",
"                                                                                                ",
"                                                      .                                         ",
"                                                    X . . .                                     ",
"                                  o   . . .         . . X . . O                                 ",
"                                          . .     . X       + . .                               ",
"                                          . .     . .           @ . X                           ",
"                          #               $ .   % X X             % X X                         ",
"                                    & & & $ . . X X * = @ % %         . X .                     ",
"                                    & & - . . * ; * : > , , % < % % % X X . .                   ",
"                    X % 1         2 & & 3 4 5 6 7 8 9 0 q w e r , % %                           ",
"                      X t y % 5 O 3 & u & 3 i p a s d a f g h w j , k                           ",
"                        l . . X . . $ 3 & & z x c v b n m M 9 N B V %                           ",
"                          ; . 5 5 . . 4 $ u C Z A S D F G H J 0 K e ; ,   t                     ",
"                        - @ X @ @ 5 . . . L p Z P I U S Y T s R E W * X @                       ",
"                      Q 4 .     @ X % % X ! ~ ^ / ( I ) A v _ a ` ' ] . ,                       ",
"                    [ $ y       X { } } , ] K |  .A ....X.o.T a O.' ] ! X X                     ",
"                    . $       4 5 { +.@.@.#.K $.%.c o.Y &.o.T s R ' i L r % %                   ",
"                  @ O         X . - @.@.@.= *.W #.| m c T T T H =.-.;.L :.  5                   ",
"              >.;   >.        @ ,.<.+.@.@.@.L : j 1.2.a 3.m m s 4.1.6 5.6.  .                   ",
"              7.    8.      4 9.0.    { } q.k 4 V #.1.R =.w.e.e.=.r.t.3 3                       ",
"              &           ,.$ %     y.[ 9.} @.k 5 + t.7 u.` 8 8 i.p.a.s.u                       ",
"                          6.@   Q Q @         } { d.+ :.*.f.7 p.p.g.h.j.7.                      ",
"    k.                  l.$ 5.l               } { k @.@.+ 3 t.z.x.x.c.j.&                       ",
"                        v.,.                    , }     @.@.+ u j.s.2 2 u                       ",
"                b.b.n.    %                     .     { +.{       & & & m.                      ",
"                b.n.                            $                     2                         ",
"                n.b.                            X                                               ",
"                                                                                                ",
"                                                                                                ",
"                                                                                                ",
"                                                                                                ",
"                                                                                                ",
"                                                                                                ",
"                                                                                                ",
"                                                                                                ",
"                                                                                                ",
"                                                                                                ",
"                                                                                                ",
"                                                                                                ",
"                                                                                                "};
