/* XPM */
static char *kterm[] = {
/* width height num_colors chars_per_pixel */
"    40    40       54            1",
/* colors */
". c #b8b8b8",
"# c #707070",
"a c #787078",
"b c #d88000",
"c c #d88800",
"d c #807080",
"e c #f8a820",
"f c #f8a818",
"g c #887088",
"h c #f8e0b8",
"i c #787070",
"j c #f8e0c0",
"k c #f8f8d8",
"l c #98a098",
"m c #a0a0a0",
"n c #98a0a0",
"o c #a0a098",
"p c #d0c8c8",
"q c #c0c0c0",
"r c #b8b8c0",
"s c #c0c0b8",
"t c #c0b8c0",
"u c #c0b8b8",
"v c #b8c0c0",
"w c #c8d0d0",
"x c #d0d0d0",
"y c #d0c8d0",
"z c #c8c8c8",
"A c #c8c8d0",
"B c #d0d0c8",
"C c #e0e0e0",
"D c #e0d8e0",
"E c #e8e8e8",
"F c #f0f0f0",
"G c #d8e0d8",
"H c #d8d4d8",
"I c #f0e8f0",
"J c #f0f0e8",
"K c #f8fcf8",
"L c #707068",
"M c #000000",
"N c #907090",
"O c #38b8b8",
"P c #887080",
"Q c #a870a8",
"R c #987098",
"S c #f8b850",
"T c #e08400",
"U c #e08800",
"V c #e88808",
"W c #807078",
"X c #707078",
"Y c #f8c880",
"Z c #f08800",
/* pixels */
"...........####################.........",
"...........####################.........",
"..........abcccccccccccccccccc##........",
".........debccccefeefeecefeefe##........",
"........ghhhhhhhhhhhhhhhhhhhhhi#........",
"........dhjii#iiiiiiiiiiiiiikji#........",
"........djilmnonnonmonmonmom.ei#........",
"........gh#mpqrstquvtsrquwmm.ei#........",
"........gh#mv.xyxzxyxAByxylm.ei#........",
"........gh#mu..CDCEFE.CGpxmm.ei#........",
"........gj#mqx.CGHGIFFDJxAmm.ei#........",
"........gh#mrxx......KKKBBmmBeLL........",
"........gh#msyxKK.M...KKBBmMMMLL.MMM....",
"........Nh#mrByGGKOMM..KKBmMMeLL.MM.....",
"........Nh#msAxGKKKKMM...KmMMeLL.MM..MM.",
"........Nh#mrByBBBGGMMGMMMMMMMMMMMMMMMMM",
"........Nh#msAxBBBBGGGGGBBmMMeLL.MM.....",
"........Nj#mrstBBBB.BBBB.BBMMeLL.MM.....",
"........Nh#mBB.BMBB.BB.BBMGmBeLL...MM...",
"........Nj#mmmmmmMMmmmmmmMMMMMMMMMMMMM..",
"........Njk......MM......MMMMMMMMMMMMM..",
"........NheeeeeeeeMMeeMeeMMeeeMM...MM...",
".........PiiiiiLLLMMLLMLLMMLLLMM...MM...",
"....QQRNd######LLLLLLMLLLMMLLLMMLLLMM...",
"...RSeeefeefeefeeeeeeMeeeMMMMMMMMMMMM...",
"...dhhhhhhhhhhhjjjjjMMjjjMMjjjMMjjLMM...",
"..ghTUhVUhVUhVUjccjcMjccjccjccMMcjjLL...",
"..WhcchUchcUhccjccjMMjccMMMMMMMMMMMMMM..",
"..ahhhhhhhhjhhjjjjjMMjjjjjhhhhMMhhhhLL..",
".aehejeeheeheeheehMMheeheeheehMMheehLL..",
".XeheheeheeheeheMMMMheMMMMMMMMMMMMMMMMMM",
"#efhhhhhhhhhhhhhhMMMhhhhhhhhhMMhMhhheLL.",
"#feSYYYYYYYYYYYYYYMMYYYYYYYYMMYYYMheeLL.",
"#ffeefeefeefeefeeeMMeeeeeeeeMMeeeMMMeLL.",
"#cUTTTZZZZZZZZZcccMMcccccccMMcccccMMMMMM",
"L#LLLLLLLLLLLLLLLLMMMLLLLMMLLLLLLLLMMMM.",
".##############LLLLMMLMMMLLLLLLLLLLLLMM.",
"........................................",
"KKKKKKKKKKKKKKKKKKKKKKKKKKKKKKKKKKKKKKKK",
"KKKKKKKKKKKKKKKKKKKKKKKKKKKKKKKKKKKKKKKK"
};
