/* XPM */
static char *magick[] = {
/* columns rows colors chars-per-pixel */
"48 48 132 2",
"   c Gray0",
".  c #1e1e1e1e1e1e",
"X  c Gray12",
"o  c Gray13",
"O  c #252525252525",
"+  c Gray18",
"@  c #323232323232",
"#  c Gray20",
"$  c #343434343434",
"%  c Gray21",
"&  c Gray22",
"*  c #393939393939",
"=  c #3f3f3f3f3f3f",
"-  c #434343434343",
";  c Gray27",
":  c #464646464646",
">  c #4b4b4b4b4b4b",
",  c Gray30",
"<  c Gray31",
"1  c #535353535353",
"2  c Gray33",
"3  c #555555555555",
"4  c #565656565656",
"5  c #585858585858",
"6  c #5b5b5b5b5b5b",
"7  c #5d5d5d5d5d5d",
"8  c Gray37",
"9  c #5f5f5f5f5f5f",
"0  c Gray38",
"q  c #626262626262",
"w  c #656565656565",
"e  c #686868686868",
"r  c #6a6a6a6a6a6a",
"t  c Gray42",
"y  c #6c6c6c6c6c6c",
"u  c #6d6d6d6d6d6d",
"i  c Gray43",
"p  c #6f6f6f6f6f6f",
"a  c Gray44",
"s  c #747474747474",
"d  c Gray46",
"f  c #767676767676",
"g  c Gray47",
"h  c Gray48",
"j  c #7c7c7c7c7c7c",
"k  c Gray49",
"l  c Gray",
"z  c Gray50",
"x  c #808080808080",
"c  c Gray51",
"v  c #838383838383",
"b  c #848484848484",
"n  c Gray52",
"m  c #888888888888",
"M  c #898989898989",
"N  c Gray54",
"B  c #8b8b8b8b8b8b",
"V  c Gray55",
"C  c #8d8d8d8d8d8d",
"Z  c #909090909090",
"A  c Gray57",
"S  c #929292929292",
"D  c Gray58",
"F  c #959595959595",
"G  c #979797979797",
"H  c #989898989898",
"J  c Gray60",
"K  c #9a9a9a9a9a9a",
"L  c #9b9b9b9b9b9b",
"P  c Gray61",
"I  c #9d9d9d9d9d9d",
"U  c Gray62",
"Y  c Gray63",
"T  c #a2a2a2a2a2a2",
"R  c Gray64",
"E  c #a4a4a4a4a4a4",
"W  c #a5a5a5a5a5a5",
"Q  c #a7a7a7a7a7a7",
"!  c Gray66",
"~  c #a9a9a9a9a9a9",
"^  c #aaaaaaaaaaaa",
"/  c Gray67",
"(  c #acacacacacac",
")  c Gray68",
"_  c #aeaeaeaeaeae",
"`  c #afafafafafaf",
"'  c Gray69",
"]  c #b1b1b1b1b1b1",
"[  c #b2b2b2b2b2b2",
"{  c Gray70",
"}  c #b4b4b4b4b4b4",
"|  c Gray71",
" . c #b6b6b6b6b6b6",
".. c #b7b7b7b7b7b7",
"X. c Gray72",
"o. c #b9b9b9b9b9b9",
"O. c Gray73",
"+. c #bbbbbbbbbbbb",
"@. c #bcbcbcbcbcbc",
"#. c Gray74",
"$. c #bebebebebebe",
"%. c Gray75",
"&. c #c0c0c0c0c0c0",
"*. c #c1c1c1c1c1c1",
"=. c Gray76",
"-. c #c3c3c3c3c3c3",
";. c Gray77",
":. c #c5c5c5c5c5c5",
">. c #c6c6c6c6c6c6",
",. c Gray78",
"<. c #c8c8c8c8c8c8",
"1. c Gray79",
"2. c #cacacacacaca",
"3. c #cbcbcbcbcbcb",
"4. c Gray80",
"5. c #cdcdcdcdcdcd",
"6. c #cececececece",
"7. c Gray81",
"8. c #d0d0d0d0d0d0",
"9. c Gray82",
"0. c #d2d2d2d2d2d2",
"q. c #d3d3d3d3d3d3",
"w. c Gray83",
"e. c #d5d5d5d5d5d5",
"r. c Gray84",
"t. c #d7d7d7d7d7d7",
"y. c #d8d8d8d8d8d8",
"u. c Gray85",
"i. c #dadadadadada",
"p. c Gray86",
"a. c #dddddddddddd",
"s. c None",
/* pixels */
"s.s.s.s.s.s.s.s.s.s.s.s.s.s.s.s.s.s.s.s.s.s.s.s.s.s.s.s.s.s.s.s.s.s.s.s.s.s.s.s.s.s.s.s.s.s.s.s.",
"s.s.s.s.s.s.s.s.s.s.s.s.s.s.s.s.s.s.s.s.s.s.s.s.s.s.s.s.s.s.s.s.s.s.s.s.s.s.s.s.s.s.s.s.s.s.s.s.",
"s.s.s.s.s.s.s.s.s.s.s.s.s.s.s.s.s.s.s.s.s.s.s.s.s.s.s.s.s.s.s.s.s.s.s.s.s.s.s.s.s.s.s.s.s.s.s.s.",
"s.s.s.s.s.s.s.s.s.s.s.s.s.s.s.s.s.s.s.s.s.s.s.s.s.s.s.s.s.s.s.s.s.s.s.s.s.s.s.s.s.s.s.s.s.s.s.s.",
"s.s.s.s.s.s.s.s.s.s.s.s.s.s.s.s.s.s.s.s.s.s.s.s.s.s.s.s.s.s.s.s.s.s.s.s.s.s.s.s.s.s.s.s.s.s.s.s.",
"s.s.s.s.s.s.s.s.s.s.s.s.s.s.s.s.s.s.s.s.s.s.s.s.s.s.s.s.s.s.s.s.s.s.s.s.s.s.s.s.s.s.s.s.s.s.s.s.",
"s.s.s.s.s.s.s.s.s.s.s.s.s.s.s.s.s.s.s.s.s.s.s.s.s.s.s.s.s.s.s.s.s.s.s.s.s.s.s.s.s.s.s.s.s.s.s.s.",
"s.s.s.s.s.s.s.s.s.s.s.s.s.s.s.s.s.s.s.s.s.s.s.s.s.s.s.s.s.s.s.s.s.s.s.s.s.s.s.s.s.s.s.s.s.s.s.s.",
"s.s.s.s.s.s.s.s.s.s.s.s.s.s.s.s.s.s.s.s.s.s.s.s.s.s.s.s.s.s.s.s.s.s.s.s.s.s.s.s.s.s.s.s.s.s.s.s.",
"s.s.s.s.s.s.s.s.s.s.s.s.s.s.s.s.s.s.s.s.s.s.s.s.            s.s.s.s.s.s.s.s.s.s.s.s.s.s.s.s.s.s.",
"s.s.s.s.s.s.s.s.s.s.s.s.s.s.s.s.s.s.s.s.s.s.    O.u.r.q.9.`       s.s.s.s.s.s.s.s.s.s.s.s.s.s.s.",
"s.s.s.s.s.s.s.s.s.s.s.s.s.s.s.s.s.s.s.s.s.    T i.t.w.0.7.4.2.,.:.    s.s.s.s.s.s.s.s.s.s.s.s.s.",
"s.s.s.s.s.s.s.s.s.s.s.s.s.s.s.s.s.s.s.s.s.    U y.e.q.8.5.3.<.>.-.&.Y   s.s.s.s.s.s.s.s.s.s.s.s.",
"s.s.s.s.s.s.s.s.s.s.s.s.s.s.s.s.s.s.s.s.  6 a   r.w.9.7.4.1.,.;.*.%.@.o.  s.s.s.s.s.s.s.s.s.s.s.",
"s.s.s.s.s.s.s.s.s.s.s.s.s.s.s.s.s.s.s.s.    h   K 0.8.5.2.<.:.=.&.#.O.X.K   s.s.s.s.s.s.s.s.s.s.",
"s.s.s.s.s.s.s.s.s.s.s.s.s.s.s.s.s.s.s.  p   c A   9.6.3.1.>.-.*.$.+.o. .{   s.s.s.s.s.s.s.s.s.s.",
"s.s.s.s.s.s.s.s.s.s.s.s.s.s.s.s.s.s.s.  U _   S L   4.2.,.;.=.%.+.o. .{ ] `   s.s.s.s.s.s.s.s.s.",
"s.s.s.s.s.s.s.s.s.s.s.s.s.s.s.s.s.s.s.  R ' E   I R   Z :.-.%.@.o. .} ] _ )   s.s.s.s.s.s.s.s.s.",
"s.s.s.s.s.s.s.s.s.s.s.s.s.s.s.s.s.s.  p Q } &.7.  E T     R @.o. .{ ' ) ( ~   s.s.s.s.s.s.s.s.s.",
"s.s.s.s.s.s.s.s.s.s.s.s.s.s.s.s.s.s.  T ^ | -.7.p.  U P F       G _ / ~ !   s.s.s.s.s.s.s.s.s.s.",
"s.s.s.s.s.s.s.s.s.s.s.s.s.s.s.s.s.s.  W _ o.:.q.a.p.    z n k f             s.s.s.s.s.s.s.s.s.s.",
"s.s.s.s.s.s.s.s.s.s.s.s.s.s.s.s.s.  i ~ [ #.2.w.y.w.5.(       r 0 , = ; %   s.s.s.s.s.s.s.s.s.s.",
"s.s.s.s.s.s.s.s.s.s.s.s.s.s.s.s.s.  Y ^ } %.4.u.w.5.;.@.] W u             s.s.s.s.s.s.s.s.s.s.s.",
"s.s.s.s.s.s.s.s.s.s.s.s.s.s.s.s.s.  R / ..-.9.r.9.1.*.../ P C l 7 ; $ @   s.s.s.s.s.s.s.s.s.s.s.",
"s.s.s.s.s.s.s.s.s.s.s.s.s.s.s.s.  y E ) o.>.e.0.3.;.+.] T F n d e 7 4   s.s.s.s.s.s.s.s.s.s.s.s.",
"s.s.s.s.s.s.s.s.s.s.s.s.s.s.s.s.  v W ' +.1.7.4.,.%.| / I x k i q 5 *   s.s.s.s.s.s.s.s.s.s.s.s.",
"s.s.s.s.s.s.s.s.s.s.s.s.s.s.s.s.s.  ~ { %.6.3.>.*.O.' E s     # 8 3   s.s.s.s.s.s.s.s.s.s.s.s.s.",
"s.s.s.s.s.s.s.s.s.s.s.s.s.s.s.s.s.  f ..-.1.:.*.+.{ ! L   j n z . *   s.s.s.s.s.s.s.s.s.s.s.s.s.",
"s.s.s.s.s.s.s.s.s.s.s.s.s.s.s.s.s.s.  I ,.:.&.@.| ( Y D   t N 1 X   s.s.s.s.s.s.s.s.s.s.s.s.s.s.",
"s.s.s.s.s.s.s.s.s.s.s.s.s.s.s.s.s.s.s.  E *.@. ._ W H V w     o #   s.s.s.s.s.s.s.s.s.s.s.s.s.s.",
"s.s.s.s.s.s.s.s.s.s.s.s.s.s.s.s.s.s.s.s.  U X.' Q I S b d 2 > :   s.s.s.s.s.s.s.s.s.s.s.s.s.s.s.",
"s.s.s.s.s.s.s.s.s.s.s.s.s.s.s.s.s.s.s.s.s.    m R J B k i 0 5 &   s.s.s.s.s.s.s.s.s.s.s.s.s.s.s.",
"s.s.s.s.s.s.s.s.s.s.s.s.s.s.s.s.s.s.s.s.s.  i       a g t 9     s.s.s.s.s.s.s.s.s.s.s.s.s.s.s.s.",
"s.s.s.s.s.s.s.s.s.s.s.s.s.s.s.s.s.s.s.s.s.  M 5   *         s.s.s.s.s.s.s.s.s.s.s.s.s.s.s.s.s.s.",
"s.s.s.s.s.s.s.s.s.s.s.s.s.s.s.s.s.s.s.s.  / /   + s.s.s.s.s.s.s.s.s.s.s.s.s.s.s.s.s.s.s.s.s.s.s.",
"s.s.s.s.s.s.s.s.s.s.s.s.s.s.s.s.s.s.s.s.  r.M   s.s.s.s.s.s.s.s.s.s.s.s.s.s.s.s.s.s.s.s.s.s.s.s.",
"s.s.s.s.s.s.s.s.s.s.s.s.s.s.s.s.s.s.    r./   . s.s.s.s.s.s.s.s.s.s.s.s.s.s.s.s.s.s.s.s.s.s.s.s.",
"s.s.s.s.s.s.s.s.s.s.s.s.s.s.s.s.s.  / / M i   . s.s.s.s.s.s.s.s.s.s.s.s.s.s.s.s.s.s.s.s.s.s.s.s.",
"s.s.s.s.s.s.s.s.s.s.s.s.s.s.s.s.  r.r.          s.s.s.s.s.s.s.s.s.s.s.s.s.s.s.s.s.s.s.s.s.s.s.s.",
"s.s.s.s.s.s.s.s.s.s.s.s.s.s.s.s.  r.  O < Y     s.s.s.s.s.s.s.s.s.s.s.s.s.s.s.s.s.s.s.s.s.s.s.s.",
"s.s.s.s.s.s.s.s.s.s.s.s.s.s.s.s.  /   - 8 r.    s.s.s.s.s.s.s.s.s.s.s.s.s.s.s.s.s.s.s.s.s.s.s.s.",
"s.s.s.s.s.s.s.s.s.s.s.s.s.s.s.s.  M   Y r.Y     s.s.s.s.s.s.s.s.s.s.s.s.s.s.s.s.s.s.s.s.s.s.s.s.",
"s.s.s.s.s.s.s.s.s.s.s.s.s.s.s.s.s.  S         s.s.s.s.s.s.s.s.s.s.s.s.s.s.s.s.s.s.s.s.s.s.s.s.s.",
"s.s.s.s.s.s.s.s.s.s.s.s.s.s.s.s.s.s.        s.s.s.s.s.s.s.s.s.s.s.s.s.s.s.s.s.s.s.s.s.s.s.s.s.s.",
"s.s.s.s.s.s.s.s.s.s.s.s.s.s.s.s.s.s.s.s.s.s.s.s.s.s.s.s.s.s.s.s.s.s.s.s.s.s.s.s.s.s.s.s.s.s.s.s.",
"s.s.s.s.s.s.s.s.s.s.s.s.s.s.s.s.s.s.s.s.s.s.s.s.s.s.s.s.s.s.s.s.s.s.s.s.s.s.s.s.s.s.s.s.s.s.s.s.",
"s.s.s.s.s.s.s.s.s.s.s.s.s.s.s.s.s.s.s.s.s.s.s.s.s.s.s.s.s.s.s.s.s.s.s.s.s.s.s.s.s.s.s.s.s.s.s.s.",
"s.s.s.s.s.s.s.s.s.s.s.s.s.s.s.s.s.s.s.s.s.s.s.s.s.s.s.s.s.s.s.s.s.s.s.s.s.s.s.s.s.s.s.s.s.s.s.s."
};
