/* XPM */
static char * exec_xpm[] = {
"32 32 13 1",
" 	c None",
".	c #BEFBBEFBBEFB",
"X	c #FFFFFFFFFFFF",
"o	c #AEBAAEBAAEBA",
"O	c #9E799E79A699",
"+	c #514451445144",
"@	c #8E3886178617",
"#	c #000000000000",
"$	c #596559655965",
"%	c #492479E769A6",
"&	c #410341034103",
"*	c #71C671C6A699",
"=	c #208120812081",
"                                ",
"                                ",
"                                ",
"            .X.oOoo             ",
"          oo+.@#O$$  %O.        ",
"        .%@..O$+XXO%&@@@        ",
"        o#%XX.oXXo.X.X%O$ .     ",
"    .OO.@#@XXXXXXXXXXXO@.$%.    ",
"    O@oOOoXXXXXXXXXXXO+OOXX&.   ",
"   %@XXXXXXXXXXXXXXXXX.oXXo%.   ",
"  o##OXXXXXXXXXXXXXXXXXXX.$o.   ",
"  o##OXXXXXXXXo@&OXXXXXXX.OOX   ",
" ooOOXXXXXXXXo####$XXXXXXX@$@+& ",
"%+XXXXXXXXXXX*##=#=XXXXXXXXXX.& ",
".&&&.XXXXXXXXo&O%$.XXXXXXXooOoo ",
".####.XXXXXXXXX..XXXXXXXX=#&%%X ",
".###=XXXXXXXXXXXXXXXXXXX.##$O+. ",
" ##+XXXXXXXXXXXXXXXXXXXXX+&@@+. ",
" %O.XXXXXXXXXXXXXXXXXXXXXXo@.   ",
" ..XXXooXXXXXXXXXXXXXXXXoXXo$o  ",
" ##&.@&#&XXXXXXXXXXXXXo@#&O$&o  ",
" =##&&##=XXXXXXXXXXXXXO###=%+O  ",
" =###=$&OXXX..XXXXXXXXO=##=$=O  ",
" =##=$$oXX..&&.XX@$OXO...&+==o  ",
" .&=&.%+oXO@##Oo.%##&Xo@% .O    ",
"      +##&@+##oX.&###=##$       ",
"      =###&+O$==$&O=##+$%       ",
"      ####&. @###% o##&#=       ",
"      .###o  $#=&$  O####       ",
"        ..   @##=%   +&..       ",
"             O###$              ",
"                                "};
