/* XPM */
static char * netscape3_xpm[] = {
"18 16 103 2",
"  	c #000008200820",
". 	c #00000C301040",
"X 	c #000010401040",
"o 	c #000014511040",
"O 	c #000014511861",
"+ 	c #000018611861",
"@ 	c #00001C712081",
"# 	c #104034D338E3",
"$ 	c #69A686178617",
"% 	c #C71BCB2BCF3C",
"& 	c #79E78E389658",
"* 	c #0000249228A2",
"= 	c #71C686178E38",
"- 	c #BEFBC71BCF3C",
"; 	c #9658A699A699",
": 	c #28A245144924",
"> 	c #000028A230C2",
", 	c #79E796589E79",
"< 	c #F7DEF3CEF7DE",
"1 	c #59657DF78617",
"2 	c #00002CB230C2",
"3 	c #86179A699E79",
"4 	c #38E35D756185",
"5 	c #000030C238E3",
"6 	c #492471C679E7",
"7 	c #9E79B6DABEFB",
"8 	c #EFBEEFBEEFBE",
"9 	c #38E3659569A6",
"0 	c #000034D338E3",
"q 	c #69A68A288E38",
"w 	c #28A259656185",
"e 	c #000038E34103",
"r 	c #208155555965",
"t 	c #9E79B2CABEFB",
"y 	c #E79DEBADEFBE",
"u 	c #69A68A289658",
"i 	c #28A25D756185",
"p 	c #00003CF34103",
"a 	c #00003CF34924",
"s 	c #492479E78617",
"d 	c #186155555965",
"f 	c #082049245144",
"g 	c #C71BD34CD75C",
"h 	c #E79DE79DEFBE",
"j 	c #208159656185",
"k 	c #000041034924",
"l 	c #69A692489658",
"z 	c #28A2618569A6",
"x 	c #000045145144",
"c 	c #000049245144",
"v 	c #49247DF78617",
"b 	c #186159656185",
"n 	c #104055556185",
"m 	c #C71BD75CD75C",
"M 	c #DF7DE38DE79D",
"N 	c #2081618569A6",
"B 	c #69A696589E79",
"V 	c #28A269A671C6",
"C 	c #00004D345965",
"Z 	c #000051445965",
"A 	c #492486178E38",
"S 	c #208169A671C6",
"D 	c #000055556185",
"F 	c #1861659571C6",
"G 	c #D75CE79DE79D",
"H 	c #C71BD75CDF7D",
"J 	c #10405D7569A6",
"K 	c #69A69E79A699",
"L 	c #30C275D679E7",
"P 	c #00004D345144",
"I 	c #000051446185",
"U 	c #000059656185",
"Y 	c #0000596569A6",
"T 	c #49248E389658",
"R 	c #20816DB679E7",
"E 	c #0000618569A6",
"W 	c #30C27DF78E38",
"Q 	c #B6DACB2BD75C",
"! 	c #79E7A699AEBA",
"~ 	c #30C27DF78617",
"^ 	c #00005D7569A6",
"/ 	c #0000618571C6",
"( 	c #6185A289AEBA",
") 	c #410382078E38",
"_ 	c #18615D7569A6",
"` 	c #000045144924",
"' 	c #514479E779E7",
"] 	c #DF7DDF7DDF7D",
"[ 	c #DF7DE79DE79D",
"{ 	c #41038E389E79",
"} 	c #082045144924",
"| 	c #186134D338E3",
" .	c #104018611861",
"..	c #861786178E38",
"X.	c #5965659569A6",
"o.	c #000000000000",
"O.	c #10401C712081",
"+.	c #18614D345144",
"@.	c #514455555144",
"#.	c #8E388A288E38",
"$.	c #861786178617",
"%.	c #514459655965",
"&.	c #000004100000",
"  . . X X X X X X X X X X X X . .   ",
"o O O O + + + + + + + + + + O O O o ",
"+ @ @ @ @ @ @ @ @ @ @ @ @ @ @ @ + + ",
"@ @ # $ % & * * * * # = - ; : @ @ @ ",
"* * > > , < 1 2 2 2 2 > 3 4 > > * * ",
"2 2 5 5 6 7 8 9 0 0 0 0 q w 5 2 2 2 ",
"5 0 0 e 6 r t y 9 e e e u i e 0 0 0 ",
"e p p a s d f g h j k k l z a p p e ",
"k k x c v b c n m M N c B V c x k k ",
"c C C Z A S D D F G H J K L Z C P c ",
"I D U Y T R U E E W y Q ! ~ Y U D I ",
"^ ^ E / ( ) _ P ` c ' ] [ { / / ^ ^ ",
"J } |  ...X.o.o.o.o.o.o.o.o.O.| +.J ",
"o.o.o.@.#.$.%.o.o.o.o.o.o.o.o.o.o.&.",
"o.o.o.o.o.o.o.o.o.o.o.o.o.o.o.o.o.o.",
"o.o.o.o.o.o.o.o.o.o.o.o.o.o.o.o.o.o."};
