/* XPM */
static char *panel-arrow-right[] = {
/* width height num_colors chars_per_pixel */
"    12    12        8            1",
/* colors */
". c #b2c0dc",
"# c #8e8a8e",
"a c #303430",
"b c #000400",
"c c #595d59",
"d c #000000",
"e c #ffffff",
"f c #616561",
/* pixels */
"............",
"...#abba#...",
"..cddddddc..",
".#ddddeddd#.",
".adefdeedda.",
".bdeeeeeedb.",
".bdeeeeeedb.",
".adefdeedda.",
".#ddddeddd#.",
"..cddddddc..",
"...#abba#...",
"............"
};
