/* XPM */
static char *panel-arrow-up[] = {
/* width height num_colors chars_per_pixel */
"    12    12        8            1",
/* colors */
". c None",
"# c #8e8a8e",
"a c #303430",
"b c #000400",
"c c #595d59",
"d c #000000",
"e c #ffffff",
"f c #616561",
/* pixels */
"............",
"...#abba#...",
"..cddddddc..",
".#dddeeddd#.",
".addeeeedda.",
".bdeeeeeedb.",
".bdddeedddb.",
".addfeefdda.",
".#ddeeeedd#.",
"..cddddddc..",
"...#abba#...",
"............"
};
