/* XPM */
static char * gnome_gnomefoot_xpm[] = {
"48 34 188 2",
"  	c None",
". 	c #AEBAA28971C6",
"X 	c #A6999A6971C6",
"o 	c #CF3CC30B8E38",
"O 	c #96588A286185",
"+ 	c #79E775D65144",
"@ 	c #96588E386185",
"# 	c #B6DAAAAA79E7",
"$ 	c #F7DEE38DA699",
"% 	c #79E771C65144",
"& 	c #C71BBAEA8617",
"* 	c #FFFFEBADAEBA",
"= 	c #FFFFEFBEAEBA",
"- 	c #FFFFF3CEAEBA",
"; 	c #D75CC71B8E38",
": 	c #8E3882075965",
"> 	c #F7DEEBADAEBA",
", 	c #71C671C65144",
"< 	c #A699965869A6",
"1 	c #BEFBAEBA79E7",
"2 	c #FFFFF3CEB6DA",
"3 	c #D75CC71B9658",
"4 	c #FFFFF3CED75C",
"5 	c #B6DAA69979E7",
"6 	c #FFFFF3CECF3C",
"7 	c #F7DEDF7DA699",
"8 	c #F7DEE38DC71B",
"9 	c #F7DEEFBECF3C",
"0 	c #E79DD75C9E79",
"q 	c #F7DEE79DA699",
"w 	c #FFFFEBADB6DA",
"e 	c #FFFFEFBECF3C",
"r 	c #EFBEDF7DA699",
"t 	c #861771C65144",
"y 	c #79E76DB64924",
"u 	c #861775D65144",
"i 	c #965886176185",
"p 	c #AEBA9A6971C6",
"a 	c #D75CBEFB8E38",
"s 	c #861779E75965",
"d 	c #8E3879E75965",
"f 	c #CF3CBAEA8617",
"g 	c #71C661854103",
"h 	c #79E769A64924",
"j 	c #B6DA9A6971C6",
"k 	c #D75CB6DA8617",
"l 	c #D75CBAEA8617",
"z 	c #CF3CAEBA8617",
"x 	c #BEFBA28979E7",
"c 	c #EFBED34C9E79",
"v 	c #EFBED75CB6DA",
"b 	c #861769A65144",
"n 	c #79E765954924",
"m 	c #C71BA28971C6",
"M 	c #DF7DB6DA8617",
"N 	c #DF7DBAEA8617",
"B 	c #DF7DBAEA8E38",
"V 	c #D75CB2CA8617",
"C 	c #D75CBAEA8E38",
"Z 	c #E79DCB2B9658",
"A 	c #EFBEDB6CC71B",
"S 	c #79E761854924",
"D 	c #9E797DF75965",
"F 	c #D75CAAAA79E7",
"G 	c #D75CAEBA79E7",
"H 	c #D75CAEBA8617",
"J 	c #DF7DB2CA8617",
"K 	c #E79DBEFB8E38",
"L 	c #E79DC30BA699",
"P 	c #861769A64924",
"I 	c #A69982076185",
"U 	c #CF3CA28971C6",
"Y 	c #CF3CA28979E7",
"T 	c #D75CA69979E7",
"R 	c #9E7986176185",
"E 	c #A69986176185",
"W 	c #AEBA7DF75965",
"Q 	c #CF3C965871C6",
"! 	c #CF3C9A6971C6",
"~ 	c #CF3C9E7971C6",
"^ 	c #6185514438E3",
"/ 	c #86176DB65144",
"( 	c #BEFB86176185",
") 	c #C71B8E3869A6",
"_ 	c #C71B924869A6",
"` 	c #C71B965869A6",
"' 	c #8E386DB65144",
"] 	c #D75CBAEAAEBA",
"[ 	c #BEFB82076185",
"{ 	c #C71B8A2869A6",
"} 	c #CF3C965879E7",
"| 	c #CF3C9E798E38",
" .	c #E79DD34CBEFB",
"..	c #9E7969A65144",
"X.	c #BEFB7DF76185",
"o.	c #C71B92488617",
"O.	c #6185410330C2",
"+.	c #B6DA75D65965",
"@.	c #B6DA79E75965",
"#.	c #BEFB79E75965",
"$.	c #BEFB7DF75965",
"%.	c #BEFB820769A6",
"&.	c #BEFB92488617",
"*.	c #61853CF328A2",
"=.	c #AEBA6DB65144",
"-.	c #B6DA6DB65144",
";.	c #B6DA71C65144",
":.	c #B6DA71C65965",
">.	c #B6DA7DF771C6",
",.	c #BEFB96588617",
"<.	c #618538E328A2",
"1.	c #AEBA61854924",
"2.	c #AEBA65954924",
"3.	c #AEBA65955144",
"4.	c #AEBA69A65144",
"5.	c #B6DA8A288617",
"6.	c #B6DA92488617",
"7.	c #61852CB22081",
"8.	c #59652CB22081",
"9.	c #618534D328A2",
"0.	c #51442CB22081",
"q.	c #514428A22081",
"w.	c #79E7451430C2",
"e.	c #A69959654103",
"r.	c #A69959654924",
"t.	c #A6995D754924",
"y.	c #AEBA5D754924",
"u.	c #AEBA92488E38",
"i.	c #B6DA8E388617",
"p.	c #492420811861",
"a.	c #514424921861",
"s.	c #71C634D328A2",
"d.	c #79E738E330C2",
"f.	c #79E738E328A2",
"g.	c #71C638E328A2",
"h.	c #8E38410330C2",
"j.	c #9E794D3438E3",
"k.	c #9E7951444103",
"l.	c #A69951444103",
"z.	c #A69955554103",
"x.	c #AEBA8E388617",
"c.	c #514420811861",
"v.	c #51441C711861",
"b.	c #861734D328A2",
"n.	c #96583CF330C2",
"m.	c #9658410330C2",
"M.	c #9E79451438E3",
"N.	c #9E79492438E3",
"B.	c #9E7951444924",
"V.	c #B6DA96588E38",
"C.	c #514418611861",
"Z.	c #69A620811861",
"A.	c #8E3830C228A2",
"S.	c #8E3834D328A2",
"D.	c #965838E330C2",
"F.	c #9658410338E3",
"G.	c #AEBA8A288617",
"H.	c #CF3CA2899E79",
"J.	c #514414511040",
"K.	c #69A61C711861",
"L.	c #861728A22081",
"P.	c #8E3828A228A2",
"I.	c #8E382CB228A2",
"U.	c #9E7975D671C6",
"Y.	c #D75CAAAAA699",
"T.	c #BEFB92488E38",
"R.	c #618518611861",
"E.	c #861720812081",
"W.	c #861724922081",
"Q.	c #8E3828A22081",
"!.	c #8E383CF338E3",
"~.	c #AEBA86178617",
"^.	c #CF3CA289A699",
"/.	c #C71B92489658",
"(.	c #69A618611861",
").	c #86171C711861",
"_.	c #86174D344924",
"`.	c #BEFB92489658",
"'.	c #C71B9A699658",
"].	c #79E71C711861",
"[.	c #861728A228A2",
"{.	c #96586DB669A6",
"}.	c #C71B9A699E79",
"|.	c #861749244924",
" X	c #8E3869A669A6",
".X	c #A69979E779E7",
"XX	c #BEFB8E388E38",
"oX	c #BEFB8A288E38",
"                                                                                                ",
"                                                                                                ",
"                                            . X o                                               ",
"                                          O + @ # $                                             ",
"                                          % & * = - -   O O ;                                   ",
"                                          : > = = - -   , & $ =                                 ",
"                                          < * = = - - 1 @ = - 2                                 ",
"                                          3 $ * * 4 = # 5 - 6 6                                 ",
"                                            7 $ 8 9   0 q w e                                   ",
"                                                        7 $   1 5 r                             ",
"                                          t y u i p a       s d f 7                             ",
"                                        g h j k l z x k     u a c v                             ",
"                                      b n m M M N B B V k   C Z A 8                             ",
"                                      S D F G H V V J M V B   K L                               ",
"                                      P I U Y T T F F F G J     R E z                           ",
"                                      W W Q ! ! ~ ~ U Y Y F F   ^ / F                           ",
"                                        ( ) ) _ _ ` Q ! ! ~ Y   ' T ]                           ",
"                                          ( [ ( { { ) ) _ Q }   ` |  .                          ",
"                                              ..X.[ ( ( ( { o.                                  ",
"                                              O.+.@.#.$.$.%.&.                                  ",
"                                              *.=.-.;.:.+.>.,.                                  ",
"                                              <.1.2.3.4.4.5.6.                                  ",
"                                  7.8.9.9.0.q.w.e.r.t.y.1.u.i.                                  ",
"                                p.a.s.d.f.g.h.j.k.l.z.z.z.x.                                    ",
"                              c.v.b.n.n.n.m.m.M.M.N.N.j.B.V.                                    ",
"                              C.Z.A.A.S.S.D.D.n.n.n.m.F.G.H.                                    ",
"                              J.K.L.L.P.I.I.A.A.S.S.D.U.Y.T.                                    ",
"                              R.R.E.E.E.W.W.W.L.Q.!.~.^./.                                      ",
"                                (.).E.E.E.E.E.E._.`.'.                                          ",
"                                ].E.E.E.E.E.[.{.}./.                                            ",
"                                    [.|. X{..XXXoX                                              ",
"                                                                                                ",
"                                                                                                ",
"                                                                                                "};
