/* XPM */
static char * image_name[] = {
"48 48 213 2",
"  	c #C71BCB2BC71B",
". 	c #C71BCB2BCF3C",
"X 	c #BEFBBEFBBEFB",
"o 	c #BEFBBAEABEFB",
"O 	c #B6DABAEABEFB",
"+ 	c #BEFBC30BC71B",
"@ 	c #BEFBBEFBB6DA",
"# 	c #C71BC30BC71B",
"$ 	c #B6DAB6DAB6DA",
"% 	c #B6DABAEAB6DA",
"& 	c #C71BC71BC71B",
"* 	c #AEBAAEBAAEBA",
"= 	c #EFBEF3CEF7DE",
"- 	c #E79DEBADEFBE",
"; 	c #D75CD34CD75C",
": 	c #CF3CD34CD75C",
"> 	c #CF3CCF3CCF3C",
", 	c #D75CD75CD75C",
"< 	c #D75CDB6CDF7D",
"1 	c #D75CD75CCF3C",
"2 	c #DF7DDF7DD75C",
"3 	c #DF7DE38DE79D",
"4 	c #DF7DDF7DDF7D",
"5 	c #DF7DDB6CDF7D",
"6 	c #D75CDB6CD75C",
"7 	c #71C679E779E7",
"8 	c #492451445144",
"9 	c #AEBAAAAAA699",
"0 	c #A699AEBAAEBA",
"q 	c #A699AAAAA699",
"w 	c #A699A699A699",
"e 	c #9E79A289A699",
"r 	c #9E79A699A699",
"t 	c #A699AAAAAEBA",
"y 	c #9E799E799E79",
"u 	c #96589E799E79",
"i 	c #96589A699E79",
"p 	c #965896589658",
"a 	c #8E3896589658",
"s 	c #8E3892488E38",
"d 	c #86178E388E38",
"f 	c #79E786178617",
"g 	c #79E782078617",
"h 	c #86178A288617",
"j 	c #8E388E388E38",
"k 	c #96589A699658",
"l 	c #514459655965",
"z 	c #49244D344924",
"x 	c #8E3892489658",
"c 	c #965892489658",
"v 	c #9E79A2899E79",
"b 	c #4103410338E3",
"n 	c #492449244924",
"m 	c #861786178617",
"M 	c #86178A288E38",
"N 	c #38E33CF338E3",
"B 	c #410345144103",
"V 	c #965892488E38",
"C 	c #8E388A288617",
"Z 	c #79E77DF779E7",
"A 	c #AEBAB2CAAEBA",
"S 	c #71C67DF779E7",
"D 	c #41033CF338E3",
"F 	c #8617820779E7",
"G 	c #410341034103",
"H 	c #AEBAB6DAB6DA",
"J 	c #71C675D671C6",
"K 	c #79E779E779E7",
"L 	c #69A675D671C6",
"P 	c #69A671C671C6",
"I 	c #79E7820779E7",
"U 	c #AEBAB2CAB6DA",
"Y 	c #EFBEEBADDF7D",
"T 	c #E79DE79DDF7D",
"R 	c #E79DE38DD75C",
"E 	c #DF7DDB6CD75C",
"W 	c #DF7DDB6CCF3C",
"Q 	c #D75CCF3CC71B",
"! 	c #CF3CCF3CC71B",
"~ 	c #CF3CCB2BBEFB",
"^ 	c #CF3CC71BBEFB",
"/ 	c #C71BC71BBEFB",
"( 	c #C71BC30BBEFB",
") 	c #C71BBEFBB6DA",
"_ 	c #BEFBBAEAB6DA",
"` 	c #BEFBB6DAAEBA",
"' 	c #B6DAAEBAA699",
"] 	c #9E799A699658",
"[ 	c #8E388E388617",
"{ 	c #38E338E338E3",
"} 	c #DF7DD75CCF3C",
"| 	c #D75CD34CC71B",
" .	c #CF3CD34CCF3C",
"..	c #BEFBBAEAAEBA",
"X.	c #BEFBB2CAAEBA",
"o.	c #AEBAAEBAA699",
"O.	c #AEBAA699A699",
"+.	c #A6999E799658",
"@.	c #618561856185",
"#.	c #B6DAB2CAB6DA",
"$.	c #79E775D671C6",
"%.	c #71C66DB669A6",
"&.	c #69A66DB669A6",
"*.	c #69A669A669A6",
"=.	c #596561856185",
"-.	c #61855D755965",
";.	c #596559655965",
":.	c #59655D755965",
">.	c #514455555144",
",.	c #514451445144",
"<.	c #492445144103",
"1.	c #492441034103",
"2.	c #96588A288E38",
"3.	c #B6DAB2CAAEBA",
"4.	c #9E799A699E79",
"5.	c #8E388A288E38",
"6.	c #861782078617",
"7.	c #71C671C671C6",
"8.	c #71C671C669A6",
"9.	c #492445144924",
"0.	c #410338E338E3",
"q.	c #410334D338E3",
"w.	c #A6999A699658",
"e.	c #30C234D330C2",
"r.	c #618569A669A6",
"t.	c #618565956185",
"y.	c #514459655144",
"u.	c #9E7996589658",
"i.	c #28A224922081",
"p.	c #69A669A65965",
"a.	c #596555555144",
"s.	c #410338E34103",
"d.	c #30C230C230C2",
"f.	c #208120812081",
"g.	c #69A665956185",
"h.	c #492449244103",
"j.	c #38E334D330C2",
"k.	c #30C230C228A2",
"l.	c #965896588E38",
"z.	c #20811C711861",
"x.	c #492455555144",
"c.	c #618569A66185",
"v.	c #79E779E771C6",
"b.	c #492451444924",
"n.	c #41033CF34103",
"m.	c #30C22CB228A2",
"M.	c #28A22CB228A2",
"N.	c #186118611861",
"B.	c #596565956185",
"V.	c #28A228A228A2",
"C.	c #104014511040",
"Z.	c #596561855965",
"A.	c #E79DDF7DD75C",
"S.	c #618565955965",
"D.	c #8E3886178617",
"F.	c #186114511040",
"G.	c #CF3CCB2BCF3C",
"H.	c #8617861779E7",
"J.	c #28A220812081",
"K.	c #8E3882078617",
"L.	c #61856DB669A6",
"P.	c #51445D755965",
"I.	c #86177DF779E7",
"U.	c #71C679E771C6",
"Y.	c #28A2249228A2",
"T.	c #208118611861",
"R.	c #861779E779E7",
"E.	c #20811C712081",
"W.	c #79E77DF771C6",
"Q.	c #51444D344924",
"!.	c #186110401040",
"~.	c #BEFBC30BBEFB",
"^.	c #10400C300820",
"/.	c #79E771C671C6",
"(.	c #96588E388E38",
").	c #9E799E799658",
"_.	c #86177DF78617",
"`.	c #104008200820",
"'.	c #C71BC30BB6DA",
"].	c #104010401040",
"[.	c #B6DAAEBAAEBA",
"{.	c #AEBAA2899E79",
"}.	c #A6999E799E79",
"|.	c #9E799A698E38",
" X	c #9E7992488E38",
".X	c #AEBA79E769A6",
"XX	c #A6998A288617",
"oX	c #9E7996588E38",
"OX	c #A6996DB669A6",
"+X	c #9E7979E769A6",
"@X	c #96588E388617",
"#X	c #9E797DF769A6",
"$X	c #8E3896585965",
"%X	c #9658BAEA2081",
"&X	c #8E389A6938E3",
"*X	c #71C669A669A6",
"=X	c #208124922081",
"-X	c #514469A66185",
";X	c #8E3886176185",
":X	c #410351445144",
">X	c #082008200820",
",X	c #208120811861",
"<X	c #79E779E769A6",
"1X	c #596559655144",
"2X	c #514455554924",
"3X	c #082004100000",
"4X	c #69A661855965",
"5X	c #86178E388617",
"6X	c #79E771C669A6",
"7X	c #8E38861779E7",
"8X	c #861779E771C6",
"9X	c #71C669A66185",
"0X	c #69A671C669A6",
"  . X X X X X X o o O O X X X X + @ X X @ X X X X + + # + X O $ % $ $ $ O X + + & & & X $ o * * ",
"o = - ; : : ; > : , , ; ; ; , , , < 1 , < 1 , 2 3 2 2 4 5 5 1 < 1 , 6 < 5 5 5 2 2 3 2 < < O 7 8 ",
"o 2 & * 9 0 * q w e r e r w t t t q t t 0 * 0 y u i p a s d f g h h j s k y e r y i j d a k l z ",
"$ < w x a p a x s s d s s p p p a p i i i p c a p x j j d h g f h s s x p u v i s d d s e d b n ",
"$ < 0 x s p p a x s s j x x x x s s x a x s d j s j j d h m g g M j j a i i p d f M x k e h N B ",
"$ , * a s c p V p x j j d x d M j M j C M m m d j M m m m g Z g m M d x p i j f h a k i u f N n ",
"% < A p s a a s x j h m h C M m M h m f f f m M d h f g f S S g g m M x x M g g s i i k y m D z ",
"$ 1 * u x s j M M M g g F m h f f g S 7 Z g m M m Z S Z 7 7 7 Z g g m M M g 7 m j a p p y d G z ",
"H 1 t u x M M m m Z J 7 S Z Z K J J L P J 7 7 Z Z J J L P L J J J 7 Z I Z L L f m d x k e s G n ",
"U , t y j g g g 1 Y Y Y Y Y T T R R 2 2 E W 5 1 ; Q ! ~ Q ^ / ( ) @ _ ` ' ] [ K 7 g d y * d { G ",
"$ , w i j g Z 1 Y Y = Y Y - T T R 2 3 E } 1 W | ;  .~ ~ ^ / ( ) @ _ ..X.o.O.+.F @.J C v t f { B ",
"H , w a M g g Y Y #.$.$.K $.K $.J J %.&.&.*.=.@.-.;.:.;.;.>.,.z z <.1.1.D K +.2.n @.g V i Z { z ",
"3., w x j f I Y Y K j # 4.p 5.6.m j 6.7.8.8.&.&.@.@.:.,.z z n 1.n 9.1.D 0.q.w.c e.z P g h J e.n ",
"$ ; e M M m K Y = 5.$ - $ w 6.Z K K J J r.t.t.=.y.;.;.,.z z n n 9.1.G D { e.] u.i.B =.K m L e.<.",
"H , v h m h Z Y Y K w & p m c c &.Z p p p P 6.j 7 p.5.m y @.:.[ ;.a.s.s.d.d.u.V f.D :.7 m P e.B ",
"$ ; e M d M K Y - 7 w O J J 6.r.&.g.t.t.@.:.:.;.>.>.8 ,.n h.9.9.G G 0.j.j.k.l.5.z.{ x.&.g c.e.n ",
"$ : v j x j Z T T J 4.c m 6.Z j 5.p J c 8.;.v.>.b.K z =.:.1.1.G n.n.j.j.m.M.V 5.N.m.n @.J c.j.z ",
"$ : y x x x K R R K 5.j 7.&.&.g.B.B.-.y.:.;.>.>.,.,.z n 1.9.G 0.s.j.j.d.m.V.V 5.C.V.B Z.L P { 8 ",
"$ : y j x j K R A.m p c 4.j 7 p 7.L 6.r.S 7 S.,.8.&.:.:.;.&.v.t.,.,.e.m.m.i.2.D.C.V.G =.g S N b.",
"U ! v a a j 7 R 3 %.m K *.r.t.t.@.:.:.;.>.>.,.z z n 1.9.G s.s.j.j.k.m.k.V.i.[ D.F.V.B t.Z 7 N n ",
"* G.e p k j 7.2 2 7.J &.$.t.t.@.:.:.;.b.,.,.h.z n 9.9.D D n.{ { e.m.m.V.i.i.5.m F.V.<.=.K L { n ",
"* > e p p m P E 2 K D.*.m 8.c P p.[ *.p.H.J @.6.:.;.g.>.p.b.=.d.=.d.V.i.i.J.5.K.C.M.B =.7 &.e.B ",
"U > w a a g r.E 6 L.L t.B.-.;.P.;.8 >.,.n z n 1.9.b G s.q.j.e.m.m.V.i.i.J.z.D.I.F.M.<.@.7 P j.B ",
"$ : y p j Z &.1 1 *.%.t.@.P.:.&.g.p.,.z @.n 1.9.n.n.s.{ { e.m.d.M.V.V.J.z.z.6.I.F.V.B =.U.P { <.",
"@ : p x M Z L 1 | t.L.@.6.&.Z c.*.$.L @.:.&.&.y.g.c.@.-.h.n m.V.Y.Y.i.z.z.T.H.R.F.M.<.@.7 &.e.<.",
"+ , u x m g 7.| Q t.-.-.:.y.b.>.,.z n n <.9.G n.n.{ { e.d.m.M.V.V.J.E.z.T.F.6.Z F.V.h.=.J P { B ",
"+ ; i s f g 7 | ! @.P.:.a.>.>.z z z 9.<.9.n.0.s.j.j.k.m.d.V.i.Y.Y.z.z.T.F.F.W.v.N.V.<.@.7 L.{ B ",
"# < p j g f J Q ~ :.:.a.>.>.Q.,.z n 9.<.n.D n.{ { e.d.d.V.V.V.i.z.z.E.F.F.!.K $.F.M.<.=.J P e.n ",
"~., a j m g 7 ! ~ :.y.>.>.8 z n h.<.1.1.s.s.j.j.d.m.m.M.i.i.J.f.f.T.N.F.!.^.K /.C.M.<.t.7 P j.n ",
"# , x d m m K ~ ^ a.>.x.z ,.z n 1.9.G D n.{ { e.k.k.M.i.V.Y.f.z.T.F.F.!.^.^././.!.V.B @.J P { B ",
"& 1 x d M m Z ~   >.,.5.c c 6.(.v.4.2.v.p J 6.).8.&.[ g.J 2.m U.m _.%.R.,.`././.!.V.G @.7 &.{ n ",
"# , j M h m K / '.(.,.z n <.<.<.G s.0.j.j.k.m.m.V.i.V.i.Y.z.z.F.F.!.^.^.`.y.$.8.].i.b =.7 L { b.",
"& 1 s d M m K ' '.o ` ..X.[.[.' o.O.O.O.{.}.}.}.|.c  Xu.(.2.(.2.C m 6.K $./.8.t.].i.G :.Z 7 { z ",
"/ < V j j h Z p.u.[.' O.q O.{.+.+..XXXoX2.OX+Xs @XOX#XD.2.F &.F $X%X&X/.%.*X:.a.].=XD =.7 L { n ",
"/ < x s j M g &.y.-X;X).).] |.u.p V V s 5.[ 2.5.6.F I.I.R._.R.K 8.8.g.*.;.:X:X>X].=XN l P r.k.G ",
"& 5 p j j M g 7 =.b.N V.,XN.G b z %.%.z :.$.<X1Xg.$.7.2X;.:.n Q.3X3X>X>X^.>X^.].N.V.N >.c.t.d.B ",
"& 5 u p j d m I &.:.8 D d.V.Q.n :.:.b.,.:.:.>.:.p.4X>.1Xg.*.1X:.3X^.].].F.C.C.N.f.d.B :.L P { n ",
"& < i a s j M f 7 &.:.I.H.(.2.5X5.[ H.K.6.6.I.W.v.v.$.$.v.6X8.*.g.:.:.>.z.f.f.V.e.B >.L.Z U.e.h.",
"& < i p x j C d f 7 c.5X[ |. Xl.V  X[ [ [ C 7XH.D.6.K.v.W.8X<X8.9X*.a.1XV.m.e.{ B >.g.J M S { n ",
"# 4 i a s j j j M Z U.c.>.B j.V.z.N.C.].].].].^.^.].C.F.F.].C.N.N.,Xi.m.j.D B z >.c.L f j Z { n ",
"# 5 i p a x j j s m Z J :.z G { m.V.V.i.i.i.i.i.f.i.i.V.V.i.V.V.m.d.{ G h.b.l =.*.J g j a g { z ",
"& < p p p a s x x x j g P =.>.z z h.<.b B G N G G G B <.h.h.B h.h.z b.>.:.t.&.J Z m M x i g { n ",
"& 5 i k i p s p u u p j I J 0Xc.t.t.t.t.S.r.:.=.@.t.=.@.g.t.t.g.t.r.&.&.J 7 g h M s x p i f N z ",
"& 4 u i p x x u r e y a d f Z 7 S S Z Z g m m Z Z Z S S f f g g f g F m m j j x p k u y y f N z ",
"& E i p a a i e t w e p s h h f h h j x x i k x h M M M p p s j p a p a p k i i ] y v y y g { z ",
"G.> k s s p y t w v i x d M h m M x a p k i y k j s s s g g 7 S S Z Z S S Z S g f f g g S 0XN n ",
"+ y l k.d.e.{ N { e.V.i.=X=Xi.=XV.i.V.V.V.V.V.V.i.i.i.V.e.{ j.j.{ { e.e.e.{ { { { j.e.j.e.M.V.n ",
"f >.z B n z b.8 b.z >.x.x.8 x.x.>.y.l l P.P.P.>.y.>.y.l P.:.P.l l l l >.l l l l l l l P.l >.<.:."};
