/* XPM */
static char * UNIX_small_xpm[] = {
"16 16 59 1",
" 	c None",
".	c #618561856185",
"X	c #69A66DB669A6",
"o	c #69A669A669A6",
"O	c #B6DAAEBAB6DA",
"+	c #861786178617",
"@	c #965892489658",
"#	c #79E779E779E7",
"$	c #618565956185",
"%	c #514455555144",
"&	c #38E338E338E3",
"*	c #BEFBBAEABEFB",
"=	c #DF7DDB6CDF7D",
"-	c #CF3CCB2BCF3C",
";	c #492449244924",
":	c #49244D344924",
">	c #D75CD75CD75C",
",	c #EFBEEFBEEFBE",
"<	c #71C671C671C6",
"1	c #CF3CCF3CCF3C",
"2	c #492471C64924",
"3	c #49245D754924",
"4	c #E79DE38DE79D",
"5	c #DF7DDF7DDF7D",
"6	c #4924AAAA4924",
"7	c #492486174924",
"8	c #861782078617",
"9	c #E79DE79DE79D",
"0	c #D75CD34CD75C",
"q	c #8E388A288E38",
"w	c #AEBAAEBAAEBA",
"e	c #596559655965",
"r	c #C71BC71BC71B",
"t	c #EFBEEBADEFBE",
"y	c #9E799E799E79",
"u	c #DF7DD75CDF7D",
"i	c #38E33CF338E3",
"p	c #B6DAB6DAB6DA",
"a	c #492496584924",
"s	c #8E388E388E38",
"d	c #AEBAAAAAAEBA",
"f	c #965896589658",
"g	c #79E77DF779E7",
"h	c #71C675D671C6",
"j	c #B6DAB2CAB6DA",
"k	c #30C230C230C2",
"l	c #59655D755965",
"z	c #9E799A699E79",
"x	c #A699A699A699",
"c	c #28A22CB228A2",
"v	c #186118611861",
"b	c #208120812081",
"n	c #28A228A228A2",
"m	c #410345144103",
"M	c #BEFBBEFBBEFB",
"N	c #C71BC30BC71B",
"B	c #410341034103",
"V	c #514451445144",
"C	c #18611C711861",
"                ",
"      .Xoo      ",
"  O+@#$%&&*=    ",
"  -;:::::%>,<   ",
"  1:223::o4=#   ",
" :5:67762890qw  ",
" er373:73qtwyu  ",
" ip26a772s9@dy  ",
" 8d3723::f>gy$  ",
" hr<XX<$Xjr8yk  ",
" l<gqzyy@zxh;&  ",
"  :8#o.cvbni;   ",
"  mp1Mpdfx0NsB  ",
"   %#h.g@pjlV   ",
"       nCm      ",
"                "};
